<?xml version="1.0" encoding="UTF-8"?>
<svg width="127px" height="118px" viewBox="0 0 127 118" version="1.1" xmlns="http://www.w3.org/2000/svg" xmlns:xlink="http://www.w3.org/1999/xlink">
    <!-- Generator: Sketch 47.1 (45422) - http://www.bohemiancoding.com/sketch -->
    <title>Group</title>
    <desc>Created with Sketch.</desc>
    <defs></defs>
    <g id="Process" stroke="none" stroke-width="1" fill="none" fill-rule="evenodd">
        <g id="Press" transform="translate(-1009.000000, -846.000000)">
            <g id="Group" transform="translate(1009.000000, 846.000000)">
                <path d="M126.446489,107.798546 L122.813369,99.717266 C120.964985,95.0309299 106.602425,58.7083692 100.620952,46.2972969 C95.3989363,35.4612967 87.3355121,33.8433127 82.993912,33.8433127 C81.527704,33.8433127 80.442808,34.0218727 79.930168,34.1267047 C76.5844719,27.8002086 76.4283759,21.8976484 79.487512,16.9996323 C80.532088,17.2323363 82.008952,16.9881123 84.6254321,15.8436003 C87.5834801,14.5496163 89.7236082,15.1233123 90.9856242,17.5494243 C91.0599282,17.6922724 91.1497842,17.8644964 91.3254642,17.8644964 C91.3554162,17.8644964 91.3876722,17.8596004 91.4228082,17.8486564 C91.6664562,17.7732004 91.6359282,17.5278243 91.6180722,17.3815203 C90.9406962,11.8867682 88.4541042,7.31419215 86.2690481,5.1827041 C84.5470961,2.76753605 80.65132,0.194832004 74.8584879,0.194832004 C72.1613678,0.194832004 69.2997998,0.754416015 66.3535597,1.85832004 C56.9883755,5.36731211 49.1979754,14.7149283 45.5144553,26.8633445 L45.4758633,26.9909285 L45.4796073,26.9966885 C44.9773353,28.7195046 44.5726953,30.4872486 44.2616553,32.2619046 C42.9475113,32.1317286 41.7292712,32.0830566 40.6541672,32.0830566 L40.5029672,32.0833446 C29.540247,32.1265446 21.0422308,36.9894247 15.9014307,46.1556009 C15.6635427,46.1604969 15.2505507,46.1651049 14.5357347,46.1651049 C12.5306786,46.1651049 9.51215059,46.1299689 9.48191059,46.1296809 L8.76507857,46.1213289 L8.76507857,49.722769 L3.76424647,49.722769 L6.35653453,69.0392174 L0.0922464018,69.0409454 L0.0922464018,88.0123697 L0.0453024009,88.0837938 L9.63138259,93.4405939 L10.4052386,99.206354 L41.1558632,117.896402 L69.2943278,101.075474 L86.4522161,109.31717 L86.4522161,106.308146 L80.820664,102.440018 L82.757176,101.483858 L82.757176,99.774578 L78.09244,100.318034 L72.2175278,96.9392179 L72.6829358,93.4711219 L75.3308079,91.9913778 L93.4517683,100.210034 L94.5827443,104.51189 L96.4279603,104.540402 L96.3522163,101.69381 L111.539609,107.422994 L111.539609,104.854322 C118.073465,107.57189 122.100281,108.10181 124.226585,108.10181 C125.483705,108.10181 126.079577,107.91893 126.142361,107.898194 L126.446489,107.798546 Z M75.9557679,91.6423218 L82.323736,88.0837938 L82.318552,88.0760177 L82.323736,88.0760177 L82.323736,87.2843057 L110.963609,104.61125 L110.963609,106.590386 L95.7537523,100.852274 L95.8361203,103.955186 L95.0285683,103.942802 L93.9390643,99.79877 L75.9557679,91.6423218 Z M78.612856,69.0184814 L75.9646959,69.0190574 L76.3180719,66.3873133 C77.0268399,67.2516013 77.7926319,68.1291374 78.612856,69.0184814 L78.612856,69.0184814 Z M76.4309679,65.5440493 L77.4749679,57.7666091 L77.4749679,66.8046253 C77.1146799,66.3815533 76.7670639,65.9616493 76.4309679,65.5440493 L76.4309679,65.5440493 Z M69.8870318,100.720946 L71.8687598,99.536402 L72.1345838,97.5561139 L77.9703279,100.912178 L82.181176,100.421426 L82.181176,101.125874 L79.684792,102.358514 L85.8762161,106.61141 L85.8762161,108.40133 L69.8870318,100.720946 Z M7.08373454,88.0619057 L10.3389986,88.0619057 L10.3341026,88.0244657 L11.7818786,88.0253297 L13.0450467,97.3697779 L41.1573032,114.721778 L69.2329838,97.8397939 L70.5491438,88.0676657 L71.6075438,88.0682417 L71.6075438,88.0616177 L75.0799599,88.0616177 L75.0549039,88.3925298 L71.8874798,88.7467698 L70.5554798,98.670674 L41.1619112,116.24213 L11.7193826,98.346962 L10.4334626,88.7640498 L7.10879054,88.3922418 L7.08373454,88.0619057 Z M11.9584226,52.817617 L11.9584226,49.475377 C12.7003107,49.479697 14.7105507,49.490641 16.1519907,49.490641 C17.8586788,49.490641 17.8586788,49.490641 17.9591908,49.372561 L17.9931748,49.323601 C24.5690789,37.2725287 33.5054311,35.5759207 40.5565352,35.4443047 C40.7949992,35.4399847 41.0320232,35.4376807 41.2704872,35.4376807 C51.7139434,35.4376807 59.2589676,39.9535208 64.3372717,49.243825 L64.3741357,49.296529 C64.4723437,49.407697 64.4737837,49.409425 70.3602158,49.470769 L70.3602158,52.817617 L74.7159279,52.817617 L72.5334638,69.0202094 L9.79611859,69.0380654 L7.60299855,52.817617 L11.9584226,52.817617 Z M69.9679598,88.0670897 L68.6990318,97.4887219 L41.1610472,114.04757 L13.5792867,97.0227379 L12.3630626,88.0256177 L69.9679598,88.0670897 Z M65.3631277,47.1771369 L65.4097837,47.2517289 C65.6272237,47.5538409 65.6272237,47.5538409 67.7687917,47.5538409 C69.1932398,47.5538409 71.1139118,47.5500969 72.1365998,47.5477929 L72.1365998,51.139729 L76.9349679,51.139729 L74.5350639,69.0196334 L73.1146479,69.0199214 L75.3745839,52.241617 L70.9362158,52.241617 L70.9362158,48.900529 L70.6510958,48.897649 C68.5535918,48.875761 65.4777517,48.840625 64.7637997,48.824209 C59.5763436,39.4296488 51.8896234,34.8616807 41.2704872,34.8616807 C41.0282792,34.8616807 40.7877992,34.8639847 40.5458792,34.8683047 C33.3666151,35.0025127 24.2753189,36.7238887 17.5646307,48.906865 C17.3918307,48.910609 17.0067747,48.914641 16.1519907,48.914641 C14.3545827,48.914641 11.6724386,48.897649 11.6724386,48.897649 L11.3824226,48.895921 L11.3824226,52.241617 L6.94405454,52.241617 L9.21493458,69.0383534 L7.78616655,69.0386414 L5.38367051,51.139729 L10.1820386,51.139729 L10.1820386,47.5541289 C11.2064546,47.5644969 13.1210787,47.5820649 14.5357347,47.5820649 C16.7354787,47.5820649 16.7354787,47.5820649 16.9555107,47.1771369 C21.8820388,38.1440168 29.806647,33.5423527 40.5087272,33.5003047 L40.6541672,33.5000167 C47.0955753,33.5000167 58.8713196,35.2766887 65.3631277,47.1771369 L65.3631277,47.1771369 Z M75.7282479,49.722769 L75.7282479,37.7615528 C76.3411119,37.1714407 76.9364079,36.6714727 77.4749679,36.2584807 L77.4749679,49.722769 L75.7282479,49.722769 Z M73.6932399,49.722769 L73.6932399,40.0468328 C74.2623279,39.2965928 74.8556079,38.6281448 75.4402479,38.0429288 L75.4402479,49.722769 L73.6932399,49.722769 Z M72.8433518,46.1293929 C72.8433518,46.1293929 72.3618158,46.1305449 71.6582318,46.1319849 L71.6582318,43.4420649 C72.1656878,42.3269288 72.7655918,41.3287208 73.4052399,40.4385128 L73.4052399,46.1279529 L72.8433518,46.1293929 Z M70.4261678,46.1342889 C70.4284718,46.1342889 70.4304878,46.1337129 70.4327918,46.1334249 C70.5203438,46.1282409 70.6078958,46.1262249 70.6954478,46.1325609 C70.8835118,45.4235049 71.1116078,44.7501609 71.3702318,44.1116649 L71.3702318,46.1325609 C71.0790638,46.1334249 70.7599598,46.1337129 70.4261678,46.1342889 L70.4261678,46.1342889 Z M47.0091753,27.4237925 C46.5377193,27.1671845 46.2255273,26.9796965 46.1074473,26.9076965 L46.1045673,26.9028005 C46.3821993,25.9953125 46.6860393,25.1059685 47.0091753,24.2316005 L47.0091753,27.4237925 Z M49.0447594,28.4384166 C48.3581674,28.1244966 47.7669033,27.8275686 47.2971753,27.5784485 L47.2971753,23.4672485 C47.8273834,22.1032804 48.4102954,20.7819364 49.0447594,19.5112804 L49.0447594,28.4384166 Z M51.0797674,29.2894566 C50.4516394,29.0509926 49.8655594,28.8064806 49.3327594,28.5688806 L49.3327594,18.9514084 C49.8811114,17.8904164 50.4634474,16.8645603 51.0797674,15.8778723 L51.0797674,29.2894566 Z M53.1141995,29.9841126 C52.5047914,29.7997926 51.9215914,29.6010726 51.3677674,29.3965926 L51.3677674,15.4251363 C51.9250474,14.5576803 52.5076714,13.7207523 53.1141995,12.9175203 L53.1141995,29.9841126 Z M55.1500715,30.5166246 C54.5504555,30.3844326 53.9666795,30.2335206 53.4021995,30.0690726 L53.4021995,12.5425442 C53.9655275,11.8153442 54.5484395,11.1166562 55.1500715,10.4479202 L55.1500715,30.5166246 Z M57.1845035,30.8757606 C56.5920875,30.7985766 56.0085995,30.6986406 55.4380715,30.5796966 L55.4380715,10.1308322 C56.0048555,9.51537619 56.5871915,8.92641618 57.1845035,8.36539217 L57.1845035,30.8757606 Z M59.2203756,31.0379046 C58.6322796,31.0214886 58.0487916,30.9771366 57.4725035,30.9100326 L57.4725035,8.09928016 C58.0430316,7.57569615 58.6250796,7.07457614 59.2203756,6.60254413 L59.2203756,31.0379046 Z M61.2550956,30.9731046 C60.7551276,31.0180326 60.2468076,31.0465446 59.7246636,31.0465446 L59.7235116,31.0465446 C59.6517996,31.0465446 59.5800876,31.0436646 59.5083756,31.0428006 L59.5083756,6.38107213 C60.0803436,5.93899212 60.6626796,5.52139211 61.2550956,5.1285601 L61.2550956,30.9731046 Z M63.2906797,30.6563046 C62.7241836,30.7864806 62.1421356,30.8846886 61.5430956,30.9492006 L61.5430956,4.9361761 C62.1167916,4.56580809 62.6997036,4.21992008 63.2906797,3.89736008 L63.2906797,30.6563046 Z M65.3256877,30.0157926 C64.7620717,30.2424486 64.1803117,30.4325286 63.5786797,30.5843046 L63.5786797,3.74529607 C64.1535277,3.44059207 64.7361517,3.15921606 65.3256877,2.90145606 L65.3256877,30.0157926 Z M67.3606957,28.9899366 C66.8022637,29.3378406 66.2181997,29.6367846 65.6136877,29.8965606 L65.6136877,2.77473606 C65.9261677,2.64283205 66.2397997,2.51611205 66.5557357,2.39774405 C66.8250157,2.29665605 67.0928557,2.20536004 67.3606957,2.11348804 L67.3606957,28.9899366 Z M69.3959918,27.4327205 C68.8430318,27.9430566 68.2589678,28.3946406 67.6486957,28.7972646 L67.6486957,2.01268804 C68.2359278,1.81857604 68.8176878,1.65268803 69.3959918,1.50379203 L69.3959918,27.4327205 Z M71.4309998,25.1284325 C70.8869678,25.8732005 70.3043438,26.5474085 69.6839918,27.1524965 L69.6839918,1.42747203 C70.2720878,1.28347203 70.8538478,1.16740802 71.4309998,1.07092802 L71.4309998,25.1284325 Z M73.4660079,22.0934884 C72.9692078,22.8612965 72.4240238,23.6887205 71.8221038,24.5806565 C71.7886958,24.6301925 71.7526958,24.6756965 71.7189998,24.7249445 L71.7189998,1.02110402 C72.3082478,0.930096018 72.8900078,0.867600017 73.4660079,0.826704016 L73.4660079,22.0934884 Z M75.5010159,18.8552164 C75.0177519,19.6495204 74.4382959,20.5820644 73.7540079,21.6473764 L73.7540079,0.804816016 C74.1249519,0.783792016 74.4935919,0.770832015 74.8584879,0.770832015 C75.0770799,0.770832015 75.2884719,0.780048015 75.5010159,0.787248016 L75.5010159,18.8552164 Z M77.5360239,15.4942563 C77.4366639,15.5846883 77.2955439,15.8260323 76.8949359,16.5120483 C76.6288239,16.9676643 76.2613359,17.5957923 75.7890159,18.3797284 L75.7890159,0.794736016 C76.3958319,0.825264016 76.9773039,0.886608018 77.5360239,0.972144019 L77.5360239,15.4942563 Z M79.571896,15.0360483 C79.099864,15.2143203 78.523576,15.3387363 77.8240239,15.4170723 L77.8240239,1.02024002 C78.437176,1.12536002 79.019224,1.26216003 79.571896,1.42430403 L79.571896,15.0360483 Z M81.606904,7.75224015 C81.429208,8.35185617 81.377656,9.04161618 81.462328,9.8226722 C81.699928,12.0108962 81.511288,13.3506723 80.850616,14.1662883 C80.602072,14.4735843 80.27404,14.7175203 79.859896,14.9124963 L79.859896,1.51128003 C80.482552,1.70769603 81.065752,1.93550404 81.606904,2.18980804 L81.606904,7.75224015 Z M83.6413361,5.53435211 C83.1502961,5.73854411 82.663864,6.04180812 82.271608,6.49886413 C82.126168,6.66849613 82.003192,6.85540814 81.894904,7.05326414 L81.894904,2.33150405 C82.539448,2.65377605 83.1220721,3.01089606 83.6413361,3.38961607 L83.6413361,5.53435211 Z M85.5006641,5.1233761 C85.1029361,5.1513121 84.5254961,5.2210081 83.9293361,5.42433611 L83.9293361,3.60504007 C84.5540081,4.09204808 85.0810481,4.60728009 85.5006641,5.1233761 L85.5006641,5.1233761 Z M78.51724,15.9032163 C79.846072,15.6774243 80.720728,15.2419683 81.298456,14.5288803 C82.073464,13.5715683 82.293784,12.1453922 82.034872,9.76046419 C81.900664,8.52264017 82.12732,7.55150415 82.708792,6.87412814 C83.6491121,5.77828811 85.3074161,5.70484811 85.8523121,5.68065611 C85.8868721,5.67921611 85.9153841,5.67691211 85.9459121,5.67489611 C87.8855921,7.61428815 90.0510642,11.5305122 90.8764722,16.3058403 C89.0646642,13.9730403 86.4087281,14.4347043 84.3944561,15.3159843 C80.580472,16.9843683 79.42444,16.6145763 78.51724,15.9032163 L78.51724,15.9032163 Z M79.37692,34.3118887 C78.258904,34.9198567 72.0234158,38.6120168 70.0978478,46.1348649 C69.3133358,46.1363049 68.4798638,46.1368809 67.7687917,46.1368809 C67.0767277,46.1368809 66.6579757,46.1363049 66.4051117,46.1348649 C60.7896876,36.1663207 51.6448234,33.1106407 44.8350633,32.3235366 C45.1230633,30.6928806 45.4928553,29.0694246 45.9438633,27.4813925 C47.1047913,28.1723046 53.2288235,31.6222566 59.7235116,31.6225446 L59.7246636,31.6225446 C65.0601517,31.6225446 69.2914478,29.3614566 72.2996078,24.9029285 C74.9915439,20.9129764 76.6129839,18.1366564 77.3920239,16.8026403 C77.5665519,16.5036963 77.7240879,16.2341283 77.8234479,16.0731363 C78.173656,16.3743843 78.519832,16.6338723 78.925336,16.8138723 C75.8405679,21.8507044 75.9992559,27.8759526 79.37692,34.3118887 L79.37692,34.3118887 Z M79.511128,69.0181934 L79.454392,69.0181934 C78.863992,68.3866094 78.298072,67.7607853 77.7629679,67.1415853 L77.7629679,55.6207211 L78.55468,49.722769 L77.7629679,49.722769 L77.7629679,36.0416167 C78.537112,35.4693607 79.165528,35.0903527 79.511128,34.8956647 L79.511128,69.0181934 Z M81.545848,69.0176174 L79.799128,69.0179054 L79.799128,34.7456167 C79.968184,34.7050087 80.5966,34.5653287 81.545848,34.4820967 L81.545848,69.0176174 Z M83.5802801,73.1221935 C83.1488561,72.7210094 82.733272,72.3232814 82.323736,71.9264174 L82.323736,69.0173294 L81.833848,69.0176174 L81.833848,34.4596327 C82.186072,34.4354407 82.57372,34.4193127 82.993912,34.4193127 C83.1816881,34.4193127 83.3786801,34.4239207 83.5802801,34.4308327 L83.5802801,73.1221935 Z M85.6161521,74.9596335 C85.0176881,74.4323055 84.4330481,73.9072815 83.8682801,73.3868655 L83.8682801,34.4423527 C84.4108721,34.4702887 84.9969521,34.5267367 85.6161521,34.6223527 L85.6161521,74.9596335 Z M87.6505841,76.7152815 C87.0518321,76.2112815 86.4729521,75.7113135 85.9041521,75.2133615 L85.9041521,34.6701607 C86.4637361,34.7663527 87.0478001,34.8953767 87.6505841,35.0652967 L87.6505841,76.7152815 Z M89.6861682,78.3902896 C89.0914482,77.9096175 88.5070962,77.4309615 87.9385841,76.9554735 L87.9385841,35.1493927 C88.5082482,35.3210407 89.0926002,35.5307047 89.6861682,35.7835687 L89.6861682,78.3902896 Z M91.7211762,80.0036656 C91.1270322,79.5408496 90.5446962,79.0800496 89.9741682,78.6215536 L89.9741682,35.9082727 C90.5507442,36.1663207 91.1345202,36.4669927 91.7211762,36.8154727 L91.7211762,80.0036656 Z M93.7561843,81.5646256 C93.1626163,81.1173616 92.5811442,80.6724016 92.0091762,80.2288816 L92.0091762,36.9923047 C92.5918002,37.3540327 93.1758643,37.7644328 93.7561843,38.2292648 L93.7561843,81.5646256 Z M95.7914803,83.0748977 C95.1993523,82.6423216 94.6164403,82.2111856 94.0441843,81.7820656 L94.0441843,38.4631208 C94.6331443,38.9541608 95.2172083,39.5019368 95.7914803,40.1139368 L95.7914803,83.0748977 Z M97.8264883,84.5411057 C97.6919923,84.4454897 97.5577843,84.3507377 97.4232883,84.2548337 C96.9682483,83.9296817 96.5235763,83.6065457 96.0794803,83.2831217 L96.0794803,40.4298728 C96.6759283,41.0916968 97.2599923,41.8252328 97.8264883,42.6353768 L97.8264883,84.5411057 Z M99.8617844,85.9681457 C99.2806004,85.5660977 98.6979764,85.1582897 98.1144883,84.7452977 L98.1144883,43.0506729 C98.7224564,43.9590249 99.3065204,44.9655849 99.8617844,46.0692009 L99.8617844,85.9681457 Z M101.896792,87.3594737 C101.317048,86.9680817 100.734712,86.5706417 100.149784,86.1671537 L100.149784,46.6466409 C100.673656,47.7370089 101.260024,49.005361 101.896792,50.419729 L101.896792,87.3594737 Z M103.9318,88.7182578 C103.353784,88.3366578 102.771448,87.9484337 102.184792,87.5535857 L102.184792,51.061969 C102.736024,52.294897 103.320952,53.6271851 103.9318,55.0360811 L103.9318,88.7182578 Z M105.966809,90.0462258 C105.390808,89.6744178 104.808184,89.2948338 104.2198,88.9077618 L104.2198,55.7019371 C104.78428,57.0088811 105.368344,58.3757292 105.966809,59.7880812 L105.966809,90.0462258 Z M108.001817,91.3462578 C107.427545,90.9833778 106.845209,90.6121458 106.254809,90.2322738 L106.254809,60.4686252 C106.827353,61.8233772 107.411417,63.2147053 108.001817,64.6299373 L108.001817,91.3462578 Z M110.037689,92.6200818 C109.465721,92.2658418 108.882809,91.9023858 108.289817,91.5282738 L108.289817,65.3211373 C108.869273,66.7127533 109.453337,68.1233774 110.037689,69.5406254 L110.037689,92.6200818 Z M112.072409,93.8676979 C111.504473,93.5229619 110.921561,93.1664179 110.325689,92.7986418 L110.325689,70.2398894 C110.910617,71.6608814 111.494681,73.0853295 112.072409,74.5002735 L112.072409,93.8676979 Z M114.107129,95.0899699 C113.543513,94.7547379 112.960889,94.4053939 112.360409,94.0419379 L112.360409,75.2061615 C112.951673,76.6556655 113.536025,78.0927856 114.107129,79.5019696 L114.107129,95.0899699 Z M116.142713,96.2892019 C115.585433,95.9643379 115.002809,95.6219059 114.395129,95.2613299 L114.395129,80.2130416 C114.995321,81.6959536 115.580249,83.1448817 116.142713,84.5425457 L116.142713,96.2892019 Z M118.177145,97.4628019 C117.632825,97.1523379 117.049049,96.8159539 116.430713,96.4565299 L116.430713,85.2582257 C117.044441,86.7846257 117.629369,88.2442098 118.177145,89.6127858 L118.177145,97.4628019 Z M120.212441,98.611922 C119.694905,98.323058 119.108825,97.9932979 118.465145,97.6269619 L118.465145,90.3333618 C119.109977,91.9467378 119.697785,93.4218739 120.212441,94.7167219 L120.212441,98.611922 Z M121.919993,99.13493 L122.168537,99.68789 C121.768217,99.471026 121.201145,99.161138 120.500441,98.771762 L120.500441,95.4413299 C121.120505,97.0017139 121.617593,98.258258 121.957433,99.118226 L121.919993,99.13493 Z M125.643833,107.41781 C124.493273,107.60645 120.158009,107.898194 111.250169,104.110994 L111.250169,104.111282 L82.323736,86.6112497 L82.323736,72.7728494 C86.3154161,76.5574575 91.2393522,80.5456816 97.0935283,84.7271537 C109.439225,93.5454259 121.660505,100.074674 122.556185,100.549874 L125.643833,107.41781 Z M18.4453348,56.6033771 C17.6467108,57.4708331 17.6092707,58.6380972 18.3615268,59.3307372 C19.7519908,60.6106092 21.5790628,58.3449132 22.3892068,59.0905452 C22.7592869,59.4312492 22.6498469,59.9081772 22.3327588,60.2523372 C21.7455268,60.8905452 20.8152868,60.9409452 20.8152868,60.9409452 L21.0229348,61.9570092 C21.0229348,61.9570092 22.1521828,61.9716972 23.0801189,60.9636972 C23.9493029,60.0202092 23.8482149,58.9137132 23.1273509,58.2501612 C21.6795748,56.9172971 19.9164388,59.2296492 19.1126308,58.4900652 C18.7935268,58.1963052 18.8462308,57.6908651 19.1987428,57.3084011 C19.7211748,56.7404651 20.5160548,56.6710571 20.5160548,56.6710571 L20.1750628,55.6973291 C20.1750628,55.6973291 19.2675748,55.7102891 18.4453348,56.6033771 L18.4453348,56.6033771 Z M21.4678948,53.8837931 L25.3005989,58.6985772 L26.1752549,58.0024812 L22.3431268,53.1874091 L21.4678948,53.8837931 Z M25.6767269,52.080625 L28.266711,56.5803371 L29.235831,56.0227691 L26.6455589,51.522769 L28.396023,50.515345 L27.916215,49.681585 L23.4467429,52.254577 L23.9268389,53.0880491 L25.6767269,52.080625 Z M32.7396391,47.940913 L29.261751,49.154257 L31.289559,54.9646571 L34.8979111,53.7055211 L34.5808231,52.796881 L32.027703,53.6876651 L31.482519,52.125265 L33.4383271,51.442417 L33.1212391,50.534065 L31.165719,51.216625 L30.634647,49.694545 L33.0567271,48.849265 L32.7396391,47.940913 Z M34.3420711,61.3303212 L33.4679911,62.1779052 L34.6709671,62.3553132 L35.2072231,63.4476973 L35.7489511,62.3584812 L36.9513511,62.1876972 L36.0853351,61.3355052 L36.2926951,60.1380012 L35.2152871,60.7010412 L34.1413351,60.1316652 L34.3420711,61.3303212 Z M39.7265192,50.121649 L37.4654311,50.351761 L37.5083431,50.773681 L38.3936552,50.683537 L38.6254952,52.9596011 L39.1153832,52.9097771 L38.8838312,50.633425 L39.7691432,50.543569 L39.7265192,50.121649 Z M39.7089512,60.2892012 L38.8357352,61.1344812 L40.0384232,61.3139052 L40.5738152,62.4054252 L41.1166952,61.3167852 L42.3190952,61.1436972 L41.4504872,60.2935212 L41.6587112,59.0942892 L40.5807272,59.6584812 L39.5053352,59.0899692 L39.7089512,60.2892012 Z M41.9755112,52.835761 L42.4674152,52.843249 L42.5085992,50.133457 L42.0161192,50.125969 L41.9991272,51.274801 L40.7584232,51.256081 L40.7757032,50.107249 L40.2835112,50.099761 L40.2426152,52.809841 L40.7350952,52.817329 L40.7517992,51.679729 L41.9925032,51.698449 L41.9755112,52.835761 Z M42.2099432,49.102129 L42.7001192,49.146193 L42.7977513,48.054961 L43.6911273,48.135025 L43.7288553,47.7133929 L42.8354793,47.6333289 L42.9037353,46.8689769 L43.9644393,46.9643049 L44.0024553,46.5423849 L42.4512872,46.4032809 L42.2099432,49.102129 Z M43.3829673,50.219857 L43.0298793,52.9063211 L44.6982633,53.1257771 L44.7535593,52.705585 L43.5730473,52.550353 L43.6680873,51.827761 L44.5724073,51.946705 L44.6274153,51.526801 L43.7233833,51.407857 L43.8158313,50.704273 L44.9358633,50.851441 L44.9908713,50.431537 L43.3829673,50.219857 Z M45.0717993,61.3343532 L44.2023273,62.1859692 L45.4053033,62.3584812 L45.9476073,63.4476973 L46.4821353,62.3547372 L47.6868393,62.1776172 L46.8121833,61.3303212 L47.0146473,60.1305132 L45.9381033,60.7004652 L44.8621353,60.1368492 L45.0717993,61.3343532 Z M50.3591914,48.219697 L48.0307114,53.9174891 L49.9726954,54.7112171 C51.7306474,55.4292011 53.3111915,54.8388011 54.0455915,53.0411051 C54.7799915,51.243409 54.0588395,49.731409 52.3011754,49.013137 L50.3591914,48.219697 Z M49.4301034,53.4497771 L51.0305194,49.533265 L51.8809834,49.880881 C53.0205995,50.346865 53.4963755,51.337009 52.9782635,52.604785 C52.4535274,53.8892651 51.4365994,54.2697131 50.2805674,53.7971051 L49.4301034,53.4497771 Z M58.5481836,52.367185 L53.1585515,56.0429291 L54.0870635,56.7254891 L55.4403755,55.7624171 L57.1796075,57.0402731 L56.6643755,58.6196652 L57.5931755,59.3022252 L59.4910956,53.0601131 L58.5481836,52.367185 Z M58.3989996,53.5805291 C58.3989996,53.5805291 58.1444076,54.1461611 58.0297836,54.4923371 L57.4943915,56.1425771 L56.1955115,55.1881451 L57.6110315,54.1844651 C57.9137196,53.9771051 58.3851756,53.5701611 58.3851756,53.5701611 L58.3989996,53.5805291 Z M60.5958636,58.8039852 L58.7019756,60.5466732 L59.4591276,61.3694892 L61.3527276,59.6265132 L65.3717677,58.7080812 L64.5146797,57.7769771 L62.5364076,58.3020012 C62.1208236,58.4134572 61.6787436,58.5851052 61.6787436,58.5851052 L61.6666476,58.5721452 C61.6545516,58.5718572 61.8742956,58.1456172 62.0200236,57.7406891 L62.7017196,55.8061931 L61.8449196,54.8756651 L60.5958636,58.8039852 Z M41.4640232,47.6635689 C41.4317672,46.8891369 40.8036392,46.3076649 40.0064552,46.3404969 C39.2089832,46.3736169 38.6312552,47.0054889 38.6635112,47.7799209 C38.6966312,48.577393 39.3253352,49.174417 40.1228072,49.141009 C40.9199912,49.107889 41.4968552,48.461041 41.4640232,47.6635689 L41.4640232,47.6635689 Z M40.9562792,47.6848809 C40.9796072,48.241585 40.6000232,48.670417 40.1037992,48.690865 C39.6081512,48.711313 39.1940072,48.315889 39.1709672,47.7586089 C39.1487912,47.2246569 39.5289512,46.8113769 40.0251752,46.7909289 C40.5208232,46.7701929 40.9343912,47.1506409 40.9562792,47.6848809 L40.9562792,47.6848809 Z" id="Fill-20" fill="#191919"></path>
                <path d="M46.3754601,75.0948207 L43.8998121,82.0494448 L45.2044521,82.0552048 L45.7994601,80.2724848 L48.2402602,80.2799728 L48.8246122,82.0675888 L50.1289642,82.0716208 L47.7008361,75.0994287 L46.3754601,75.0948207 Z M46.1058921,79.2437488 L46.7305641,77.3835567 C46.8682281,76.9921647 47.0295081,76.3041327 47.0295081,76.3041327 L47.0465001,76.3047087 C47.0465001,76.3047087 47.1899241,76.9892847 47.3175081,77.3847087 L47.9306602,79.2512368 L46.1058921,79.2437488 Z" id="Fill-3168" fill="#FFFFFF"></path>
                <path d="M55.6221035,79.1510128 L55.6221035,79.1325808 C56.3576555,78.8353648 56.8029035,78.0664048 56.8040555,77.2312047 C56.8083755,76.3104687 56.3680235,75.6394287 55.6713515,75.3237807 C55.3689515,75.1852527 55.0262315,75.1256367 54.2728235,75.1224687 L52.0235434,75.1161327 L52.0013674,82.0817008 L53.2682795,82.0865968 L53.2754795,79.4885488 L54.4922795,79.4920048 L55.8680555,82.0952368 L57.2766635,82.0989808 L55.8562475,79.4945968 C55.7185835,79.2512368 55.6221035,79.1510128 55.6221035,79.1510128 M54.4162475,78.3892528 L53.2789355,78.3860848 L53.2869995,76.2096687 L54.2471915,76.2108207 C55.2370475,76.2148527 55.5215915,76.6269807 55.5178475,77.2954287 C55.5178475,77.9923887 55.0913195,78.3927088 54.4162475,78.3892528" id="Fill-3170" fill="#FFFFFF"></path>
                <path d="M61.8338028,75.1482735 L59.4603948,75.1399215 L59.4356268,82.1011696 L61.8127788,82.1121136 C63.9598189,82.1181616 65.3669869,80.8305136 65.3724589,78.6301936 C65.3793709,76.4359215 63.9842989,75.1554735 61.8338028,75.1482735 M61.7485548,81.0240496 L60.7054188,81.0197296 L60.7215468,76.2323055 L61.7641068,76.2348975 C63.1537069,76.2400815 64.0735789,77.0770095 64.0689709,78.6267376 C64.0626349,80.1995056 63.1614829,81.0280816 61.7485548,81.0240496" id="Fill-3172" fill="#FFFFFF"></path>
                <path d="M68.379035,77.0523279 C68.382203,76.5635919 68.844443,76.2208719 69.429947,76.2220239 C70.305179,76.2266319 70.968443,76.8363279 70.968443,76.8363279 L71.524571,75.8052879 C71.524571,75.8052879 70.819547,75.0605199 69.446363,75.0559119 C68.112059,75.0498639 67.1103949,75.9086799 67.1049229,77.0681679 C67.0982989,79.205128 70.385243,79.00036 70.381211,80.246248 C70.379483,80.816488 69.896507,81.087208 69.366587,81.08548 C68.387099,81.0826 67.6345549,80.344168 67.6345549,80.344168 L66.9442189,81.297448 C66.9442189,81.297448 67.7897869,82.251016 69.344411,82.257064 C70.794203,82.259368 71.640059,81.332296 71.644091,80.22436 C71.649563,77.9972559 68.375867,78.289288 68.379035,77.0523279" id="Fill-3174" fill="#FFFFFF"></path>
                <path d="M34.1090215,75.0559983 L32.9446375,79.8704944 C32.8539175,80.2618864 32.8248295,80.6034544 32.8248295,80.6034544 L32.8058215,80.6034544 C32.7954535,80.6060464 32.7873895,80.2702384 32.6811174,79.8681904 L31.4620134,75.0470703 L30.3627174,75.0424623 L29.0906214,79.8586864 C28.9811814,80.2569904 28.9708134,80.5922224 28.9590054,80.5922224 L28.9402854,80.5922224 C28.9402854,80.5922224 28.9126374,80.2483504 28.8299814,79.8581104 L28.0172454,76.2463023 L27.3905573,78.8743024 L28.1629734,82.0005424 L29.6225574,82.0063024 L30.7080294,77.8893423 C30.8246694,77.4391983 30.8865894,76.9786863 30.8865894,76.9786863 L30.9035814,76.9786863 C30.9035814,76.9786863 30.9617574,77.4386223 31.0792614,77.8910703 L32.1376614,82.0123504 L33.5972455,82.0181104 L35.4162535,75.0606063 L34.1090215,75.0559983 Z" id="Fill-3176" fill="#FFFFFF"></path>
                <path d="M40.8038984,79.8974512 C40.7128904,80.2888432 40.6840904,80.6304112 40.6840904,80.6304112 L40.6604744,80.6286832 C40.6532744,80.6286832 40.6440584,80.2969072 40.5412424,79.8945712 L39.3172424,75.0728751 L38.2193864,75.0688431 L36.9467143,79.8827632 C36.8387143,80.2850992 36.8312263,80.6191792 36.8168263,80.6162992 L36.8001223,80.6191792 C36.8001223,80.6191792 36.7684423,80.2732912 36.6857863,79.8827632 L35.8707463,76.2562671 L35.2403143,78.8839792 L36.0193543,82.0277872 L37.4818183,82.0303792 L38.5615304,77.9162991 C38.6830664,77.4647151 38.7423944,77.0056431 38.7423944,77.0056431 L38.7628424,77.0033391 C38.7628424,77.0033391 38.8204424,77.4652911 38.9373704,77.9162991 L39.9928904,82.0390192 L41.4530504,82.0456432 L43.2726345,75.0852591 L41.9648264,75.0812271 L40.8038984,79.8974512 Z" id="Fill-3178" fill="#FFFFFF"></path>
                <path d="M14.1577059,74.9896431 L11.6788898,81.9448432 L12.9878499,81.9482992 L13.5811299,80.1670192 L16.0236579,80.1736432 L16.6054179,81.9606832 L17.90833,81.9658672 L15.4825059,74.9936751 L14.1577059,74.9896431 Z M13.8881379,79.1379952 L14.5148259,77.2766511 C14.6510499,76.8852591 14.8097379,76.1978031 14.8097379,76.1978031 L14.8310499,76.1978031 C14.8310499,76.1978031 14.9744739,76.8852591 15.0997539,77.2801071 L15.7103139,79.1426032 L13.8881379,79.1379952 Z" id="Fill-3180" fill="#FFFFFF"></path>
                <path d="M26.2514597,75.0290127 L25.0841957,79.8423568 C24.9980837,80.2320208 24.9655397,80.5776208 24.9655397,80.5776208 L24.9476837,80.5753168 C24.9384677,80.5776208 24.9295397,80.2444048 24.8209637,79.8423568 L23.5998437,75.0218127 L22.5016996,75.0177807 L21.2316196,79.8322768 C21.1233316,80.2314448 21.1126756,80.5652368 21.1046116,80.5652368 L21.0827236,80.5652368 C21.0827236,80.5652368 21.0544996,80.2225168 20.9683876,79.8322768 L19.8852196,75.0082767 L18.5805796,75.0053967 L20.3025316,81.9735568 L21.7638436,81.9781648 L22.8455717,77.8635087 C22.9659557,77.4139407 23.0281637,76.9517007 23.0281637,76.9517007 L23.0451557,76.9522767 C23.0451557,76.9522767 23.1039077,77.4139407 23.2208357,77.8635087 L24.2737637,81.9859408 L25.7350757,81.9905488 L27.5555237,75.0353487 L26.2514597,75.0290127 Z" id="Fill-3182" fill="#FFFFFF"></path>
                <text id="" font-family="LucidaGrande, Lucida Grande" font-size="6.62400013" font-weight="normal" fill="#191919">
                    <tspan x="33.5577719" y="97.8135921">2017</tspan>
                </text>
            </g>
        </g>
    </g>
</svg>