<?xml version="1.0" encoding="UTF-8"?>
<svg width="103px" height="106px" viewBox="0 0 103 106" version="1.1" xmlns="http://www.w3.org/2000/svg" xmlns:xlink="http://www.w3.org/1999/xlink">
    <!-- Generator: Sketch 47.1 (45422) - http://www.bohemiancoding.com/sketch -->
    <title>Group</title>
    <desc>Created with Sketch.</desc>
    <defs></defs>
    <g id="Process" stroke="none" stroke-width="1" fill="none" fill-rule="evenodd">
        <g id="Press" transform="translate(-1346.000000, -861.000000)">
            <g id="Group" transform="translate(1346.000000, 861.000000)">
                <g id="Group-3434" transform="translate(0.000000, 0.154000)">
                    <path d="M101.046512,39.9750682 L101.046512,32.0939081 L101.646552,32.0939081 C101.858232,32.0939081 102.105752,31.9578281 102.105752,31.5750681 L102.105752,25.0278281 C102.105752,24.6447881 101.858232,24.5089881 101.646552,24.5089881 L101.046512,24.5089881 L101.046512,6.49434803 C101.046512,2.92714801 98.1429124,0.0255080001 94.5740324,0.0255080001 L55.5067522,0.0255080001 C51.9375922,0.0255080001 49.0339922,2.92714801 49.0339922,6.49434803 L49.0339922,16.4657081 C45.0910322,15.7449881 41.6879122,14.0462281 40.4987522,12.1805881 C40.3702322,11.9789881 40.1495922,11.8697881 39.9079522,11.8619481 C39.6688322,11.8655881 39.4487522,11.9927081 39.3266722,12.1979481 C38.2405522,14.0185081 35.1569121,15.6063881 31.2797521,16.3419481 C27.1959521,17.1164281 21.6060321,16.9963081 18.1639921,14.3351881 C17.9637921,14.1803481 17.6947121,14.1481481 17.4642721,14.2500681 C17.2332721,14.3522681 17.0764721,14.5726281 17.0560321,14.8246281 L16.0791121,26.8741481 C15.4250321,26.5143481 14.5435921,26.1027481 13.7374721,25.9697481 C10.147592,25.3781081 6.73635203,27.6200681 5.98315203,31.0791881 C5.95991203,31.1861481 5.93919203,31.2945081 5.92155203,31.4006281 C5.90951203,31.4711881 5.85547202,31.8822281 5.84343202,32.1468281 C5.82691202,32.5063481 6.46811203,39.2109482 7.26779203,47.3684682 L0.0955920004,47.3684682 L0.0902720004,65.8171083 L9.61923204,71.0707483 C9.85219204,73.3986683 10.038672,75.2606683 10.153192,76.4025083 C10.174752,76.6186683 10.297112,76.8118683 10.483032,76.9238683 L39.6629522,94.5008684 C39.7724322,94.5663884 39.8953522,94.5994284 40.0182722,94.5994284 C40.1409122,94.5994284 40.2632722,94.5669484 40.3724722,94.5017084 L49.0339922,89.3124684 L49.0339922,98.4466284 C49.0339922,102.013548 51.9375922,104.915468 55.5067522,104.915468 L94.5740324,104.915468 C98.1429124,104.915468 101.046512,102.013548 101.046512,98.4466284 L101.046512,54.4603082 L101.646552,54.4603082 C101.858232,54.4603082 102.105752,54.3247882 102.105752,53.9417482 L102.105752,40.4939082 C102.105752,40.1108682 101.858232,39.9750682 101.646552,39.9750682 L101.046512,39.9750682 Z M101.046512,40.4790682 L101.601192,40.4790682 C101.601472,40.4835482 101.601472,40.4883082 101.601472,40.4939082 L101.601472,53.9417482 C101.601472,53.9470682 101.601472,53.9518282 101.601192,53.9565882 L101.046512,53.9565882 L101.046512,40.4790682 Z M95.3322724,93.8092684 L97.0688324,93.8092684 L97.0688324,103.796028 C96.5287124,104.048588 95.9457524,104.222188 95.3322724,104.301148 L95.3322724,93.8092684 Z M70.3428323,4.11742802 C70.1879923,4.11742802 70.0622723,3.99170802 70.0622723,3.83686802 C70.0622723,3.68230802 70.1879923,3.55630802 70.3428323,3.55630802 L79.7376723,3.55630802 C79.8925123,3.55630802 80.0187923,3.68230802 80.0187923,3.83686802 C80.0187923,3.99170802 79.8925123,4.11742802 79.7376723,4.11742802 L70.3428323,4.11742802 Z M71.1296323,10.079748 L72.8659123,10.079748 L72.8659123,4.67742802 L71.1296323,4.67742802 L71.1296323,10.079748 Z M73.1459123,10.079748 L74.8833123,10.079748 L74.8833123,4.67742802 L73.1459123,4.67742802 L73.1459123,10.079748 Z M75.1633123,10.079748 L76.8998723,10.079748 L76.8998723,4.67742802 L75.1633123,4.67742802 L75.1633123,10.079748 Z M77.1798723,10.079748 L78.9169923,10.079748 L78.9169923,4.67742802 L77.1798723,4.67742802 L77.1798723,10.079748 Z M98.9479124,10.639748 L98.9479124,93.2492684 L51.1325922,93.2492684 L51.1325922,88.0552684 L69.6834323,76.9415083 C69.8699123,76.8295083 69.9925523,76.6363083 70.0143923,76.4198683 C70.1272323,75.3023883 70.3095123,73.4947083 70.5365923,71.2362283 L80.0831923,65.9050283 L80.0372723,65.8353083 L80.0425923,47.3681882 L72.9182723,47.3681882 C73.7218723,39.2199082 74.3658723,32.5256681 74.3496323,32.1664281 C74.3375923,31.8998681 74.2835523,31.4899481 74.2720723,31.4227481 C74.2541523,31.3138281 74.2339923,31.2054681 74.2104723,31.0976681 C73.4589523,27.6391081 70.0533123,25.3923881 66.4589523,25.9848681 C65.6265123,26.1215081 64.8310323,26.4031881 64.1089123,26.8125481 C63.8431923,23.5547481 63.1213523,14.6902281 63.1126723,14.5815881 C63.0919523,14.3276281 62.9329123,14.1061481 62.6991123,14.0050681 C62.4655923,13.9042681 62.1953923,13.9403881 61.9963123,14.0991481 C59.3637523,16.2030681 55.4711922,17.1374281 51.1325922,16.7518681 L51.1325922,10.639748 L98.9479124,10.639748 Z M93.3145924,93.8092684 L95.0522724,93.8092684 L95.0522724,104.331108 C94.8940724,104.343988 94.7353124,104.355468 94.5740324,104.355468 L93.3145924,104.355468 L93.3145924,93.8092684 Z M91.2983124,104.355468 L93.0345924,104.355468 L93.0345924,93.8092684 L91.2983124,93.8092684 L91.2983124,104.355468 Z M89.2814724,104.355468 L91.0183124,104.355468 L91.0183124,93.8092684 L89.2814724,93.8092684 L89.2814724,104.355468 Z M87.2646324,104.355468 L89.0014724,104.355468 L89.0014724,93.8092684 L87.2646324,93.8092684 L87.2646324,104.355468 Z M85.2475124,104.355468 L86.9843524,104.355468 L86.9843524,93.8092684 L85.2475124,93.8092684 L85.2475124,104.355468 Z M83.2303924,104.355468 L84.9675124,104.355468 L84.9675124,93.8092684 L83.2303924,93.8092684 L83.2303924,104.355468 Z M81.2138323,104.355468 L82.9503924,104.355468 L82.9503924,93.8092684 L81.2138323,93.8092684 L81.2138323,104.355468 Z M79.1972723,104.355468 L80.9341123,104.355468 L80.9341123,93.8092684 L79.1972723,93.8092684 L79.1972723,104.355468 Z M77.1798723,104.355468 L78.9169923,104.355468 L78.9169923,93.8092684 L77.1798723,93.8092684 L77.1798723,104.355468 Z M75.1630323,104.355468 L76.8998723,104.355468 L76.8998723,93.8092684 L75.1630323,93.8092684 L75.1630323,104.355468 Z M73.1456323,104.355468 L74.8830323,104.355468 L74.8830323,93.8092684 L73.1456323,93.8092684 L73.1456323,104.355468 Z M71.1296323,104.355468 L72.8659123,104.355468 L72.8659123,93.8092684 L71.1296323,93.8092684 L71.1296323,104.355468 Z M69.1122323,104.355468 L70.8493523,104.355468 L70.8493523,93.8092684 L69.1122323,93.8092684 L69.1122323,104.355468 Z M67.0956723,104.355468 L68.8322323,104.355468 L68.8322323,93.8092684 L67.0956723,93.8092684 L67.0956723,104.355468 Z M65.0793923,104.355468 L66.8159523,104.355468 L66.8159523,93.8092684 L65.0793923,93.8092684 L65.0793923,104.355468 Z M63.0617123,104.355468 L64.7993923,104.355468 L64.7993923,93.8092684 L63.0617123,93.8092684 L63.0617123,104.355468 Z M61.0448723,104.355468 L62.7814323,104.355468 L62.7814323,93.8092684 L61.0448723,93.8092684 L61.0448723,104.355468 Z M59.0283123,104.355468 L60.7648723,104.355468 L60.7648723,93.8092684 L59.0283123,93.8092684 L59.0283123,104.355468 Z M57.0117522,104.355468 L58.7483123,104.355468 L58.7483123,93.8092684 L57.0117522,93.8092684 L57.0117522,104.355468 Z M54.9940722,93.8092684 L56.7317522,93.8092684 L56.7317522,104.355468 L55.5067522,104.355468 C55.3337122,104.355468 55.1631922,104.343988 54.9940722,104.329428 L54.9940722,93.8092684 Z M52.8643922,93.8092684 L54.7140722,93.8092684 L54.7140722,104.295828 C54.0569122,104.207348 53.4347522,104.011348 52.8643922,103.724908 L52.8643922,93.8092684 Z M50.9685122,93.8092684 L52.5843922,93.8092684 L52.5843922,103.576508 C51.9686722,103.224828 51.4204322,102.768708 50.9685122,102.227748 L50.9685122,93.8092684 Z M49.5939922,88.9770284 L50.5725922,88.3907084 L50.5725922,93.8092684 L50.6885122,93.8092684 L50.6885122,101.859268 C50.0019522,100.894108 49.5939922,99.7181084 49.5939922,98.4466284 L49.5939922,88.9770284 Z M12.1260721,65.8294283 C12.4424721,69.0057483 12.7499121,72.0823883 13.0315921,74.8907883 L13.0453121,75.0305083 L39.8469122,91.1750284 L39.9911122,91.2618284 L67.0629123,75.0422683 L67.0771923,74.9025483 C67.3767923,71.9297883 67.6817123,68.8968283 67.9838323,65.8854283 L73.0406323,65.9086683 L73.0165523,66.2301083 L69.6184723,66.5862683 C69.6184723,66.5862683 68.9179123,73.5652683 68.6787923,75.9374283 L40.0193922,93.1073084 L11.489352,75.9217483 C11.260592,73.6422683 10.552752,66.5927083 10.552752,66.5927083 L6.95727203,66.1573083 L6.93319203,65.8361483 L12.1260721,65.8294283 Z M10.861032,47.3684682 C10.075352,39.3624282 9.46691204,33.0400281 9.38151204,31.8169881 C9.38879204,31.7444681 9.39719204,31.6739081 9.39831204,31.6627081 C9.40475204,31.6240681 9.41203204,31.5859881 9.42043204,31.5481881 C9.70491204,30.2408681 11.043592,29.4033881 12.4679521,29.6374681 C12.7269521,29.6803081 13.5630321,30.0826681 14.1322721,30.4735481 C15.1775121,31.1970681 16.5397121,31.3087881 17.6882721,30.7641881 C18.8371121,30.2201481 19.6141121,29.0956681 19.7168721,27.8295081 L20.3936321,19.4782281 C22.8825521,20.1785081 26.8050721,20.7525081 31.8632721,19.7926681 C35.0751521,19.1833881 37.8597522,18.1025881 39.9320322,16.6622681 C42.2526722,18.2479081 45.4130322,19.4320281 48.8587122,20.0043481 C52.7294322,20.6463881 56.4797522,20.4473081 59.7327923,19.4295081 L60.3703523,27.2580281 C60.4406323,28.1134281 60.6055523,30.1165481 62.7430723,30.9016681 C63.9383923,31.3409881 65.2871523,31.1057881 66.2626723,30.2887481 C66.6566323,29.9591881 67.1421523,29.7393881 67.6657523,29.6531481 C69.0945923,29.4179481 70.4304723,30.2641081 70.7146723,31.5756281 L70.7286723,31.6431081 C70.7351123,31.6887481 70.7440723,31.7649081 70.7516323,31.8360281 C70.6653923,33.0501081 70.0757123,39.1605482 69.2653923,47.3681882 L10.861032,47.3684682 Z M67.4210323,65.8848683 C67.1256323,68.8307483 66.8274323,71.7967883 66.5342723,74.7065483 L39.9916722,90.6083084 L13.5747921,74.6956283 C13.2987121,71.9415483 12.9982721,68.9337883 12.6888721,65.8297083 L67.4210323,65.8848683 Z M49.1706322,17.8911881 C54.0510322,18.7017881 58.5856322,17.9768681 61.8381123,15.9026281 L62.7859123,27.5355081 C62.8528323,28.3556281 62.8687923,28.5505081 63.2817923,28.7022681 C63.5139123,28.7876681 63.7726323,28.7425881 63.9616323,28.5841081 C64.7324723,27.9387081 65.6732723,27.5097481 66.6826723,27.3437081 C69.5549123,26.8727481 72.2689523,28.6496281 72.8642323,31.3897081 C72.8827123,31.4745481 72.8989523,31.5605081 72.9132323,31.6470281 C72.9224723,31.7069481 72.9647523,32.0401481 72.9731523,32.2101081 C72.9681123,32.6903081 72.3364323,39.2308282 71.5331123,47.3681882 L69.8281923,47.3681882 C70.6418723,39.1249882 71.2323923,33.0055881 71.3121923,31.8505881 L71.3138723,31.8262281 L71.3110723,31.8021481 C71.3015523,31.7091881 71.2886723,31.6019481 71.2813923,31.5498681 L71.0870723,31.5641481 L71.2741123,31.5148681 L71.2615123,31.4552281 C70.9134723,29.8536281 69.2933923,28.8170681 67.5750323,29.1004281 C66.9523123,29.2029081 66.3741123,29.4652681 65.9034323,29.8595081 C65.0802323,30.5480281 63.9434323,30.7459881 62.9359923,30.3761081 C61.1344723,29.7141881 61.0003523,28.0865481 60.9283923,27.2112681 L60.2334323,18.6754681 L59.8946323,18.7885881 C56.6505522,19.8724681 52.8657922,20.1015081 48.9505522,19.4519081 C45.5048722,18.8798681 42.3587922,17.6862281 40.0916322,16.0913481 L39.9289522,15.9768281 L39.7673922,16.0927481 C37.7449522,17.5434281 34.9757521,18.6326281 31.7585521,19.2427481 C26.5819121,20.2249881 22.6280321,19.5683881 20.2228321,18.8451481 L19.8913121,18.7457481 L19.1582721,27.7838681 C19.0723121,28.8517881 18.4171121,29.7998681 17.4488721,30.2582281 C16.4811921,30.7163081 15.3320721,30.6230681 14.4500721,30.0123881 C13.8928721,29.6301881 12.9657921,29.1522281 12.5592321,29.0850281 C10.840592,28.7983081 9.22135204,29.8298281 8.87331204,31.4280681 C8.86295204,31.4753881 8.85343204,31.5241081 8.84363204,31.5868281 C8.84083204,31.6097881 8.83019204,31.7002281 8.82151204,31.7845081 L8.81955204,31.8077481 L8.82095204,31.8312681 C8.90019204,32.9955081 9.50947204,39.3293882 10.298232,47.3684682 L8.65239204,47.3684682 C7.85299203,39.2260682 7.22411203,32.6824681 7.21935203,32.2101081 C7.22803203,32.0219481 7.27031203,31.6884681 7.28011203,31.6279881 C7.29411203,31.5414681 7.31063203,31.4555081 7.32883203,31.3717881 C7.92607203,28.6308681 10.642352,26.8570681 13.5131921,27.3285881 C14.7029121,27.5251481 16.2681121,28.5983881 16.2840721,28.6095881 C16.4862321,28.7495881 16.7480321,28.7705881 16.9706321,28.6653081 C17.1929521,28.5597481 17.3421921,28.3435881 17.3620721,28.0983081 L18.3333921,16.1137481 C22.1349521,18.3851081 27.5294321,18.4556681 31.5362321,17.6951881 C35.3193122,16.9775481 38.3629122,15.5137081 39.9339922,13.6948281 C41.6856722,15.6240281 45.1669122,17.2261881 49.1706322,17.8911881 L49.1706322,17.8911881 Z M50.6885122,10.079748 L50.5725922,10.079748 L50.5725922,16.6936281 C50.2486322,16.6563881 49.9224322,16.6127081 49.5939922,16.5611881 L49.5939922,6.49434803 C49.5939922,5.22258802 50.0019522,4.04658802 50.6885122,3.08170801 L50.6885122,10.079748 Z M52.5843922,10.079748 L50.9685122,10.079748 L50.9685122,2.71294801 C51.4204322,2.17226801 51.9686722,1.71586801 52.5843922,1.36418801 L52.5843922,10.079748 Z M54.7140722,10.079748 L52.8643922,10.079748 L52.8643922,1.21578801 C53.4347522,0.929348004 54.0569122,0.733348003 54.7140722,0.644868003 L54.7140722,10.079748 Z M56.7317522,10.079748 L54.9940722,10.079748 L54.9940722,0.611268003 C55.1631922,0.596708003 55.3337122,0.585508002 55.5067522,0.585508002 L56.7317522,0.585508002 L56.7317522,10.079748 Z M57.0117522,10.079748 L58.7483123,10.079748 L58.7483123,0.585228002 L57.0117522,0.585228002 L57.0117522,10.079748 Z M59.0283123,10.079748 L60.7648723,10.079748 L60.7648723,0.585228002 L59.0283123,0.585228002 L59.0283123,10.079748 Z M61.0451523,10.079748 L62.7817123,10.079748 L62.7817123,0.585228002 L61.0451523,0.585228002 L61.0451523,10.079748 Z M63.0617123,10.079748 L64.7993923,10.079748 L64.7993923,0.585228002 L63.0617123,0.585228002 L63.0617123,10.079748 Z M65.0791123,10.079748 L66.8156723,10.079748 L66.8156723,0.585228002 L65.0791123,0.585228002 L65.0791123,10.079748 Z M67.0956723,10.079748 L68.8322323,10.079748 L68.8322323,0.585228002 L67.0956723,0.585228002 L67.0956723,10.079748 Z M70.8496323,2.99630801 L70.3428323,2.99630801 C69.8794323,2.99630801 69.5022723,3.37346801 69.5022723,3.83686802 C69.5022723,4.30054802 69.8794323,4.67742802 70.3428323,4.67742802 L70.8496323,4.67742802 L70.8496323,10.079748 L69.1122323,10.079748 L69.1122323,0.585508002 L70.8496323,0.585508002 L70.8496323,2.99630801 Z M71.1293523,2.99630801 L72.8656323,2.99630801 L72.8656323,0.585228002 L71.1293523,0.585228002 L71.1293523,2.99630801 Z M73.1456323,2.99630801 L74.8830323,2.99630801 L74.8830323,0.585228002 L73.1456323,0.585228002 L73.1456323,2.99630801 Z M75.1630323,2.99630801 L76.8998723,2.99630801 L76.8998723,0.585228002 L75.1630323,0.585228002 L75.1630323,2.99630801 Z M77.1801523,2.99630801 L78.9172723,2.99630801 L78.9172723,0.585228002 L77.1801523,0.585228002 L77.1801523,2.99630801 Z M80.9338323,10.079748 L79.1969923,10.079748 L79.1969923,4.67742802 L79.7376723,4.67742802 C80.2013523,4.67742802 80.5787923,4.30054802 80.5787923,3.83686802 C80.5787923,3.37346801 80.2013523,2.99630801 79.7376723,2.99630801 L79.1972723,2.99630801 L79.1972723,0.585508002 L80.9338323,0.585508002 L80.9338323,10.079748 Z M81.2138323,10.079748 L82.9503924,10.079748 L82.9503924,0.585228002 L81.2138323,0.585228002 L81.2138323,10.079748 Z M83.2303924,10.079748 L84.9675124,10.079748 L84.9675124,0.585228002 L83.2303924,0.585228002 L83.2303924,10.079748 Z M85.2477924,10.079748 L86.9846324,10.079748 L86.9846324,0.585228002 L85.2477924,0.585228002 L85.2477924,10.079748 Z M87.2646324,10.079748 L89.0014724,10.079748 L89.0014724,0.585228002 L87.2646324,0.585228002 L87.2646324,10.079748 Z M89.2814724,10.079748 L91.0183124,10.079748 L91.0183124,0.585228002 L89.2814724,0.585228002 L89.2814724,10.079748 Z M91.2983124,10.079748 L93.0345924,10.079748 L93.0345924,0.585228002 L91.2983124,0.585228002 L91.2983124,10.079748 Z M95.0522724,10.079748 L93.3145924,10.079748 L93.3145924,0.585508002 L94.5740324,0.585508002 C94.7353124,0.585508002 94.8940724,0.596708003 95.0522724,0.609588003 L95.0522724,10.079748 Z M97.0688324,10.079748 L95.3322724,10.079748 L95.3322724,0.639548003 C95.9457524,0.718508003 96.5287124,0.892108004 97.0688324,1.144668 L97.0688324,10.079748 Z M98.9644324,10.079748 L97.3488324,10.079748 L97.3488324,1.27962801 C97.9603524,1.60610801 98.5043924,2.03954801 98.9644324,2.55054801 L98.9644324,10.079748 Z M98.9644324,102.390428 C98.5043924,102.901428 97.9603524,103.334588 97.3488324,103.661068 L97.3488324,93.8092684 L98.9644324,93.8092684 L98.9644324,102.390428 Z M100.486512,98.4466284 C100.486512,99.8065884 100.019752,101.057068 99.2444324,102.056668 L99.2444324,93.8092684 L99.5079124,93.8092684 L99.5079124,10.079748 L99.2444324,10.079748 L99.2444324,2.88402801 C100.019752,3.88390802 100.486512,5.13438802 100.486512,6.49434803 L100.486512,98.4466284 Z M101.046512,31.5899081 L101.046512,25.0129881 L101.601192,25.0129881 C101.601472,25.0174681 101.601472,25.0225081 101.601472,25.0278281 L101.601472,31.5750681 C101.601472,31.5803881 101.601472,31.5854281 101.601192,31.5899081 L101.046512,31.5899081 Z" id="Fill-3416" fill="#191919"></path>
                    <path d="M43.8707362,53.4702842 L41.4618962,60.2311643 L42.7302962,60.2370443 L43.3093362,58.5041242 L45.6820562,58.5119642 L46.2498962,60.2502043 L47.5180162,60.2544043 L45.1592962,53.4750442 L43.8707362,53.4702842 Z M43.6075362,57.5039642 L44.2154162,55.6957242 C44.3492562,55.3152042 44.5063362,54.6462842 44.5063362,54.6462842 L44.5228562,54.6468442 C44.5228562,54.6468442 44.6620162,55.3124042 44.7860562,55.6968442 L45.3816162,57.5115242 L43.6075362,57.5039642 Z" id="Fill-3418" fill="#FFFFFF"></path>
                    <path d="M52.8593522,57.4164082 L52.8593522,57.3984882 C53.5744722,57.1098082 54.0076322,56.3624882 54.0087522,55.5502082 C54.0135122,54.6550482 53.5853922,54.0023682 52.9083522,53.6954882 C52.6143522,53.5608082 52.2811522,53.5028482 51.5489522,53.4992082 L49.3618722,53.4927682 L49.3383522,60.2645683 L50.5700722,60.2698883 L50.5776322,57.7437282 L51.7609122,57.7473682 L53.0979122,60.2788483 L54.4671122,60.2830483 L53.0869922,57.7507282 C52.9531522,57.5138482 52.8593522,57.4164082 52.8593522,57.4164082 M51.6872722,56.6755282 L50.5815522,56.6721682 L50.5899522,54.5562082 L51.5234722,54.5576082 C52.4858322,54.5615282 52.7624722,54.9624882 52.7585522,55.6123682 C52.7582722,56.2899682 52.3435922,56.6791682 51.6872722,56.6755282" id="Fill-3420" fill="#FFFFFF"></path>
                    <path d="M58.8995963,53.5265642 L56.5921162,53.5176042 L56.5660762,60.2857643 L58.8771963,60.2969643 C60.9645963,60.3034043 62.3329563,59.0520843 62.3391163,56.9126042 C62.3461163,54.7792842 60.9903563,53.5344042 58.8995963,53.5265642 M58.8150363,59.2391243 L57.8008762,59.2343643 L57.8179562,54.5802042 L58.8315563,54.5830042 C60.1825563,54.5883242 61.0768763,55.4022842 61.0718363,56.9092442 C61.0651163,58.4380442 60.1889963,59.2433243 58.8150363,59.2391243" id="Fill-3422" fill="#FFFFFF"></path>
                    <path d="M65.2625683,55.3794922 C65.2656483,54.9043322 65.7153283,54.5714122 66.2845683,54.5725322 C67.1354883,54.5772922 67.7800483,55.1703322 67.7800483,55.1703322 L68.3210083,54.1679322 C68.3210083,54.1679322 67.6358483,53.4435722 66.3008083,53.4390922 C65.0035683,53.4326522 64.0294483,54.2673322 64.0238483,55.3946122 C64.0168483,57.4719322 67.2124883,57.2739722 67.2082883,58.4852522 C67.2063283,59.0399323 66.7364883,59.3028523 66.2215683,59.3008923 C65.2692883,59.2978123 64.5379283,58.5796122 64.5379283,58.5796122 L63.8662083,59.5064123 C63.8662083,59.5064123 64.6882883,60.4334923 66.1994483,60.4399323 C67.6089683,60.4427323 68.4318883,59.5416923 68.4358083,58.4642522 C68.4419683,56.2992922 65.2592083,56.5820922 65.2625683,55.3794922" id="Fill-3424" fill="#FFFFFF"></path>
                    <path d="M31.9450321,53.4292082 L30.8115921,58.1096882 C30.7231121,58.4902082 30.6948321,58.8220083 30.6948321,58.8220083 L30.6763521,58.8220083 C30.6665521,58.8248083 30.6587121,58.4983282 30.5553921,58.1074482 L29.3715521,53.4196882 L28.3027921,53.4149282 L27.0646321,58.0970882 C26.9582321,58.4843282 26.9481521,58.8102483 26.9366721,58.8102483 L26.9181921,58.8102483 C26.9181921,58.8102483 26.8915921,58.4759282 26.8112321,58.0962482 L26.0219121,54.5847682 L25.4120721,57.1394882 L26.1621921,60.1791683 L27.5812321,60.1850483 L28.6376721,56.1830082 C28.7510721,55.7453682 28.8115521,55.2976482 28.8115521,55.2976482 L28.8280721,55.2976482 C28.8280721,55.2976482 28.8846321,55.7448082 28.9988721,56.1846882 L30.0264721,60.1917683 L31.4455121,60.1976483 L33.2159521,53.4339682 L31.9450321,53.4292082 Z" id="Fill-3426" fill="#FFFFFF"></path>
                    <path d="M38.4525682,58.1379962 C38.3638082,58.5185162 38.3358082,58.8505963 38.3358082,58.8505963 L38.3128482,58.8489163 C38.3058482,58.8489163 38.2971682,58.5260762 38.1972082,58.1351962 L37.0086082,53.4471562 L35.9412482,53.4429562 L34.7025281,58.1225962 C34.5975281,58.5137562 34.5899681,58.8385563 34.5762481,58.8357563 L34.5597281,58.8385563 C34.5597281,58.8385563 34.5292081,58.5022762 34.4488481,58.1225962 L33.6575681,54.5968362 L33.0438081,57.1509962 L33.8003681,60.2077563 L35.2222081,60.2108363 L36.2730482,56.2113162 C36.3912082,55.7722762 36.4491682,55.3259562 36.4491682,55.3259562 L36.4690482,55.3237162 C36.4690482,55.3237162 36.5250482,55.7728362 36.6384482,56.2113162 L37.6632482,60.2197963 L39.0831282,60.2265163 L40.8541282,53.4600362 L39.5826482,53.4558362 L38.4525682,58.1379962 Z" id="Fill-3428" fill="#FFFFFF"></path>
                    <path d="M12.5479201,53.3590682 L10.136,60.1205083 L11.4086,60.1241483 L11.9859601,58.3923482 L14.3603601,58.3996282 L14.9256801,60.1373083 L16.1926801,60.1426283 L13.8359201,53.3632682 L12.5479201,53.3590682 Z M12.2847201,57.3921882 L12.8945601,55.5828282 C13.0270001,55.2023082 13.1812801,54.5339482 13.1812801,54.5339482 L13.2022801,54.5339482 C13.2022801,54.5339482 13.3414401,55.2023082 13.4632401,55.5861882 L14.0560001,57.3972282 L12.2847201,57.3921882 Z" id="Fill-3430" fill="#FFFFFF"></path>
                    <path d="M24.3057361,53.4007602 L23.1694961,58.0801202 C23.0857761,58.4589602 23.0541361,58.7946803 23.0541361,58.7946803 L23.0364961,58.7927203 C23.0278161,58.7946803 23.0191361,58.4710002 22.9135761,58.0798402 L21.7277761,53.3929202 L20.6601361,53.3887202 L19.4239361,58.0692002 C19.3186561,58.4572802 19.3082961,58.7818003 19.3001761,58.7818003 L19.2788961,58.7818003 C19.2788961,58.7818003 19.2517361,58.4486002 19.1680161,58.0692002 L18.1163361,53.3786402 L16.8479361,53.3755602 L18.5200961,60.1507203 L19.9408161,60.1557603 L20.9936161,56.1554002 C21.1106561,55.7186002 21.1714161,55.2692002 21.1714161,55.2692002 L21.1879361,55.2697602 C21.1879361,55.2697602 21.2450561,55.7186002 21.3584561,56.1556802 L22.3810161,60.1638803 L23.8017361,60.1686403 L25.5735761,53.4072002 L24.3057361,53.4007602 Z" id="Fill-3432" fill="#FFFFFF"></path>
                </g>
                <polygon id="Fill-3435" fill="#191919" points="20.0503521 38.0937202 22.7050321 37.6530002 22.8203921 38.3465602 20.9712721 38.6531602 21.1641921 39.8151602 22.6571521 39.5673602 22.7722321 40.2609202 21.2792721 40.5087202 21.4772321 41.7015202 23.4260321 41.3781202 23.5411121 42.0716802 20.7861921 42.5286402"></polygon>
                <g id="Group-3440" transform="translate(23.520000, 36.554000)" fill="#191919">
                    <path d="M1.61929601,3.00398001 L0.010696,0.973980004 L0.933856004,0.857500004 L1.68089601,1.87306001 C1.85785601,2.11218001 2.03257601,2.38378001 2.03257601,2.38378001 L2.04517601,2.38238001 C2.04517601,2.38238001 2.13477601,2.08390001 2.24593601,1.80194001 L2.72977601,0.630420003 L3.65881602,0.513100002 L2.59285601,2.88134001 L4.27257602,4.96538002 L3.36201601,5.08046002 L2.51949601,3.96858002 C2.34253601,3.72946002 2.17649601,3.47550001 2.17649601,3.47550001 L2.16389601,3.47746001 C2.16389601,3.47746001 2.07261601,3.76334002 1.95417601,4.03942002 L1.42133601,5.32546002 L0.516936002,5.43970002 L1.61929601,3.00398001 Z" id="Fill-3436"></path>
                    <path d="M6.58602003,0.170548001 C7.67718003,0.0767480003 8.29122004,0.640388003 8.29122004,0.640388003 L7.95214003,1.27962801 C7.95214003,1.27962801 7.40054003,0.850388004 6.68766003,0.911428004 C5.74126002,0.992908004 5.24706002,1.74694801 5.31846002,2.57966801 C5.39126002,3.43142801 6.02994003,4.13254802 6.96374003,4.05274802 C7.73934003,3.98610802 8.21422003,3.37346801 8.21422003,3.37346801 L8.69358004,3.92310802 C8.69358004,3.92310802 8.13778003,4.70178802 6.99594003,4.79978802 C5.62702002,4.91710802 4.59354002,3.98274802 4.48042002,2.66422801 C4.36898002,1.36474801 5.26750002,0.283668001 6.58602003,0.170548001" id="Fill-3438"></path>
                </g>
                <polygon id="Fill-3441" fill="#191919" points="32.9185921 36.5935922 35.6063122 36.4617122 35.6410322 37.1633922 33.7689521 37.2552322 33.8266321 38.4317922 35.3383522 38.3573122 35.3727922 39.0595522 33.8610721 39.1337522 33.9204321 40.3419522 35.8938722 40.2447922 35.9283122 40.9467522 33.1392321 41.0836722"></polygon>
                <polygon id="Fill-3442" fill="#191919" points="36.8139802 36.4274122 37.6307402 36.4125722 37.6990602 40.2046122 39.6428202 40.1696122 39.6554202 40.8721322 36.8951802 40.9219722"></polygon>
                <polygon id="Fill-3443" fill="#191919" points="40.4848922 36.3830882 41.3010922 36.3920482 41.2599322 40.1829682 43.2025722 40.2042482 43.1950122 40.9067682 40.4356122 40.8765282"></polygon>
                <polygon id="Fill-3444" fill="#191919" points="44.1620762 36.4442962 46.8492362 36.5574162 46.8195562 37.2590962 44.9480362 37.1804162 44.8987562 38.3564162 46.4096362 38.4199762 46.3802362 39.1219362 44.8690762 39.0583762 44.8183962 40.2660162 46.7909962 40.3488962 46.7613162 41.0505762 43.9730762 40.9335362"></polygon>
                <g id="Group-3449" transform="translate(47.600000, 36.554000)" fill="#191919">
                    <path d="M0.485912002,0.0705600003 L1.29959201,0.135800001 L2.78975201,2.85852001 C2.93927201,3.13096001 3.10615201,3.58232002 3.10615201,3.58232002 L3.11875201,3.58344002 C3.11875201,3.58344002 3.10895201,3.15084001 3.13023201,2.88596001 L3.33743201,0.298760001 L4.14495202,0.363720002 L3.78627202,4.84288002 L2.97847201,4.77820002 L1.48831201,2.06192001 C1.33851201,1.78948001 1.171632,1.33812001 1.171632,1.33812001 L1.159032,1.33700001 C1.159032,1.33700001 1.168832,1.76988001 1.147552,2.03476001 L0.940912004,4.61496002 L0.127232001,4.55000002 L0.485912002,0.0705600003 Z" id="Fill-3445"></path>
                    <path d="M7.58077603,0.684068003 C8.66773604,0.819868003 9.15045604,1.49858801 9.15045604,1.49858801 L8.68593604,2.05354801 C8.68593604,2.05354801 8.23597604,1.51874801 7.52617603,1.42998801 C6.58341603,1.31266801 5.94305603,1.94742801 5.83945602,2.77678801 C5.73361602,3.62462802 6.21213603,4.44362802 7.14229603,4.55954802 C7.91481603,4.65586802 8.50701604,4.15550802 8.50701604,4.15550802 L8.86093604,4.79306802 C8.86093604,4.79306802 8.15533603,5.43874802 7.01825603,5.29706802 C5.65493602,5.12682802 4.83873602,3.99786802 5.00253602,2.68522801 C5.16381602,1.39050801 6.26785603,0.520268002 7.58077603,0.684068003" id="Fill-3447"></path>
                </g>
                <polygon id="Fill-3450" fill="#191919" points="57.9810562 37.7029802 60.6346163 38.1473402 60.5186963 38.8403402 58.6706962 38.5309402 58.4763762 39.6921002 59.9684963 39.9418602 59.8525763 40.6345802 58.3601762 40.3848202 58.1608162 41.5773402 60.1087763 41.9032602 59.9928563 42.5962602 57.2396162 42.1356602"></polygon>
                <g id="Group-3457" transform="translate(28.280000, 28.994000)" fill="#191919">
                    <path d="M0.214088001,0.647444003 L1.084328,0.577444002 L2.13964801,2.72112401 C2.26172801,2.97816401 2.41936801,3.35924401 2.41936801,3.35924401 L2.43196801,3.35812401 C2.43196801,3.35812401 2.52016801,2.95744401 2.59996801,2.68444401 L3.29912801,0.399644002 L4.16964802,0.329644001 L4.88924802,4.77940402 L4.08172802,4.84464402 L3.69112802,2.35516401 C3.64856802,2.06004401 3.62896802,1.66160401 3.62896802,1.66160401 L3.61636802,1.66244401 C3.61636802,1.66244401 3.51892801,2.10876401 3.43240801,2.37588401 L2.84636801,4.16956402 L2.13348801,4.22668402 L1.27472801,2.54920401 C1.146768,2.29944401 0.972608004,1.86880401 0.972608004,1.86880401 L0.960008004,1.86992401 C0.960008004,1.86992401 1.004808,2.27284401 1.009848,2.57076401 L1.022168,5.09048402 L0.208208001,5.15600402 L0.214088001,0.647444003 Z" id="Fill-3451"></path>
                    <path d="M7.85694003,0.0940520004 C9.17910004,0.0503720002 10.21146,1.023092 10.25374,2.30717201 C10.29742,3.62933202 9.33198004,4.69305202 8.00982003,4.73673202 C6.68766003,4.78013202 5.65446002,3.78249202 5.61106002,2.46005201 C5.56850002,1.17625201 6.53478003,0.137452001 7.85694003,0.0940520004 M7.98518003,3.99053202 C8.80782004,3.96337202 9.44286004,3.25861201 9.41262004,2.33489201 C9.38322004,1.44953201 8.70366004,0.813092003 7.88158003,0.840252004 C7.05922003,0.867412004 6.42306003,1.54669201 6.45218003,2.43233201 C6.48270003,3.35577201 7.16282003,4.01769202 7.98518003,3.99053202" id="Fill-3453"></path>
                    <path d="M11.313204,0.0973560004 L12.9206841,0.108276 C13.7307241,0.114156 14.3038841,0.535556002 14.2985641,1.27587601 C14.2954841,1.69335601 14.0908041,2.05287601 13.7475241,2.23403601 L13.7475241,2.24691601 C14.2403241,2.39559601 14.4710441,2.85311601 14.4682441,3.30867601 C14.4618041,4.20691602 13.7377241,4.60731602 12.9086441,4.60143602 L11.282124,4.59051602 L11.313204,0.0973560004 Z M12.9766841,3.89975602 C13.3944441,3.90255602 13.6304841,3.63207602 13.6330041,3.25239601 C13.6355241,2.87915601 13.3969641,2.60531601 12.9859241,2.60223601 L12.1123241,2.59635601 L12.1033641,3.89387602 L12.9766841,3.89975602 Z M12.9078041,1.94367601 C13.2622841,1.94591601 13.4664041,1.69419601 13.4686441,1.37163601 C13.4711641,1.048516 13.2827241,0.813036003 12.9033241,0.810516003 L12.1246441,0.804916003 L12.1168041,1.93807601 L12.9078041,1.94367601 Z" id="Fill-3455"></path>
                </g>
                <polygon id="Fill-3458" fill="#191919" points="43.9061282 29.1514441 44.7220482 29.1786041 44.5728082 33.6703641 43.7566082 33.6429241"></polygon>
                <polygon id="Fill-3459" fill="#191919" points="46.1002082 29.2313561 46.9155682 29.2778361 46.6999682 33.0634361 48.6400882 33.1737561 48.6003282 33.8754361 45.8448482 33.7183561"></polygon>
                <polygon id="Fill-3460" fill="#191919" points="49.7740882 29.4617961 52.4536882 29.7020361 52.3912482 30.4017561 50.5247682 30.2345961 50.4197682 31.4072361 51.9264482 31.5424761 51.8637282 32.2424761 50.3567682 32.1072361 50.2486882 33.3112361 52.2162482 33.4876361 52.1535282 34.1879161 49.3725682 33.9381561"></polygon>
                <polygon id="Fill-3461" fill="#191919" points="40.0929762 25.1542481 39.5724562 24.0933281 38.4031762 23.9188881 39.2521362 23.0970881 39.0541762 21.9311681 40.0999762 22.4838881 41.1477362 21.9353681 40.9452962 23.1012881 41.7897762 23.9275681 40.6207762 24.0961281"></polygon>
                <text id="" font-family="LucidaGrande, Lucida Grande" font-size="6.72000003" font-weight="normal" fill="#191919">
                    <tspan x="32.0369497" y="76.2599498">2017</tspan>
                </text>
            </g>
        </g>
    </g>
</svg>