<?xml version="1.0" encoding="UTF-8"?>
<svg width="145px" height="150px" viewBox="0 0 145 150" version="1.1" xmlns="http://www.w3.org/2000/svg" xmlns:xlink="http://www.w3.org/1999/xlink">
    <!-- Generator: Sketch 47.1 (45422) - http://www.bohemiancoding.com/sketch -->
    <title>Group</title>
    <desc>Created with Sketch.</desc>
    <defs></defs>
    <g id="Process" stroke="none" stroke-width="1" fill="none" fill-rule="evenodd">
        <g id="Press" transform="translate(-679.000000, -1122.000000)">
            <g id="Group" transform="translate(679.000000, 1122.000000)">
                <polygon id="Fill-1" fill="#191919" points="22.756832 59.696308 23.057552 61.577628 21.025872 61.902708 20.725152 60.021108 19.918752 60.149908 20.628552 64.588188 21.434952 64.459108 21.137032 62.596268 23.168712 62.271468 23.466352 64.134588 24.273032 64.005508 23.563232 59.567228"></polygon>
                <path d="M27.5163,63.694792 C26.20114,63.838992 25.09458,62.921712 24.95066,61.606272 C24.81094,60.328912 25.69574,59.219552 27.01118,59.075632 C28.32662,58.931432 29.43038,59.823512 29.5701,61.101152 C29.71402,62.416592 28.83174,63.551152 27.5163,63.694792 Z M27.09238,59.817912 C26.27422,59.907792 25.69126,60.633552 25.78758,61.514712 C25.88838,62.433672 26.61694,63.041832 27.4351,62.952512 C28.25326,62.862632 28.83342,62.111672 28.73318,61.192432 C28.63658,60.311552 27.91054,59.728592 27.09238,59.817912 Z" id="Fill-2" fill="#191919"></path>
                <path d="M33.332292,58.632364 L33.495532,61.222924 C33.512332,61.488084 33.583452,61.915084 33.583452,61.915084 L33.570852,61.915924 C33.570852,61.915924 33.341252,61.492564 33.154212,61.244204 L31.291372,58.760884 L30.476292,58.812124 L30.759092,63.298564 L31.573892,63.247044 L31.411212,60.662644 C31.394412,60.397484 31.323012,59.970484 31.323012,59.970484 L31.335612,59.969644 C31.335612,59.969644 31.565212,60.393004 31.752252,60.641084 L33.614812,63.118244 L34.423452,63.067564 L34.141212,58.581124 L33.332292,58.632364 Z" id="Fill-4" fill="#191919"></path>
                <path d="M37.686236,63.047824 C39.009516,63.021504 39.989516,61.969824 39.963476,60.647104 C39.937996,59.361904 38.917676,58.375184 37.594956,58.400944 C36.271676,58.426984 35.291116,59.453464 35.316596,60.738384 C35.342636,62.061944 36.363236,63.074144 37.686236,63.047824 M37.609516,59.147984 C38.432436,59.132024 39.103596,59.777424 39.121236,60.663344 C39.139436,61.587624 38.494596,62.284264 37.671676,62.300784 C36.848756,62.317024 36.176756,61.646144 36.158556,60.721864 C36.140916,59.835664 36.786596,59.164224 37.609516,59.147984" id="Fill-6" fill="#191919"></path>
                <path d="M43.466164,61.31398 C43.380484,61.1541 43.318604,61.08914 43.318604,61.08914 L43.318884,61.07654 C43.797404,60.89622 44.092244,60.40202 44.103164,59.86414 C44.114924,59.26914 43.838844,58.83318 43.393644,58.6215 C43.199324,58.52882 42.978404,58.48598 42.491204,58.47646 L41.041644,58.44734 L40.951204,62.94134 L41.767684,62.95814 L41.801564,61.28038 L42.586124,61.29634 L43.444884,62.99174 L44.356564,63.01022 L43.466164,61.31398 Z M42.550004,60.58598 L41.815564,60.5717 L41.843844,59.16638 L42.464324,59.1787 C43.103564,59.19186 43.281644,59.4615 43.273244,59.89158 C43.264004,60.34098 42.986524,60.59494 42.550004,60.58598 L42.550004,60.58598 Z" id="Fill-8" fill="#191919"></path>
                <path d="M47.532996,62.0249 L47.847716,63.1967 L48.688276,63.24374 L47.359676,58.66798 L46.506516,58.61982 L44.675316,63.0189 L45.515876,63.06594 L45.959396,61.9367 L47.532996,62.0249 Z M46.657716,60.10578 C46.760476,59.85798 46.886196,59.42118 46.886196,59.42118 L46.898796,59.42174 C46.898796,59.42174 46.968796,59.86946 47.037116,60.12706 L47.367796,61.34982 L46.192356,61.28402 L46.657716,60.10578 Z" id="Fill-10" fill="#191919"></path>
                <path d="M52.660244,62.29944 C52.702244,61.84584 52.511284,61.37012 52.033324,61.17972 L52.034444,61.16712 C52.391724,61.01592 52.626644,60.67544 52.665284,60.25964 C52.733604,59.5224 52.198804,59.05312 51.392124,58.97836 L49.791644,58.82968 L49.376124,63.3038 L50.995924,63.45444 C51.821364,63.5306 52.577084,63.19404 52.660244,62.29944 L52.660244,62.29944 Z M50.539524,59.60472 L51.314564,59.67668 C51.692844,59.71196 51.860284,59.96228 51.830324,60.28372 C51.800644,60.60516 51.575524,60.83812 51.222444,60.80564 L50.435084,60.73228 L50.539524,59.60472 Z M51.123884,62.76032 L50.254204,62.67968 L50.374044,61.38804 L51.243724,61.46868 C51.653084,61.50676 51.867564,61.79992 51.833124,62.17176 C51.798124,62.55004 51.539684,62.79896 51.123884,62.76032 L51.123884,62.76032 Z" id="Fill-12" fill="#191919"></path>
                <polygon id="Fill-14" fill="#191919" points="54.92648 59.36574 54.11644 59.26074 53.5402 63.71862 56.27776 64.07282 56.36764 63.37562 54.4404 63.1267"></polygon>
                <polygon id="Fill-16" fill="#191919" points="57.040704 64.193276 59.793944 64.653036 59.909584 63.959756 57.961624 63.634676 58.160984 62.442156 59.653104 62.691636 59.768744 61.998356 58.276624 61.749156 58.470664 60.587996 60.318664 60.896556 60.434304 60.203556 57.781024 59.760596"></polygon>
                <path d="M28.26306,66.3075 L27.62718,68.61106 C27.55494,68.8863 27.47738,69.28922 27.47738,69.28922 L27.46478,69.29062 C27.46478,69.29062 27.29678,68.9143 27.16742,68.66062 L26.05414,66.54634 L25.18558,66.63986 L25.30318,71.14758 L26.1149,71.05994 L26.03398,68.54134 C26.02082,68.24314 25.96482,67.84162 25.96482,67.84162 L25.97742,67.8405 C25.97742,67.8405 26.16362,68.26582 26.2983,68.5125 L27.2027,70.16562 L27.9139,70.08918 L28.45066,68.2801 C28.5299,68.01046 28.6153,67.5619 28.6153,67.5619 L28.6279,67.5605 C28.6279,67.5605 28.65786,67.95838 28.70882,68.2521 L29.16746,70.73066 L29.97302,70.6433 L29.1319,66.2137 L28.26306,66.3075 Z" id="Fill-18" fill="#191919"></path>
                <polygon id="Fill-20" fill="#191919" points="31.851372 69.816236 31.772132 68.609156 33.282172 68.510036 33.235972 67.808636 31.725932 67.908036 31.648652 66.732596 33.519052 66.609956 33.472852 65.908836 30.787652 66.085236 31.082492 70.571116 33.868772 70.388276 33.822572 69.686596"></polygon>
                <path d="M37.567292,65.76472 L37.641212,68.35836 C37.648772,68.62408 37.705332,69.05304 37.705332,69.05304 L37.692732,69.05332 C37.692732,69.05332 37.477972,68.6224 37.299612,68.36816 L35.524132,65.82296 L34.707932,65.84648 L34.835892,70.33796 L35.652092,70.31444 L35.578172,67.72724 C35.570892,67.46152 35.514332,67.03256 35.514332,67.03256 L35.526932,67.03228 C35.526932,67.03228 35.741692,67.46264 35.919772,67.71744 L37.695252,70.2562 L38.505012,70.23324 L38.377052,65.74176 L37.567292,65.76472 Z" id="Fill-22" fill="#191919"></path>
                <polygon id="Fill-24" fill="#191919" points="39.249224 66.43574 40.723984 66.44834 40.690944 70.23926 41.507144 70.24626 41.540184 66.45562 43.014664 66.46822 43.020824 65.7657 39.255104 65.73294"></polygon>
                <polygon id="Fill-26" fill="#191919" points="43.713628 70.292572 44.529828 70.320012 44.680748 65.827972 43.864828 65.800532"></polygon>
                <path d="M48.096832,65.92796 C46.776632,65.84144 45.712912,66.78056 45.629192,68.06268 C45.542672,69.38316 46.473112,70.47796 47.793032,70.56448 C49.113232,70.65044 50.178912,69.68668 50.265152,68.36648 C50.349152,67.08436 49.417032,66.01476 48.096832,65.92796 M47.842032,69.81884 C47.020792,69.76536 46.408712,69.03988 46.469192,68.11756 C46.527152,67.23332 47.227152,66.61984 48.048112,66.67332 C48.869352,66.72708 49.483112,67.42708 49.425152,68.31132 C49.364672,69.23364 48.662992,69.87288 47.842032,69.81884" id="Fill-28" fill="#191919"></path>
                <path d="M54.111652,69.166272 C54.082252,69.430312 54.078332,69.862912 54.078332,69.862912 L54.065732,69.861792 C54.065732,69.861792 53.913132,69.405392 53.772012,69.127912 L52.368932,66.359832 L51.557492,66.268832 L51.057132,70.734832 L51.868572,70.825832 L52.156972,68.252632 C52.186372,67.988872 52.190572,67.555992 52.190572,67.555992 L52.203172,67.557392 C52.203172,67.557392 52.355772,68.014072 52.496332,68.290992 L53.900252,71.053192 L54.705532,71.143352 L55.205892,66.677352 L54.400612,66.587192 L54.111652,69.166272 Z" id="Fill-30" fill="#191919"></path>
                <polygon id="Fill-32" fill="#191919" points="68.857572 65.948736 67.932172 66.686536 66.801812 66.341016 67.217612 67.446736 66.539452 68.417216 67.721052 68.365416 68.434212 69.309856 68.748652 68.168856 69.866972 67.783016 68.881092 67.130056"></polygon>
                <polygon id="Fill-34" fill="#191919" points="68.265848 70.73416 67.342128 71.47112 66.210088 71.12728 66.625888 72.23412 65.948848 73.20432 67.130448 73.15084 67.841928 74.09416 68.158608 72.95512 69.275248 72.569 68.289368 71.9152"></polygon>
                <polygon id="Fill-36" fill="#191919" points="11.994612 69.309828 12.707772 68.365388 13.889652 68.417188 13.211492 67.446708 13.627012 66.340988 12.496652 66.686508 11.570692 65.948708 11.547732 67.130028 10.561852 67.782988 11.680172 68.168828"></polygon>
                <polygon id="Fill-38" fill="#191919" points="14.218764 71.127364 13.086724 71.471204 12.163004 70.734244 12.138924 71.915004 11.153604 72.568804 12.270244 72.954924 12.586924 74.094244 13.298404 73.150924 14.479724 73.204404 13.803244 72.234204"></polygon>
                <path d="M5.5356,52.04388 L16.24168,55.2398 L40.3004,42.15904 L64.35912,55.2398 L75.06632,52.04388 L72.24728,76.46184 L70.59192,76.46212 L73.16176,54.22648 L64.22892,56.98 L40.42948,44.0482 L40.29536,43.97484 L16.31616,57.13848 L7.4312,54.38468 L9.98984,76.47948 L8.35296,76.48004 L5.5356,52.04388 Z M75.91164,64.94936 L75.91164,76.46072 L73.63412,76.46128 L74.9364,65.1812 L75.91164,64.94936 Z M76.19164,97.2426 L77.9506,96.2598 L77.9506,99.69624 L76.19164,99.56548 L76.19164,97.2426 Z M76.19164,64.883 L77.9506,64.46524 L77.9506,76.46016 L76.19164,76.46072 L76.19164,64.883 Z M78.2306,96.10328 L79.98928,95.12076 L79.98928,99.84828 L78.2306,99.71724 L78.2306,96.10328 Z M78.2306,64.39888 L79.98928,63.98112 L79.98928,76.4596 L78.2306,76.46016 L78.2306,64.39888 Z M80.26928,63.91476 L82.02796,63.497 L82.02796,100.00004 L80.26928,99.869 L80.26928,63.91476 Z M82.30796,63.43064 L84.06636,63.01316 L84.06636,99.51816 L83.32996,100.09692 L82.30796,100.02076 L82.30796,63.43064 Z M84.34636,62.94652 L86.10504,62.52904 L86.10504,97.91516 L84.34636,99.2978 L84.34636,62.94652 Z M86.38504,62.4624 L88.14372,62.04492 L88.14372,96.31244 L86.38504,97.69508 L86.38504,62.4624 Z M88.42372,61.97828 L90.1824,61.5608 L90.1824,94.70944 L88.42372,96.09208 L88.42372,61.97828 Z M96.64424,100.4122 L94.64,119.49252 L93.009,147.31528 L90.84936,148.52544 L88.85044,147.31864 L86.45812,119.47096 L83.84208,100.40688 L90.31176,95.32012 L96.64424,100.4122 Z M90.4624,61.49416 L92.22108,61.07668 L92.22108,96.1366 L90.4624,94.72288 L90.4624,61.49416 Z M92.50108,61.01004 L94.25976,60.59256 L94.25976,97.776 L92.50108,96.36172 L92.50108,61.01004 Z M94.53976,60.52592 L96.29816,60.10844 L96.29816,99.41512 L94.53976,98.00112 L94.53976,60.52592 Z M96.57816,60.25964 L98.33684,61.66888 L98.33684,100.09384 L97.14236,100.09384 L96.57816,99.64024 L96.57816,60.25964 Z M95.86612,30.44664 L101.85336,27.60856 C101.88024,27.9398 101.94016,28.2618 102.03116,28.57092 L104.07264,48.6822 L104.11268,48.67828 L106.68336,50.47196 L109.19272,48.6794 L109.22856,48.68304 L111.37308,28.21028 C111.41452,28.014 111.44168,27.81268 111.45792,27.60828 L117.44572,30.44664 L116.05132,40.09096 L110.5286,51.3758 L102.78324,51.3758 L97.26052,40.09096 L95.86612,30.44664 Z M90.7704,29.79424 C88.87676,28.20804 89.70752,24.70468 90.03876,23.5774 L97.63712,28.98728 L95.25236,30.11764 L95.77652,33.73888 C94.72596,32.9392 92.33868,31.10828 90.7704,29.79424 L90.7704,29.79424 Z M84.48748,10.82788 C82.69016,8.97456 82.98164,6.5534 83.18912,5.60112 L106.11076,24.97068 L101.41964,27.19416 L101.55124,27.05164 C101.42636,26.93656 89.02432,15.50668 84.48748,10.82788 L84.48748,10.82788 Z M71.83148,6.08188 C69.56684,4.30332 69.66232,1.89756 69.80372,0.96152 L83.0102,9.77592 L83.04184,9.7286 C83.28628,10.2368 83.62396,10.74192 84.08568,11.21792 C87.633,14.87584 95.96468,22.64024 99.51872,25.93472 C94.11836,22.16984 77.6076,10.6176 71.83148,6.08188 L71.83148,6.08188 Z M94.5448,3.69432 L97.76984,17.18892 L93.66336,13.71888 C93.64068,13.10204 93.54912,11.11236 93.20192,6.56404 C93.04428,4.4954 94.06124,3.8724 94.5448,3.69432 L94.5448,3.69432 Z M108.45212,48.52036 L106.67944,49.78652 L104.86364,48.51952 L106.6786,45.98692 L108.45212,48.52036 Z M106.6842,45.01812 L104.56404,47.9766 L102.74124,30.01796 C103.61736,31.2368 105.04368,32.03452 106.65564,32.03452 C108.30316,32.03452 109.7586,31.2032 110.62884,29.939 L108.74164,47.95728 L106.6842,45.01812 Z M106.58088,25.36828 L106.589,25.37472 L106.5946,25.36828 L106.68448,25.36828 L106.6898,25.37472 L106.69736,25.36828 L106.73292,25.36828 L110.91108,27.34872 C110.91108,27.35852 110.90996,27.36804 110.90968,27.37784 L110.89736,27.37644 L110.82036,28.1134 C110.40512,30.03196 108.69656,31.47452 106.65564,31.47452 C104.74576,31.47452 103.12512,30.212 102.585,28.47768 L102.47328,27.37728 L102.40188,27.38456 C102.40132,27.3728 102.40048,27.36104 102.4002,27.34928 L106.57948,25.36828 L106.58088,25.36828 Z M130.0894,5.60112 C130.29716,6.5534 130.58836,8.97456 128.79104,10.82788 C124.2542,15.50668 111.85216,26.93656 111.72756,27.05164 L111.83312,27.16616 L107.18036,24.96032 L130.0894,5.60112 Z M118.73456,3.69152 C119.21868,3.86428 120.23592,4.47804 120.07716,6.56404 C119.72968,11.11264 119.63812,13.10232 119.61516,13.71916 L115.50868,17.1892 L118.73456,3.69152 Z M143.47144,0.96376 C143.60444,1.90176 143.6862,4.32348 141.4476,6.08188 C135.67204,10.61732 119.1624,22.16872 113.76064,25.93388 C117.31496,22.6394 125.6458,14.87556 129.19284,11.21792 C129.65456,10.74192 129.99196,10.23708 130.23668,9.7286 L130.26804,9.77592 L143.47144,0.96376 Z M123.24032,23.5774 C123.57128,24.70468 124.40204,28.20804 122.50812,29.79424 C120.95608,31.09456 118.60128,32.90224 117.53448,33.71452 L118.05948,30.11764 L115.65484,28.97776 L123.24032,23.5774 Z M116.93668,93.33072 L114.92572,95.47104 L114.92572,61.7134 L116.4702,60.47608 L116.93668,93.33072 Z M113.40532,119.48636 L111.4148,143.77412 L109.48336,144.93416 L107.38924,143.7716 L106.34316,119.48328 L104.59624,100.65384 L110.82456,100.65384 L116.5038,94.6092 L116.77232,94.339 L113.40532,119.48636 Z M104.4526,100.09384 L102.6942,100.09384 L102.6942,65.15992 L104.4526,66.56888 L104.4526,100.09384 Z M106.49128,68.2024 L106.49128,100.09384 L104.7326,100.09384 L104.7326,66.79316 L106.49128,68.2024 Z M108.52996,66.83712 L108.52996,100.09384 L106.77128,100.09384 L106.77128,68.24636 L108.52996,66.83712 Z M110.56864,65.20388 L110.56864,100.09384 L108.80996,100.09384 L108.80996,66.61284 L110.56864,65.20388 Z M112.6076,63.57064 L112.6076,97.9384 L110.84864,99.8102 L110.84864,64.9796 L112.6076,63.57064 Z M114.64572,61.93768 L114.64572,95.76896 L112.8876,97.64048 L112.8876,63.34636 L114.64572,61.93768 Z M101.35188,63.36708 L96.70052,59.64056 L97.08944,40.98584 L102.4338,51.9358 L110.87804,51.9358 L116.1944,41.0718 L116.45984,59.76684 L109.36324,65.45224 L108.52996,66.10856 L106.73824,67.52004 L106.63324,67.43912 L106.49128,67.32964 L106.49128,67.32992 L104.7326,65.9736 L102.4142,64.18608 L101.35188,63.36708 Z M102.4142,100.09384 L100.65552,100.09384 L100.65552,63.52668 L102.4142,64.93564 L102.4142,100.09384 Z M100.37552,100.09384 L98.61684,100.09384 L98.61684,61.89316 L100.37552,63.3024 L100.37552,100.09384 Z M74.1538,99.41344 L74.15492,98.3808 L75.91164,97.39912 L75.91164,99.54448 L74.1538,99.41344 Z M67.78856,118.73624 L67.64996,118.82528 L69.16112,142.75296 L69.72084,144.40468 L68.7316,145.07024 L65.82996,144.17256 L59.67108,115.53752 C60.20532,115.05872 62.2958,113.08444 64.03852,110.18392 L70.16408,106.52208 L70.8932,100.20332 L71.63604,99.78836 L83.0956,100.64152 C80.43812,110.4964 67.91624,118.65392 67.78856,118.73624 L67.78856,118.73624 Z M73.81864,98.56868 L73.85896,99.3916 L72.52392,99.2922 L73.81864,98.56868 Z M67.88852,94.9802 L66.80744,104.33668 L40.29704,120.46608 L13.7452,104.04156 L12.69128,94.94044 L67.88852,94.9802 Z M10.5532,76.47948 L8.08612,55.17428 L16.37748,57.74356 L40.29676,44.61324 L64.06484,57.52852 L64.16872,57.58452 L72.50684,55.0144 L70.02856,76.4624 L10.5532,76.47948 Z M40.3032,122.76796 L11.68524,105.37408 L10.57868,96.0162 L7.0854,95.50744 L7.06132,94.94856 L10.4832,94.94856 L10.48208,94.93876 L12.12764,94.93988 L13.2202,104.37504 L40.14836,121.0328 L40.29508,121.12296 L67.33244,104.67268 L68.45244,94.98048 L70.10948,94.98188 L70.10724,95.00232 L73.16876,95.00232 L73.14468,95.56176 L70.01652,96.2654 L68.87356,105.6888 L40.3032,122.76796 Z M52.18584,124.27492 L52.17436,124.299 L46.88824,144.68552 L46.87816,144.72416 L46.92912,146.43804 L45.77664,147.01708 L43.21044,145.68232 L44.73224,121.72496 L56.82936,114.4934 L52.18584,124.27492 Z M0.2184,94.93148 L0.32284,94.93148 L0.28,94.99644 L9.70984,100.26576 L10.39388,106.2012 L40.29704,124.37628 L44.16076,122.06684 L42.62832,146.01076 L45.77244,147.64596 L47.49948,146.77824 L47.4404,144.78744 L52.70328,124.4908 L57.69484,113.97624 L62.98656,110.8128 C61.17776,113.51312 59.2228,115.18752 59.18248,115.22168 L59.0534,115.33004 L65.35116,144.61076 L68.82176,145.68428 L70.39088,144.62896 L69.71748,142.67988 L68.22956,119.11592 C69.58896,118.20704 80.50728,110.67364 83.426,101.49412 L85.90176,119.53284 L88.30444,147.50848 L88.31648,147.65044 L90.839,149.17308 L93.54996,147.65408 L95.19776,119.53816 L97.18212,100.65384 L104.034,100.65384 L105.78456,119.52108 L106.84352,144.109 L109.49456,145.58068 L111.9496,144.10648 L113.96196,119.54628 L117.43368,93.61968 L117.50004,93.54912 L117.14836,68.79544 L117.10104,59.35664 L117.01536,59.42412 L116.73396,39.6116 L116.67348,39.61244 L117.41884,34.50496 C118.02056,34.04996 121.01236,31.77832 122.86792,30.22348 C125.42992,28.07756 123.72836,23.23664 123.655,23.0314 L123.52984,22.68392 L115.07552,28.70308 L112.51016,27.48704 C114.562,26.06072 135.18316,11.71296 141.79312,6.52232 C144.9014,4.08156 143.94716,0.45836 143.93736,0.42196 L143.83432,0.04816 L130.55476,8.91184 C131.152,6.93308 130.54832,5.11504 130.51248,5.01004 L130.37976,4.62308 L120.197,13.22748 C120.24208,12.27576 120.3552,10.27908 120.63548,6.6066 C120.87796,3.42104 118.58868,3.07552 118.56572,3.07216 L118.31456,3.03856 L114.78712,17.79904 L106.6394,24.68424 L98.49112,17.79876 L94.96396,3.03856 L94.71308,3.07216 C94.69012,3.07552 92.40056,3.42104 92.6436,6.6066 C92.9236,10.27852 93.03644,12.27548 93.08208,13.22748 L82.89932,4.62308 L82.76632,5.01004 C82.7302,5.11504 82.12652,6.93308 82.72404,8.91212 L69.4442,0.04816 L69.34116,0.42224 C69.33136,0.45836 68.37796,4.08156 71.48596,6.52232 C78.11272,11.72612 98.81928,26.13268 100.78208,27.49628 L98.21644,28.7126 L89.74896,22.68392 L89.62408,23.0314 C89.55044,23.23664 87.84888,28.07756 90.4106,30.22348 C92.30144,31.808 95.37164,34.1362 95.89048,34.52848 L96.62576,39.61104 L96.558,39.60964 L96.14192,59.57 L75.00444,64.58956 L76.67408,50.12644 L64.51368,53.75608 L40.3004,40.59132 L16.08684,53.75608 L3.92784,50.12644 L6.96668,76.4806 L0.2184,76.48256 L0.2184,94.93148 Z" id="Fill-59" fill="#191919"></path>
                <path d="M72.855916,83.560092 C72.861236,82.900132 72.346036,82.375132 71.697556,82.373452 C71.060836,82.369532 70.545076,82.892852 70.542556,83.551972 C70.539196,84.214172 71.053836,84.738612 71.691116,84.740852 C72.339316,84.743092 72.855356,84.222292 72.855916,83.560092 L72.855916,83.560092 Z M72.711156,83.560092 C72.707236,84.151172 72.264836,84.604492 71.691116,84.603092 C71.124396,84.602532 70.688156,84.144732 70.689556,83.553092 C70.690956,82.966772 71.133076,82.510092 71.697556,82.512332 C72.270716,82.513452 72.711156,82.970692 72.711156,83.560092 L72.711156,83.560092 Z M71.876756,83.638772 L71.876196,83.634572 C72.010316,83.601252 72.128476,83.476932 72.128476,83.284572 C72.128476,83.055812 71.973636,82.904332 71.749076,82.903772 L71.315916,82.902652 L71.313676,84.210812 L71.454796,84.210812 L71.457596,83.665092 L71.738716,83.665092 L72.015916,84.213612 L72.177196,84.213612 L71.917916,83.712692 C71.888516,83.656972 71.876756,83.638772 71.876756,83.638772 L71.876756,83.638772 Z M71.732556,83.541052 L71.457596,83.538252 L71.460396,83.032852 L71.736476,83.033412 C71.884036,83.034532 71.982316,83.126372 71.982316,83.284012 C71.982316,83.443612 71.882636,83.541052 71.732556,83.541052 L71.732556,83.541052 Z M65.846956,84.201572 C65.850036,83.726412 66.299436,83.393212 66.868676,83.394332 C67.719596,83.398812 68.364436,83.991572 68.364436,83.991572 L68.905116,82.989172 C68.905116,82.989172 68.219396,82.265092 66.884636,82.260612 C65.587396,82.254732 64.613556,83.089692 64.608236,84.216972 C64.601796,86.294572 67.797436,86.095492 67.793516,87.306772 C67.791836,87.861172 67.321996,88.124372 66.806796,88.122692 C65.854796,88.119892 65.123156,87.401972 65.123156,87.401972 L64.451716,88.328772 C64.451716,88.328772 65.274076,89.255852 66.785236,89.261732 C68.195036,89.263972 69.017396,88.362652 69.021316,87.285492 C69.026636,85.120252 65.843876,85.404172 65.846956,84.201572 L65.846956,84.201572 Z M62.923756,85.735692 C62.930476,83.602092 61.574156,82.357492 59.483396,82.350492 L57.175916,82.342092 L57.151836,89.110252 L59.462956,89.120612 C61.550356,89.126772 62.918436,87.874892 62.923756,85.735692 L62.923756,85.735692 Z M61.656476,85.732332 C61.650316,87.261412 60.774476,88.066972 59.400516,88.063052 L58.386356,88.058572 L58.402036,83.404132 L59.415636,83.406932 C60.766636,83.411972 61.661236,84.225652 61.656476,85.732332 L61.656476,85.732332 Z M53.444356,86.241932 L53.444356,86.224012 C54.159476,85.935052 54.592076,85.187452 54.593196,84.375452 C54.597676,83.480292 54.169556,82.827892 53.492236,82.521012 C53.198236,82.386612 52.865036,82.328652 52.132556,82.325292 L49.945756,82.319132 L49.924196,89.091212 L51.155916,89.096252 L51.162636,86.570092 L52.345916,86.573452 L53.683476,89.104372 L55.052956,89.108012 L53.671996,86.576252 C53.538156,86.339372 53.444356,86.241932 53.444356,86.241932 L53.444356,86.241932 Z M53.342996,84.437892 C53.342996,85.115492 52.928316,85.504692 52.271996,85.501612 L51.166276,85.498252 L51.173836,83.382292 L52.107356,83.383412 C53.069996,83.387332 53.346636,83.788012 53.342996,84.437892 L53.342996,84.437892 Z M46.835516,89.077492 L48.103916,89.081412 L45.742956,82.302892 L44.454396,82.298412 L42.047796,89.060132 L43.315916,89.065452 L43.894396,87.332532 L46.267396,87.339532 L46.835516,89.077492 Z M45.966676,86.339372 L44.192596,86.332092 L44.799916,84.523572 C44.933476,84.143052 45.090556,83.474132 45.090556,83.474132 L45.106796,83.474692 C45.106796,83.474692 45.246516,84.140252 45.370556,84.524692 L45.966676,86.339372 Z M39.668916,89.056212 L41.437956,82.289172 L40.166476,82.285252 L39.037796,86.967692 C38.949036,87.348212 38.921316,87.680292 38.921316,87.680292 L38.898356,87.678612 C38.891076,87.678612 38.882396,87.356052 38.782436,86.964892 L37.592436,82.277132 L36.525076,82.273212 L35.287756,86.953412 C35.182756,87.344572 35.175476,87.669372 35.161476,87.666572 L35.144956,87.669372 C35.144956,87.669372 35.114436,87.333092 35.034076,86.953412 L34.241676,83.427652 L33.628476,85.982092 L34.385876,89.038572 L35.807996,89.041372 L36.857716,85.041572 C36.975596,84.602532 37.033276,84.156212 37.033276,84.156212 L37.053436,84.153972 C37.053436,84.153972 37.109436,84.603092 37.222836,85.041572 L38.249036,89.049492 L39.668916,89.056212 Z M32.031076,89.029332 L33.799836,82.265092 L32.528916,82.260612 L31.396876,86.941372 C31.308396,87.322172 31.280396,87.653972 31.280396,87.653972 L31.261636,87.653972 C31.251836,87.656772 31.243996,87.330292 31.140676,86.939132 L29.955156,82.251932 L28.886676,82.247732 L27.649916,86.929892 C27.543516,87.317132 27.533436,87.643052 27.521956,87.643052 L27.503476,87.643052 C27.503476,87.643052 27.476876,87.309012 27.396516,86.929332 L26.606076,83.417852 L25.996796,85.972852 L26.747756,89.012532 L28.166796,89.017852 L29.222396,85.015252 C29.335516,84.577892 29.395716,84.129892 29.395716,84.129892 L29.412516,84.129892 C29.412516,84.129892 29.469076,84.577332 29.583316,85.016932 L30.612316,89.024012 L32.031076,89.029332 Z M24.387356,89.002452 L26.157516,82.240452 L24.889396,82.234572 L23.754836,86.914212 C23.671116,87.293052 23.639476,87.628772 23.639476,87.628772 L23.621836,87.626532 C23.613156,87.628772 23.604476,87.305092 23.498916,86.914212 L22.311436,82.227292 L21.244076,82.223652 L20.009276,86.904132 C19.903996,87.292492 19.893636,87.616732 19.885516,87.616732 L19.864236,87.616732 C19.864236,87.616732 19.836796,87.283812 19.753356,86.904132 L18.699996,82.214132 L17.431876,82.211612 L19.105716,88.986212 L20.526436,88.990692 L21.578116,84.990052 C21.695156,84.553252 21.755636,84.103572 21.755636,84.103572 L21.772436,84.104132 C21.772436,84.104132 21.829556,84.553252 21.942956,84.990052 L22.966636,88.998252 L24.387356,89.002452 Z M15.511356,88.973612 L16.778356,88.978652 L14.419636,82.200132 L13.131636,82.196212 L10.721676,88.958212 L11.994276,88.961572 L12.571076,87.229492 L14.945756,87.236212 L15.511356,88.973612 Z M14.641116,86.233812 L12.869836,86.229332 L13.478836,84.419692 C13.611276,84.039172 13.765556,83.370812 13.765556,83.370812 L13.786276,83.370812 C13.786276,83.370812 13.925716,84.039172 14.047796,84.423052 L14.641116,86.233812 Z" id="Fill-3279" fill="#FFFFFF"></path>
                <text id="" font-family="LucidaGrande, Lucida Grande" font-size="6.44" font-weight="normal" fill="#191919">
                    <tspan x="32.9056109" y="103.336914">2017</tspan>
                </text>
            </g>
        </g>
    </g>
</svg>