<svg width="168" height="155" viewBox="0 0 168 155" version="1.1" xmlns="http://www.w3.org/2000/svg" xmlns:xlink="http://www.w3.org/1999/xlink">
<g id="Canvas" fill="none">
<g id="Group 17">
<g id="Mask Group">
<g id="Ellipse">
<circle cx="41" cy="41" r="41" transform="translate(0 37)" fill="white"/>
<circle cx="41" cy="41" r="40" stroke-width="2" transform="translate(0 37)" stroke="#222222"/>
</g>
<g id="content master">
<path d="M 8.8366 12.1464C 7.9778 11.7396 7.1642 11.5814 6.2828 11.5814C 4.9042 11.5814 3.5708 11.943 2.4408 13.0052C 1.4916 13.9092 0.7684 15.2652 0.7684 16.9828C 0.7684 18.8134 1.582 20.079 2.3504 20.8248C 3.277 21.7288 4.5652 22.339 6.2602 22.339C 7.1642 22.339 7.9778 22.2034 8.8366 21.7288L 8.8366 18.7908C 8.0908 19.4236 7.3224 19.5818 6.7574 19.5818C 6.0342 19.5818 5.2884 19.3106 4.7912 18.7682C 4.3844 18.3388 4.1132 17.706 4.1132 16.9602C 4.1132 16.1466 4.4296 15.4912 4.859 15.0618C 5.085 14.8358 5.6952 14.3386 6.7122 14.3386C 7.232 14.3386 8.0456 14.4516 8.8366 15.107L 8.8366 12.1464ZM 11.089 5.5246L 11.089 22L 14.3434 22L 14.3434 5.5246L 11.089 5.5246ZM 19.873 15.5816C 19.9634 15.1296 20.1894 14.768 20.438 14.4968C 20.7544 14.1804 21.2516 13.8414 22.0878 13.8414C 22.7432 13.8414 23.263 14.0674 23.6246 14.4064C 24.0992 14.8584 24.2574 15.4912 24.28 15.5816L 19.873 15.5816ZM 27.2858 17.1862C 27.2858 15.9432 27.0598 14.3612 25.862 13.0956C 24.619 11.7848 22.9918 11.5814 21.8618 11.5814C 20.7318 11.5814 19.2176 11.8074 17.9972 13.0278C 16.9802 14.0674 16.4604 15.559 16.4604 17.0054C 16.4604 18.6778 17.0932 20.0112 17.9746 20.8926C 19.1498 22.0678 20.4832 22.339 21.9974 22.339C 23.1274 22.339 24.2122 22.1808 25.184 21.5932C 25.7716 21.2316 26.6756 20.4858 27.1276 19.062L 24.054 18.7456C 23.7828 19.3106 23.3986 19.5592 23.3534 19.5818C 23.0144 19.7852 22.5172 19.8756 22.0426 19.8756C 21.5454 19.8756 20.8674 19.7852 20.3702 19.2428C 19.9634 18.7908 19.76 18.0676 19.76 17.5252L 27.2858 17.5252L 27.2858 17.1862ZM 37.0462 13.0504C 36.1196 11.7848 34.741 11.5814 33.8822 11.5814C 32.481 11.5814 31.2606 12.0786 30.3792 12.96C 29.4526 13.8866 28.8198 15.333 28.8198 17.028C 28.8198 18.3614 29.2266 19.6722 30.2888 20.8022C 31.3962 21.9774 32.6166 22.339 34.063 22.339C 34.8992 22.339 36.1648 22.1356 37.0462 20.7796L 37.0462 22L 40.3006 22L 40.3006 11.9204L 37.0462 11.9204L 37.0462 13.0504ZM 34.6958 14.3838C 35.2834 14.3838 36.0066 14.6098 36.5038 15.0844C 36.9784 15.5364 37.2496 16.2144 37.2496 16.9376C 37.2496 17.7964 36.888 18.4292 36.4586 18.836C 36.0292 19.2654 35.419 19.5366 34.7636 19.5366C 33.9952 19.5366 33.2946 19.2202 32.8426 18.7456C 32.5488 18.4292 32.1646 17.8416 32.1646 16.9376C 32.1646 16.0336 32.5714 15.446 32.9104 15.107C 33.3398 14.6776 33.9952 14.3838 34.6958 14.3838ZM 42.824 22L 46.0784 22L 46.0784 16.8246C 46.0784 16.1692 46.1688 15.446 46.7112 14.9036C 46.9598 14.6324 47.3892 14.3612 48.0672 14.3612C 48.6548 14.3612 49.0616 14.5646 49.3102 14.8132C 49.83 15.333 49.8526 16.1692 49.8526 16.8246L 49.8526 22L 53.107 22L 53.107 15.6268C 53.107 14.8132 53.0392 13.6154 52.09 12.6662C 51.2312 11.8074 50.0786 11.6492 49.1972 11.6492C 48.248 11.6492 47.0728 11.8526 46.0784 13.1182L 46.0784 11.9204L 42.824 11.9204L 42.824 22Z" transform="matrix(0.866025 -0.5 0.5 0.866025 8.38477 77.2998)" fill="#191919"/>
</g>
</g>
<g id="Group 5" opacity="0.1">
<g id="Ellipse_2">
<circle cx="31.5" cy="31.5" r="31.5" transform="translate(82 0)" fill="white"/>
<circle cx="31.5" cy="31.5" r="30.5" stroke-width="2" transform="translate(82 0)" stroke="#222222"/>
</g>
<g id="content master_2">
<path d="M 11.7221 15L 13.8756 15L 13.8756 11.5754C 13.8756 11.1417 13.9354 10.6632 14.2943 10.3043C 14.4588 10.1248 14.743 9.94536 15.1916 9.94536C 15.5804 9.94536 15.8496 10.08 16.0141 10.2445C 16.358 10.5884 16.373 11.1417 16.373 11.5754L 16.373 15L 18.5265 15L 18.5265 10.7828C 18.5265 10.2445 18.4816 9.45186 17.8535 8.82377C 17.2852 8.2555 16.5225 8.15082 15.9393 8.15082C 15.3112 8.15082 14.5336 8.28541 13.8756 9.12286L 13.8756 8.33027L 11.7221 8.33027L 11.7221 15ZM 20.3566 8.33027L 20.3566 15L 22.5101 15L 22.5101 8.33027L 20.3566 8.33027ZM 20.1772 5.48891C 20.1772 6.19177 20.7305 6.74509 21.4334 6.74509C 22.1362 6.74509 22.6895 6.19177 22.6895 5.48891C 22.6895 4.78605 22.1362 4.23273 21.4334 4.23273C 20.7305 4.23273 20.1772 4.78605 20.1772 5.48891ZM 29.3498 8.47982C 28.7815 8.21064 28.2432 8.10595 27.6599 8.10595C 26.7477 8.10595 25.8654 8.34523 25.1177 9.04809C 24.4896 9.64627 24.011 10.5435 24.011 11.6801C 24.011 12.8914 24.5494 13.7289 25.0578 14.2224C 25.671 14.8205 26.5234 15.2243 27.645 15.2243C 28.2432 15.2243 28.7815 15.1346 29.3498 14.8205L 29.3498 12.8765C 28.8563 13.2952 28.3478 13.3999 27.974 13.3999C 27.4954 13.3999 27.0019 13.2204 26.6729 12.8615C 26.4038 12.5774 26.2243 12.1586 26.2243 11.6651C 26.2243 11.1268 26.4337 10.6931 26.7178 10.409C 26.8673 10.2594 27.2711 9.93041 27.9441 9.93041C 28.288 9.93041 28.8264 10.0052 29.3498 10.4389L 29.3498 8.47982ZM 32.7096 10.7529C 32.7694 10.4538 32.9189 10.2145 33.0834 10.0351C 33.2928 9.82573 33.6218 9.60141 34.1751 9.60141C 34.6088 9.60141 34.9527 9.75095 35.192 9.97527C 35.5061 10.2744 35.6107 10.6931 35.6257 10.7529L 32.7096 10.7529ZM 37.6146 11.8147C 37.6146 10.9922 37.4651 9.94536 36.6725 9.10791C 35.85 8.24055 34.7733 8.10595 34.0256 8.10595C 33.2778 8.10595 32.2759 8.2555 31.4683 9.06305C 30.7954 9.75095 30.4514 10.738 30.4514 11.695C 30.4514 12.8017 30.8701 13.684 31.4534 14.2672C 32.231 15.0449 33.1133 15.2243 34.1153 15.2243C 34.863 15.2243 35.5808 15.1196 36.2239 14.7308C 36.6127 14.4915 37.2109 13.998 37.51 13.0559L 35.4761 12.8465C 35.2967 13.2204 35.0425 13.3849 35.0126 13.3999C 34.7882 13.5345 34.4592 13.5943 34.1452 13.5943C 33.8162 13.5943 33.3676 13.5345 33.0386 13.1755C 32.7694 12.8765 32.6348 12.3979 32.6348 12.039L 37.6146 12.039L 37.6146 11.8147Z" transform="matrix(0.866025 -0.5 0.5 0.866025 87.3633 34.2754)" fill="#191919"/>
</g>
</g>
<g id="Group 6" opacity="0.4">
<g id="Ellipse_3">
<ellipse cx="40.2121" cy="40" rx="40.2121" ry="40" transform="translate(87 75)" fill="white"/>
<g mask="url(#path6_ins)" transform="translate(87 75)">
<ellipse cx="40.2121" cy="40" rx="40.2121" ry="40" stroke-width="4" stroke="#222222"/>
</g>
</g>
<g id="content master_3">
<path d="M 0.839393 15L 2.99783 15L 2.99783 11.5825C 2.99783 11.3576 3.01282 10.6082 3.41753 10.2185C 3.62738 10.0236 3.88219 9.94865 4.16699 9.94865C 4.39182 9.94865 4.66163 9.99362 4.88647 10.2185C 5.21623 10.5482 5.23122 11.0728 5.23122 11.5225L 5.23122 15L 7.38966 15L 7.38966 11.6724C 7.38966 11.2377 7.43462 10.7131 7.71942 10.3534C 7.89929 10.1135 8.19907 9.94865 8.55881 9.94865C 8.87358 9.94865 9.15838 10.0836 9.33825 10.3084C 9.62304 10.6681 9.62304 11.2677 9.62304 11.6125L 9.62304 15L 11.7815 15L 11.7815 10.7731C 11.7815 10.2934 11.7365 9.39405 11.092 8.7795C 10.6873 8.38978 10.0277 8.14995 9.21833 8.14995C 8.69371 8.14995 8.25903 8.23989 7.79436 8.52468C 7.35968 8.79449 7.10486 9.10926 6.93998 9.37907C 6.76011 8.97436 6.47532 8.6446 6.13057 8.44974C 5.68089 8.17993 5.15627 8.14995 4.87148 8.14995C 4.36185 8.14995 3.55243 8.25488 2.99783 9.09427L 2.99783 8.31484L 0.839393 8.31484L 0.839393 15ZM 13.6217 8.31484L 13.6217 15L 15.7802 15L 15.7802 8.31484L 13.6217 8.31484ZM 13.4419 5.4669C 13.4419 6.17139 13.9965 6.72598 14.701 6.72598C 15.4055 6.72598 15.9601 6.17139 15.9601 5.4669C 15.9601 4.7624 15.4055 4.20781 14.701 4.20781C 13.9965 4.20781 13.4419 4.7624 13.4419 5.4669ZM 17.6144 15L 19.7728 15L 19.7728 11.5675C 19.7728 11.1328 19.8328 10.6531 20.1925 10.2934C 20.3574 10.1135 20.6422 9.93366 21.0919 9.93366C 21.4816 9.93366 21.7514 10.0686 21.9163 10.2334C 22.261 10.5782 22.276 11.1328 22.276 11.5675L 22.276 15L 24.4344 15L 24.4344 10.7731C 24.4344 10.2334 24.3895 9.43902 23.7599 8.80948C 23.1903 8.23989 22.4259 8.13497 21.8413 8.13497C 21.2118 8.13497 20.4323 8.26987 19.7728 9.10926L 19.7728 8.31484L 17.6144 8.31484L 17.6144 15ZM 26.2689 8.31484L 26.2689 15L 28.4273 15L 28.4273 8.31484L 26.2689 8.31484ZM 26.089 5.4669C 26.089 6.17139 26.6436 6.72598 27.3481 6.72598C 28.0526 6.72598 28.6072 6.17139 28.6072 5.4669C 28.6072 4.7624 28.0526 4.20781 27.3481 4.20781C 26.6436 4.20781 26.089 4.7624 26.089 5.4669ZM 30.2615 15L 32.4199 15L 32.4199 11.5825C 32.4199 11.3576 32.4349 10.6082 32.8396 10.2185C 33.0495 10.0236 33.3043 9.94865 33.5891 9.94865C 33.8139 9.94865 34.0837 9.99362 34.3085 10.2185C 34.6383 10.5482 34.6533 11.0728 34.6533 11.5225L 34.6533 15L 36.8117 15L 36.8117 11.6724C 36.8117 11.2377 36.8567 10.7131 37.1415 10.3534C 37.3214 10.1135 37.6211 9.94865 37.9809 9.94865C 38.2957 9.94865 38.5805 10.0836 38.7603 10.3084C 39.0451 10.6681 39.0451 11.2677 39.0451 11.6125L 39.0451 15L 41.2036 15L 41.2036 10.7731C 41.2036 10.2934 41.1586 9.39405 40.5141 8.7795C 40.1093 8.38978 39.4498 8.14995 38.6404 8.14995C 38.1158 8.14995 37.6811 8.23989 37.2164 8.52468C 36.7818 8.79449 36.5269 9.10926 36.3621 9.37907C 36.1822 8.97436 35.8974 8.6446 35.5526 8.44974C 35.103 8.17993 34.5783 8.14995 34.2936 8.14995C 33.7839 8.14995 32.9745 8.25488 32.4199 9.09427L 32.4199 8.31484L 30.2615 8.31484L 30.2615 15ZM 48.0202 9.06429C 47.4057 8.2249 46.4913 8.09 45.9217 8.09C 44.9924 8.09 44.183 8.41976 43.5984 9.00434C 42.9839 9.61889 42.5642 10.5782 42.5642 11.7024C 42.5642 12.5867 42.834 13.4561 43.5385 14.2056C 44.2729 14.985 45.0824 15.2248 46.0417 15.2248C 46.5963 15.2248 47.4357 15.0899 48.0202 14.1906L 48.0202 15L 50.1787 15L 50.1787 8.31484L 48.0202 8.31484L 48.0202 9.06429ZM 46.4614 9.94865C 46.8511 9.94865 47.3307 10.0985 47.6605 10.4133C 47.9753 10.7131 48.1551 11.1628 48.1551 11.6424C 48.1551 12.212 47.9153 12.6317 47.6305 12.9015C 47.3457 13.1863 46.941 13.3662 46.5063 13.3662C 45.9967 13.3662 45.532 13.1563 45.2322 12.8416C 45.0374 12.6317 44.7826 12.242 44.7826 11.6424C 44.7826 11.0429 45.0524 10.6531 45.2772 10.4283C 45.562 10.1435 45.9967 9.94865 46.4614 9.94865ZM 51.9123 4.0729L 51.9123 15L 54.0707 15L 54.0707 4.0729L 51.9123 4.0729Z" transform="matrix(0.867167 -0.498018 0.501985 0.864877 98.1543 119.307)" fill="#191919"/>
</g>
</g>
<g id="Mask Group_2">
<g id="Ellipse_4">
<circle cx="41" cy="41" r="41" transform="translate(0 37)" fill="white"/>
<circle cx="41" cy="41" r="40" stroke-width="2" transform="translate(0 37)" stroke="#222222"/>
</g>
<g id="content master_4">
<path d="M 8.8366 12.1464C 7.9778 11.7396 7.1642 11.5814 6.2828 11.5814C 4.9042 11.5814 3.5708 11.943 2.4408 13.0052C 1.4916 13.9092 0.7684 15.2652 0.7684 16.9828C 0.7684 18.8134 1.582 20.079 2.3504 20.8248C 3.277 21.7288 4.5652 22.339 6.2602 22.339C 7.1642 22.339 7.9778 22.2034 8.8366 21.7288L 8.8366 18.7908C 8.0908 19.4236 7.3224 19.5818 6.7574 19.5818C 6.0342 19.5818 5.2884 19.3106 4.7912 18.7682C 4.3844 18.3388 4.1132 17.706 4.1132 16.9602C 4.1132 16.1466 4.4296 15.4912 4.859 15.0618C 5.085 14.8358 5.6952 14.3386 6.7122 14.3386C 7.232 14.3386 8.0456 14.4516 8.8366 15.107L 8.8366 12.1464ZM 11.089 5.5246L 11.089 22L 14.3434 22L 14.3434 5.5246L 11.089 5.5246ZM 19.873 15.5816C 19.9634 15.1296 20.1894 14.768 20.438 14.4968C 20.7544 14.1804 21.2516 13.8414 22.0878 13.8414C 22.7432 13.8414 23.263 14.0674 23.6246 14.4064C 24.0992 14.8584 24.2574 15.4912 24.28 15.5816L 19.873 15.5816ZM 27.2858 17.1862C 27.2858 15.9432 27.0598 14.3612 25.862 13.0956C 24.619 11.7848 22.9918 11.5814 21.8618 11.5814C 20.7318 11.5814 19.2176 11.8074 17.9972 13.0278C 16.9802 14.0674 16.4604 15.559 16.4604 17.0054C 16.4604 18.6778 17.0932 20.0112 17.9746 20.8926C 19.1498 22.0678 20.4832 22.339 21.9974 22.339C 23.1274 22.339 24.2122 22.1808 25.184 21.5932C 25.7716 21.2316 26.6756 20.4858 27.1276 19.062L 24.054 18.7456C 23.7828 19.3106 23.3986 19.5592 23.3534 19.5818C 23.0144 19.7852 22.5172 19.8756 22.0426 19.8756C 21.5454 19.8756 20.8674 19.7852 20.3702 19.2428C 19.9634 18.7908 19.76 18.0676 19.76 17.5252L 27.2858 17.5252L 27.2858 17.1862ZM 37.0462 13.0504C 36.1196 11.7848 34.741 11.5814 33.8822 11.5814C 32.481 11.5814 31.2606 12.0786 30.3792 12.96C 29.4526 13.8866 28.8198 15.333 28.8198 17.028C 28.8198 18.3614 29.2266 19.6722 30.2888 20.8022C 31.3962 21.9774 32.6166 22.339 34.063 22.339C 34.8992 22.339 36.1648 22.1356 37.0462 20.7796L 37.0462 22L 40.3006 22L 40.3006 11.9204L 37.0462 11.9204L 37.0462 13.0504ZM 34.6958 14.3838C 35.2834 14.3838 36.0066 14.6098 36.5038 15.0844C 36.9784 15.5364 37.2496 16.2144 37.2496 16.9376C 37.2496 17.7964 36.888 18.4292 36.4586 18.836C 36.0292 19.2654 35.419 19.5366 34.7636 19.5366C 33.9952 19.5366 33.2946 19.2202 32.8426 18.7456C 32.5488 18.4292 32.1646 17.8416 32.1646 16.9376C 32.1646 16.0336 32.5714 15.446 32.9104 15.107C 33.3398 14.6776 33.9952 14.3838 34.6958 14.3838ZM 42.824 22L 46.0784 22L 46.0784 16.8246C 46.0784 16.1692 46.1688 15.446 46.7112 14.9036C 46.9598 14.6324 47.3892 14.3612 48.0672 14.3612C 48.6548 14.3612 49.0616 14.5646 49.3102 14.8132C 49.83 15.333 49.8526 16.1692 49.8526 16.8246L 49.8526 22L 53.107 22L 53.107 15.6268C 53.107 14.8132 53.0392 13.6154 52.09 12.6662C 51.2312 11.8074 50.0786 11.6492 49.1972 11.6492C 48.248 11.6492 47.0728 11.8526 46.0784 13.1182L 46.0784 11.9204L 42.824 11.9204L 42.824 22Z" transform="matrix(0.866025 -0.5 0.5 0.866025 8.38477 77.2998)" fill="#191919"/>
</g>
</g>
<g id="Group 5.1" opacity="0.1">
<g id="Ellipse_5">
<circle cx="31.5" cy="31.5" r="31.5" transform="translate(82 0)" fill="white"/>
<circle cx="31.5" cy="31.5" r="30.5" stroke-width="2" transform="translate(82 0)" stroke="#222222"/>
</g>
<g id="content master_5">
<path d="M 11.7221 15L 13.8756 15L 13.8756 11.5754C 13.8756 11.1417 13.9354 10.6632 14.2943 10.3043C 14.4588 10.1248 14.743 9.94536 15.1916 9.94536C 15.5804 9.94536 15.8496 10.08 16.0141 10.2445C 16.358 10.5884 16.373 11.1417 16.373 11.5754L 16.373 15L 18.5265 15L 18.5265 10.7828C 18.5265 10.2445 18.4816 9.45186 17.8535 8.82377C 17.2852 8.2555 16.5225 8.15082 15.9393 8.15082C 15.3112 8.15082 14.5336 8.28541 13.8756 9.12286L 13.8756 8.33027L 11.7221 8.33027L 11.7221 15ZM 20.3566 8.33027L 20.3566 15L 22.5101 15L 22.5101 8.33027L 20.3566 8.33027ZM 20.1772 5.48891C 20.1772 6.19177 20.7305 6.74509 21.4334 6.74509C 22.1362 6.74509 22.6895 6.19177 22.6895 5.48891C 22.6895 4.78605 22.1362 4.23273 21.4334 4.23273C 20.7305 4.23273 20.1772 4.78605 20.1772 5.48891ZM 29.3498 8.47982C 28.7815 8.21064 28.2432 8.10595 27.6599 8.10595C 26.7477 8.10595 25.8654 8.34523 25.1177 9.04809C 24.4896 9.64627 24.011 10.5435 24.011 11.6801C 24.011 12.8914 24.5494 13.7289 25.0578 14.2224C 25.671 14.8205 26.5234 15.2243 27.645 15.2243C 28.2432 15.2243 28.7815 15.1346 29.3498 14.8205L 29.3498 12.8765C 28.8563 13.2952 28.3478 13.3999 27.974 13.3999C 27.4954 13.3999 27.0019 13.2204 26.6729 12.8615C 26.4038 12.5774 26.2243 12.1586 26.2243 11.6651C 26.2243 11.1268 26.4337 10.6931 26.7178 10.409C 26.8673 10.2594 27.2711 9.93041 27.9441 9.93041C 28.288 9.93041 28.8264 10.0052 29.3498 10.4389L 29.3498 8.47982ZM 32.7096 10.7529C 32.7694 10.4538 32.9189 10.2145 33.0834 10.0351C 33.2928 9.82573 33.6218 9.60141 34.1751 9.60141C 34.6088 9.60141 34.9527 9.75095 35.192 9.97527C 35.5061 10.2744 35.6107 10.6931 35.6257 10.7529L 32.7096 10.7529ZM 37.6146 11.8147C 37.6146 10.9922 37.4651 9.94536 36.6725 9.10791C 35.85 8.24055 34.7733 8.10595 34.0256 8.10595C 33.2778 8.10595 32.2759 8.2555 31.4683 9.06305C 30.7954 9.75095 30.4514 10.738 30.4514 11.695C 30.4514 12.8017 30.8701 13.684 31.4534 14.2672C 32.231 15.0449 33.1133 15.2243 34.1153 15.2243C 34.863 15.2243 35.5808 15.1196 36.2239 14.7308C 36.6127 14.4915 37.2109 13.998 37.51 13.0559L 35.4761 12.8465C 35.2967 13.2204 35.0425 13.3849 35.0126 13.3999C 34.7882 13.5345 34.4592 13.5943 34.1452 13.5943C 33.8162 13.5943 33.3676 13.5345 33.0386 13.1755C 32.7694 12.8765 32.6348 12.3979 32.6348 12.039L 37.6146 12.039L 37.6146 11.8147Z" transform="matrix(0.866025 -0.5 0.5 0.866025 87.3633 34.2754)" fill="#191919"/>
</g>
</g>
<g id="Group 6.1" opacity="0.4">
<g id="Ellipse_6">
<ellipse cx="40.2121" cy="40" rx="40.2121" ry="40" transform="translate(87 75)" fill="white"/>
<g mask="url(#path12_ins)" transform="translate(87 75)">
<ellipse cx="40.2121" cy="40" rx="40.2121" ry="40" stroke-width="4" stroke="#222222"/>
</g>
</g>
<g id="content master_6">
<path d="M 0.839393 15L 2.99783 15L 2.99783 11.5825C 2.99783 11.3576 3.01282 10.6082 3.41753 10.2185C 3.62738 10.0236 3.88219 9.94865 4.16699 9.94865C 4.39182 9.94865 4.66163 9.99362 4.88647 10.2185C 5.21623 10.5482 5.23122 11.0728 5.23122 11.5225L 5.23122 15L 7.38966 15L 7.38966 11.6724C 7.38966 11.2377 7.43462 10.7131 7.71942 10.3534C 7.89929 10.1135 8.19907 9.94865 8.55881 9.94865C 8.87358 9.94865 9.15838 10.0836 9.33825 10.3084C 9.62304 10.6681 9.62304 11.2677 9.62304 11.6125L 9.62304 15L 11.7815 15L 11.7815 10.7731C 11.7815 10.2934 11.7365 9.39405 11.092 8.7795C 10.6873 8.38978 10.0277 8.14995 9.21833 8.14995C 8.69371 8.14995 8.25903 8.23989 7.79436 8.52468C 7.35968 8.79449 7.10486 9.10926 6.93998 9.37907C 6.76011 8.97436 6.47532 8.6446 6.13057 8.44974C 5.68089 8.17993 5.15627 8.14995 4.87148 8.14995C 4.36185 8.14995 3.55243 8.25488 2.99783 9.09427L 2.99783 8.31484L 0.839393 8.31484L 0.839393 15ZM 13.6217 8.31484L 13.6217 15L 15.7802 15L 15.7802 8.31484L 13.6217 8.31484ZM 13.4419 5.4669C 13.4419 6.17139 13.9965 6.72598 14.701 6.72598C 15.4055 6.72598 15.9601 6.17139 15.9601 5.4669C 15.9601 4.7624 15.4055 4.20781 14.701 4.20781C 13.9965 4.20781 13.4419 4.7624 13.4419 5.4669ZM 17.6144 15L 19.7728 15L 19.7728 11.5675C 19.7728 11.1328 19.8328 10.6531 20.1925 10.2934C 20.3574 10.1135 20.6422 9.93366 21.0919 9.93366C 21.4816 9.93366 21.7514 10.0686 21.9163 10.2334C 22.261 10.5782 22.276 11.1328 22.276 11.5675L 22.276 15L 24.4344 15L 24.4344 10.7731C 24.4344 10.2334 24.3895 9.43902 23.7599 8.80948C 23.1903 8.23989 22.4259 8.13497 21.8413 8.13497C 21.2118 8.13497 20.4323 8.26987 19.7728 9.10926L 19.7728 8.31484L 17.6144 8.31484L 17.6144 15ZM 26.2689 8.31484L 26.2689 15L 28.4273 15L 28.4273 8.31484L 26.2689 8.31484ZM 26.089 5.4669C 26.089 6.17139 26.6436 6.72598 27.3481 6.72598C 28.0526 6.72598 28.6072 6.17139 28.6072 5.4669C 28.6072 4.7624 28.0526 4.20781 27.3481 4.20781C 26.6436 4.20781 26.089 4.7624 26.089 5.4669ZM 30.2615 15L 32.4199 15L 32.4199 11.5825C 32.4199 11.3576 32.4349 10.6082 32.8396 10.2185C 33.0495 10.0236 33.3043 9.94865 33.5891 9.94865C 33.8139 9.94865 34.0837 9.99362 34.3085 10.2185C 34.6383 10.5482 34.6533 11.0728 34.6533 11.5225L 34.6533 15L 36.8117 15L 36.8117 11.6724C 36.8117 11.2377 36.8567 10.7131 37.1415 10.3534C 37.3214 10.1135 37.6211 9.94865 37.9809 9.94865C 38.2957 9.94865 38.5805 10.0836 38.7603 10.3084C 39.0451 10.6681 39.0451 11.2677 39.0451 11.6125L 39.0451 15L 41.2036 15L 41.2036 10.7731C 41.2036 10.2934 41.1586 9.39405 40.5141 8.7795C 40.1093 8.38978 39.4498 8.14995 38.6404 8.14995C 38.1158 8.14995 37.6811 8.23989 37.2164 8.52468C 36.7818 8.79449 36.5269 9.10926 36.3621 9.37907C 36.1822 8.97436 35.8974 8.6446 35.5526 8.44974C 35.103 8.17993 34.5783 8.14995 34.2936 8.14995C 33.7839 8.14995 32.9745 8.25488 32.4199 9.09427L 32.4199 8.31484L 30.2615 8.31484L 30.2615 15ZM 48.0202 9.06429C 47.4057 8.2249 46.4913 8.09 45.9217 8.09C 44.9924 8.09 44.183 8.41976 43.5984 9.00434C 42.9839 9.61889 42.5642 10.5782 42.5642 11.7024C 42.5642 12.5867 42.834 13.4561 43.5385 14.2056C 44.2729 14.985 45.0824 15.2248 46.0417 15.2248C 46.5963 15.2248 47.4357 15.0899 48.0202 14.1906L 48.0202 15L 50.1787 15L 50.1787 8.31484L 48.0202 8.31484L 48.0202 9.06429ZM 46.4614 9.94865C 46.8511 9.94865 47.3307 10.0985 47.6605 10.4133C 47.9753 10.7131 48.1551 11.1628 48.1551 11.6424C 48.1551 12.212 47.9153 12.6317 47.6305 12.9015C 47.3457 13.1863 46.941 13.3662 46.5063 13.3662C 45.9967 13.3662 45.532 13.1563 45.2322 12.8416C 45.0374 12.6317 44.7826 12.242 44.7826 11.6424C 44.7826 11.0429 45.0524 10.6531 45.2772 10.4283C 45.562 10.1435 45.9967 9.94865 46.4614 9.94865ZM 51.9123 4.0729L 51.9123 15L 54.0707 15L 54.0707 4.0729L 51.9123 4.0729Z" transform="matrix(0.867167 -0.498018 0.501985 0.864877 98.1543 119.307)" fill="#191919"/>
</g>
</g>
<g id="Mask Group_3">
<g id="Ellipse_7">
<circle cx="41" cy="41" r="41" transform="translate(0 37)" fill="white"/>
<circle cx="41" cy="41" r="40" stroke-width="2" transform="translate(0 37)" stroke="#222222"/>
</g>
<g id="content master_7">
<path d="M 8.8366 12.1464C 7.9778 11.7396 7.1642 11.5814 6.2828 11.5814C 4.9042 11.5814 3.5708 11.943 2.4408 13.0052C 1.4916 13.9092 0.7684 15.2652 0.7684 16.9828C 0.7684 18.8134 1.582 20.079 2.3504 20.8248C 3.277 21.7288 4.5652 22.339 6.2602 22.339C 7.1642 22.339 7.9778 22.2034 8.8366 21.7288L 8.8366 18.7908C 8.0908 19.4236 7.3224 19.5818 6.7574 19.5818C 6.0342 19.5818 5.2884 19.3106 4.7912 18.7682C 4.3844 18.3388 4.1132 17.706 4.1132 16.9602C 4.1132 16.1466 4.4296 15.4912 4.859 15.0618C 5.085 14.8358 5.6952 14.3386 6.7122 14.3386C 7.232 14.3386 8.0456 14.4516 8.8366 15.107L 8.8366 12.1464ZM 11.089 5.5246L 11.089 22L 14.3434 22L 14.3434 5.5246L 11.089 5.5246ZM 19.873 15.5816C 19.9634 15.1296 20.1894 14.768 20.438 14.4968C 20.7544 14.1804 21.2516 13.8414 22.0878 13.8414C 22.7432 13.8414 23.263 14.0674 23.6246 14.4064C 24.0992 14.8584 24.2574 15.4912 24.28 15.5816L 19.873 15.5816ZM 27.2858 17.1862C 27.2858 15.9432 27.0598 14.3612 25.862 13.0956C 24.619 11.7848 22.9918 11.5814 21.8618 11.5814C 20.7318 11.5814 19.2176 11.8074 17.9972 13.0278C 16.9802 14.0674 16.4604 15.559 16.4604 17.0054C 16.4604 18.6778 17.0932 20.0112 17.9746 20.8926C 19.1498 22.0678 20.4832 22.339 21.9974 22.339C 23.1274 22.339 24.2122 22.1808 25.184 21.5932C 25.7716 21.2316 26.6756 20.4858 27.1276 19.062L 24.054 18.7456C 23.7828 19.3106 23.3986 19.5592 23.3534 19.5818C 23.0144 19.7852 22.5172 19.8756 22.0426 19.8756C 21.5454 19.8756 20.8674 19.7852 20.3702 19.2428C 19.9634 18.7908 19.76 18.0676 19.76 17.5252L 27.2858 17.5252L 27.2858 17.1862ZM 37.0462 13.0504C 36.1196 11.7848 34.741 11.5814 33.8822 11.5814C 32.481 11.5814 31.2606 12.0786 30.3792 12.96C 29.4526 13.8866 28.8198 15.333 28.8198 17.028C 28.8198 18.3614 29.2266 19.6722 30.2888 20.8022C 31.3962 21.9774 32.6166 22.339 34.063 22.339C 34.8992 22.339 36.1648 22.1356 37.0462 20.7796L 37.0462 22L 40.3006 22L 40.3006 11.9204L 37.0462 11.9204L 37.0462 13.0504ZM 34.6958 14.3838C 35.2834 14.3838 36.0066 14.6098 36.5038 15.0844C 36.9784 15.5364 37.2496 16.2144 37.2496 16.9376C 37.2496 17.7964 36.888 18.4292 36.4586 18.836C 36.0292 19.2654 35.419 19.5366 34.7636 19.5366C 33.9952 19.5366 33.2946 19.2202 32.8426 18.7456C 32.5488 18.4292 32.1646 17.8416 32.1646 16.9376C 32.1646 16.0336 32.5714 15.446 32.9104 15.107C 33.3398 14.6776 33.9952 14.3838 34.6958 14.3838ZM 42.824 22L 46.0784 22L 46.0784 16.8246C 46.0784 16.1692 46.1688 15.446 46.7112 14.9036C 46.9598 14.6324 47.3892 14.3612 48.0672 14.3612C 48.6548 14.3612 49.0616 14.5646 49.3102 14.8132C 49.83 15.333 49.8526 16.1692 49.8526 16.8246L 49.8526 22L 53.107 22L 53.107 15.6268C 53.107 14.8132 53.0392 13.6154 52.09 12.6662C 51.2312 11.8074 50.0786 11.6492 49.1972 11.6492C 48.248 11.6492 47.0728 11.8526 46.0784 13.1182L 46.0784 11.9204L 42.824 11.9204L 42.824 22Z" transform="matrix(0.866025 -0.5 0.5 0.866025 8.38477 77.2998)" fill="#191919"/>
</g>
</g>
<g id="Group 5.2" opacity="0.1">
<g id="Ellipse_8">
<circle cx="31.5" cy="31.5" r="31.5" transform="translate(82 0)" fill="white"/>
<circle cx="31.5" cy="31.5" r="30.5" stroke-width="2" transform="translate(82 0)" stroke="#222222"/>
</g>
<g id="content master_8">
<path d="M 11.7221 15L 13.8756 15L 13.8756 11.5754C 13.8756 11.1417 13.9354 10.6632 14.2943 10.3043C 14.4588 10.1248 14.743 9.94536 15.1916 9.94536C 15.5804 9.94536 15.8496 10.08 16.0141 10.2445C 16.358 10.5884 16.373 11.1417 16.373 11.5754L 16.373 15L 18.5265 15L 18.5265 10.7828C 18.5265 10.2445 18.4816 9.45186 17.8535 8.82377C 17.2852 8.2555 16.5225 8.15082 15.9393 8.15082C 15.3112 8.15082 14.5336 8.28541 13.8756 9.12286L 13.8756 8.33027L 11.7221 8.33027L 11.7221 15ZM 20.3566 8.33027L 20.3566 15L 22.5101 15L 22.5101 8.33027L 20.3566 8.33027ZM 20.1772 5.48891C 20.1772 6.19177 20.7305 6.74509 21.4334 6.74509C 22.1362 6.74509 22.6895 6.19177 22.6895 5.48891C 22.6895 4.78605 22.1362 4.23273 21.4334 4.23273C 20.7305 4.23273 20.1772 4.78605 20.1772 5.48891ZM 29.3498 8.47982C 28.7815 8.21064 28.2432 8.10595 27.6599 8.10595C 26.7477 8.10595 25.8654 8.34523 25.1177 9.04809C 24.4896 9.64627 24.011 10.5435 24.011 11.6801C 24.011 12.8914 24.5494 13.7289 25.0578 14.2224C 25.671 14.8205 26.5234 15.2243 27.645 15.2243C 28.2432 15.2243 28.7815 15.1346 29.3498 14.8205L 29.3498 12.8765C 28.8563 13.2952 28.3478 13.3999 27.974 13.3999C 27.4954 13.3999 27.0019 13.2204 26.6729 12.8615C 26.4038 12.5774 26.2243 12.1586 26.2243 11.6651C 26.2243 11.1268 26.4337 10.6931 26.7178 10.409C 26.8673 10.2594 27.2711 9.93041 27.9441 9.93041C 28.288 9.93041 28.8264 10.0052 29.3498 10.4389L 29.3498 8.47982ZM 32.7096 10.7529C 32.7694 10.4538 32.9189 10.2145 33.0834 10.0351C 33.2928 9.82573 33.6218 9.60141 34.1751 9.60141C 34.6088 9.60141 34.9527 9.75095 35.192 9.97527C 35.5061 10.2744 35.6107 10.6931 35.6257 10.7529L 32.7096 10.7529ZM 37.6146 11.8147C 37.6146 10.9922 37.4651 9.94536 36.6725 9.10791C 35.85 8.24055 34.7733 8.10595 34.0256 8.10595C 33.2778 8.10595 32.2759 8.2555 31.4683 9.06305C 30.7954 9.75095 30.4514 10.738 30.4514 11.695C 30.4514 12.8017 30.8701 13.684 31.4534 14.2672C 32.231 15.0449 33.1133 15.2243 34.1153 15.2243C 34.863 15.2243 35.5808 15.1196 36.2239 14.7308C 36.6127 14.4915 37.2109 13.998 37.51 13.0559L 35.4761 12.8465C 35.2967 13.2204 35.0425 13.3849 35.0126 13.3999C 34.7882 13.5345 34.4592 13.5943 34.1452 13.5943C 33.8162 13.5943 33.3676 13.5345 33.0386 13.1755C 32.7694 12.8765 32.6348 12.3979 32.6348 12.039L 37.6146 12.039L 37.6146 11.8147Z" transform="matrix(0.866025 -0.5 0.5 0.866025 87.3633 34.2754)" fill="#191919"/>
</g>
</g>
<g id="Group 6.2" opacity="0.4">
<g id="Ellipse_9">
<ellipse cx="40.2121" cy="40" rx="40.2121" ry="40" transform="translate(87 75)" fill="white"/>
<g mask="url(#path17_ins)" transform="translate(87 75)">
<ellipse cx="40.2121" cy="40" rx="40.2121" ry="40" stroke-width="4" stroke="#222222"/>
</g>
</g>
<g id="content master_9">
<path d="M 0.839393 15L 2.99783 15L 2.99783 11.5825C 2.99783 11.3576 3.01282 10.6082 3.41753 10.2185C 3.62738 10.0236 3.88219 9.94865 4.16699 9.94865C 4.39182 9.94865 4.66163 9.99362 4.88647 10.2185C 5.21623 10.5482 5.23122 11.0728 5.23122 11.5225L 5.23122 15L 7.38966 15L 7.38966 11.6724C 7.38966 11.2377 7.43462 10.7131 7.71942 10.3534C 7.89929 10.1135 8.19907 9.94865 8.55881 9.94865C 8.87358 9.94865 9.15838 10.0836 9.33825 10.3084C 9.62304 10.6681 9.62304 11.2677 9.62304 11.6125L 9.62304 15L 11.7815 15L 11.7815 10.7731C 11.7815 10.2934 11.7365 9.39405 11.092 8.7795C 10.6873 8.38978 10.0277 8.14995 9.21833 8.14995C 8.69371 8.14995 8.25903 8.23989 7.79436 8.52468C 7.35968 8.79449 7.10486 9.10926 6.93998 9.37907C 6.76011 8.97436 6.47532 8.6446 6.13057 8.44974C 5.68089 8.17993 5.15627 8.14995 4.87148 8.14995C 4.36185 8.14995 3.55243 8.25488 2.99783 9.09427L 2.99783 8.31484L 0.839393 8.31484L 0.839393 15ZM 13.6217 8.31484L 13.6217 15L 15.7802 15L 15.7802 8.31484L 13.6217 8.31484ZM 13.4419 5.4669C 13.4419 6.17139 13.9965 6.72598 14.701 6.72598C 15.4055 6.72598 15.9601 6.17139 15.9601 5.4669C 15.9601 4.7624 15.4055 4.20781 14.701 4.20781C 13.9965 4.20781 13.4419 4.7624 13.4419 5.4669ZM 17.6144 15L 19.7728 15L 19.7728 11.5675C 19.7728 11.1328 19.8328 10.6531 20.1925 10.2934C 20.3574 10.1135 20.6422 9.93366 21.0919 9.93366C 21.4816 9.93366 21.7514 10.0686 21.9163 10.2334C 22.261 10.5782 22.276 11.1328 22.276 11.5675L 22.276 15L 24.4344 15L 24.4344 10.7731C 24.4344 10.2334 24.3895 9.43902 23.7599 8.80948C 23.1903 8.23989 22.4259 8.13497 21.8413 8.13497C 21.2118 8.13497 20.4323 8.26987 19.7728 9.10926L 19.7728 8.31484L 17.6144 8.31484L 17.6144 15ZM 26.2689 8.31484L 26.2689 15L 28.4273 15L 28.4273 8.31484L 26.2689 8.31484ZM 26.089 5.4669C 26.089 6.17139 26.6436 6.72598 27.3481 6.72598C 28.0526 6.72598 28.6072 6.17139 28.6072 5.4669C 28.6072 4.7624 28.0526 4.20781 27.3481 4.20781C 26.6436 4.20781 26.089 4.7624 26.089 5.4669ZM 30.2615 15L 32.4199 15L 32.4199 11.5825C 32.4199 11.3576 32.4349 10.6082 32.8396 10.2185C 33.0495 10.0236 33.3043 9.94865 33.5891 9.94865C 33.8139 9.94865 34.0837 9.99362 34.3085 10.2185C 34.6383 10.5482 34.6533 11.0728 34.6533 11.5225L 34.6533 15L 36.8117 15L 36.8117 11.6724C 36.8117 11.2377 36.8567 10.7131 37.1415 10.3534C 37.3214 10.1135 37.6211 9.94865 37.9809 9.94865C 38.2957 9.94865 38.5805 10.0836 38.7603 10.3084C 39.0451 10.6681 39.0451 11.2677 39.0451 11.6125L 39.0451 15L 41.2036 15L 41.2036 10.7731C 41.2036 10.2934 41.1586 9.39405 40.5141 8.7795C 40.1093 8.38978 39.4498 8.14995 38.6404 8.14995C 38.1158 8.14995 37.6811 8.23989 37.2164 8.52468C 36.7818 8.79449 36.5269 9.10926 36.3621 9.37907C 36.1822 8.97436 35.8974 8.6446 35.5526 8.44974C 35.103 8.17993 34.5783 8.14995 34.2936 8.14995C 33.7839 8.14995 32.9745 8.25488 32.4199 9.09427L 32.4199 8.31484L 30.2615 8.31484L 30.2615 15ZM 48.0202 9.06429C 47.4057 8.2249 46.4913 8.09 45.9217 8.09C 44.9924 8.09 44.183 8.41976 43.5984 9.00434C 42.9839 9.61889 42.5642 10.5782 42.5642 11.7024C 42.5642 12.5867 42.834 13.4561 43.5385 14.2056C 44.2729 14.985 45.0824 15.2248 46.0417 15.2248C 46.5963 15.2248 47.4357 15.0899 48.0202 14.1906L 48.0202 15L 50.1787 15L 50.1787 8.31484L 48.0202 8.31484L 48.0202 9.06429ZM 46.4614 9.94865C 46.8511 9.94865 47.3307 10.0985 47.6605 10.4133C 47.9753 10.7131 48.1551 11.1628 48.1551 11.6424C 48.1551 12.212 47.9153 12.6317 47.6305 12.9015C 47.3457 13.1863 46.941 13.3662 46.5063 13.3662C 45.9967 13.3662 45.532 13.1563 45.2322 12.8416C 45.0374 12.6317 44.7826 12.242 44.7826 11.6424C 44.7826 11.0429 45.0524 10.6531 45.2772 10.4283C 45.562 10.1435 45.9967 9.94865 46.4614 9.94865ZM 51.9123 4.0729L 51.9123 15L 54.0707 15L 54.0707 4.0729L 51.9123 4.0729Z" transform="matrix(0.867167 -0.498018 0.501985 0.864877 98.1543 119.307)" fill="#191919"/>
</g>
</g>
<g id="Mask Group_4">
<g id="Ellipse_10">
<circle cx="41" cy="41" r="41" transform="translate(0 37)" fill="white"/>
<circle cx="41" cy="41" r="40" stroke-width="2" transform="translate(0 37)" stroke="#222222"/>
</g>
<g id="content master_10">
<path d="M 8.8366 12.1464C 7.9778 11.7396 7.1642 11.5814 6.2828 11.5814C 4.9042 11.5814 3.5708 11.943 2.4408 13.0052C 1.4916 13.9092 0.7684 15.2652 0.7684 16.9828C 0.7684 18.8134 1.582 20.079 2.3504 20.8248C 3.277 21.7288 4.5652 22.339 6.2602 22.339C 7.1642 22.339 7.9778 22.2034 8.8366 21.7288L 8.8366 18.7908C 8.0908 19.4236 7.3224 19.5818 6.7574 19.5818C 6.0342 19.5818 5.2884 19.3106 4.7912 18.7682C 4.3844 18.3388 4.1132 17.706 4.1132 16.9602C 4.1132 16.1466 4.4296 15.4912 4.859 15.0618C 5.085 14.8358 5.6952 14.3386 6.7122 14.3386C 7.232 14.3386 8.0456 14.4516 8.8366 15.107L 8.8366 12.1464ZM 11.089 5.5246L 11.089 22L 14.3434 22L 14.3434 5.5246L 11.089 5.5246ZM 19.873 15.5816C 19.9634 15.1296 20.1894 14.768 20.438 14.4968C 20.7544 14.1804 21.2516 13.8414 22.0878 13.8414C 22.7432 13.8414 23.263 14.0674 23.6246 14.4064C 24.0992 14.8584 24.2574 15.4912 24.28 15.5816L 19.873 15.5816ZM 27.2858 17.1862C 27.2858 15.9432 27.0598 14.3612 25.862 13.0956C 24.619 11.7848 22.9918 11.5814 21.8618 11.5814C 20.7318 11.5814 19.2176 11.8074 17.9972 13.0278C 16.9802 14.0674 16.4604 15.559 16.4604 17.0054C 16.4604 18.6778 17.0932 20.0112 17.9746 20.8926C 19.1498 22.0678 20.4832 22.339 21.9974 22.339C 23.1274 22.339 24.2122 22.1808 25.184 21.5932C 25.7716 21.2316 26.6756 20.4858 27.1276 19.062L 24.054 18.7456C 23.7828 19.3106 23.3986 19.5592 23.3534 19.5818C 23.0144 19.7852 22.5172 19.8756 22.0426 19.8756C 21.5454 19.8756 20.8674 19.7852 20.3702 19.2428C 19.9634 18.7908 19.76 18.0676 19.76 17.5252L 27.2858 17.5252L 27.2858 17.1862ZM 37.0462 13.0504C 36.1196 11.7848 34.741 11.5814 33.8822 11.5814C 32.481 11.5814 31.2606 12.0786 30.3792 12.96C 29.4526 13.8866 28.8198 15.333 28.8198 17.028C 28.8198 18.3614 29.2266 19.6722 30.2888 20.8022C 31.3962 21.9774 32.6166 22.339 34.063 22.339C 34.8992 22.339 36.1648 22.1356 37.0462 20.7796L 37.0462 22L 40.3006 22L 40.3006 11.9204L 37.0462 11.9204L 37.0462 13.0504ZM 34.6958 14.3838C 35.2834 14.3838 36.0066 14.6098 36.5038 15.0844C 36.9784 15.5364 37.2496 16.2144 37.2496 16.9376C 37.2496 17.7964 36.888 18.4292 36.4586 18.836C 36.0292 19.2654 35.419 19.5366 34.7636 19.5366C 33.9952 19.5366 33.2946 19.2202 32.8426 18.7456C 32.5488 18.4292 32.1646 17.8416 32.1646 16.9376C 32.1646 16.0336 32.5714 15.446 32.9104 15.107C 33.3398 14.6776 33.9952 14.3838 34.6958 14.3838ZM 42.824 22L 46.0784 22L 46.0784 16.8246C 46.0784 16.1692 46.1688 15.446 46.7112 14.9036C 46.9598 14.6324 47.3892 14.3612 48.0672 14.3612C 48.6548 14.3612 49.0616 14.5646 49.3102 14.8132C 49.83 15.333 49.8526 16.1692 49.8526 16.8246L 49.8526 22L 53.107 22L 53.107 15.6268C 53.107 14.8132 53.0392 13.6154 52.09 12.6662C 51.2312 11.8074 50.0786 11.6492 49.1972 11.6492C 48.248 11.6492 47.0728 11.8526 46.0784 13.1182L 46.0784 11.9204L 42.824 11.9204L 42.824 22Z" transform="matrix(0.866025 -0.5 0.5 0.866025 8.38477 77.2998)" fill="#191919"/>
</g>
</g>
<g id="Group 5.3" opacity="0.1">
<g id="Ellipse_11">
<circle cx="31.5" cy="31.5" r="31.5" transform="translate(82 0)" fill="white"/>
<circle cx="31.5" cy="31.5" r="30.5" stroke-width="2" transform="translate(82 0)" stroke="#222222"/>
</g>
<g id="content master_11">
<path d="M 11.7221 15L 13.8756 15L 13.8756 11.5754C 13.8756 11.1417 13.9354 10.6632 14.2943 10.3043C 14.4588 10.1248 14.743 9.94536 15.1916 9.94536C 15.5804 9.94536 15.8496 10.08 16.0141 10.2445C 16.358 10.5884 16.373 11.1417 16.373 11.5754L 16.373 15L 18.5265 15L 18.5265 10.7828C 18.5265 10.2445 18.4816 9.45186 17.8535 8.82377C 17.2852 8.2555 16.5225 8.15082 15.9393 8.15082C 15.3112 8.15082 14.5336 8.28541 13.8756 9.12286L 13.8756 8.33027L 11.7221 8.33027L 11.7221 15ZM 20.3566 8.33027L 20.3566 15L 22.5101 15L 22.5101 8.33027L 20.3566 8.33027ZM 20.1772 5.48891C 20.1772 6.19177 20.7305 6.74509 21.4334 6.74509C 22.1362 6.74509 22.6895 6.19177 22.6895 5.48891C 22.6895 4.78605 22.1362 4.23273 21.4334 4.23273C 20.7305 4.23273 20.1772 4.78605 20.1772 5.48891ZM 29.3498 8.47982C 28.7815 8.21064 28.2432 8.10595 27.6599 8.10595C 26.7477 8.10595 25.8654 8.34523 25.1177 9.04809C 24.4896 9.64627 24.011 10.5435 24.011 11.6801C 24.011 12.8914 24.5494 13.7289 25.0578 14.2224C 25.671 14.8205 26.5234 15.2243 27.645 15.2243C 28.2432 15.2243 28.7815 15.1346 29.3498 14.8205L 29.3498 12.8765C 28.8563 13.2952 28.3478 13.3999 27.974 13.3999C 27.4954 13.3999 27.0019 13.2204 26.6729 12.8615C 26.4038 12.5774 26.2243 12.1586 26.2243 11.6651C 26.2243 11.1268 26.4337 10.6931 26.7178 10.409C 26.8673 10.2594 27.2711 9.93041 27.9441 9.93041C 28.288 9.93041 28.8264 10.0052 29.3498 10.4389L 29.3498 8.47982ZM 32.7096 10.7529C 32.7694 10.4538 32.9189 10.2145 33.0834 10.0351C 33.2928 9.82573 33.6218 9.60141 34.1751 9.60141C 34.6088 9.60141 34.9527 9.75095 35.192 9.97527C 35.5061 10.2744 35.6107 10.6931 35.6257 10.7529L 32.7096 10.7529ZM 37.6146 11.8147C 37.6146 10.9922 37.4651 9.94536 36.6725 9.10791C 35.85 8.24055 34.7733 8.10595 34.0256 8.10595C 33.2778 8.10595 32.2759 8.2555 31.4683 9.06305C 30.7954 9.75095 30.4514 10.738 30.4514 11.695C 30.4514 12.8017 30.8701 13.684 31.4534 14.2672C 32.231 15.0449 33.1133 15.2243 34.1153 15.2243C 34.863 15.2243 35.5808 15.1196 36.2239 14.7308C 36.6127 14.4915 37.2109 13.998 37.51 13.0559L 35.4761 12.8465C 35.2967 13.2204 35.0425 13.3849 35.0126 13.3999C 34.7882 13.5345 34.4592 13.5943 34.1452 13.5943C 33.8162 13.5943 33.3676 13.5345 33.0386 13.1755C 32.7694 12.8765 32.6348 12.3979 32.6348 12.039L 37.6146 12.039L 37.6146 11.8147Z" transform="matrix(0.866025 -0.5 0.5 0.866025 87.3633 34.2754)" fill="#191919"/>
</g>
</g>
<g id="Group 6.3" opacity="0.4">
<g id="Ellipse_12">
<ellipse cx="40.2121" cy="40" rx="40.2121" ry="40" transform="translate(87 75)" fill="white"/>
<g mask="url(#path22_ins)" transform="translate(87 75)">
<ellipse cx="40.2121" cy="40" rx="40.2121" ry="40" stroke-width="4" stroke="#222222"/>
</g>
</g>
<g id="content master_12">
<path d="M 0.839393 15L 2.99783 15L 2.99783 11.5825C 2.99783 11.3576 3.01282 10.6082 3.41753 10.2185C 3.62738 10.0236 3.88219 9.94865 4.16699 9.94865C 4.39182 9.94865 4.66163 9.99362 4.88647 10.2185C 5.21623 10.5482 5.23122 11.0728 5.23122 11.5225L 5.23122 15L 7.38966 15L 7.38966 11.6724C 7.38966 11.2377 7.43462 10.7131 7.71942 10.3534C 7.89929 10.1135 8.19907 9.94865 8.55881 9.94865C 8.87358 9.94865 9.15838 10.0836 9.33825 10.3084C 9.62304 10.6681 9.62304 11.2677 9.62304 11.6125L 9.62304 15L 11.7815 15L 11.7815 10.7731C 11.7815 10.2934 11.7365 9.39405 11.092 8.7795C 10.6873 8.38978 10.0277 8.14995 9.21833 8.14995C 8.69371 8.14995 8.25903 8.23989 7.79436 8.52468C 7.35968 8.79449 7.10486 9.10926 6.93998 9.37907C 6.76011 8.97436 6.47532 8.6446 6.13057 8.44974C 5.68089 8.17993 5.15627 8.14995 4.87148 8.14995C 4.36185 8.14995 3.55243 8.25488 2.99783 9.09427L 2.99783 8.31484L 0.839393 8.31484L 0.839393 15ZM 13.6217 8.31484L 13.6217 15L 15.7802 15L 15.7802 8.31484L 13.6217 8.31484ZM 13.4419 5.4669C 13.4419 6.17139 13.9965 6.72598 14.701 6.72598C 15.4055 6.72598 15.9601 6.17139 15.9601 5.4669C 15.9601 4.7624 15.4055 4.20781 14.701 4.20781C 13.9965 4.20781 13.4419 4.7624 13.4419 5.4669ZM 17.6144 15L 19.7728 15L 19.7728 11.5675C 19.7728 11.1328 19.8328 10.6531 20.1925 10.2934C 20.3574 10.1135 20.6422 9.93366 21.0919 9.93366C 21.4816 9.93366 21.7514 10.0686 21.9163 10.2334C 22.261 10.5782 22.276 11.1328 22.276 11.5675L 22.276 15L 24.4344 15L 24.4344 10.7731C 24.4344 10.2334 24.3895 9.43902 23.7599 8.80948C 23.1903 8.23989 22.4259 8.13497 21.8413 8.13497C 21.2118 8.13497 20.4323 8.26987 19.7728 9.10926L 19.7728 8.31484L 17.6144 8.31484L 17.6144 15ZM 26.2689 8.31484L 26.2689 15L 28.4273 15L 28.4273 8.31484L 26.2689 8.31484ZM 26.089 5.4669C 26.089 6.17139 26.6436 6.72598 27.3481 6.72598C 28.0526 6.72598 28.6072 6.17139 28.6072 5.4669C 28.6072 4.7624 28.0526 4.20781 27.3481 4.20781C 26.6436 4.20781 26.089 4.7624 26.089 5.4669ZM 30.2615 15L 32.4199 15L 32.4199 11.5825C 32.4199 11.3576 32.4349 10.6082 32.8396 10.2185C 33.0495 10.0236 33.3043 9.94865 33.5891 9.94865C 33.8139 9.94865 34.0837 9.99362 34.3085 10.2185C 34.6383 10.5482 34.6533 11.0728 34.6533 11.5225L 34.6533 15L 36.8117 15L 36.8117 11.6724C 36.8117 11.2377 36.8567 10.7131 37.1415 10.3534C 37.3214 10.1135 37.6211 9.94865 37.9809 9.94865C 38.2957 9.94865 38.5805 10.0836 38.7603 10.3084C 39.0451 10.6681 39.0451 11.2677 39.0451 11.6125L 39.0451 15L 41.2036 15L 41.2036 10.7731C 41.2036 10.2934 41.1586 9.39405 40.5141 8.7795C 40.1093 8.38978 39.4498 8.14995 38.6404 8.14995C 38.1158 8.14995 37.6811 8.23989 37.2164 8.52468C 36.7818 8.79449 36.5269 9.10926 36.3621 9.37907C 36.1822 8.97436 35.8974 8.6446 35.5526 8.44974C 35.103 8.17993 34.5783 8.14995 34.2936 8.14995C 33.7839 8.14995 32.9745 8.25488 32.4199 9.09427L 32.4199 8.31484L 30.2615 8.31484L 30.2615 15ZM 48.0202 9.06429C 47.4057 8.2249 46.4913 8.09 45.9217 8.09C 44.9924 8.09 44.183 8.41976 43.5984 9.00434C 42.9839 9.61889 42.5642 10.5782 42.5642 11.7024C 42.5642 12.5867 42.834 13.4561 43.5385 14.2056C 44.2729 14.985 45.0824 15.2248 46.0417 15.2248C 46.5963 15.2248 47.4357 15.0899 48.0202 14.1906L 48.0202 15L 50.1787 15L 50.1787 8.31484L 48.0202 8.31484L 48.0202 9.06429ZM 46.4614 9.94865C 46.8511 9.94865 47.3307 10.0985 47.6605 10.4133C 47.9753 10.7131 48.1551 11.1628 48.1551 11.6424C 48.1551 12.212 47.9153 12.6317 47.6305 12.9015C 47.3457 13.1863 46.941 13.3662 46.5063 13.3662C 45.9967 13.3662 45.532 13.1563 45.2322 12.8416C 45.0374 12.6317 44.7826 12.242 44.7826 11.6424C 44.7826 11.0429 45.0524 10.6531 45.2772 10.4283C 45.562 10.1435 45.9967 9.94865 46.4614 9.94865ZM 51.9123 4.0729L 51.9123 15L 54.0707 15L 54.0707 4.0729L 51.9123 4.0729Z" transform="matrix(0.867167 -0.498018 0.501985 0.864877 98.1543 119.307)" fill="#191919"/>
</g>
</g>
</g>
</g>
<defs>

<mask id="path6_ins" fill="white">
<ellipse cx="40.2121" cy="40" rx="40.2121" ry="40"/>
</mask>
<mask id="path12_ins" fill="white">
<ellipse cx="40.2121" cy="40" rx="40.2121" ry="40"/>
</mask>
<mask id="path17_ins" fill="white">
<ellipse cx="40.2121" cy="40" rx="40.2121" ry="40"/>
</mask>
<mask id="path22_ins" fill="white">
<ellipse cx="40.2121" cy="40" rx="40.2121" ry="40"/>
</mask>

</defs>
</svg>

