<?xml version="1.0" encoding="UTF-8"?>
<svg width="167px" height="60px" viewBox="0 0 167 60" version="1.1" xmlns="http://www.w3.org/2000/svg" xmlns:xlink="http://www.w3.org/1999/xlink">
    <!-- Generator: Sketch 47.1 (45422) - http://www.bohemiancoding.com/sketch -->
    <title>codrops</title>
    <desc>Created with Sketch.</desc>
    <defs></defs>
    <g id="Process" stroke="none" stroke-width="1" fill="none" fill-rule="evenodd">
        <g id="Press" transform="translate(-1361.000000, -1170.000000)" fill-rule="nonzero" fill="#000000">
            <g id="codrops" transform="translate(1361.000000, 1170.000000)">
                <path d="M49.6478585,39.6845638 C46.1076187,37.4621477 44.381952,32.797047 45.2497914,27.7985235 C46.2938417,21.8118121 50.6442518,18.2061745 56.9117578,18.0918121 C52.3599065,7.49597315 41.876952,0.0781208054 29.6663285,0.0781208054 C13.2799041,0.0781208054 0,13.4339597 0,29.910604 C0,46.3892617 13.2795036,59.744698 29.6663285,59.744698 C42.0231271,59.744698 52.6106067,52.1488591 57.0727506,41.347651 C56.7371487,41.3718121 56.3999448,41.3891275 56.0599376,41.3891275 C53.6746811,41.3887248 51.397554,40.7834899 49.6478585,39.6845638 Z M20.8049161,37.1585235 C18.9719209,36.2516779 17.7084077,34.3590604 17.7084077,32.1668456 C17.7084077,29.0947651 23.2410336,20.3774497 23.2410336,20.3774497 C23.2410336,20.3774497 23.6471199,21.0161074 24.2354245,22.0038926 C26.6583261,26.5787919 28.1641295,30.4208054 28.1641295,32.0347651 C28.1641295,35.1648322 25.8601703,37.7138255 23.0283789,37.7138255 C22.2606595,37.7138255 21.5149664,37.5221477 20.8093213,37.1512752 L20.8049161,37.1585235 Z M29.6811463,43.9284564 C26.2125923,43.9284564 23.2001847,41.9931544 21.6327074,39.1409396 C22.0892542,39.2480537 22.555012,39.3072483 23.0279784,39.3072483 C26.7336163,39.3072483 29.7476259,36.0442953 29.7476259,32.0347651 C29.7476259,29.4414765 27.1352974,24.1228188 25.8141151,21.5971812 C27.8453477,17.9395973 29.6811463,15.0455034 29.6811463,15.0455034 C29.6811463,15.0455034 38.8913765,29.5518121 38.8913765,34.6667114 C38.8913765,39.7808054 34.7700408,43.9284564 29.6811463,43.9284564 Z" id="Shape"></path>
                <path d="M163.475379,22.9228188 C162.484592,22.0586577 162.243504,21.4336913 162.757319,20.1781208 L163.643981,17.9750336 L159.433739,17.970604 L158.986403,19.5797315 C158.327213,21.945906 156.953969,23.887651 154.918331,25.3167785 C154.40852,25.6751678 154.102954,25.7939597 153.749331,25.0820134 C152.541885,22.6477852 150.420144,21.5214765 147.844659,21.0781208 C145.141422,20.6150336 138.815046,20.8433557 138.815046,20.8433557 L138.6104,21.9213423 C138.264787,23.58 137.535113,25.0244295 136.016494,25.9312752 C135.575966,26.1946309 135.233957,26.3633557 134.946012,26.1068456 C134.81946,25.9936913 134.701719,25.7939597 134.590787,25.478255 C132.346499,19.0655034 124.219966,18.9591946 120.83271,22.1408054 C117.863554,24.9269799 117.336923,28.4577181 117.998115,32.2534228 C118.425427,34.7025503 119.576005,36.773557 121.791458,38.0798658 C127.584396,41.5026846 134.604803,37.8700671 135.23636,31.1367785 C135.285218,30.6096644 135.095391,29.9689933 135.891144,29.7736913 C136.851094,29.5389262 137.657259,28.9502013 138.58517,28.4472483 C138.895542,29.0299329 138.778602,29.5055034 138.780604,29.961745 C138.793019,35.5671141 138.790616,43.5688591 138.796223,49.1734228 L143.099777,49.1818792 L143.089365,38.4942282 C143.089365,38.4942282 143.735338,38.6287248 144.114192,38.7249664 C146.02488,39.225906 147.944379,39.1079195 149.770566,38.3855034 C153.233113,37.0063087 154.386494,34.0804027 154.618772,30.6402685 C154.672436,29.8510067 154.843842,29.3621477 155.628381,29.024698 C157.060496,28.4081879 158.328415,27.4719463 159.274348,26.2324832 C159.934739,25.364698 160.424926,25.6489933 160.965173,26.204698 C162.475381,27.764698 162.725681,29.6754362 162.328806,31.7102013 C161.803376,34.4049664 159.657206,35.9009396 157.009235,35.4966443 L155.367269,35.2481879 L155.372875,38.7495302 L156.276758,38.9806711 C159.589125,39.8790604 163.731285,38.3057718 165.446139,35.3653691 C167.837002,31.2652349 167.075691,26.0488591 163.475379,22.9228188 Z M130.458237,32.0754362 C130.047746,33.3644295 129.513106,34.5503356 128.259204,35.2022819 C126.250398,36.2436242 123.825894,35.2948993 122.923213,33.1115436 C122.476278,32.0202685 122.199146,30.8766443 122.286451,29.8530201 C122.271633,28.1432215 122.571993,26.6899329 123.462659,25.4065772 C124.36454,24.104698 125.657688,23.7406711 127.152278,23.9150336 C128.539139,24.0744966 129.396566,24.9398658 129.997285,26.1390604 L130.389355,27.0712752 L129.500691,27.0769128 L128.35652,27.0769128 L128.35652,30.6072483 L129.430607,30.614094 C129.68371,30.614094 130.839494,30.614094 130.839494,30.614094 C130.82788,30.96 130.458237,32.0754362 130.458237,32.0754362 Z M149.931959,31.485906 C149.567122,34.0820134 146.817429,36.5021477 143.871101,34.8116779 C143.318439,34.4967785 143.078552,34.5551678 143.084158,33.9048322 L143.084158,24.4594631 L144.12901,24.4514094 C146.172657,24.4824161 148.123794,24.6511409 149.40693,26.6395973 C148.764561,27.1316779 147.742537,27.1824161 147.742537,27.1824161 L147.734127,30.4671141 L149.037688,30.4151678 C149.429357,30.3986577 150.060113,30.3652349 150.060113,30.3652349 L149.931959,31.485906 Z" id="Shape"></path>
                <path d="M107.948079,23.842953 L107.943674,20.7732886 L103.763868,20.7604027 L103.756659,31.567651 C103.737436,33.2734228 102.330552,34.7134228 100.793911,34.7238926 C99.3393693,34.7283221 98.7694868,33.8710067 98.7498633,31.695302 C98.7498633,31.3683221 98.7498633,31.0348993 98.7498633,30.705906 L98.7498633,9.55006711 L92.4338993,9.54402685 L92.4282926,13.1138255 L93.9641319,13.1081879 C94.5444269,13.1855034 94.4639305,13.8668456 94.4699376,14.287651 C94.4851559,15.8387919 94.4178753,17.3947651 94.4951679,18.9442953 C94.5444269,19.9204027 94.1607674,20.1374497 93.284518,20.122953 C91.8271727,20.1020134 90.3894508,20.3073826 89.0093981,20.8042953 C84.1263501,22.5571812 81.4179065,27.8504698 82.586506,33.2834899 C83.1519832,35.9178523 84.2901463,38.1692617 87.0394388,38.9375839 C90.2096355,39.8202685 93.078271,39.2573154 95.1387386,36.3672483 C96.949307,38.9786577 98.6161031,39.6197315 101.242448,38.917047 C102.131513,38.6822819 103.799511,37.8934228 103.799511,37.8934228 L103.795106,39.0696644 L108.292892,39.0720805 L108.307309,30.6672483 C108.307309,28.597047 109.183559,26.6508725 111.048592,25.3840268 C111.494727,25.0804027 111.782271,24.8516779 112.258041,25.0055034 C112.835933,25.1971812 112.76705,26.2401342 112.76705,26.2401342 L112.769453,27.6946309 L116.436645,27.6902013 L116.436645,21.5319463 L116.441851,20.2751678 L115.242415,20.2856376 C112.319314,20.2510067 107.948079,23.842953 107.948079,23.842953 Z M94.2328537,32.0299329 C93.6405444,33.9048322 91.90006,35.1394631 89.983765,34.9884564 C88.265307,34.8555705 87.2272638,33.6583893 86.9705564,31.5068456 C86.5724796,28.2281879 87.9224964,25.4762416 90.4451175,24.3024161 C91.5204053,23.8055034 92.6249281,23.8936913 93.7446691,23.9234899 C94.3762254,23.94 94.4871583,24.3442953 94.482753,24.8742282 C94.4683357,25.8608054 94.4771463,26.8457718 94.4771463,28.1041611 C94.403458,29.2316779 94.6725803,30.6422819 94.2328537,32.0299329 Z" id="Shape"></path>
                <path d="M75.9289329,21.1107383 C72.802789,19.6284564 69.6273861,19.6618792 66.7219065,21.6354362 C63.6241966,23.7346309 62.6910791,26.9867114 62.9209544,30.5222819 C62.9674101,31.2342282 63.1796643,32.2030872 63.1796643,32.2030872 C63.1796643,32.2030872 62.0979688,33.292349 61.6526355,33.7296644 C60.5360983,34.8181208 59.1660576,35.3830872 57.6474388,35.5590604 C54.8304652,35.8816107 52.5669544,34.4734228 51.8541007,31.9932886 C50.9962734,29.0057718 52.2665947,25.5587919 54.649048,24.4055034 C55.1496475,24.1655034 55.6706715,24.0269799 56.2261367,23.9677852 C56.210518,23.9677852 56.1973022,23.9677852 56.1928969,23.9677852 C56.200506,23.9677852 56.2209305,23.9657718 56.259777,23.9609396 C56.2493645,23.962953 56.2353477,23.9653691 56.2265372,23.9677852 C56.4728321,23.9657718 57.7960168,24.0221477 57.7960168,25.4275168 L57.8108345,27.1977181 L61.534494,27.2033557 L61.534494,20.5268456 C61.534494,20.5268456 60.1548417,20.3520805 58.6818777,20.2248322 C53.0106859,19.7375839 48.3983621,22.1404027 47.3507074,28.1685906 C46.6342494,32.2856376 47.9894724,36.172349 50.8088489,37.9421477 C54.501271,40.2636242 60.6406235,39.607651 63.725518,36.5206711 C64.020271,36.2271141 64.451988,35.8320805 64.451988,35.8320805 C64.451988,35.8320805 64.8164245,36.2005369 65.0775372,36.4948993 C67.7787722,39.5041611 72.4495659,40.2148993 75.9974149,38.2606711 C79.2961655,36.4405369 81.034247,32.2079195 80.3137842,27.7425503 C79.8480264,24.8637584 78.6706163,22.4122148 75.9289329,21.1107383 Z M75.0935324,33.4099329 C74.4707866,34.8169128 73.3314221,35.587651 71.7915779,35.6162416 C70.2164916,35.6416107 68.9798106,34.9791946 68.2913861,33.5065772 C67.0787338,30.9302013 67.0611127,28.3320805 68.3911055,25.8008054 C69.0871391,24.4731544 70.1311894,23.9363758 71.5921391,23.925906 C73.244518,23.8252349 74.4003022,24.6225503 75.0687026,26.0516779 C76.21047,28.4786577 76.1760288,30.9640268 75.0935324,33.4099329 Z" id="Shape"></path>
            </g>
        </g>
    </g>
</svg>