<?xml version="1.0" encoding="UTF-8"?>
<svg width="200px" height="91px" viewBox="0 0 200 91" version="1.1" xmlns="http://www.w3.org/2000/svg" xmlns:xlink="http://www.w3.org/1999/xlink">
    <!-- Generator: Sketch 47.1 (45422) - http://www.bohemiancoding.com/sketch -->
    <title>Group 3</title>
    <desc>Created with Sketch.</desc>
    <defs></defs>
    <g id="Process" stroke="none" stroke-width="1" fill="none" fill-rule="evenodd">
        <g id="Press" transform="translate(-1015.000000, -1164.000000)">
            <g id="Group-3" transform="translate(1015.000000, 1164.000000)">
                <g id="Group" transform="translate(85.285285, 0.000000)">
                    <path d="M7.97411411,0.0537618421 C10.2155556,0.0537618421 11.6197598,0.573419737 12.6383784,1.18228158 L11.0762162,4.43253816 C10.1927327,4.13918289 9.53627628,4.00328158 8.69843844,4.00328158 C7.656997,4.00328158 6.93207207,4.36548553 6.47921922,4.83904474 C5.82276276,5.53890658 5.52846847,6.622525 5.52846847,7.79654474 C5.52846847,9.82788026 6.32066066,11.7233145 8.83477477,11.7233145 C9.60414414,11.7233145 10.5783183,11.5652618 11.3927327,11.3389592 L12.4347748,14.6802158 C11.211952,15.2441763 9.71765766,15.6728342 7.43057057,15.6728342 C2.99213213,15.6728342 0.0942342342,12.7620316 0.0942342342,8.08930132 C0.0942342342,3.75542632 3.01495495,0.0537618421 7.97411411,0.0537618421 Z" id="Fill-2" fill="#222321"></path>
                    <path d="M20.2681682,7.07351382 C20.6081081,6.82565855 20.9018018,6.41855329 20.9018018,5.5157375 C20.9018018,4.36506645 20.3594595,3.80050724 19.090991,3.80050724 C18.9324324,3.80050724 18.6603604,3.80050724 18.3660661,3.82325724 L18.3660661,7.36746776 C18.5696697,7.38961908 18.7510511,7.38961908 18.8867868,7.38961908 C19.5888889,7.38961908 19.9960961,7.25431645 20.2681682,7.07351382 M18.2981982,0.0539414474 C22.8495495,0.0539414474 26.2015015,1.3183625 26.2015015,5.08707961 C26.2015015,7.0286125 25.3174174,8.58579013 23.8687688,9.57900724 L26.087988,13.7542309 C26.3594595,14.2511388 26.6537538,14.8378493 26.6765766,15.4251586 L21.4003003,15.4251586 L19.3624625,10.8655796 L19.3168168,10.8655796 C19.0681682,10.8655796 18.7054054,10.8655796 18.3660661,10.8434283 L18.3660661,15.4251586 L13.1804805,15.4251586 L13.1804805,0.415546711 C14.1768769,0.279645395 16.3960961,0.0539414474 18.2981982,0.0539414474" id="Fill-4" fill="#222321"></path>
                    <polygon id="Fill-6" fill="#222321" points="38.4496096 0.302634868 38.2448048 3.91329934 32.6532132 3.91329934 32.6532132 6.08053618 36.7739339 6.08053618 36.7739339 9.60199671 32.6532132 9.60199671 32.6532132 11.8141349 38.2448048 11.8141349 38.4496096 15.4247993 27.467027 15.4247993 27.467027 0.302634868"></polygon>
                    <path d="M44.9013213,9.60175724 L47.2328529,9.60175724 L46.9391592,8.4959875 L46.2821021,4.74942171 L46.146967,4.74942171 L44.9013213,9.60175724 Z M49.2706907,0.257494079 L53.3697898,13.1675204 C53.6412613,14.0254349 53.776997,14.792948 53.776997,15.4251586 L48.7283483,15.4251586 L48.1163363,13.0777178 L43.9956156,13.0777178 L43.3842042,15.4251586 L38.4256456,15.4251586 C38.4256456,14.8833493 38.5157357,14.0481849 38.8328529,13.1908691 L43.2706907,0.347895395 L49.2706907,0.257494079 Z" id="Fill-8" fill="#222321"></path>
                    <polygon id="Fill-10" fill="#222321" points="64.8037237 0.302634868 64.5989189 4.11625329 60.8631832 4.11625329 60.8631832 15.4247993 55.7004204 15.4247993 55.7004204 4.11625329 51.9646847 4.11625329 51.7382583 0.302634868"></polygon>
                    <polygon id="Fill-12" fill="#222321" points="65.6174174 15.4250987 70.803003 15.4250987 70.803003 0.302934211 65.6174174 0.302934211"></polygon>
                    <path d="M86.6518919,0.302634868 C86.6518919,1.04739803 86.4711111,1.97236513 86.1545946,2.96558224 L82.0554955,15.379898 L75.941982,15.4697007 L71.9113514,2.98773355 C71.5263664,1.8143125 71.3906306,0.979148026 71.3906306,0.302634868 L76.8026426,0.302634868 L78.4332733,6.87079934 L79.0440841,10.1887072 L79.1804204,10.1887072 L81.556997,0.302634868 L86.6518919,0.302634868 Z" id="Fill-14" fill="#222321"></path>
                    <polygon id="Fill-15" fill="#222321" points="98.2664865 0.302634868 98.0628829 3.91329934 92.4694895 3.91329934 92.4694895 6.08053618 96.5914114 6.08053618 96.5914114 9.60199671 92.4694895 9.60199671 92.4694895 11.8141349 98.0628829 11.8141349 98.2664865 15.4247993 87.2851051 15.4247993 87.2851051 0.302634868"></polygon>
                    <polygon id="Fill-16" fill="#222321" points="12.4727327 19.1102395 12.2691291 22.7209039 6.76702703 22.7209039 6.76702703 25.8131079 10.8198799 25.8131079 10.8198799 29.3351671 6.76702703 29.3351671 6.76702703 34.2324039 1.58144144 34.2324039 1.58144144 19.1102395"></polygon>
                    <path d="M20.5104505,25.8811184 C20.8491892,25.6332632 21.1440841,25.2261579 21.1440841,24.3233421 C21.1440841,23.1726711 20.6005405,22.6081118 19.3332733,22.6081118 C19.1747147,22.6081118 18.9026426,22.6081118 18.6083483,22.6308618 L18.6083483,26.1750724 C18.811952,26.1972237 18.9933333,26.1972237 19.1290691,26.1972237 C19.8311712,26.1972237 20.2383784,26.0619211 20.5104505,25.8811184 M18.5404805,18.8615461 C23.0918318,18.8615461 26.4425826,20.1259671 26.4425826,23.8946842 C26.4425826,25.8362171 25.5596997,27.3933947 24.1110511,28.3866118 L26.3290691,32.5618355 C26.6011411,33.0587434 26.896036,33.6454539 26.9176577,34.2327632 L21.6425826,34.2327632 L19.6047447,29.6731842 L19.5590991,29.6731842 C19.3104505,29.6731842 18.9476877,29.6731842 18.6083483,29.6510329 L18.6083483,34.2327632 L13.4227628,34.2327632 L13.4227628,19.2231513 C14.4191592,19.08725 16.6383784,18.8615461 18.5404805,18.8615461" id="Fill-17" fill="#222321"></path>
                    <path d="M34.547988,22.5411789 C33.9816216,22.5411789 33.550991,22.8339355 33.2344745,23.3080934 C32.7137538,24.0528566 32.4416817,25.3621789 32.4416817,26.6936526 C32.4416817,28.6573368 32.9624024,30.8018237 34.5251652,30.8018237 C35.1137538,30.8018237 35.5215616,30.5306197 35.8158559,30.1247118 C36.4044444,29.3122974 36.5858258,27.7772711 36.5858258,26.5361987 C36.5858258,24.4144618 36.0651051,22.5411789 34.547988,22.5411789 M34.7065465,18.7946132 C39.732973,18.7946132 41.9972372,22.315475 41.9972372,26.5577513 C41.9972372,31.3202842 38.9858258,34.5483895 34.2993393,34.5483895 C29.2717117,34.5483895 27.0074474,31.0275276 27.0074474,26.8068039 C27.0074474,22.0215211 30.0188589,18.7946132 34.7065465,18.7946132" id="Fill-18" fill="#222321"></path>
                    <polygon id="Fill-19" fill="#222321" points="48.2225225 19.1102395 51.8459459 25.0461934 53.1816817 27.6648382 53.2489489 27.6648382 53.0453453 24.8204895 53.0453453 19.1102395 57.3708709 19.1102395 57.3708709 34.2324039 52.321021 34.2324039 48.5846847 28.0707461 47.2489489 25.47545 47.1582583 25.47545 47.3618619 28.4096013 47.3618619 34.2324039 43.0375375 34.2324039 43.0375375 19.1102395"></polygon>
                    <polygon id="Fill-20" fill="#222321" points="71.249009 19.1102395 71.0454054 22.9238579 67.3096697 22.9238579 67.3096697 34.2324039 62.1469069 34.2324039 62.1469069 22.9238579 58.40997 22.9238579 58.1841441 19.1102395"></polygon>
                    <polygon id="Fill-21" fill="#222321" points="83.0451051 19.1102395 82.8415015 22.7209039 77.2481081 22.7209039 77.2481081 24.8881408 81.3694294 24.8881408 81.3694294 28.4096013 77.2481081 28.4096013 77.2481081 30.6217395 82.8415015 30.6217395 83.0451051 34.2324039 72.0637237 34.2324039 72.0637237 19.1102395"></polygon>
                    <polygon id="Fill-22" fill="#222321" points="89.2932132 19.1102395 92.9166366 25.0461934 94.2523724 27.6648382 94.3208408 27.6648382 94.1172372 24.8204895 94.1172372 19.1102395 98.4415616 19.1102395 98.4415616 34.2324039 93.3917117 34.2324039 89.655976 28.0707461 88.3202402 25.47545 88.2289489 25.47545 88.4325526 28.4096013 88.4325526 34.2324039 84.1082282 34.2324039 84.1082282 19.1102395"></polygon>
                    <path d="M107.768589,30.1018421 C108.492913,29.4253289 108.855075,28.1154079 108.855075,26.6486316 C108.855075,24.2107895 108.017237,22.6081118 106.092913,22.6081118 C105.820841,22.6081118 105.527147,22.6081118 105.209429,22.6308618 L105.209429,30.7113026 C105.527147,30.7334539 105.844264,30.7334539 106.183003,30.7334539 C106.952973,30.7334539 107.428649,30.4179474 107.768589,30.1018421 M105.956577,18.8615461 C111.685706,18.8615461 114.289309,22.2022039 114.289309,26.5360789 C114.289309,31.1627105 111.232853,34.4806184 105.617237,34.4806184 C103.624444,34.4806184 101.586607,34.3453158 100.024444,34.1423618 L100.024444,19.2231513 C101.655075,19.0423487 103.398018,18.8615461 105.956577,18.8615461" id="Fill-23" fill="#222321"></path>
                    <polygon id="Fill-25" fill="#272826" points="5.37225225 49.6904901 5.37225225 47.1544638 2.33861862 47.1544638 2.33861862 49.6904901 1.3157958 49.6904901 1.3157958 43.8778651 2.33861862 43.8778651 2.33861862 46.2570362 5.37225225 46.2570362 5.37225225 43.8778651 6.39507508 43.8778651 6.39507508 49.6904901"></polygon>
                    <path d="M12.2894294,46.7882487 C12.2894294,45.5854921 11.5284685,44.6880645 10.3572973,44.6880645 C9.17711712,44.6880645 8.42516517,45.5854921 8.42516517,46.7882487 C8.42516517,47.9826237 9.17711712,48.8884329 10.3572973,48.8884329 C11.5284685,48.8884329 12.2894294,47.9826237 12.2894294,46.7882487 M7.37591592,46.7882487 C7.37591592,45.0544592 8.60894895,43.7816566 10.3572973,43.7816566 C12.1056456,43.7816566 13.3386787,45.0544592 13.3386787,46.7882487 C13.3386787,48.5226368 12.1056456,49.7948408 10.3572973,49.7948408 C8.60894895,49.7948408 7.37591592,48.5226368 7.37591592,46.7882487" id="Fill-26" fill="#272826"></path>
                    <polygon id="Fill-27" fill="#272826" points="18.3936937 49.6904901 15.3516517 45.5422072 15.3516517 49.6904901 14.3282282 49.6904901 14.3282282 43.8778651 15.3774775 43.8778651 18.3588589 47.912398 18.3588589 43.8778651 19.3816817 43.8778651 19.3816817 49.6904901"></polygon>
                    <path d="M25.2762763,46.7882487 C25.2762763,45.5854921 24.5153153,44.6880645 23.3441441,44.6880645 C22.163964,44.6880645 21.412012,45.5854921 21.412012,46.7882487 C21.412012,47.9826237 22.163964,48.8884329 23.3441441,48.8884329 C24.5153153,48.8884329 25.2762763,47.9826237 25.2762763,46.7882487 M20.3627628,46.7882487 C20.3627628,45.0544592 21.5957958,43.7816566 23.3441441,43.7816566 C25.0924925,43.7816566 26.3255255,45.0544592 26.3255255,46.7882487 C26.3255255,48.5226368 25.0924925,49.7948408 23.3441441,49.7948408 C21.5957958,49.7948408 20.3627628,48.5226368 20.3627628,46.7882487" id="Fill-28" fill="#272826"></path>
                    <path d="M30.7335736,45.6990625 C30.7335736,45.1410888 30.3137538,44.7752928 29.7371772,44.7752928 L28.3383784,44.7752928 L28.3383784,46.6228322 L29.7371772,46.6228322 C30.3137538,46.6228322 30.7335736,46.2570362 30.7335736,45.6990625 L30.7335736,45.6990625 Z M30.6458859,49.6904901 L29.3521922,47.5202599 L28.3383784,47.5202599 L28.3383784,49.6904901 L27.3155556,49.6904901 L27.3155556,43.8778651 L29.8771171,43.8778651 C31.0308709,43.8778651 31.7828228,44.6268191 31.7828228,45.6990625 C31.7828228,46.7359836 31.1005405,47.2939572 30.4014414,47.4071086 L31.8266667,49.6904901 L30.6458859,49.6904901 Z" id="Fill-29" fill="#272826"></path>
                    <polygon id="Fill-30" fill="#272826" points="32.8072072 49.6901908 33.83003 49.6901908 33.83003 43.8775658 32.8072072 43.8775658"></polygon>
                    <polygon id="Fill-31" fill="#272826" points="39.1372973 49.6904901 36.0952553 45.5422072 36.0952553 49.6904901 35.0718318 49.6904901 35.0718318 43.8778651 36.1210811 43.8778651 39.1024625 47.912398 39.1024625 43.8778651 40.1252853 43.8778651 40.1252853 49.6904901"></polygon>
                    <path d="M41.1062462,46.7882487 C41.1062462,44.9670513 42.4792192,43.7816566 44.1663063,43.7816566 C45.3026426,43.7816566 46.0461862,44.3222684 46.5182583,44.9927947 L45.6786186,45.4639592 C45.3729129,45.0281171 44.8221622,44.6880645 44.1663063,44.6880645 C43.011952,44.6880645 42.1554955,45.5681303 42.1554955,46.7882487 C42.1554955,48.0083671 43.011952,48.8974132 44.1663063,48.8974132 C44.7609009,48.8974132 45.2852252,48.6184263 45.5476877,48.3741632 L45.5476877,47.4683539 L43.8077477,47.4683539 L43.8077477,46.5703276 L46.5705105,46.5703276 L46.5705105,48.7489395 C45.9939339,49.3853408 45.1807207,49.8038211 44.1663063,49.8038211 C42.4792192,49.8038211 41.1062462,48.6094461 41.1062462,46.7882487" id="Fill-32" fill="#272826"></path>
                    <polygon id="Fill-33" fill="#272826" points="51.2765766 49.6904901 51.2765766 44.7752928 49.5108108 44.7752928 49.5108108 43.8778651 54.0657658 43.8778651 54.0657658 44.7752928 52.2993994 44.7752928 52.2993994 49.6904901"></polygon>
                    <polygon id="Fill-34" fill="#272826" points="58.9890691 49.6904901 58.9890691 47.1544638 55.9554354 47.1544638 55.9554354 49.6904901 54.9326126 49.6904901 54.9326126 43.8778651 55.9554354 43.8778651 55.9554354 46.2570362 58.9890691 46.2570362 58.9890691 43.8778651 60.0118919 43.8778651 60.0118919 49.6904901"></polygon>
                    <polygon id="Fill-35" fill="#272826" points="61.2550751 49.6904901 61.2550751 43.8778651 65.2502703 43.8778651 65.2502703 44.7752928 62.2778979 44.7752928 62.2778979 46.2827796 65.189009 46.2827796 65.189009 47.1808059 62.2778979 47.1808059 62.2778979 48.7924638 65.2502703 48.7924638 65.2502703 49.6904901"></polygon>
                    <path d="M72.1418619,47.9824441 C72.1418619,47.546602 71.8355556,47.1808059 71.24997,47.1808059 L69.5712913,47.1808059 L69.5712913,48.7930625 L71.24997,48.7930625 C71.8097297,48.7930625 72.1418619,48.4877336 72.1418619,47.9824441 L72.1418619,47.9824441 Z M72.0283483,45.533227 C72.0283483,45.0979836 71.7304505,44.7752928 71.2061261,44.7752928 L69.5712913,44.7752928 L69.5712913,46.2827796 L71.2061261,46.2827796 C71.7304505,46.2827796 72.0283483,45.9690691 72.0283483,45.533227 L72.0283483,45.533227 Z M68.5484685,49.6904901 L68.5484685,43.8778651 L71.4163363,43.8778651 C72.4824024,43.8778651 73.0775976,44.5400099 73.0775976,45.3590099 C73.0775976,46.0912007 72.6049249,46.5791283 72.0631832,46.6922796 C72.6836036,46.7880691 73.1911111,47.4071086 73.1911111,48.1219375 C73.1911111,49.0193651 72.5875075,49.6904901 71.4944144,49.6904901 L68.5484685,49.6904901 Z" id="Fill-36" fill="#272826"></path>
                    <polygon id="Fill-37" fill="#272826" points="74.2154955 49.6904901 74.2154955 43.8778651 78.2106907 43.8778651 78.2106907 44.7752928 75.2383183 44.7752928 75.2383183 46.2827796 78.1494294 46.2827796 78.1494294 47.1808059 75.2383183 47.1808059 75.2383183 48.7924638 78.2106907 48.7924638 78.2106907 49.6904901"></polygon>
                    <path d="M78.8857057,48.8713704 L79.4538739,48.0864954 C79.8562763,48.5139559 80.4857057,48.8887322 81.2989189,48.8887322 C82.137958,48.8887322 82.4700901,48.4792322 82.4700901,48.0954757 C82.4700901,46.8759559 79.0694895,47.6338901 79.0694895,45.490002 C79.0694895,44.5309099 79.9175375,43.7903375 81.1938138,43.7903375 C82.1031231,43.7903375 82.8376577,44.0783046 83.3793994,44.6009559 L82.7938138,45.3588901 C82.3391592,44.9056862 81.7181381,44.6967454 81.1061261,44.6967454 C80.5031231,44.6967454 80.1181381,44.9841138 80.1181381,45.4199559 C80.1181381,46.5011796 83.5109309,45.8294559 83.5109309,47.9996862 C83.5109309,48.9671599 82.8286486,49.7951401 81.2550751,49.7951401 C80.1793994,49.7951401 79.4016216,49.4203638 78.8857057,48.8713704" id="Fill-38" fill="#272826"></path>
                    <polygon id="Fill-39" fill="#272826" points="85.7589189 49.6904901 85.7589189 44.7752928 83.9931532 44.7752928 83.9931532 43.8778651 88.5481081 43.8778651 88.5481081 44.7752928 86.7817417 44.7752928 86.7817417 49.6904901"></polygon>
                </g>
                <g id="Group-2">
                    <path d="M0.323023244,18.4942213 L3.6172744,13.8140158 C5.18627545,15.3117391 7.53941533,16.4972569 10.3631108,16.4972569 C11.5552334,16.4972569 12.6847839,16.1854111 12.6847839,15.3743241 C12.6847839,13.3773597 1.01312329,15.4052569 1.01312329,7.19943083 C1.01312329,3.67381028 3.96268611,0.303932806 9.70411594,0.303932806 C13.1242344,0.303932806 16.1989412,1.27112253 18.5831862,3.20586166 L15.1948962,7.66737945 C13.3748839,6.29482609 11.0221058,5.60818972 9.04512103,5.60818972 C7.79042656,5.60818972 7.44501485,6.01391304 7.44501485,6.54408696 C7.44501485,8.50975889 19.0852086,6.825 19.0852086,14.5628775 C19.0852086,19.1495652 15.6654519,21.8015138 10.049166,21.8015138 C5.59389743,21.8015138 2.55065751,20.4911858 0.323023244,18.4942213" id="Fill-380" fill="#272826"></path>
                    <polygon id="Fill-381" fill="#272826" points="21.1543875 21.427083 27.4922403 21.427083 27.4922403 0.615778656 21.1543875 0.615778656"></polygon>
                    <polygon id="Fill-382" fill="#272826" points="35.3666146 21.4271909 35.3666146 6.10753874 29.7506904 6.10753874 29.7506904 0.615886561 47.2892864 0.615886561 47.2892864 6.10753874 41.7044673 6.10753874 41.7044673 21.4271909"></polygon>
                    <polygon id="Fill-383" fill="#272826" points="49.5464344 21.4271909 49.5464344 0.615886561 65.4223523 0.615886561 65.4223523 6.10753874 55.8842872 6.10753874 55.8842872 8.16672846 65.2028079 8.16672846 65.2028079 13.6580209 55.8842872 13.6580209 55.8842872 15.9355387 65.4223523 15.9355387 65.4223523 21.4271909"></polygon>
                    <path d="M17.2654495,31.4298174 C17.2654495,28.5282482 15.2888265,26.2194379 12.2455866,26.2194379 C9.20234666,26.2194379 7.22536194,28.5282482 7.22536194,31.4298174 C7.22536194,34.3313866 9.20234666,36.6405565 12.2455866,36.6405565 C15.2888265,36.6405565 17.2654495,34.3313866 17.2654495,31.4298174 M0.793470376,31.4298174 C0.793470376,25.0335605 5.7822282,20.6655605 12.2455866,20.6655605 C18.708945,20.6655605 23.6973411,25.0335605 23.6973411,31.4298174 C23.6973411,37.8260743 18.708945,42.194434 12.2455866,42.194434 C5.7822282,42.194434 0.793470376,37.8260743 0.793470376,31.4298174" id="Fill-384" fill="#272826"></path>
                    <polygon id="Fill-385" fill="#272826" points="25.9544529 41.8198953 25.9544529 21.0085909 41.8303708 21.0085909 41.8303708 26.5002431 32.2923057 26.5002431 32.2923057 28.5594328 41.6108264 28.5594328 41.6108264 34.0507253 32.2923057 34.0507253 32.2923057 41.8198953"></polygon>
                    <polygon id="Fill-386" fill="#272826" points="6.40972011 62.2126356 6.40972011 46.8929834 0.793795895 46.8929834 0.793795895 41.4013312 18.3323919 41.4013312 18.3323919 46.8929834 12.7475729 46.8929834 12.7475729 62.2126356"></polygon>
                    <polygon id="Fill-387" fill="#272826" points="34.4260097 62.2126356 34.4260097 54.25643 26.9275012 54.25643 26.9275012 62.2126356 20.5896484 62.2126356 20.5896484 41.4013312 26.9275012 41.4013312 26.9275012 48.7647779 34.4260097 48.7647779 34.4260097 41.4013312 40.7635007 41.4013312 40.7635007 62.2126356"></polygon>
                    <polygon id="Fill-388" fill="#272826" points="44.1504524 62.2126356 44.1504524 41.4013312 60.0263703 41.4013312 60.0263703 46.8929834 50.4883052 46.8929834 50.4883052 48.9521731 59.8068259 48.9521731 59.8068259 54.4434656 50.4883052 54.4434656 50.4883052 56.7209834 60.0263703 56.7209834 60.0263703 62.2126356"></polygon>
                    <path d="M16.3243383,72.1842213 C16.3243383,69.37617 14.6927653,67.2856877 11.3044753,67.2856877 L8.26087369,67.2856877 L8.26087369,77.1140474 L11.2730085,77.1140474 C14.441754,77.1140474 16.3243383,74.8052372 16.3243383,72.1842213 L16.3243383,72.1842213 Z M1.92302092,82.6053399 L1.92302092,61.7940356 L11.2730085,61.7940356 C17.8615108,61.7940356 22.7562298,65.5383439 22.7562298,72.1842213 C22.7562298,78.8300988 17.8615108,82.6053399 11.3044753,82.6053399 L1.92302092,82.6053399 Z" id="Fill-389" fill="#272826"></path>
                    <path d="M33.5161482,67.9719644 L31.4454864,74.6800672 L35.58681,74.6800672 L33.5161482,67.9719644 Z M38.0339887,82.6053399 L37.2813167,80.1717194 L29.7509797,80.1717194 L28.997946,82.6053399 L21.8133824,82.6053399 L29.5314353,61.7940356 L37.5008611,61.7940356 L45.2189139,82.6053399 L38.0339887,82.6053399 Z" id="Fill-390" fill="#272826"></path>
                    <polygon id="Fill-391" fill="#272826" points="49.7357779 82.6053759 49.7357779 74.3369648 41.8918577 61.7940715 49.014211 61.7940715 52.9048851 68.8143798 56.7326256 61.7940715 63.8546172 61.7940715 56.0736306 74.3369648 56.0736306 82.6053759"></polygon>
                    <polygon id="Fill-393" fill="#FFFFFE" points="3.90951803 90.6204617 2.98504438 90.6204617 2.98504438 87.4868964 2.26239245 88.2184933 1.73505185 87.6681771 3.10223118 86.302098 3.90951803 86.302098"></polygon>
                    <path d="M7.91332802,90.6204617 L4.64511838,90.6204617 L4.64511838,89.8953391 C5.57827253,89.2090625 6.19458829,88.7213312 6.49406567,88.4321455 C6.79354305,88.1429597 6.94328173,87.8710387 6.94328173,87.6163826 C6.94328173,87.435102 6.87492277,87.2959043 6.73820483,87.1987897 C6.6014869,87.1016751 6.43547227,87.0531178 6.24016093,87.0531178 C5.78443449,87.0531178 5.39598195,87.2192917 5.07480331,87.5516395 L4.54746271,86.9430545 C4.75145455,86.7099794 5.00210409,86.5344538 5.29941135,86.4153984 C5.5967186,86.2967028 5.90379142,86.2373549 6.2206298,86.2373549 C6.69805751,86.2373549 7.09410549,86.3625249 7.40877375,86.6128648 C7.72344201,86.8632047 7.88077614,87.1977107 7.88077614,87.6163826 C7.88077614,87.9703115 7.74080301,88.316687 7.46085677,88.6555091 C7.18091052,88.9943312 6.74146002,89.3795526 6.14250527,89.8111731 L7.91332802,89.8111731 L7.91332802,90.6204617 Z" id="Fill-394" fill="#FFFFFE"></path>
                    <path d="M9.71011995,90.6980814 C9.1198457,90.6980814 8.82470858,90.4110538 8.82470858,89.8369984 L8.82470858,88.211947 L8.30387835,88.211947 L8.30387835,87.4932988 L8.82470858,87.4932988 L8.82470858,86.6386901 L9.65152655,86.6386901 L9.65152655,87.4932988 L10.2895436,87.4932988 L10.2895436,88.211947 L9.65152655,88.211947 L9.65152655,89.6168719 C9.65152655,89.7204609 9.676483,89.8049866 9.7263959,89.86937 C9.77630879,89.934113 9.84683789,89.9664846 9.93798318,89.9664846 C10.072531,89.9664846 10.1680165,89.934113 10.2244398,89.86937 L10.40022,90.4973779 C10.2483112,90.6311802 10.0182778,90.6980814 9.71011995,90.6980814" id="Fill-395" fill="#FFFFFE"></path>
                    <path d="M13.8117665,90.6204617 L12.9849485,90.6204617 L12.9849485,88.717015 C12.9849485,88.3371889 12.7918073,88.1472759 12.4055249,88.1472759 C12.1103877,88.1472759 11.8716739,88.2681296 11.6893833,88.5098372 L11.6893833,90.6204617 L10.8560549,90.6204617 L10.8560549,86.302098 L11.6893833,86.302098 L11.6893833,87.8947779 C11.9671594,87.5753787 12.3339107,87.4156791 12.7896372,87.4156791 C13.1281768,87.4156791 13.3828049,87.5020032 13.5546065,87.6746514 C13.7260465,87.8472996 13.8117665,88.0890071 13.8117665,88.3997739 L13.8117665,90.6204617 Z" id="Fill-396" fill="#FFFFFE"></path>
                    <path d="M17.4312833,89.4809834 C17.6743374,89.7485881 17.9933459,89.8823905 18.3883089,89.8823905 C18.7832718,89.8823905 19.1011952,89.7485881 19.3420792,89.4809834 C19.5829632,89.2133787 19.7034052,88.8745565 19.7034052,88.464517 C19.7034052,88.0544775 19.5829632,87.7156553 19.3420792,87.4480506 C19.1011952,87.1804458 18.7832718,87.0466435 18.3883089,87.0466435 C17.9890057,87.0466435 17.6689121,87.1804458 17.4280281,87.4480506 C17.1871442,87.7156553 17.0667022,88.0544775 17.0667022,88.464517 C17.0667022,88.8745565 17.1882292,89.2133787 17.4312833,89.4809834 M18.3883089,90.6981534 C17.7285906,90.6981534 17.184974,90.4888174 16.7574592,90.0701455 C16.3299444,89.6518332 16.116187,89.116264 16.116187,88.464517 C16.116187,87.81277 16.3299444,87.2775605 16.7574592,86.8588885 C17.184974,86.4402166 17.7285906,86.2308806 18.3883089,86.2308806 C19.0436869,86.2308806 19.5851333,86.4412957 20.0126481,86.8621257 C20.4401629,87.2829557 20.6539203,87.8170862 20.6539203,88.464517 C20.6539203,89.1119478 20.4401629,89.6460783 20.0126481,90.0669083 C19.5851333,90.4877383 19.0436869,90.6981534 18.3883089,90.6981534" id="Fill-397" fill="#FFFFFE"></path>
                    <path d="M23.4143205,90.6980814 C22.750262,90.6980814 22.1979649,90.4898245 21.7574294,90.0733107 C21.3168938,89.6567968 21.096626,89.1205083 21.096626,88.4644451 C21.096626,87.8040656 21.3168938,87.266698 21.7574294,86.852702 C22.1979649,86.4379866 22.750262,86.2308087 23.4143205,86.2308087 C24.2259476,86.2308087 24.8292426,86.5829391 25.2242055,87.2864806 L24.4299394,87.6745794 C24.3344539,87.4932988 24.1944808,87.3436704 24.0100201,87.224615 C23.8255594,87.1062791 23.6269928,87.0469312 23.4143205,87.0469312 C23.0193576,87.0469312 22.6927536,87.1807336 22.4345087,87.4479787 C22.1762637,87.7155834 22.0471412,88.0544055 22.0471412,88.4644451 C22.0471412,88.8748443 22.1762637,89.2133067 22.4345087,89.4809115 C22.6927536,89.7485162 23.0193576,89.8823186 23.4143205,89.8823186 C23.6269928,89.8823186 23.8255594,89.8229708 24.0100201,89.7042751 C24.1944808,89.5855794 24.3344539,89.4355913 24.4299394,89.2543107 L25.2242055,89.6362949 C24.8205621,90.3445123 24.2172671,90.6980814 23.4143205,90.6980814" id="Fill-398" fill="#FFFFFE"></path>
                    <polygon id="Fill-399" fill="#FFFFFE" points="27.7113145 90.6204617 26.7803305 90.6204617 26.7803305 87.1113866 25.5108068 87.1113866 25.5108068 86.302098 28.9743278 86.302098 28.9743278 87.1113866 27.7113145 87.1113866"></polygon>
                    <path d="M30.517215,89.4809834 C30.7602691,89.7485881 31.0792776,89.8823905 31.4742405,89.8823905 C31.8688418,89.8823905 32.1871269,89.7485881 32.4280109,89.4809834 C32.6688949,89.2133787 32.7893369,88.8745565 32.7893369,88.464517 C32.7893369,88.0544775 32.6688949,87.7156553 32.4280109,87.4480506 C32.1871269,87.1804458 31.8688418,87.0466435 31.4742405,87.0466435 C31.0749374,87.0466435 30.7548438,87.1804458 30.5139598,87.4480506 C30.2730758,87.7156553 30.1526338,88.0544775 30.1526338,88.464517 C30.1526338,88.8745565 30.2741609,89.2133787 30.517215,89.4809834 M31.4742405,90.6981534 C30.8141606,90.6981534 30.270544,90.4888174 29.8433909,90.0701455 C29.4158761,89.6518332 29.2021187,89.116264 29.2021187,88.464517 C29.2021187,87.81277 29.4158761,87.2775605 29.8433909,86.8588885 C30.270544,86.4402166 30.8141606,86.2308806 31.4742405,86.2308806 C32.1296186,86.2308806 32.671065,86.4412957 33.0985798,86.8621257 C33.5257329,87.2829557 33.739852,87.8170862 33.739852,88.464517 C33.739852,89.1119478 33.5257329,89.6460783 33.0985798,90.0669083 C32.671065,90.4877383 32.1296186,90.6981534 31.4742405,90.6981534" id="Fill-400" fill="#FFFFFE"></path>
                    <path d="M36.5129836,89.8111731 C36.6865937,89.8111731 36.8222265,89.7680111 36.9198822,89.681687 C37.0178996,89.5953628 37.0663657,89.4745091 37.0663657,89.3191257 C37.0663657,89.1766909 37.0178996,89.0590743 36.9198822,88.9662759 C36.8222265,88.8738372 36.6865937,88.8270783 36.5129836,88.8270783 L35.3150741,88.8270783 L35.3150741,89.8111731 L36.5129836,89.8111731 Z M36.474283,88.0177897 C36.6301704,88.0177897 36.7538676,87.9767858 36.8450129,87.8947779 C36.9361581,87.81277 36.9817308,87.7030664 36.9817308,87.5645881 C36.9817308,87.4307858 36.9361581,87.3218016 36.8450129,87.2376356 C36.7538676,87.1534696 36.6301704,87.1113866 36.474283,87.1113866 L35.3150741,87.1113866 L35.3150741,88.0177897 L36.474283,88.0177897 Z M36.7473572,90.6204617 L34.3909621,90.6204617 L34.3909621,86.302098 L36.675743,86.302098 C37.070706,86.302098 37.3781405,86.4089241 37.5969615,86.6225763 C37.8165059,86.8362285 37.9257356,87.0962798 37.9257356,87.4027304 C37.9257356,87.6617028 37.8541214,87.8807502 37.7112548,88.0598727 C37.5676648,88.2389953 37.3897145,88.3501375 37.1770421,88.3932996 C37.4114157,88.4278292 37.6088972,88.5454458 37.7698482,88.7461494 C37.9300758,88.946853 38.0107322,89.1810071 38.0107322,89.4486119 C38.0107322,89.7895921 37.9007791,90.0701455 37.6815964,90.2902719 C37.4624137,90.5103984 37.1513623,90.6204617 36.7473572,90.6204617 L36.7473572,90.6204617 Z" id="Fill-401" fill="#FFFFFE"></path>
                    <polygon id="Fill-402" fill="#FFFFFE" points="41.7800601 90.6204617 38.7075234 90.6204617 38.7075234 86.302098 41.7800601 86.302098 41.7800601 87.1113866 39.6319971 87.1113866 39.6319971 88.0177897 41.7344874 88.0177897 41.7344874 88.8270783 39.6319971 88.8270783 39.6319971 89.8111731 41.7800601 89.8111731"></polygon>
                    <path d="M44.4037061,88.2769059 C44.590337,88.2769059 44.7440542,88.2240324 44.8655813,88.1182854 C44.9871083,88.0125383 45.0478718,87.8686648 45.0478718,87.6873842 C45.0478718,87.5150957 44.9871083,87.375898 44.8655813,87.2697913 C44.7440542,87.1640443 44.590337,87.1115304 44.4037061,87.1115304 L43.4271495,87.1115304 L43.4271495,88.2769059 L44.4037061,88.2769059 Z M46.0244285,90.6206055 L44.9567266,90.6206055 L44.1042288,89.0861945 L43.4271495,89.0861945 L43.4271495,90.6206055 L42.5026758,90.6206055 L42.5026758,86.3022419 L44.533552,86.3022419 C44.9809596,86.3022419 45.3364986,86.4313684 45.6016156,86.6907004 C45.866371,86.9496727 45.998387,87.283819 45.998387,87.6942182 C45.998387,88.0477874 45.9039865,88.3351747 45.7155473,88.5549415 C45.5263846,88.7754277 45.3017766,88.9153447 45.0417232,88.9757715 L46.0244285,90.6206055 Z" id="Fill-403" fill="#FFFFFE"></path>
                    <path d="M48.1862356,87.4349581 C48.1862356,87.1979265 48.2459141,86.9745628 48.365271,86.7652269 C48.4846279,86.5558909 48.6484725,86.3778474 48.8568045,86.2307368 L49.2148753,86.5224403 C49.106369,86.5781913 49.002203,86.6666735 48.9020155,86.7875273 C48.8025514,86.908381 48.7370859,87.0249186 48.7067042,87.1374996 C48.7240652,87.124551 48.7674677,87.117717 48.8372734,87.117717 C48.962779,87.117717 49.0680301,87.1608791 49.1530267,87.2475628 C49.2376616,87.333887 49.2796174,87.4457486 49.2796174,87.5838672 C49.2796174,87.7223455 49.2289811,87.8421202 49.1269852,87.9431913 C49.0246276,88.0446221 48.9041856,88.0956972 48.7656593,88.0956972 C48.6050699,88.0956972 48.4679903,88.0363494 48.3555055,87.9176538 C48.2422972,87.7989581 48.1862356,87.6378198 48.1862356,87.4349581" id="Fill-404" fill="#FFFFFE"></path>
                    <polygon id="Fill-405" fill="#FFFFFE" points="51.8384129 90.6204617 50.9139392 90.6204617 50.9139392 87.4868964 50.1912873 88.2184933 49.6639467 87.6681771 51.031126 86.302098 51.8384129 86.302098"></polygon>
                    <polygon id="Fill-406" fill="#FFFFFE" points="54.0714363 90.6204617 53.0554557 90.6204617 54.6117977 87.1113866 52.423949 87.1113866 52.423949 86.302098 55.68601 86.302098 55.68601 86.9430545"></polygon>
                </g>
            </g>
        </g>
    </g>
</svg>