<?xml version="1.0" encoding="UTF-8"?>
<svg width="173px" height="66px" viewBox="0 0 173 66" version="1.1" xmlns="http://www.w3.org/2000/svg" xmlns:xlink="http://www.w3.org/1999/xlink">
    <!-- Generator: Sketch 47.1 (45422) - http://www.bohemiancoding.com/sketch -->
    <title>Group 6</title>
    <desc>Created with Sketch.</desc>
    <defs></defs>
    <g id="Process" stroke="none" stroke-width="1" fill="none" fill-rule="evenodd">
        <g id="Press" transform="translate(-348.000000, -888.000000)" fill="#191919">
            <g id="Group-6" transform="translate(348.000000, 888.000000)">
                <polygon id="Fill-22" points="30.2301481 27.8383171 30.2293472 27.8383171 16.3212685 13.9211707 30.2045185 0 16.2868287 0 2.40277778 13.9276098 9.36762963 20.915561 16.3188657 27.8383171 23.2741065 34.8013171"></polygon>
                <polygon id="Fill-23" points="39.5300871 20.8772695 32.600476 13.8828793 25.6220084 6.91987927 18.7756936 13.8828793 32.600476 27.7718549 32.5740455 27.7960012 32.5756473 27.7968061 18.6883927 41.775928 32.6068834 41.7767329 39.5380964 34.8402939 46.494939 27.8563671"></polygon>
                <path d="M2.89855093,50.4360732 C2.51250463,50.4360732 2.21055556,50.5946341 1.99430556,50.9133659 C1.77725463,51.2312927 1.66912963,51.6699512 1.66912963,52.2285366 C1.66912963,53.3915854 2.10883796,53.9727073 2.98905556,53.9727073 C3.25496296,53.9727073 3.51286111,53.934878 3.76194907,53.8608293 C4.01103704,53.7859756 4.26172685,53.697439 4.51401852,53.5928049 L4.51401852,54.971561 C4.01263889,55.1953171 3.44558333,55.3063902 2.81205093,55.3063902 C1.90540278,55.3063902 1.20939815,55.0423902 0.725638889,54.5135854 C0.24187963,53.9847805 0,53.2201463 0,52.2204878 C0,51.5959024 0.117736111,51.0461707 0.351606481,50.5720976 C0.586277778,50.0980244 0.923467593,49.7342195 1.36317593,49.4790732 C1.80288426,49.2247317 2.32028241,49.097561 2.91537037,49.097561 C3.5649213,49.097561 4.18563889,49.2392195 4.77752315,49.5225366 L4.28014815,50.807122 C4.05749074,50.7032927 3.83563426,50.6147561 3.61377778,50.543122 C3.3919213,50.4714878 3.15324537,50.4360732 2.89855093,50.4360732 Z" id="Fill-24"></path>
                <path d="M9.01522222,53.3899756 C9.01522222,53.7642439 8.92071296,54.0974634 8.73169444,54.3872195 C8.54267593,54.6785854 8.26956019,54.9039512 7.91314815,55.0649268 C7.55753704,55.2267073 7.1394537,55.3071951 6.65969907,55.3071951 C6.25923611,55.3071951 5.92364815,55.2790244 5.65213426,55.221878 C5.3814213,55.1655366 5.09869444,55.0673415 4.80555556,54.9264878 L4.80555556,53.472878 C5.11551389,53.6322439 5.43748611,53.757 5.77147222,53.8463415 C6.10625926,53.9356829 6.41301389,53.9807561 6.69253704,53.9807561 C6.93361574,53.9807561 7.11062037,53.9389024 7.22275,53.8551951 C7.33487963,53.7706829 7.39174537,53.6628293 7.39174537,53.5300244 C7.39174537,53.4479268 7.36851852,53.3754878 7.32366667,53.3135122 C7.27801389,53.2515366 7.20593056,53.1887561 7.10581481,53.1259756 C7.00569907,53.0623902 6.73899074,52.9328049 6.30568981,52.7372195 C5.91403704,52.5585366 5.62009722,52.3846829 5.4246713,52.2164634 C5.22844444,52.0490488 5.08267593,51.855878 4.98896759,51.638561 C4.89365741,51.420439 4.84640278,51.1636829 4.84640278,50.865878 C4.84640278,50.3097073 5.04823611,49.875878 5.45110185,49.5643902 C5.85396759,49.2529024 6.40740741,49.097561 7.1114213,49.097561 C7.73374074,49.097561 8.36807407,49.242439 9.01522222,49.5313902 L8.51784722,50.7910244 C7.95559722,50.5326585 7.47103704,50.4030732 7.06256481,50.4030732 C6.85112037,50.4030732 6.69814352,50.4400976 6.60203241,50.5149512 C6.5059213,50.589 6.45786574,50.681561 6.45786574,50.7910244 C6.45786574,50.9101463 6.51873611,51.0155854 6.64127778,51.1097561 C6.76301852,51.203122 7.09380093,51.3737561 7.633625,51.6216585 C8.15182407,51.855878 8.51143981,52.107 8.71327315,52.3758293 C8.91430556,52.6438537 9.01522222,52.9827073 9.01522222,53.3899756" id="Fill-26"></path>
                <path d="M14.6217037,53.3899756 C14.6217037,53.7642439 14.5271944,54.0974634 14.3381759,54.3872195 C14.1491574,54.6785854 13.8760417,54.9039512 13.5196296,55.0649268 C13.1640185,55.2267073 12.7459352,55.3071951 12.2661806,55.3071951 C11.8657176,55.3071951 11.5301296,55.2790244 11.2586157,55.221878 C10.9879028,55.1655366 10.7051759,55.0673415 10.412037,54.9264878 L10.412037,53.472878 C10.7219954,53.6322439 11.0439676,53.757 11.3779537,53.8463415 C11.7127407,53.9356829 12.0194954,53.9807561 12.2990185,53.9807561 C12.5400972,53.9807561 12.7171019,53.9389024 12.8292315,53.8551951 C12.9413611,53.7706829 12.9982269,53.6628293 12.9982269,53.5300244 C12.9982269,53.4479268 12.975,53.3754878 12.9301481,53.3135122 C12.8844954,53.2515366 12.812412,53.1887561 12.7122963,53.1259756 C12.6121806,53.0623902 12.3454722,52.9328049 11.9121713,52.7372195 C11.5205185,52.5585366 11.2265787,52.3846829 11.0311528,52.2164634 C10.8349259,52.0490488 10.6891574,51.855878 10.5954491,51.638561 C10.5001389,51.420439 10.4528843,51.1636829 10.4528843,50.865878 C10.4528843,50.3097073 10.6547176,49.875878 11.0575833,49.5643902 C11.4604491,49.2529024 12.0138889,49.097561 12.7179028,49.097561 C13.3402222,49.097561 13.9745556,49.242439 14.6217037,49.5313902 L14.1243287,50.7910244 C13.5620787,50.5326585 13.0775185,50.4030732 12.6690463,50.4030732 C12.4576019,50.4030732 12.304625,50.4400976 12.2085139,50.5149512 C12.1124028,50.589 12.0643472,50.681561 12.0643472,50.7910244 C12.0643472,50.9101463 12.1252176,51.0155854 12.2477593,51.1097561 C12.3695,51.203122 12.7002824,51.3737561 13.2401065,51.6216585 C13.7583056,51.855878 14.1179213,52.107 14.3197546,52.3758293 C14.520787,52.6438537 14.6217037,52.9827073 14.6217037,53.3899756" id="Fill-28"></path>
                <path d="M21.0363194,52.047439 C21.0363194,51.4936829 20.9273935,51.0831951 20.7095417,50.8159756 C20.4916898,50.5487561 20.1609074,50.4159512 19.7163935,50.4159512 L19.2438472,50.4159512 L19.2438472,53.7988537 L19.6058657,53.7988537 C20.0992361,53.7988537 20.4604537,53.6555854 20.6911204,53.367439 C20.9209861,53.0800976 21.0363194,52.6398293 21.0363194,52.047439 M22.7214676,51.9894878 C22.7214676,52.998 22.4459491,53.7747073 21.8933102,54.3196098 C21.3414722,54.8653171 20.5645741,55.1373659 19.5642176,55.1373659 L17.6203704,55.1373659 L17.6203704,49.097561 L19.700375,49.097561 C20.6646898,49.097561 21.4095509,49.3454634 21.9341574,49.8412683 C22.4595648,50.3370732 22.7214676,51.0534146 22.7214676,51.9894878" id="Fill-30"></path>
                <polygon id="Fill-32" points="26.7949769 55.1373659 23.2268519 55.1373659 23.2268519 49.097561 26.7949769 49.097561 26.7949769 50.4070976 24.8503287 50.4070976 24.8503287 51.3576585 26.6508102 51.3576585 26.6508102 52.6671951 24.8503287 52.6671951 24.8503287 53.8069024 26.7949769 53.8069024"></polygon>
                <path d="M32.2420741,53.3899756 C32.2420741,53.7642439 32.1475648,54.0974634 31.9585463,54.3872195 C31.7687269,54.6785854 31.496412,54.9039512 31.14,55.0649268 C30.7843889,55.2267073 30.3655046,55.3071951 29.8865509,55.3071951 C29.486088,55.3071951 29.1505,55.2790244 28.8789861,55.221878 C28.6082731,55.1655366 28.3255463,55.0673415 28.0324074,54.9264878 L28.0324074,53.472878 C28.3423657,53.6322439 28.663537,53.757 28.999125,53.8463415 C29.3323102,53.9356829 29.6398657,53.9807561 29.9193889,53.9807561 C30.1604676,53.9807561 30.3374722,53.9389024 30.4496019,53.8551951 C30.5617315,53.7706829 30.6177963,53.6628293 30.6177963,53.5300244 C30.6177963,53.4479268 30.5953704,53.3754878 30.5505185,53.3135122 C30.5048657,53.2515366 30.4327824,53.1887561 30.3326667,53.1259756 C30.2325509,53.0623902 29.9658426,52.9328049 29.5325417,52.7372195 C29.1408889,52.5585366 28.8469491,52.3846829 28.6515231,52.2164634 C28.4552963,52.0490488 28.3095278,51.855878 28.2158194,51.638561 C28.1205093,51.420439 28.0732546,51.1636829 28.0732546,50.865878 C28.0732546,50.3097073 28.275088,49.875878 28.6771528,49.5643902 C29.0808194,49.2529024 29.6342593,49.097561 30.3382731,49.097561 C30.9605926,49.097561 31.5949259,49.242439 32.2420741,49.5313902 L31.7446991,50.7910244 C31.1824491,50.5326585 30.697088,50.4030732 30.2894167,50.4030732 C30.0779722,50.4030732 29.9241944,50.4400976 29.8288843,50.5149512 C29.7327731,50.589 29.6847176,50.681561 29.6847176,50.7910244 C29.6847176,50.9101463 29.745588,51.0155854 29.8681296,51.1097561 C29.9898704,51.203122 30.3206528,51.3737561 30.8604769,51.6216585 C31.3786759,51.855878 31.7382917,52.107 31.940125,52.3758293 C32.1411574,52.6438537 32.2420741,52.9827073 32.2420741,53.3899756" id="Fill-34"></path>
                <polygon id="Fill-36" points="32.837963 55.1373659 34.4694491 55.1373659 34.4694491 49.097561 32.837963 49.097561"></polygon>
                <path d="M38.676713,51.6876585 L41.2701111,51.6876585 L41.2701111,54.9433902 C40.5660972,55.1856585 39.7916019,55.3063902 38.9474259,55.3063902 C38.0207546,55.3063902 37.3055278,55.0367561 36.8001435,54.4966829 C36.2939583,53.9574146 36.0416667,53.1871463 36.0416667,52.1874878 C36.0416667,51.2127805 36.3179861,50.4537805 36.8714259,49.9112927 C37.4256667,49.3688049 38.200963,49.097561 39.1989167,49.097561 C39.5769537,49.097561 39.9333657,49.1337805 40.2697546,49.2046098 C40.6053426,49.2762439 40.8976806,49.3671951 41.1475694,49.4774634 L40.633375,50.7580244 C40.2000741,50.543122 39.725125,50.4360732 39.2069259,50.4360732 C38.7327778,50.4360732 38.3659537,50.5906098 38.1072546,50.9004878 C37.8477546,51.2103659 37.7188056,51.6538537 37.7188056,52.2285366 C37.7188056,52.793561 37.8357407,53.2241707 38.0696111,53.519561 C38.3042824,53.8157561 38.6422731,53.9638537 39.0835833,53.9638537 C39.324662,53.9638537 39.5465185,53.9405122 39.7491528,53.8938293 L39.7491528,52.9480976 L38.676713,52.9480976 L38.676713,51.6876585 Z" id="Fill-38"></path>
                <path d="M48.1716898,55.1373659 L46.0420278,55.1373659 L43.8466898,50.8819756 L43.8098472,50.8819756 C43.8619074,51.5516341 43.888338,52.0627317 43.888338,52.4152683 L43.888338,55.1373659 L42.4490741,55.1373659 L42.4490741,49.097561 L44.5707269,49.097561 L46.7572546,53.295 L46.7820833,53.295 C46.7436389,52.6865122 46.7244167,52.1971463 46.7244167,51.8277073 L46.7244167,49.097561 L48.1716898,49.097561 L48.1716898,55.1373659 Z" id="Fill-39"></path>
                <path d="M8.50983796,63.155561 L8.25113889,62.1639512 C8.19026852,61.9434146 8.11738426,61.6592927 8.03088426,61.3083659 C7.94438426,60.9590488 7.88751852,60.7095366 7.86028704,60.5574146 C7.83545833,60.6974634 7.78660185,60.9284634 7.71451852,61.2512195 C7.64163426,61.5731707 7.48064815,62.2082195 7.23156019,63.155561 L8.50983796,63.155561 Z M9.14256944,65.6257317 L8.84702778,64.4940732 L6.89437037,64.4940732 L6.59001852,65.6257317 L4.80555556,65.6257317 L6.76702315,59.5609756 L8.93352778,59.5609756 L10.9190231,65.6257317 L9.14256944,65.6257317 Z" id="Fill-40"></path>
                <path d="M18.2266713,65.6007805 L16.3068519,65.6007805 L15.7309861,62.9688293 C15.7037546,62.8593659 15.6605046,62.6396341 15.602037,62.3120488 C15.5427685,61.9844634 15.4995185,61.7108049 15.472287,61.4902683 C15.450662,61.6697561 15.4146204,61.8910976 15.3657639,62.1575122 C15.3161065,62.423122 15.26725,62.6678049 15.2191944,62.8907561 C15.1711389,63.1137073 14.9717083,64.0167805 14.6209028,65.6007805 L12.7010833,65.6007805 L11.212963,59.5609756 L12.7795741,59.5609756 L13.4331296,62.5889268 C13.5813009,63.2585854 13.6822176,63.7914146 13.7374815,64.1882195 C13.7727222,63.9073171 13.8367963,63.5258049 13.9281019,63.0436829 C14.0202083,62.561561 14.1059074,62.1615366 14.1851991,61.8452195 L14.716213,59.5609756 L16.2203519,59.5609756 L16.7345463,61.8452195 C16.8218472,62.2122439 16.91075,62.6348049 17.0012546,63.1137073 C17.0917593,63.5926098 17.1526296,63.9507805 17.1822639,64.1882195 C17.2183056,63.8823659 17.3152176,63.3519512 17.4746019,62.5969756 L18.1401713,59.5609756 L19.7067824,59.5609756 L18.2266713,65.6007805 Z" id="Fill-41"></path>
                <path d="M23.7274306,63.155561 L23.4687315,62.1639512 C23.4078611,61.9434146 23.3349769,61.6592927 23.2484769,61.3083659 C23.1619769,60.9590488 23.1051111,60.7095366 23.0778796,60.5574146 C23.0530509,60.6974634 23.0041944,60.9284634 22.9321111,61.2512195 C22.8592269,61.5731707 22.6982407,62.2082195 22.4491528,63.155561 L23.7274306,63.155561 Z M24.360162,65.6257317 L24.0646204,64.4940732 L22.111963,64.4940732 L21.8076111,65.6257317 L20.0231481,65.6257317 L21.9846157,59.5609756 L24.1511204,59.5609756 L26.1366157,65.6257317 L24.360162,65.6257317 Z" id="Fill-42"></path>
                <path d="M28.0548333,62.1760244 L28.3583843,62.1760244 C28.9262407,62.1760244 29.2097685,61.9240976 29.2097685,61.4202439 C29.2097685,61.004122 28.9310463,60.7964634 28.3752037,60.7964634 L28.0548333,60.7964634 L28.0548333,62.1760244 Z M28.0548333,63.4034634 L28.0548333,65.6007805 L26.4305556,65.6007805 L26.4305556,59.5609756 L28.4000324,59.5609756 C30.0331204,59.5609756 30.8500648,60.1557805 30.8500648,61.3461951 C30.8500648,62.0456341 30.5096713,62.5865122 29.8304861,62.9688293 L31.5813102,65.6007805 L29.7399815,65.6007805 L28.4657083,63.4034634 L28.0548333,63.4034634 Z" id="Fill-43"></path>
                <path d="M35.453787,62.5108537 C35.453787,61.9570976 35.3448611,61.5466098 35.1262083,61.2793902 C34.9091574,61.0121707 34.5775741,60.8793659 34.1338611,60.8793659 L33.6613148,60.8793659 L33.6613148,64.2622683 L34.0233333,64.2622683 C34.5167037,64.2622683 34.8779213,64.119 35.108588,63.8308537 C35.3384537,63.5435122 35.453787,63.1032439 35.453787,62.5108537 M37.1389352,62.4529024 C37.1389352,63.4614146 36.8634167,64.238122 36.3107778,64.7830244 C35.7589398,65.3287317 34.9820417,65.6007805 33.9816852,65.6007805 L32.037037,65.6007805 L32.037037,59.5609756 L34.1170417,59.5609756 C35.0821574,59.5609756 35.8270185,59.808878 36.351625,60.3046829 C36.8770324,60.8004878 37.1389352,61.5168293 37.1389352,62.4529024" id="Fill-44"></path>
                <path d="M42.6541111,63.8533902 C42.6541111,64.2276585 42.5596019,64.560878 42.3705833,64.8506341 C42.1807639,65.142 41.9084491,65.3673659 41.552037,65.5283415 C41.1964259,65.690122 40.7775417,65.7706098 40.298588,65.7706098 C39.898125,65.7706098 39.562537,65.742439 39.2910231,65.6852927 C39.0203102,65.6289512 38.7375833,65.5307561 38.4444444,65.3899024 L38.4444444,63.9362927 C38.7544028,64.0956585 39.0755741,64.2204146 39.411162,64.3097561 C39.7443472,64.3990976 40.0519028,64.4441707 40.3314259,64.4441707 C40.5725046,64.4441707 40.7495093,64.4023171 40.8616389,64.3186098 C40.9737685,64.2340976 41.0298333,64.1262439 41.0298333,63.993439 C41.0298333,63.9113415 41.0074074,63.8389024 40.9625556,63.7769268 C40.9169028,63.7149512 40.8448194,63.6521707 40.7447037,63.5885854 C40.644588,63.5258049 40.3778796,63.3962195 39.9445787,63.2006341 C39.5529259,63.0219512 39.2589861,62.8480976 39.0635602,62.679878 C38.8673333,62.5116585 38.7215648,62.3192927 38.6278565,62.1019756 C38.5325463,61.8838537 38.4852917,61.6270976 38.4852917,61.3292927 C38.4852917,60.773122 38.687125,60.3392927 39.0891898,60.0278049 C39.4928565,59.7163171 40.0462963,59.5609756 40.7503102,59.5609756 C41.3726296,59.5609756 42.006963,59.7058537 42.6541111,59.9948049 L42.1567361,61.254439 C41.5944861,60.9960732 41.109125,60.8664878 40.7014537,60.8664878 C40.4900093,60.8664878 40.3362315,60.9035122 40.2409213,60.977561 C40.1448102,61.0524146 40.0967546,61.1449756 40.0967546,61.254439 C40.0967546,61.373561 40.157625,61.479 40.2801667,61.5731707 C40.4019074,61.6665366 40.7326898,61.8371707 41.2725139,62.0850732 C41.790713,62.3192927 42.1503287,62.5704146 42.352162,62.8392439 C42.5531944,63.1072683 42.6541111,63.446122 42.6541111,63.8533902" id="Fill-45"></path>
                <g id="Group" transform="translate(70.481481, 0.000000)">
                    <path d="M20.3358728,17.6083368 L14.8793535,17.6083368 L13.2436648,10.1266 C13.165336,9.81338947 13.0426593,9.19102105 12.8750588,8.25949474 C12.7080343,7.32738947 12.5847817,6.54812632 12.5076048,5.92170526 C12.4448266,6.43117895 12.344036,7.06338947 12.203505,7.81891579 C12.0635499,8.57444211 11.9247467,9.26917895 11.7888233,9.90370526 C11.6523239,10.5376526 11.0855923,13.1058632 10.0886285,17.6083368 L4.6321092,17.6083368 L0.402356388,0.436757895 L4.85442464,0.436757895 L6.71185285,9.04628421 C7.13286991,10.9487053 7.42084328,12.4638105 7.5763489,13.5916 C7.67771552,12.7926526 7.8585628,11.7082842 8.12004261,10.3379158 C8.38094648,8.96812632 8.623996,7.83223158 8.85034307,6.93196842 L10.3575957,0.436757895 L14.6340002,0.436757895 L16.0946011,6.93196842 C16.3434101,7.97349474 16.5968266,9.17538947 16.8542748,10.5376526 C17.1111471,11.9004947 17.2822032,12.9182842 17.3680193,13.5916 C17.46881,12.7226 17.7458404,11.2150211 18.1979586,9.06944211 L20.0905195,0.436757895 L24.5420118,0.436757895 L20.3358728,17.6083368 Z" id="Fill-118"></path>
                    <polygon id="Fill-119" points="36.8923832 17.6083368 26.7505372 17.6083368 26.7505372 0.436757895 36.8923832 0.436757895 36.8923832 4.15996842 31.3655983 4.15996842 31.3655983 6.86191579 36.483461 6.86191579 36.483461 10.5845474 31.3655983 10.5845474 31.3655983 13.8266526 36.8923832 13.8266526"></polygon>
                    <path d="M44.4989117,10.4204158 L44.4989117,14.0261 L46.1230815,14.0261 C47.5641002,14.0261 48.2846096,13.4153105 48.2846096,12.1937316 C48.2846096,11.6223105 48.0916674,11.1834684 47.7063591,10.8783632 C47.3204747,10.5732579 46.7618064,10.4204158 46.0297781,10.4204158 L44.4989117,10.4204158 Z M44.4989117,7.02604737 L45.8892471,7.02604737 C46.5510099,7.02604737 47.0636025,6.88883684 47.425873,6.61499474 C47.7881435,6.34115263 47.9689908,5.93357368 47.9689908,5.39341579 C47.9689908,4.43004737 47.2450257,3.94894211 45.7959437,3.94894211 L44.4989117,3.94894211 L44.4989117,7.02604737 Z M39.8838505,0.437047368 L45.8425954,0.437047368 C48.1636608,0.437047368 49.8868934,0.783257895 51.0128692,1.47625789 C52.1382692,2.16925789 52.7015451,3.24783684 52.7015451,4.71199474 C52.7015451,5.67536316 52.4556158,6.49746842 51.9649092,7.17831053 C51.4742026,7.85973158 50.8279903,8.29857368 50.0256965,8.49425789 L50.0256965,8.61120526 C51.0848626,8.89315263 51.8520236,9.36325789 52.3271797,10.0209421 C52.8023357,10.6786263 53.0402017,11.5319947 53.0402017,12.5810474 C53.0402017,14.1395737 52.4579196,15.3669421 51.2933553,16.2637316 C50.128791,17.1605211 48.5420578,17.6086263 46.5320037,17.6086263 L39.8838505,17.6086263 L39.8838505,0.437047368 Z" id="Fill-120"></path>
                    <path d="M66.3722167,15.2298474 C65.8342825,16.0560053 65.0590582,16.6980579 64.0465438,17.1560053 C63.0340295,17.6145316 61.8458514,17.8432158 60.4825854,17.8432158 C59.3456666,17.8432158 58.3913228,17.7627421 57.6201302,17.6023737 C56.8489375,17.4420053 56.0466437,17.1617947 55.2132488,16.7629 L55.2132488,12.6286368 C56.0932954,13.0825316 57.0084747,13.4368474 57.9593628,13.6915842 C58.9096749,13.9457421 59.7822342,14.0731105 60.5764648,14.0731105 C61.2618414,14.0731105 61.7640669,13.9538474 62.0837174,13.7147421 C62.4027918,13.4762158 62.562905,13.1687947 62.562905,12.7924789 C62.562905,12.5580053 62.498399,12.3524789 62.3699629,12.1764789 C62.2415268,11.9999 62.0347619,11.8221632 61.7508201,11.6421105 C61.4663025,11.4620579 60.7089325,11.0938474 59.4781343,10.5374789 C58.3642533,10.0291632 57.5285546,9.53532105 56.9716141,9.05768947 C56.4152496,8.58063684 56.0022958,8.03237368 55.7333287,7.41347895 C55.4649375,6.79516316 55.330166,6.06279474 55.330166,5.21695263 C55.330166,3.63584737 55.902657,2.40268947 57.0476391,1.51747895 C58.1926212,0.632847368 59.7661077,0.189952632 61.7680985,0.189952632 C63.536255,0.189952632 65.3395442,0.601005263 67.1779662,1.42368947 L65.764017,5.00563684 C64.1674926,4.26979474 62.7886762,3.90158421 61.6281435,3.90158421 C61.028007,3.90158421 60.5920153,4.00753158 60.3195925,4.21884737 C60.0465938,4.43016316 59.9106703,4.69242632 59.9106703,5.00563684 C59.9106703,5.34258421 60.0840303,5.64421579 60.4307502,5.90995263 C60.7768942,6.17626842 61.7174152,6.66200526 63.2523133,7.36658421 C64.7244331,8.03237368 65.7467386,8.74679474 66.3192296,9.51042632 C66.8917207,10.2734789 67.1779662,11.2351105 67.1779662,12.3935842 C67.1779662,13.4582684 66.909575,14.4042684 66.3722167,15.2298474 Z" id="Fill-121"></path>
                    <polygon id="Fill-122" points="69.8191427 17.6086842 74.4578177 17.6086842 74.4578177 0.437105263 69.8191427 0.437105263"></polygon>
                    <polygon id="Fill-123" points="85.6861297 17.6083368 81.0710685 17.6083368 81.0710685 4.2306 76.8994863 4.2306 76.8994863 0.436757895 89.845617 0.436757895 89.845617 4.2306 85.6861297 4.2306"></polygon>
                    <polygon id="Fill-124" points="102.42965 17.6083368 92.2878039 17.6083368 92.2878039 0.436757895 102.42965 0.436757895 102.42965 4.15996842 96.9028651 4.15996842 96.9028651 6.86191579 102.020728 6.86191579 102.020728 10.5845474 96.9028651 10.5845474 96.9028651 13.8266526 102.42965 13.8266526"></polygon>
                    <path d="M9.56307715,38.0331947 C10.7310971,38.0331947 11.597897,37.6296684 12.1629007,36.8231947 C12.7273285,36.0173 13.0095424,34.7604053 13.0095424,33.0530895 C13.0095424,31.3382474 12.7232969,30.0720895 12.1513818,29.2540368 C11.5783148,28.4354053 10.7236098,28.0260895 9.58611502,28.0260895 C7.272537,28.0260895 6.11603596,29.7021421 6.11603596,33.0530895 C6.11603596,36.3733526 7.26504969,38.0331947 9.56307715,38.0331947 Z M15.7556564,39.6420895 C14.3457388,41.1456158 12.2815457,41.8970895 9.56307715,41.8970895 C6.883197,41.8970895 4.82879501,41.1415632 3.39929521,39.6305105 C1.96979542,38.1194579 1.25562147,35.9188789 1.25562147,33.0293526 C1.25562147,30.1716684 1.9657638,27.9890368 3.38777628,26.4814579 C4.80921282,24.9744579 6.8757097,24.2206684 9.58611502,24.2206684 C12.3045836,24.2206684 14.365321,24.9686684 15.7671754,26.4640895 C17.1690297,27.9600895 17.8705328,30.1560368 17.8705328,33.0530895 C17.8705328,35.9426158 17.165574,38.1391421 15.7556564,39.6420895 Z" id="Fill-125"></path>
                    <polygon id="Fill-126" points="25.500272 41.6623842 20.9549004 41.6623842 20.9549004 24.4908053 31.0500947 24.4908053 31.0500947 28.2140158 25.500272 28.2140158 25.500272 31.4908579 30.6181347 31.4908579 30.6181347 35.2140684 25.500272 35.2140684"></polygon>
                    <polygon id="Fill-127" points="47.6070082 41.6623842 42.9919471 41.6623842 42.9919471 28.2846474 38.8203649 28.2846474 38.8203649 24.4908053 51.7664955 24.4908053 51.7664955 28.2846474 47.6070082 28.2846474"></polygon>
                    <polygon id="Fill-128" points="68.8489605 41.6623842 64.2102855 41.6623842 64.2102855 34.6623316 58.8470695 34.6623316 58.8470695 41.6623842 54.2089705 41.6623842 54.2089705 24.4908053 58.8470695 24.4908053 58.8470695 30.8569105 64.2102855 30.8569105 64.2102855 24.4908053 68.8489605 24.4908053"></polygon>
                    <polygon id="Fill-129" points="82.683201 41.6623842 72.541355 41.6623842 72.541355 24.4908053 82.683201 24.4908053 82.683201 28.2140158 77.1564161 28.2140158 77.1564161 30.9159632 82.2742788 30.9159632 82.2742788 34.6385947 77.1564161 34.6385947 77.1564161 37.8807 82.683201 37.8807"></polygon>
                    <path d="M10.6669943,53.4306474 C10.0478515,52.6716474 9.1073305,52.2912789 7.84543121,52.2912789 L6.50174748,52.2912789 L6.50174748,61.9110684 L7.5298124,61.9110684 C8.9322427,61.9110684 9.96030762,61.5023316 10.6145831,60.6831211 C11.2688586,59.8650684 11.5959963,58.6145421 11.5959963,56.9309632 C11.5959963,55.3568053 11.286137,54.1908053 10.6669943,53.4306474 Z M14.032251,63.3908579 C12.4622202,64.9412789 10.2563442,65.7164895 7.41289521,65.7164895 L1.88668631,65.7164895 L1.88668631,48.5449105 L7.79877953,48.5449105 C10.540286,48.5449105 12.6574662,49.2494895 14.1491682,50.6592263 C15.6402943,52.0689632 16.3867213,54.1045421 16.3867213,56.7665421 C16.3867213,59.6323316 15.6017059,61.8404368 14.032251,63.3908579 Z" id="Fill-130"></path>
                    <path d="M28.1294112,58.6927 L27.3933513,55.8738053 C27.2217192,55.2479632 27.0138024,54.4368579 26.7678732,53.4428053 C26.5225199,52.4487526 26.3612548,51.7354895 26.282926,51.3047526 C26.2132365,51.7048053 26.0750092,52.3619105 25.8682444,53.2778053 C25.6620554,54.1942789 25.2041778,55.9994368 24.4951873,58.6927 L28.1294112,58.6927 Z M29.9286688,65.7164895 L29.0877866,62.4981211 L23.5373879,62.4981211 L22.6728919,65.7164895 L17.6016809,65.7164895 L23.1751174,48.4748579 L29.332564,48.4748579 L34.976266,65.7164895 L29.9286688,65.7164895 Z" id="Fill-131"></path>
                    <polygon id="Fill-132" points="42.9217968 54.9109 45.8660365 48.5447947 50.8669819 48.5447947 45.2468937 59.0098474 45.2468937 65.7163737 40.5966998 65.7163737 40.5966998 59.1505316 34.9766116 48.5447947 40.0005949 48.5447947"></polygon>
                </g>
            </g>
        </g>
    </g>
</svg>