<?xml version="1.0" encoding="UTF-8"?>
<svg width="287px" height="200px" viewBox="0 0 287 200" version="1.1" xmlns="http://www.w3.org/2000/svg" xmlns:xlink="http://www.w3.org/1999/xlink">
    <!-- Generator: Sketch 47 (45396) - http://www.bohemiancoding.com/sketch -->
    <title>Group 18 (1)</title>
    <desc>Created with Sketch.</desc>
    <defs></defs>
    <g id="Page-1" stroke="none" stroke-width="1" fill="none" fill-rule="evenodd">
        <g id="Group-18-(1)" transform="translate(1.000000, 1.000000)">
            <g id="Rectangle" transform="translate(230.887000, 6.886000)">
                <rect id="Rectangle-path" fill="#FFFFFF" fill-rule="nonzero" x="0" y="0" width="54.8674" height="54.8674"></rect>
                <rect id="Rectangle-path" stroke="#222222" stroke-width="2" x="1" y="1" width="52.8674" height="52.8674"></rect>
            </g>
            <g id="Rectangle_2" transform="translate(241.938000, 97.519000)">
                <rect id="Rectangle-path" fill="#FFFFFF" fill-rule="nonzero" x="0" y="0" width="32.8551" height="32.8551"></rect>
                <rect id="Rectangle-path" stroke="#222222" stroke-width="2" x="1" y="1" width="30.8551" height="30.8551"></rect>
            </g>
            <g id="Rectangle_3" transform="translate(245.867000, 165.760000)">
                <rect id="Rectangle-path" fill="#FFFFFF" fill-rule="nonzero" x="0" y="0" width="24.5299" height="24.5299"></rect>
                <rect id="Rectangle-path" stroke="#222222" stroke-width="2" x="1" y="1" width="22.5299" height="22.5299"></rect>
            </g>
            <polygon id="Combined-Shape" stroke="#222222" stroke-width="2" fill="#FFFFFF" points="65.0059 3.007 36.0059 3.007 36.0059 39.007 0.0059 39.007 0.0059 68.007 36.0059 68.007 36.0059 104.007 65.0059 104.007 65.0059 68.007 101.0059 68.007 101.0059 39.007 65.0059 39.007"></polygon>
            <polygon id="Combined-Shape-Copy" stroke="#222222" stroke-width="2" fill="#FFFFFF" points="57.539 138.599 43.5273 138.599 43.5273 160.8229 21.3027 160.8229 21.3027 174.8341 43.5273 174.8341 43.5273 197.0592 57.539 197.0592 57.539 174.8341 79.7636 174.8341 79.7636 160.8229 57.539 160.8229"></polygon>
            <g id="Mask-Copy-4" transform="translate(133.000000, 0.000000)">
                <path d="M29.5,59 C45.7924,59 59,45.7924 59,29.5 C59,13.2076 45.7924,0 29.5,0 C13.2076,0 0,13.2076 0,29.5 C0,45.7924 13.2076,59 29.5,59 Z" id="Shape" fill="#FFFFFF"></path>
                <path d="M29.5,59 C45.7924,59 59,45.7924 59,29.5 C59,13.2076 45.7924,0 29.5,0 C13.2076,0 0,13.2076 0,29.5 C0,45.7924 13.2076,59 29.5,59 Z" id="Shape" stroke="#222222" stroke-width="2"></path>
            </g>
            <g id="Mask-Copy-2" transform="translate(144.000000, 97.000000)">
                <path d="M19,38 C29.4934,38 38,29.4934 38,19 C38,8.50659 29.4934,0 19,0 C8.50659,0 0,8.50659 0,19 C0,29.4934 8.50659,38 19,38 Z" id="Shape" fill="#FFFFFF"></path>
                <path d="M19,38 C29.4934,38 38,29.4934 38,19 C38,8.50659 29.4934,0 19,0 C8.50659,0 0,8.50659 0,19 C0,29.4934 8.50659,38 19,38 Z" id="Shape" stroke="#222222" stroke-width="2"></path>
            </g>
            <g id="Ellipse_2" transform="translate(153.000000, 169.000000)">
                <circle id="Oval" fill="#FFFFFF" fill-rule="nonzero" cx="9.5" cy="9.5" r="9.5"></circle>
                <circle id="Oval" stroke="#222222" stroke-width="2" cx="9.5" cy="9.5" r="8.5"></circle>
            </g>
        </g>
    </g>
</svg>