<?xml version="1.0" encoding="UTF-8"?>
<svg width="486px" height="491px" viewBox="0 0 486 491" version="1.1" xmlns="http://www.w3.org/2000/svg" xmlns:xlink="http://www.w3.org/1999/xlink">
    <!-- Generator: Sketch 48.1 (47250) - http://www.bohemiancoding.com/sketch -->
    <title>Mask Group (1)</title>
    <desc>Created with Sketch.</desc>
    <defs></defs>
    <g id="Page-1" stroke="none" stroke-width="1" fill="none" fill-rule="evenodd">
        <g id="Mask-Group-(1)" transform="translate(0.000000, 1.000000)">
            <g id="Rectangle" transform="translate(45.245060, 58.244653) rotate(54.000037) translate(-45.245060, -58.244653) translate(37.745058, 50.744652)">
                <rect id="Rectangle-path" fill="#FFFFFF" fill-rule="nonzero" x="0" y="0" width="15.0000045" height="15"></rect>
                <rect id="Rectangle-path" stroke="#222222" stroke-width="2.0000003" x="1.0000003" y="1" width="13.0000039" height="13"></rect>
            </g>
            <g id="Rectangle_2" transform="translate(234.495639, 162.541431) rotate(54.000168) translate(-234.495639, -162.541431) translate(217.995643, 146.041432)">
                <rect id="Rectangle-path" fill="#FFFFFF" fill-rule="nonzero" x="0" y="0" width="32.855093" height="32.8550976"></rect>
                <rect id="Rectangle-path" stroke="#222222" stroke-width="1.99999971" x="0.999999787" y="0.999999926" width="30.8550934" height="30.8550977"></rect>
            </g>
            <g id="Rectangle_3" transform="translate(195.513196, 67.512393) rotate(54.000421) translate(-195.513196, -67.512393) translate(190.013196, 62.012394)">
                <rect id="Rectangle-path" fill="#FFFFFF" fill-rule="nonzero" x="0" y="0" width="11.0000002" height="10.9999967"></rect>
                <rect id="Rectangle-path" stroke="#222222" stroke-width="1.99999971" x="1.00000001" y="0.999999698" width="9.00000013" height="8.99999728"></rect>
            </g>
            <g id="Rectangle_4" transform="translate(113.465116, 134.463952) rotate(53.999160) translate(-113.465116, -134.463952) translate(109.465115, 130.463952)">
                <rect id="Rectangle-path" fill="#FFFFFF" fill-rule="nonzero" x="0" y="0" width="8.0000028" height="7.99999962"></rect>
                <rect id="Rectangle-path" stroke="#222222" stroke-width="2.0000003" x="1.00000035" y="0.999999953" width="6.0000021" height="5.99999972"></rect>
            </g>
            <g id="Rectangle_5" transform="translate(410.588048, 344.587360) rotate(54.000493) translate(-410.588048, -344.587360) translate(406.588049, 340.587361)">
                <rect id="Rectangle-path" fill="#FFFFFF" fill-rule="nonzero" x="0" y="0" width="7.99999896" height="7.99999875"></rect>
                <rect id="Rectangle-path" stroke="#222222" stroke-width="1.99999971" x="0.99999987" y="0.999999844" width="5.99999922" height="5.99999906"></rect>
            </g>
            <g id="Rectangle_6" transform="translate(111.388118, 355.587134) rotate(-40.000033) translate(-111.388118, -355.587134) translate(103.888119, 354.587134)">
                <rect id="Rectangle-path" fill="#FFFFFF" fill-rule="nonzero" x="0" y="0" width="14.9999987" height="1.99999982"></rect>
                <rect id="Rectangle-path" stroke="#222222" stroke-width="0.999999911" x="0.499999956" y="0.499999956" width="13.9999988" height="1"></rect>
            </g>
            <g id="Rectangle_7" transform="translate(6.388118, 444.933134) rotate(-40.000033) translate(-6.388118, -444.933134) translate(-1.111881, 443.933134)">
                <rect id="Rectangle-path" fill="#FFFFFF" fill-rule="nonzero" x="0" y="0" width="14.9999987" height="1.99999982"></rect>
                <rect id="Rectangle-path" stroke="#222222" stroke-width="0.999999911" x="0.499999956" y="0.499999956" width="13.9999988" height="1"></rect>
            </g>
            <g id="Rectangle_8" transform="translate(85.876418, 482.922134) rotate(-40.000033) translate(-85.876418, -482.922134) translate(78.376419, 481.922134)">
                <rect id="Rectangle-path" fill="#FFFFFF" fill-rule="nonzero" x="0" y="0" width="14.9999987" height="1.99999982"></rect>
                <rect id="Rectangle-path" stroke="#222222" stroke-width="0.999999911" x="0.499999956" y="0.499999956" width="13.9999988" height="1"></rect>
            </g>
            <g id="Rectangle_9" transform="translate(402.388118, 23.586934) rotate(-40.000033) translate(-402.388118, -23.586934) translate(394.888119, 22.586934)">
                <rect id="Rectangle-path" fill="#FFFFFF" fill-rule="nonzero" x="0" y="0" width="14.9999987" height="1.99999982"></rect>
                <rect id="Rectangle-path" stroke="#222222" stroke-width="0.999999911" x="0.499999956" y="0.499999956" width="13.9999988" height="1"></rect>
            </g>
            <g id="Rectangle_10" transform="translate(286.388118, 104.587134) rotate(-40.000033) translate(-286.388118, -104.587134) translate(278.888119, 103.587134)">
                <rect id="Rectangle-path" fill="#FFFFFF" fill-rule="nonzero" x="0" y="0" width="14.9999987" height="1.99999982"></rect>
                <rect id="Rectangle-path" stroke="#222222" stroke-width="0.999999911" x="0.499999956" y="0.499999956" width="13.9999988" height="1"></rect>
            </g>
            <g id="Rectangle_11" transform="translate(409.388118, 229.587134) rotate(-40.000033) translate(-409.388118, -229.587134) translate(401.888119, 228.587134)">
                <rect id="Rectangle-path" fill="#FFFFFF" fill-rule="nonzero" x="0" y="0" width="14.9999987" height="1.99999982"></rect>
                <rect id="Rectangle-path" stroke="#222222" stroke-width="0.999999911" x="0.499999956" y="0.499999956" width="13.9999988" height="1"></rect>
            </g>
            <polygon id="Combined-Shape" stroke="#222222" stroke-width="2.00000051" fill="#FFFFFF" transform="translate(427.506816, 138.505859) rotate(53.897100) translate(-427.506816, -138.505859) " points="366.919827 123.654349 367.088216 152.655269 413.089919 152.923769 413.357219 198.924401 442.358313 199.093401 442.091813 153.091569 488.093805 153.360069 487.925805 124.357549 441.923114 124.090349 441.656214 78.0878305 412.655219 77.9183174 412.922419 123.921149"></polygon>
            <polygon id="Combined-Shape-Copy" stroke="#222222" stroke-width="2.00000051" fill="#FFFFFF" transform="translate(70.928921, 421.828319) rotate(53.897067) translate(-70.928921, -421.828319) " points="41.6570521 414.65162 41.737936 428.664018 63.9636661 428.794318 64.0930662 451.018515 78.1040751 451.100915 77.975775 428.875118 100.200789 429.004918 100.119989 414.99252 77.8949749 414.86272 77.7662748 392.636609 63.753966 392.555722 63.8825661 414.78172"></polygon>
            <g id="Mask-Copy-4" transform="translate(241.000000, 0.000000)">
                <path d="M29.5,59 C45.7924,59 59,45.7924 59,29.5 C59,13.2076 45.7924,0 29.5,0 C13.2076,0 0,13.2076 0,29.5 C0,45.7924 13.2076,59 29.5,59 Z" id="Shape" fill="#FFFFFF"></path>
                <path d="M29.5,59 C45.7924,59 59,45.7924 59,29.5 C59,13.2076 45.7924,0 29.5,0 C13.2076,0 0,13.2076 0,29.5 C0,45.7924 13.2076,59 29.5,59 Z" id="Shape" stroke="#222222" stroke-width="2"></path>
            </g>
            <g id="Mask-Copy-2" transform="translate(322.000000, 451.000000)">
                <path d="M19,38 C29.4934,38 38,29.4934 38,19 C38,8.50659 29.4934,0 19,0 C8.50659,0 0,8.50659 0,19 C0,29.4934 8.50659,38 19,38 Z" id="Shape" fill="#FFFFFF"></path>
                <path d="M19,38 C29.4934,38 38,29.4934 38,19 C38,8.50659 29.4934,0 19,0 C8.50659,0 0,8.50659 0,19 C0,29.4934 8.50659,38 19,38 Z" id="Shape" stroke="#222222" stroke-width="2"></path>
            </g>
            <g id="Mask-Copy-3" transform="translate(60.000000, 203.000000)">
                <path d="M10.5,21 C16.299,21 21,16.299 21,10.5 C21,4.70101 16.299,0 10.5,0 C4.70101,0 0,4.70101 0,10.5 C0,16.299 4.70101,21 10.5,21 Z" id="Shape" fill="#FFFFFF"></path>
                <path d="M10.5,21 C16.299,21 21,16.299 21,10.5 C21,4.70101 16.299,0 10.5,0 C4.70101,0 0,4.70101 0,10.5 C0,16.299 4.70101,21 10.5,21 Z" id="Shape" stroke="#222222" stroke-width="2"></path>
            </g>
            <g id="Ellipse_2" transform="translate(312.000000, 153.000000)">
                <circle id="Oval" fill="#FFFFFF" fill-rule="nonzero" cx="9.5" cy="9.5" r="9.5"></circle>
                <circle id="Oval" stroke="#222222" stroke-width="2" cx="9.5" cy="9.5" r="8.5"></circle>
            </g>
            <g id="Ellipse_3" transform="translate(331.000000, 353.000000)">
                <circle id="Oval" fill="#FFFFFF" fill-rule="nonzero" cx="9.5" cy="9.5" r="9.5"></circle>
                <circle id="Oval" stroke="#222222" stroke-width="2" cx="9.5" cy="9.5" r="8.5"></circle>
            </g>
            <g id="Ellipse_4" transform="translate(250.000000, 430.000000)">
                <circle id="Oval" fill="#FFFFFF" fill-rule="nonzero" cx="5.5" cy="5.5" r="5.5"></circle>
                <circle id="Oval" stroke="#222222" stroke-width="2" cx="5.5" cy="5.5" r="4.5"></circle>
            </g>
            <g id="Ellipse_5" transform="translate(166.000000, 407.000000)">
                <circle id="Oval" fill="#FFFFFF" fill-rule="nonzero" cx="5.5" cy="5.5" r="5.5"></circle>
                <circle id="Oval" stroke="#222222" stroke-width="2" cx="5.5" cy="5.5" r="4.5"></circle>
            </g>
            <g id="Ellipse_6" transform="translate(235.000000, 350.000000)">
                <circle id="Oval" fill="#FFFFFF" fill-rule="nonzero" cx="5.5" cy="5.5" r="5.5"></circle>
                <circle id="Oval" stroke="#222222" stroke-width="2" cx="5.5" cy="5.5" r="4.5"></circle>
            </g>
        </g>
    </g>
</svg>