<svg width="351" height="468" viewBox="0 0 351 468" version="1.1" xmlns="http://www.w3.org/2000/svg" xmlns:xlink="http://www.w3.org/1999/xlink">
<g id="Canvas" fill="none">
<g id="Group 18">
<g id="Group 15">
<g id="Ellipse">
<circle cx="175.5" cy="175.5" r="175.5" fill="#62E6AC"/>
</g>
<g id="content master">
<path d="M 69.6509 36.694C 66.8779 39.42 64.3399 39.937 62.4599 39.937C 58.6059 39.937 56.3499 37.963 55.6919 37.305C 54.2819 35.942 52.9659 33.639 52.9659 30.396C 52.9659 27.388 54.1879 24.85 55.9269 23.158C 57.5719 21.56 59.6869 20.714 62.3189 20.714C 65.6559 20.714 68.0529 22.359 69.6509 24.051L 69.6509 15.685C 66.5959 14.369 64.1989 13.946 62.1309 13.946C 57.2429 13.946 53.2009 15.779 50.4279 18.458C 47.6079 21.184 45.5399 25.32 45.5399 30.255C 45.5399 35.284 47.6079 39.42 50.4279 42.146C 53.0599 44.731 56.9609 46.705 62.7419 46.705C 64.6219 46.705 66.8779 46.423 69.6509 45.013L 69.6509 36.694ZM 98.249 35.519C 98.249 32.84 97.2149 29.832 95.0999 27.717C 93.2199 25.837 90.0239 24.333 85.9349 24.333C 81.8459 24.333 78.6499 25.837 76.7699 27.717C 74.6549 29.832 73.6209 32.84 73.6209 35.519C 73.6209 38.198 74.6549 41.206 76.7699 43.321C 78.6499 45.201 81.8459 46.705 85.9349 46.705C 90.0239 46.705 93.2199 45.201 95.0999 43.321C 97.2149 41.206 98.249 38.198 98.249 35.519ZM 85.9349 30.067C 87.4859 30.067 88.7549 30.584 89.7419 31.571C 90.7289 32.558 91.2929 33.827 91.2929 35.519C 91.2929 37.211 90.7289 38.48 89.7419 39.467C 88.7549 40.454 87.4859 40.971 85.9819 40.971C 84.1959 40.971 82.9739 40.313 82.1279 39.467C 81.3289 38.668 80.5769 37.446 80.5769 35.519C 80.5769 33.827 81.1409 32.558 82.1279 31.571C 83.1149 30.584 84.3839 30.067 85.9349 30.067ZM 102.469 46L 109.237 46L 109.237 35.284C 109.237 34.579 109.284 32.229 110.553 31.007C 111.211 30.396 112.01 30.161 112.903 30.161C 113.608 30.161 114.454 30.302 115.159 31.007C 116.193 32.041 116.24 33.686 116.24 35.096L 116.24 46L 123.008 46L 123.008 35.566C 123.008 34.203 123.149 32.558 124.042 31.43C 124.606 30.678 125.546 30.161 126.674 30.161C 127.661 30.161 128.554 30.584 129.118 31.289C 130.011 32.417 130.011 34.297 130.011 35.378L 130.011 46L 136.779 46L 136.779 32.746C 136.779 31.242 136.638 28.422 134.617 26.495C 133.348 25.273 131.28 24.521 128.742 24.521C 127.097 24.521 125.734 24.803 124.277 25.696C 122.914 26.542 122.115 27.529 121.598 28.375C 121.034 27.106 120.141 26.072 119.06 25.461C 117.65 24.615 116.005 24.521 115.112 24.521C 113.514 24.521 110.976 24.85 109.237 27.482L 109.237 25.038L 102.469 25.038L 102.469 46ZM 148.848 43.603C 149.553 44.59 151.339 46.705 155.522 46.705C 158.295 46.705 160.551 45.953 162.619 43.885C 164.687 41.817 165.956 39.091 165.956 35.472C 165.956 32.041 164.687 29.174 162.807 27.294C 161.491 25.978 159.141 24.333 155.381 24.333C 153.783 24.333 151.057 24.662 148.848 27.529L 148.848 25.038L 142.08 25.038L 142.08 56.763L 148.848 56.763L 148.848 43.603ZM 153.736 30.161C 155.099 30.161 156.415 30.678 157.402 31.618C 158.342 32.511 159 33.874 159 35.425C 159 36.788 158.436 38.386 157.355 39.42C 156.368 40.36 155.005 40.877 153.736 40.877C 152.279 40.877 150.869 40.266 149.882 39.279C 148.895 38.245 148.378 36.882 148.378 35.566C 148.378 34.297 148.895 32.793 149.976 31.712C 150.634 31.054 151.856 30.161 153.736 30.161ZM 193.764 35.519C 193.764 32.84 192.73 29.832 190.615 27.717C 188.735 25.837 185.539 24.333 181.45 24.333C 177.361 24.333 174.165 25.837 172.285 27.717C 170.17 29.832 169.136 32.84 169.136 35.519C 169.136 38.198 170.17 41.206 172.285 43.321C 174.165 45.201 177.361 46.705 181.45 46.705C 185.539 46.705 188.735 45.201 190.615 43.321C 192.73 41.206 193.764 38.198 193.764 35.519ZM 181.45 30.067C 183.001 30.067 184.27 30.584 185.257 31.571C 186.244 32.558 186.808 33.827 186.808 35.519C 186.808 37.211 186.244 38.48 185.257 39.467C 184.27 40.454 183.001 40.971 181.497 40.971C 179.711 40.971 178.489 40.313 177.643 39.467C 176.844 38.668 176.092 37.446 176.092 35.519C 176.092 33.827 176.656 32.558 177.643 31.571C 178.63 30.584 179.899 30.067 181.45 30.067ZM 197.984 46L 204.752 46L 204.752 35.237C 204.752 33.874 204.94 32.37 206.068 31.242C 206.585 30.678 207.478 30.114 208.888 30.114C 210.11 30.114 210.956 30.537 211.473 31.054C 212.554 32.135 212.601 33.874 212.601 35.237L 212.601 46L 219.369 46L 219.369 32.746C 219.369 31.054 219.228 28.563 217.254 26.589C 215.468 24.803 213.071 24.474 211.238 24.474C 209.264 24.474 206.82 24.897 204.752 27.529L 204.752 25.038L 197.984 25.038L 197.984 46ZM 230.714 32.652C 230.902 31.712 231.372 30.96 231.889 30.396C 232.547 29.738 233.581 29.033 235.32 29.033C 236.683 29.033 237.764 29.503 238.516 30.208C 239.503 31.148 239.832 32.464 239.879 32.652L 230.714 32.652ZM 246.13 35.989C 246.13 33.404 245.66 30.114 243.169 27.482C 240.584 24.756 237.2 24.333 234.85 24.333C 232.5 24.333 229.351 24.803 226.813 27.341C 224.698 29.503 223.617 32.605 223.617 35.613C 223.617 39.091 224.933 41.864 226.766 43.697C 229.21 46.141 231.983 46.705 235.132 46.705C 237.482 46.705 239.738 46.376 241.759 45.154C 242.981 44.402 244.861 42.851 245.801 39.89L 239.409 39.232C 238.845 40.407 238.046 40.924 237.952 40.971C 237.247 41.394 236.213 41.582 235.226 41.582C 234.192 41.582 232.782 41.394 231.748 40.266C 230.902 39.326 230.479 37.822 230.479 36.694L 246.13 36.694L 246.13 35.989ZM 250.354 46L 257.122 46L 257.122 35.237C 257.122 33.874 257.31 32.37 258.438 31.242C 258.955 30.678 259.848 30.114 261.258 30.114C 262.48 30.114 263.326 30.537 263.843 31.054C 264.924 32.135 264.971 33.874 264.971 35.237L 264.971 46L 271.739 46L 271.739 32.746C 271.739 31.054 271.598 28.563 269.624 26.589C 267.838 24.803 265.441 24.474 263.608 24.474C 261.634 24.474 259.19 24.897 257.122 27.529L 257.122 25.038L 250.354 25.038L 250.354 46ZM 288.16 30.49L 288.16 25.038L 283.977 25.038L 283.977 18.27L 277.209 18.27L 277.209 25.038L 274.859 25.038L 274.859 30.49L 277.209 30.49L 277.209 46L 283.977 46L 283.977 30.49L 288.16 30.49ZM 25.8377 64.651L 25.8377 96L 37.6347 96C 39.5617 96 43.3217 95.812 45.9067 93.321C 47.1287 92.099 48.3507 90.125 48.3507 86.976C 48.3507 84.203 47.3637 82.417 46.3297 81.383C 45.2017 80.255 43.5097 79.503 42.0057 79.268C 42.7577 78.939 43.8387 78.281 44.6377 76.965C 45.4837 75.602 45.6717 74.192 45.6717 72.97C 45.6717 71.607 45.4367 68.975 43.4157 67.048C 40.9717 64.745 37.1177 64.651 35.4257 64.651L 25.8377 64.651ZM 32.9817 70.291L 34.1097 70.291C 35.4257 70.291 36.8357 70.291 37.8697 71.09C 38.4337 71.513 39.0917 72.359 39.0917 73.722C 39.0917 75.085 38.4807 76.025 37.8227 76.495C 36.7887 77.247 35.1437 77.388 34.1567 77.388L 32.9817 77.388L 32.9817 70.291ZM 32.9817 82.746L 34.9557 82.746C 36.4127 82.746 38.8567 82.746 40.1257 83.921C 40.5957 84.344 41.1127 85.19 41.1127 86.459C 41.1127 87.587 40.7367 88.48 40.0787 89.091C 38.7627 90.313 36.5537 90.36 34.7207 90.36L 32.9817 90.36L 32.9817 82.746ZM 69.019 77.388C 67.092 74.756 64.225 74.333 62.439 74.333C 59.525 74.333 56.987 75.367 55.154 77.2C 53.227 79.127 51.911 82.135 51.911 85.66C 51.911 88.433 52.757 91.159 54.966 93.509C 57.269 95.953 59.807 96.705 62.815 96.705C 64.554 96.705 67.186 96.282 69.019 93.462L 69.019 96L 75.787 96L 75.787 75.038L 69.019 75.038L 69.019 77.388ZM 64.131 80.161C 65.353 80.161 66.857 80.631 67.891 81.618C 68.878 82.558 69.442 83.968 69.442 85.472C 69.442 87.258 68.69 88.574 67.797 89.42C 66.904 90.313 65.635 90.877 64.272 90.877C 62.674 90.877 61.217 90.219 60.277 89.232C 59.666 88.574 58.867 87.352 58.867 85.472C 58.867 83.592 59.713 82.37 60.418 81.665C 61.311 80.772 62.674 80.161 64.131 80.161ZM 96.5448 76.119C 94.8528 75.132 92.6908 74.333 89.5888 74.333C 87.6618 74.333 85.1238 74.709 83.2438 76.448C 82.0218 77.576 81.2228 79.268 81.2228 81.289C 81.2228 82.887 81.7398 84.062 82.7268 85.096C 83.6198 85.989 84.8888 86.647 86.1108 87.023L 87.8028 87.54C 88.7898 87.822 89.4008 88.01 89.8708 88.292C 90.4818 88.668 90.6228 89.138 90.6228 89.514C 90.6228 90.031 90.3408 90.548 89.9178 90.877C 89.3068 91.347 88.2258 91.347 87.8028 91.347C 86.9098 91.347 85.9228 91.159 84.9828 90.689C 84.2778 90.36 83.3378 89.702 82.6798 89.138L 79.8128 93.697C 82.5388 96.094 85.5938 96.705 88.4138 96.705C 90.6228 96.705 93.1608 96.376 95.2288 94.308C 96.1688 93.368 97.3908 91.582 97.3908 88.809C 97.3908 87.211 96.9678 85.942 95.7458 84.814C 94.6648 83.827 93.4428 83.357 92.2678 82.981L 90.4818 82.417C 89.6358 82.135 88.9308 81.994 88.4608 81.712C 88.1318 81.524 87.8028 81.242 87.8028 80.772C 87.8028 80.443 87.9908 80.067 88.2258 79.832C 88.6488 79.409 89.4478 79.221 90.1528 79.221C 91.4688 79.221 92.8318 79.785 93.8658 80.396L 96.5448 76.119ZM 107.477 82.652C 107.665 81.712 108.135 80.96 108.652 80.396C 109.31 79.738 110.344 79.033 112.083 79.033C 113.446 79.033 114.527 79.503 115.279 80.208C 116.266 81.148 116.595 82.464 116.642 82.652L 107.477 82.652ZM 122.893 85.989C 122.893 83.404 122.423 80.114 119.932 77.482C 117.347 74.756 113.963 74.333 111.613 74.333C 109.263 74.333 106.114 74.803 103.576 77.341C 101.461 79.503 100.38 82.605 100.38 85.613C 100.38 89.091 101.696 91.864 103.529 93.697C 105.973 96.141 108.746 96.705 111.895 96.705C 114.245 96.705 116.501 96.376 118.522 95.154C 119.744 94.402 121.624 92.851 122.564 89.89L 116.172 89.232C 115.608 90.407 114.809 90.924 114.715 90.971C 114.01 91.394 112.976 91.582 111.989 91.582C 110.955 91.582 109.545 91.394 108.511 90.266C 107.665 89.326 107.242 87.822 107.242 86.694L 122.893 86.694L 122.893 85.989ZM 149.959 61.737L 143.191 61.737L 143.191 77.388C 141.499 75.085 138.961 74.333 136.658 74.333C 133.791 74.333 131.206 75.414 129.373 77.153C 127.352 79.08 126.083 81.947 126.083 85.425C 126.083 88.668 127.211 91.676 129.373 93.838C 131.206 95.718 133.462 96.705 136.564 96.705C 140.277 96.705 142.157 94.966 143.191 93.462L 143.191 96L 149.959 96L 149.959 61.737ZM 138.303 80.161C 139.76 80.161 141.029 80.584 142.11 81.712C 142.909 82.558 143.614 83.78 143.614 85.566C 143.614 87.305 142.862 88.574 142.063 89.326C 140.982 90.36 139.478 90.877 138.209 90.877C 137.034 90.877 135.718 90.407 134.684 89.42C 133.697 88.48 133.039 87.117 133.039 85.566C 133.039 83.874 133.697 82.511 134.684 81.571C 135.765 80.537 136.94 80.161 138.303 80.161ZM 167.159 64.651L 167.159 96L 177.311 96C 179.943 96 185.348 95.671 189.672 91.3C 192.257 88.715 193.949 85.143 193.949 80.208C 193.949 75.32 192.21 71.654 189.437 68.975C 185.583 65.262 181.212 64.651 177.076 64.651L 167.159 64.651ZM 174.397 70.761L 176.324 70.761C 178.533 70.761 181.588 71.09 183.938 73.44C 185.16 74.662 186.523 76.824 186.523 80.208C 186.523 83.686 185.16 86.365 183.468 87.775C 181.118 89.749 177.828 89.89 176.324 89.89L 174.397 89.89L 174.397 70.761ZM 204.598 82.652C 204.786 81.712 205.256 80.96 205.773 80.396C 206.431 79.738 207.465 79.033 209.204 79.033C 210.567 79.033 211.648 79.503 212.4 80.208C 213.387 81.148 213.716 82.464 213.763 82.652L 204.598 82.652ZM 220.014 85.989C 220.014 83.404 219.544 80.114 217.053 77.482C 214.468 74.756 211.084 74.333 208.734 74.333C 206.384 74.333 203.235 74.803 200.697 77.341C 198.582 79.503 197.501 82.605 197.501 85.613C 197.501 89.091 198.817 91.864 200.65 93.697C 203.094 96.141 205.867 96.705 209.016 96.705C 211.366 96.705 213.622 96.376 215.643 95.154C 216.865 94.402 218.745 92.851 219.685 89.89L 213.293 89.232C 212.729 90.407 211.93 90.924 211.836 90.971C 211.131 91.394 210.097 91.582 209.11 91.582C 208.076 91.582 206.666 91.394 205.632 90.266C 204.786 89.326 204.363 87.822 204.363 86.694L 220.014 86.694L 220.014 85.989ZM 239.748 76.119C 238.056 75.132 235.894 74.333 232.792 74.333C 230.865 74.333 228.327 74.709 226.447 76.448C 225.225 77.576 224.426 79.268 224.426 81.289C 224.426 82.887 224.943 84.062 225.93 85.096C 226.823 85.989 228.092 86.647 229.314 87.023L 231.006 87.54C 231.993 87.822 232.604 88.01 233.074 88.292C 233.685 88.668 233.826 89.138 233.826 89.514C 233.826 90.031 233.544 90.548 233.121 90.877C 232.51 91.347 231.429 91.347 231.006 91.347C 230.113 91.347 229.126 91.159 228.186 90.689C 227.481 90.36 226.541 89.702 225.883 89.138L 223.016 93.697C 225.742 96.094 228.797 96.705 231.617 96.705C 233.826 96.705 236.364 96.376 238.432 94.308C 239.372 93.368 240.594 91.582 240.594 88.809C 240.594 87.211 240.171 85.942 238.949 84.814C 237.868 83.827 236.646 83.357 235.471 82.981L 233.685 82.417C 232.839 82.135 232.134 81.994 231.664 81.712C 231.335 81.524 231.006 81.242 231.006 80.772C 231.006 80.443 231.194 80.067 231.429 79.832C 231.852 79.409 232.651 79.221 233.356 79.221C 234.672 79.221 236.035 79.785 237.069 80.396L 239.748 76.119ZM 245.087 75.038L 245.087 96L 251.855 96L 251.855 75.038L 245.087 75.038ZM 244.523 66.108C 244.523 68.317 246.262 70.056 248.471 70.056C 250.68 70.056 252.419 68.317 252.419 66.108C 252.419 63.899 250.68 62.16 248.471 62.16C 246.262 62.16 244.523 63.899 244.523 66.108ZM 273.539 77.482C 272.787 76.354 271.095 74.333 267.288 74.333C 263.387 74.333 260.943 76.025 259.674 77.341C 257.888 79.174 256.572 82.135 256.572 85.707C 256.572 89.326 257.935 91.864 259.627 93.603C 261.554 95.53 264.045 96.564 267.288 96.564C 271.142 96.564 272.74 94.731 273.539 93.415L 273.539 95.812C 273.539 96.705 273.492 98.914 272.176 100.183C 271.706 100.606 270.719 101.311 268.792 101.311C 267.805 101.311 266.677 101.123 265.878 100.606C 265.314 100.23 264.656 99.619 264.374 98.538L 256.995 98.538C 257.465 101.17 258.828 102.956 260.144 104.084C 262.776 106.34 266.113 106.763 268.886 106.763C 271.189 106.763 275.137 106.434 277.722 103.661C 280.166 101.029 280.307 97.692 280.307 94.731L 280.307 75.038L 273.539 75.038L 273.539 77.482ZM 268.839 80.208C 270.061 80.208 271.518 80.631 272.505 81.524C 273.398 82.37 274.103 83.733 274.103 85.378C 274.103 86.929 273.492 88.386 272.458 89.373C 271.753 90.031 270.578 90.736 268.792 90.736C 267.194 90.736 265.925 90.219 264.985 89.232C 264.045 88.245 263.528 86.835 263.528 85.472C 263.528 84.203 264.092 82.558 265.126 81.571C 265.972 80.772 267.335 80.208 268.839 80.208ZM 285.558 96L 292.326 96L 292.326 85.237C 292.326 83.874 292.514 82.37 293.642 81.242C 294.159 80.678 295.052 80.114 296.462 80.114C 297.684 80.114 298.53 80.537 299.047 81.054C 300.128 82.135 300.175 83.874 300.175 85.237L 300.175 96L 306.943 96L 306.943 82.746C 306.943 81.054 306.802 78.563 304.828 76.589C 303.042 74.803 300.645 74.474 298.812 74.474C 296.838 74.474 294.394 74.897 292.326 77.529L 292.326 75.038L 285.558 75.038L 285.558 96Z" transform="translate(10 112)" fill="#191919"/>
</g>
</g>
<g id="Rectangle">
<rect width="54.8674" height="54.8674" transform="translate(245.887 275.886)" fill="white"/>
<rect x="1" y="1" width="52.8674" height="52.8674" stroke-width="2" transform="translate(245.887 275.886)" stroke="#222222"/>
</g>
<g id="Rectangle_2">
<rect width="32.8551" height="32.8551" transform="translate(256.938 366.519)" fill="white"/>
<rect x="1" y="1" width="30.8551" height="30.8551" stroke-width="2" transform="translate(256.938 366.519)" stroke="#222222"/>
</g>
<g id="Rectangle_3">
<rect width="24.5299" height="24.5299" transform="translate(260.867 434.76)" fill="white"/>
<rect x="1" y="1" width="22.5299" height="22.5299" stroke-width="2" transform="translate(260.867 434.76)" stroke="#222222"/>
</g>
<g id="Combined Shape">
<path fill-rule="evenodd" clip-rule="evenodd" d="M 65 0L 36 0L 36 36L 0 36L 0 65L 36 65L 36 101L 65 101L 65 65L 101 65L 101 36L 65 36L 65 0Z" transform="translate(15.0059 272.007)" fill="white"/>
<path d="M 65 0L 36 0L 36 36L 0 36L 0 65L 36 65L 36 101L 65 101L 65 65L 101 65L 101 36L 65 36L 65 0Z" stroke-width="2" transform="translate(15.0059 272.007)" stroke="#222222"/>
</g>
<g id="Combined Shape Copy">
<path fill-rule="evenodd" clip-rule="evenodd" d="M 36.2363 0L 22.2246 0L 22.2246 22.2239L 0 22.2239L 0 36.2351L 22.2246 36.2351L 22.2246 58.4602L 36.2363 58.4602L 36.2363 36.2351L 58.4609 36.2351L 58.4609 22.2239L 36.2363 22.2239L 36.2363 0Z" transform="translate(36.3027 407.599)" fill="white"/>
<path d="M 36.2363 0L 22.2246 0L 22.2246 22.2239L 0 22.2239L 0 36.2351L 22.2246 36.2351L 22.2246 58.4602L 36.2363 58.4602L 36.2363 36.2351L 58.4609 36.2351L 58.4609 22.2239L 36.2363 22.2239L 36.2363 0Z" stroke-width="2" transform="translate(36.3027 407.599)" stroke="#222222"/>
</g>
<g id="Mask Copy 4">
<path fill-rule="evenodd" clip-rule="evenodd" d="M 29.5 59C 45.7924 59 59 45.7924 59 29.5C 59 13.2076 45.7924 0 29.5 0C 13.2076 0 0 13.2076 0 29.5C 0 45.7924 13.2076 59 29.5 59Z" transform="translate(148 269)" fill="white"/>
<path d="M 29.5 59C 45.7924 59 59 45.7924 59 29.5C 59 13.2076 45.7924 0 29.5 0C 13.2076 0 0 13.2076 0 29.5C 0 45.7924 13.2076 59 29.5 59Z" stroke-width="2" transform="translate(148 269)" stroke="#222222"/>
</g>
<g id="Mask Copy 2">
<path fill-rule="evenodd" clip-rule="evenodd" d="M 19 38C 29.4934 38 38 29.4934 38 19C 38 8.50659 29.4934 0 19 0C 8.50659 0 0 8.50659 0 19C 0 29.4934 8.50659 38 19 38Z" transform="translate(159 366)" fill="white"/>
<path d="M 19 38C 29.4934 38 38 29.4934 38 19C 38 8.50659 29.4934 0 19 0C 8.50659 0 0 8.50659 0 19C 0 29.4934 8.50659 38 19 38Z" stroke-width="2" transform="translate(159 366)" stroke="#222222"/>
</g>
<g id="Ellipse_2">
<circle cx="9.5" cy="9.5" r="9.5" transform="translate(168 438)" fill="white"/>
<circle cx="9.5" cy="9.5" r="8.5" stroke-width="2" transform="translate(168 438)" stroke="#222222"/>
</g>
</g>
</g>
</svg>

