<svg width="487" height="501" viewBox="0 0 487 501" version="1.1" xmlns="http://www.w3.org/2000/svg" xmlns:xlink="http://www.w3.org/1999/xlink">
<g id="Canvas" fill="none">
<g id="Mask Group">
<g id="Ellipse">
<circle cx="234.5" cy="234.5" r="234.5" transform="translate(2 31.022)" fill="#62E6AC"/>
</g>
<g id="Rectangle">
<rect width="15" height="15" transform="matrix(0.587783 0.809019 -0.809015 0.587788 46.9043 48.7686)" fill="white"/>
<rect x="1" y="1" width="13" height="13" stroke-width="2" transform="matrix(0.587783 0.809019 -0.809015 0.587788 46.9043 48.7686)" stroke="#222222"/>
</g>
<g id="Rectangle_2">
<rect width="32.8551" height="32.8551" transform="matrix(0.587778 0.809022 -0.809012 0.587792 238.146 140.494)" fill="white"/>
<rect x="1" y="1" width="30.8551" height="30.8551" stroke-width="2" transform="matrix(0.587778 0.809022 -0.809012 0.587792 238.146 140.494)" stroke="#222222"/>
</g>
<g id="Rectangle_3">
<rect width="11" height="11" transform="matrix(0.587766 0.809031 -0.809003 0.587804 196.73 60.8298)" fill="white"/>
<rect x="1" y="1" width="9" height="9" stroke-width="2" transform="matrix(0.587766 0.809031 -0.809003 0.587804 196.73 60.8298)" stroke="#222222"/>
</g>
<g id="Rectangle_4">
<rect width="8" height="8" transform="matrix(0.587823 0.80899 -0.809044 0.587748 114.35 129.877)" fill="white"/>
<rect x="1" y="1" width="6" height="6" stroke-width="2" transform="matrix(0.587823 0.80899 -0.809044 0.587748 114.35 129.877)" stroke="#222222"/>
</g>
<g id="Rectangle_5">
<rect width="8" height="8" transform="matrix(0.587763 0.809033 -0.809001 0.587807 411.473 340)" fill="white"/>
<rect x="1" y="1" width="6" height="6" stroke-width="2" transform="matrix(0.587763 0.809033 -0.809001 0.587807 411.473 340)" stroke="#222222"/>
</g>
<g id="Rectangle_6">
<rect width="15" height="2" transform="matrix(0.766044 -0.642788 0.642788 0.766044 105 360.642)" fill="white"/>
<g mask="url(#path11_ins)" transform="matrix(0.766044 -0.642788 0.642788 0.766044 105 360.642)">
<rect width="15" height="2" stroke-width="4" stroke="#222222"/>
</g>
</g>
<g id="Rectangle_7">
<rect width="15" height="2" transform="matrix(0.766044 -0.642788 0.642788 0.766044 0 449.988)" fill="white"/>
<g mask="url(#path12_ins)" transform="matrix(0.766044 -0.642788 0.642788 0.766044 0 449.988)">
<rect width="15" height="2" stroke-width="4" stroke="#222222"/>
</g>
</g>
<g id="Rectangle_8">
<rect width="15" height="2" transform="matrix(0.766044 -0.642788 0.642788 0.766044 79.4883 487.977)" fill="white"/>
<g mask="url(#path13_ins)" transform="matrix(0.766044 -0.642788 0.642788 0.766044 79.4883 487.977)">
<rect width="15" height="2" stroke-width="4" stroke="#222222"/>
</g>
</g>
<g id="Rectangle_9">
<rect width="15" height="2" transform="matrix(0.766044 -0.642788 0.642788 0.766044 396 28.6418)" fill="white"/>
<g mask="url(#path14_ins)" transform="matrix(0.766044 -0.642788 0.642788 0.766044 396 28.6418)">
<rect width="15" height="2" stroke-width="4" stroke="#222222"/>
</g>
</g>
<g id="Rectangle_10">
<rect width="15" height="2" transform="matrix(0.766044 -0.642788 0.642788 0.766044 280 109.642)" fill="white"/>
<g mask="url(#path15_ins)" transform="matrix(0.766044 -0.642788 0.642788 0.766044 280 109.642)">
<rect width="15" height="2" stroke-width="4" stroke="#222222"/>
</g>
</g>
<g id="Rectangle_11">
<rect width="15" height="2" transform="matrix(0.766044 -0.642788 0.642788 0.766044 403 234.642)" fill="white"/>
<g mask="url(#path16_ins)" transform="matrix(0.766044 -0.642788 0.642788 0.766044 403 234.642)">
<rect width="15" height="2" stroke-width="4" stroke="#222222"/>
</g>
</g>
<g id="Combined Shape">
<path fill-rule="evenodd" clip-rule="evenodd" d="M 0 45.736L 0.168389 74.7369L 46.1701 75.0054L 46.4374 121.006L 75.4385 121.175L 75.172 75.1732L 121.174 75.4417L 121.006 46.4392L 75.0033 46.172L 74.7364 0.169513L 45.7354 0L 46.0026 46.0028L 0 45.736Z" transform="matrix(0.592484 0.805582 -0.812412 0.583085 440.832 55.3704)" fill="white"/>
<path d="M 0 45.736L 0.168389 74.7369L 46.1701 75.0054L 46.4374 121.006L 75.4385 121.175L 75.172 75.1732L 121.174 75.4417L 121.006 46.4392L 75.0033 46.172L 74.7364 0.169513L 45.7354 0L 46.0026 46.0028L 0 45.736Z" stroke-width="2" transform="matrix(0.592484 0.805582 -0.812412 0.583085 440.832 55.3704)" stroke="#222222"/>
</g>
<g id="Combined Shape Copy">
<path fill-rule="evenodd" clip-rule="evenodd" d="M 0 22.0959L 0.0808839 36.1083L 22.3066 36.2386L 22.436 58.4628L 36.447 58.5452L 36.3187 36.3194L 58.5437 36.4492L 58.4629 22.4368L 36.2379 22.307L 36.1092 0.0808863L 22.0969 0L 22.2255 22.226L 0 22.0959Z" transform="matrix(0.592484 0.805583 -0.812411 0.583085 77.3672 382.179)" fill="white"/>
<path d="M 0 22.0959L 0.0808839 36.1083L 22.3066 36.2386L 22.436 58.4628L 36.447 58.5452L 36.3187 36.3194L 58.5437 36.4492L 58.4629 22.4368L 36.2379 22.307L 36.1092 0.0808863L 22.0969 0L 22.2255 22.226L 0 22.0959Z" stroke-width="2" transform="matrix(0.592484 0.805583 -0.812411 0.583085 77.3672 382.179)" stroke="#222222"/>
</g>
<g id="Mask Copy 4">
<path fill-rule="evenodd" clip-rule="evenodd" d="M 29.5 59C 45.7924 59 59 45.7924 59 29.5C 59 13.2076 45.7924 0 29.5 0C 13.2076 0 0 13.2076 0 29.5C 0 45.7924 13.2076 59 29.5 59Z" transform="translate(241 1)" fill="white"/>
<path d="M 29.5 59C 45.7924 59 59 45.7924 59 29.5C 59 13.2076 45.7924 0 29.5 0C 13.2076 0 0 13.2076 0 29.5C 0 45.7924 13.2076 59 29.5 59Z" stroke-width="2" transform="translate(241 1)" stroke="#222222"/>
</g>
<g id="Mask Copy 2">
<path fill-rule="evenodd" clip-rule="evenodd" d="M 19 38C 29.4934 38 38 29.4934 38 19C 38 8.50659 29.4934 0 19 0C 8.50659 0 0 8.50659 0 19C 0 29.4934 8.50659 38 19 38Z" transform="translate(322 452)" fill="white"/>
<path d="M 19 38C 29.4934 38 38 29.4934 38 19C 38 8.50659 29.4934 0 19 0C 8.50659 0 0 8.50659 0 19C 0 29.4934 8.50659 38 19 38Z" stroke-width="2" transform="translate(322 452)" stroke="#222222"/>
</g>
<g id="Mask Copy 3">
<path fill-rule="evenodd" clip-rule="evenodd" d="M 10.5 21C 16.299 21 21 16.299 21 10.5C 21 4.70101 16.299 0 10.5 0C 4.70101 0 0 4.70101 0 10.5C 0 16.299 4.70101 21 10.5 21Z" transform="translate(60 204)" fill="white"/>
<path d="M 10.5 21C 16.299 21 21 16.299 21 10.5C 21 4.70101 16.299 0 10.5 0C 4.70101 0 0 4.70101 0 10.5C 0 16.299 4.70101 21 10.5 21Z" stroke-width="2" transform="translate(60 204)" stroke="#222222"/>
</g>
<g id="content master">
<path d="M 74.7458 14.651L 74.7458 46L 81.9838 46L 81.9838 14.651L 74.7458 14.651ZM 88.172 46L 94.94 46L 94.94 35.237C 94.94 33.874 95.128 32.37 96.256 31.242C 96.773 30.678 97.666 30.114 99.076 30.114C 100.298 30.114 101.144 30.537 101.661 31.054C 102.742 32.135 102.789 33.874 102.789 35.237L 102.789 46L 109.557 46L 109.557 32.746C 109.557 31.054 109.416 28.563 107.442 26.589C 105.656 24.803 103.259 24.474 101.426 24.474C 99.452 24.474 97.008 24.897 94.94 27.529L 94.94 25.038L 88.172 25.038L 88.172 46ZM 125.978 30.49L 125.978 25.038L 121.795 25.038L 121.795 18.27L 115.027 18.27L 115.027 25.038L 112.677 25.038L 112.677 30.49L 115.027 30.49L 115.027 46L 121.795 46L 121.795 30.49L 125.978 30.49ZM 134.947 32.652C 135.135 31.712 135.605 30.96 136.122 30.396C 136.78 29.738 137.814 29.033 139.553 29.033C 140.916 29.033 141.997 29.503 142.749 30.208C 143.736 31.148 144.065 32.464 144.112 32.652L 134.947 32.652ZM 150.363 35.989C 150.363 33.404 149.893 30.114 147.402 27.482C 144.817 24.756 141.433 24.333 139.083 24.333C 136.733 24.333 133.584 24.803 131.046 27.341C 128.931 29.503 127.85 32.605 127.85 35.613C 127.85 39.091 129.166 41.864 130.999 43.697C 133.443 46.141 136.216 46.705 139.365 46.705C 141.715 46.705 143.971 46.376 145.992 45.154C 147.214 44.402 149.094 42.851 150.034 39.89L 143.642 39.232C 143.078 40.407 142.279 40.924 142.185 40.971C 141.48 41.394 140.446 41.582 139.459 41.582C 138.425 41.582 137.015 41.394 135.981 40.266C 135.135 39.326 134.712 37.822 134.712 36.694L 150.363 36.694L 150.363 35.989ZM 154.587 46L 161.355 46L 161.355 37.493C 161.355 35.707 161.496 33.451 163 31.853C 163.846 30.96 164.927 30.443 166.384 30.443C 167.559 30.443 168.546 30.725 169.439 31.195L 169.815 24.85C 169.063 24.615 168.452 24.521 167.606 24.521C 166.29 24.521 165.115 24.709 163.987 25.414C 162.906 26.072 161.966 27.153 161.355 28.328L 161.355 25.038L 154.587 25.038L 154.587 46ZM 186.784 30.49L 186.784 25.038L 181.426 25.038L 181.426 21.513C 181.426 20.526 181.426 18.881 182.178 17.894C 182.46 17.518 183.118 17.048 184.152 17.048C 184.998 17.048 185.985 17.377 186.737 17.847L 186.737 11.925C 185.609 11.502 184.387 11.22 182.883 11.22C 180.298 11.22 178.371 12.16 177.008 13.617C 174.893 15.873 174.658 18.552 174.658 20.902L 174.658 25.038L 172.214 25.038L 172.214 30.49L 174.658 30.49L 174.658 46L 181.426 46L 181.426 30.49L 186.784 30.49ZM 205.498 27.388C 203.571 24.756 200.704 24.333 198.918 24.333C 196.004 24.333 193.466 25.367 191.633 27.2C 189.706 29.127 188.39 32.135 188.39 35.66C 188.39 38.433 189.236 41.159 191.445 43.509C 193.748 45.953 196.286 46.705 199.294 46.705C 201.033 46.705 203.665 46.282 205.498 43.462L 205.498 46L 212.266 46L 212.266 25.038L 205.498 25.038L 205.498 27.388ZM 200.61 30.161C 201.832 30.161 203.336 30.631 204.37 31.618C 205.357 32.558 205.921 33.968 205.921 35.472C 205.921 37.258 205.169 38.574 204.276 39.42C 203.383 40.313 202.114 40.877 200.751 40.877C 199.153 40.877 197.696 40.219 196.756 39.232C 196.145 38.574 195.346 37.352 195.346 35.472C 195.346 33.592 196.192 32.37 196.897 31.665C 197.79 30.772 199.153 30.161 200.61 30.161ZM 233.259 25.508C 231.473 24.662 229.781 24.333 227.948 24.333C 225.081 24.333 222.308 25.085 219.958 27.294C 217.984 29.174 216.48 31.994 216.48 35.566C 216.48 39.373 218.172 42.005 219.77 43.556C 221.697 45.436 224.376 46.705 227.901 46.705C 229.781 46.705 231.473 46.423 233.259 45.436L 233.259 39.326C 231.708 40.642 230.11 40.971 228.935 40.971C 227.431 40.971 225.88 40.407 224.846 39.279C 224 38.386 223.436 37.07 223.436 35.519C 223.436 33.827 224.094 32.464 224.987 31.571C 225.457 31.101 226.726 30.067 228.841 30.067C 229.922 30.067 231.614 30.302 233.259 31.665L 233.259 25.508ZM 243.818 32.652C 244.006 31.712 244.476 30.96 244.993 30.396C 245.651 29.738 246.685 29.033 248.424 29.033C 249.787 29.033 250.868 29.503 251.62 30.208C 252.607 31.148 252.936 32.464 252.983 32.652L 243.818 32.652ZM 259.234 35.989C 259.234 33.404 258.764 30.114 256.273 27.482C 253.688 24.756 250.304 24.333 247.954 24.333C 245.604 24.333 242.455 24.803 239.917 27.341C 237.802 29.503 236.721 32.605 236.721 35.613C 236.721 39.091 238.037 41.864 239.87 43.697C 242.314 46.141 245.087 46.705 248.236 46.705C 250.586 46.705 252.842 46.376 254.863 45.154C 256.085 44.402 257.965 42.851 258.905 39.89L 252.513 39.232C 251.949 40.407 251.15 40.924 251.056 40.971C 250.351 41.394 249.317 41.582 248.33 41.582C 247.296 41.582 245.886 41.394 244.852 40.266C 244.006 39.326 243.583 37.822 243.583 36.694L 259.234 36.694L 259.234 35.989ZM 14.9369 64.651L 14.9369 96L 25.0889 96C 27.7209 96 33.1259 95.671 37.4499 91.3C 40.0349 88.715 41.7269 85.143 41.7269 80.208C 41.7269 75.32 39.9879 71.654 37.2149 68.975C 33.3609 65.262 28.9899 64.651 24.8539 64.651L 14.9369 64.651ZM 22.1749 70.761L 24.1019 70.761C 26.3109 70.761 29.3659 71.09 31.7159 73.44C 32.9379 74.662 34.3009 76.824 34.3009 80.208C 34.3009 83.686 32.9379 86.365 31.2459 87.775C 28.8959 89.749 25.6059 89.89 24.1019 89.89L 22.1749 89.89L 22.1749 70.761ZM 52.3757 82.652C 52.5637 81.712 53.0337 80.96 53.5507 80.396C 54.2087 79.738 55.2427 79.033 56.9817 79.033C 58.3447 79.033 59.4257 79.503 60.1777 80.208C 61.1647 81.148 61.4937 82.464 61.5407 82.652L 52.3757 82.652ZM 67.7917 85.989C 67.7917 83.404 67.3217 80.114 64.8307 77.482C 62.2457 74.756 58.8617 74.333 56.5117 74.333C 54.1617 74.333 51.0127 74.803 48.4747 77.341C 46.3597 79.503 45.2787 82.605 45.2787 85.613C 45.2787 89.091 46.5947 91.864 48.4277 93.697C 50.8717 96.141 53.6447 96.705 56.7937 96.705C 59.1437 96.705 61.3997 96.376 63.4207 95.154C 64.6427 94.402 66.5227 92.851 67.4627 89.89L 61.0707 89.232C 60.5067 90.407 59.7077 90.924 59.6137 90.971C 58.9087 91.394 57.8747 91.582 56.8877 91.582C 55.8537 91.582 54.4437 91.394 53.4097 90.266C 52.5637 89.326 52.1407 87.822 52.1407 86.694L 67.7917 86.694L 67.7917 85.989ZM 87.5258 76.119C 85.8338 75.132 83.6718 74.333 80.5698 74.333C 78.6428 74.333 76.1048 74.709 74.2248 76.448C 73.0028 77.576 72.2038 79.268 72.2038 81.289C 72.2038 82.887 72.7208 84.062 73.7078 85.096C 74.6008 85.989 75.8698 86.647 77.0918 87.023L 78.7838 87.54C 79.7708 87.822 80.3818 88.01 80.8518 88.292C 81.4628 88.668 81.6038 89.138 81.6038 89.514C 81.6038 90.031 81.3218 90.548 80.8988 90.877C 80.2878 91.347 79.2068 91.347 78.7838 91.347C 77.8908 91.347 76.9038 91.159 75.9638 90.689C 75.2588 90.36 74.3188 89.702 73.6608 89.138L 70.7938 93.697C 73.5198 96.094 76.5748 96.705 79.3948 96.705C 81.6038 96.705 84.1418 96.376 86.2098 94.308C 87.1498 93.368 88.3718 91.582 88.3718 88.809C 88.3718 87.211 87.9488 85.942 86.7268 84.814C 85.6458 83.827 84.4238 83.357 83.2488 82.981L 81.4628 82.417C 80.6168 82.135 79.9118 81.994 79.4418 81.712C 79.1128 81.524 78.7838 81.242 78.7838 80.772C 78.7838 80.443 78.9718 80.067 79.2068 79.832C 79.6298 79.409 80.4288 79.221 81.1338 79.221C 82.4498 79.221 83.8128 79.785 84.8468 80.396L 87.5258 76.119ZM 92.8647 75.038L 92.8647 96L 99.6327 96L 99.6327 75.038L 92.8647 75.038ZM 92.3007 66.108C 92.3007 68.317 94.0397 70.056 96.2487 70.056C 98.4577 70.056 100.197 68.317 100.197 66.108C 100.197 63.899 98.4577 62.16 96.2487 62.16C 94.0397 62.16 92.3007 63.899 92.3007 66.108ZM 121.317 77.482C 120.565 76.354 118.873 74.333 115.066 74.333C 111.165 74.333 108.721 76.025 107.452 77.341C 105.666 79.174 104.35 82.135 104.35 85.707C 104.35 89.326 105.713 91.864 107.405 93.603C 109.332 95.53 111.823 96.564 115.066 96.564C 118.92 96.564 120.518 94.731 121.317 93.415L 121.317 95.812C 121.317 96.705 121.27 98.914 119.954 100.183C 119.484 100.606 118.497 101.311 116.57 101.311C 115.583 101.311 114.455 101.123 113.656 100.606C 113.092 100.23 112.434 99.619 112.152 98.538L 104.773 98.538C 105.243 101.17 106.606 102.956 107.922 104.084C 110.554 106.34 113.891 106.763 116.664 106.763C 118.967 106.763 122.915 106.434 125.5 103.661C 127.944 101.029 128.085 97.692 128.085 94.731L 128.085 75.038L 121.317 75.038L 121.317 77.482ZM 116.617 80.208C 117.839 80.208 119.296 80.631 120.283 81.524C 121.176 82.37 121.881 83.733 121.881 85.378C 121.881 86.929 121.27 88.386 120.236 89.373C 119.531 90.031 118.356 90.736 116.57 90.736C 114.972 90.736 113.703 90.219 112.763 89.232C 111.823 88.245 111.306 86.835 111.306 85.472C 111.306 84.203 111.87 82.558 112.904 81.571C 113.75 80.772 115.113 80.208 116.617 80.208ZM 133.336 96L 140.104 96L 140.104 85.237C 140.104 83.874 140.292 82.37 141.42 81.242C 141.937 80.678 142.83 80.114 144.24 80.114C 145.462 80.114 146.308 80.537 146.825 81.054C 147.906 82.135 147.953 83.874 147.953 85.237L 147.953 96L 154.721 96L 154.721 82.746C 154.721 81.054 154.58 78.563 152.606 76.589C 150.82 74.803 148.423 74.474 146.59 74.474C 144.616 74.474 142.172 74.897 140.104 77.529L 140.104 75.038L 133.336 75.038L 133.336 96ZM 191.183 67.048C 187.517 64.322 184.039 63.946 181.877 63.946C 178.963 63.946 176.331 64.557 174.122 66.813C 172.242 68.74 171.396 71.09 171.396 73.863C 171.396 75.367 171.631 77.576 173.276 79.315C 174.498 80.631 176.19 81.289 177.647 81.806L 180.232 82.699C 181.125 83.028 183.052 83.733 183.898 84.438C 184.556 85.002 184.979 85.66 184.979 86.694C 184.979 87.869 184.462 88.715 183.851 89.232C 182.817 90.125 181.501 90.313 180.561 90.313C 179.104 90.313 177.835 89.937 176.613 89.185C 175.767 88.668 174.498 87.587 173.699 86.788L 169.939 91.958C 171.114 93.133 172.947 94.59 174.545 95.389C 176.519 96.376 178.493 96.705 180.749 96.705C 182.817 96.705 186.859 96.423 189.632 93.509C 191.277 91.817 192.405 88.997 192.405 85.754C 192.405 83.921 191.935 81.665 190.102 79.926C 188.88 78.751 187.188 78.046 185.825 77.529L 183.475 76.636C 181.36 75.837 180.279 75.555 179.527 74.85C 179.057 74.427 178.822 73.863 178.822 73.111C 178.822 72.312 179.151 71.607 179.621 71.137C 180.467 70.197 181.689 70.056 182.676 70.056C 183.569 70.056 185.59 70.197 187.94 72.312L 191.183 67.048ZM 196.908 106.763L 204.522 106.763L 221.395 75.038L 213.781 75.038L 208 86.412L 202.078 75.038L 194.276 75.038L 204.287 93.321L 196.908 106.763ZM 238.899 76.119C 237.207 75.132 235.045 74.333 231.943 74.333C 230.016 74.333 227.478 74.709 225.598 76.448C 224.376 77.576 223.577 79.268 223.577 81.289C 223.577 82.887 224.094 84.062 225.081 85.096C 225.974 85.989 227.243 86.647 228.465 87.023L 230.157 87.54C 231.144 87.822 231.755 88.01 232.225 88.292C 232.836 88.668 232.977 89.138 232.977 89.514C 232.977 90.031 232.695 90.548 232.272 90.877C 231.661 91.347 230.58 91.347 230.157 91.347C 229.264 91.347 228.277 91.159 227.337 90.689C 226.632 90.36 225.692 89.702 225.034 89.138L 222.167 93.697C 224.893 96.094 227.948 96.705 230.768 96.705C 232.977 96.705 235.515 96.376 237.583 94.308C 238.523 93.368 239.745 91.582 239.745 88.809C 239.745 87.211 239.322 85.942 238.1 84.814C 237.019 83.827 235.797 83.357 234.622 82.981L 232.836 82.417C 231.99 82.135 231.285 81.994 230.815 81.712C 230.486 81.524 230.157 81.242 230.157 80.772C 230.157 80.443 230.345 80.067 230.58 79.832C 231.003 79.409 231.802 79.221 232.507 79.221C 233.823 79.221 235.186 79.785 236.22 80.396L 238.899 76.119ZM 254.907 80.49L 254.907 75.038L 250.724 75.038L 250.724 68.27L 243.956 68.27L 243.956 75.038L 241.606 75.038L 241.606 80.49L 243.956 80.49L 243.956 96L 250.724 96L 250.724 80.49L 254.907 80.49ZM 263.876 82.652C 264.064 81.712 264.534 80.96 265.051 80.396C 265.709 79.738 266.743 79.033 268.482 79.033C 269.845 79.033 270.926 79.503 271.678 80.208C 272.665 81.148 272.994 82.464 273.041 82.652L 263.876 82.652ZM 279.292 85.989C 279.292 83.404 278.822 80.114 276.331 77.482C 273.746 74.756 270.362 74.333 268.012 74.333C 265.662 74.333 262.513 74.803 259.975 77.341C 257.86 79.503 256.779 82.605 256.779 85.613C 256.779 89.091 258.095 91.864 259.928 93.697C 262.372 96.141 265.145 96.705 268.294 96.705C 270.644 96.705 272.9 96.376 274.921 95.154C 276.143 94.402 278.023 92.851 278.963 89.89L 272.571 89.232C 272.007 90.407 271.208 90.924 271.114 90.971C 270.409 91.394 269.375 91.582 268.388 91.582C 267.354 91.582 265.944 91.394 264.91 90.266C 264.064 89.326 263.641 87.822 263.641 86.694L 279.292 86.694L 279.292 85.989ZM 283.516 96L 290.284 96L 290.284 85.284C 290.284 84.579 290.331 82.229 291.6 81.007C 292.258 80.396 293.057 80.161 293.95 80.161C 294.655 80.161 295.501 80.302 296.206 81.007C 297.24 82.041 297.287 83.686 297.287 85.096L 297.287 96L 304.055 96L 304.055 85.566C 304.055 84.203 304.196 82.558 305.089 81.43C 305.653 80.678 306.593 80.161 307.721 80.161C 308.708 80.161 309.601 80.584 310.165 81.289C 311.058 82.417 311.058 84.297 311.058 85.378L 311.058 96L 317.826 96L 317.826 82.746C 317.826 81.242 317.685 78.422 315.664 76.495C 314.395 75.273 312.327 74.521 309.789 74.521C 308.144 74.521 306.781 74.803 305.324 75.696C 303.961 76.542 303.162 77.529 302.645 78.375C 302.081 77.106 301.188 76.072 300.107 75.461C 298.697 74.615 297.052 74.521 296.159 74.521C 294.561 74.521 292.023 74.85 290.284 77.482L 290.284 75.038L 283.516 75.038L 283.516 96Z" transform="translate(71 208)" fill="#191919"/>
</g>
<g id="Ellipse_2">
<circle cx="9.5" cy="9.5" r="9.5" transform="translate(312 154)" fill="white"/>
<circle cx="9.5" cy="9.5" r="8.5" stroke-width="2" transform="translate(312 154)" stroke="#222222"/>
</g>
<g id="Ellipse_3">
<circle cx="9.5" cy="9.5" r="9.5" transform="translate(331 354)" fill="white"/>
<circle cx="9.5" cy="9.5" r="8.5" stroke-width="2" transform="translate(331 354)" stroke="#222222"/>
</g>
<g id="Ellipse_4">
<circle cx="5.5" cy="5.5" r="5.5" transform="translate(250 431)" fill="white"/>
<circle cx="5.5" cy="5.5" r="4.5" stroke-width="2" transform="translate(250 431)" stroke="#222222"/>
</g>
<g id="Ellipse_5">
<circle cx="5.5" cy="5.5" r="5.5" transform="translate(166 408)" fill="white"/>
<circle cx="5.5" cy="5.5" r="4.5" stroke-width="2" transform="translate(166 408)" stroke="#222222"/>
</g>
<g id="Ellipse_6">
<circle cx="5.5" cy="5.5" r="5.5" transform="translate(235 351)" fill="white"/>
<circle cx="5.5" cy="5.5" r="4.5" stroke-width="2" transform="translate(235 351)" stroke="#222222"/>
</g>
</g>
</g>
<defs>

<mask id="path11_ins" fill="white">
<rect width="15" height="2"/>
</mask>
<mask id="path12_ins" fill="white">
<rect width="15" height="2"/>
</mask>
<mask id="path13_ins" fill="white">
<rect width="15" height="2"/>
</mask>
<mask id="path14_ins" fill="white">
<rect width="15" height="2"/>
</mask>
<mask id="path15_ins" fill="white">
<rect width="15" height="2"/>
</mask>
<mask id="path16_ins" fill="white">
<rect width="15" height="2"/>
</mask>

</defs>
</svg>

