<svg width="142" height="142" viewBox="0 0 142 142" fill="none" xmlns="http://www.w3.org/2000/svg">
<circle cx="71" cy="71" r="71" fill="#62E6AC"/>
<path d="M53.3662 89.6982V82.331C53.3662 82.331 65.4026 75.4062 65.4026 55.0288C72.1472 55.0288 72.1472 37.9101 65.4026 37.9101C65.4026 35.9074 72.5471 23.5411 69.7132 12.2305C65.6316 -4.07683 17.7631 -4.07683 13.6815 12.2305C-6.7369 8.15027 5.06357 35.1775 5.06357 37.9101C-1.68786 37.9101 -1.68786 55.0288 5.06357 55.0288C5.06357 75.4062 19.1818 82.331 19.1818 82.331V89.6982C24.1218 93.0976 37.8748 97.8568 53.3662 89.6982Z" transform="translate(36 24)" stroke="white" stroke-width="2" stroke-miterlimit="10" stroke-linejoin="round"/>
<path d="M17.8915 32.762V12.1204H15.0979V32.762H17.8915ZM14.5547 36.448C14.5547 37.4956 15.4471 38.388 16.4947 38.388C17.5423 38.388 18.4347 37.4956 18.4347 36.448C18.4347 35.4004 17.5423 34.508 16.4947 34.508C15.4471 34.508 14.5547 35.4004 14.5547 36.448Z" transform="translate(56 44)" fill="white"/>
</svg>
