<svg width="142" height="142" viewBox="0 0 142 142" fill="none" xmlns="http://www.w3.org/2000/svg">
<circle cx="71" cy="71" r="71" transform="translate(0 0.000488281)" fill="#62E6AC"/>
<circle cx="44" cy="44" r="44" transform="translate(27 27)" stroke="white" stroke-width="2" stroke-miterlimit="10" stroke-linejoin="round"/>
<path fill-rule="evenodd" clip-rule="evenodd" d="M3.65246 28.4988C3.00301 28.5174 3.74102 28.4963 2.91445 28.5199C2.32404 28.5368 1.82505 28.4599 1.41744 28.2894C1.24275 28.2163 1.0703 28.0715 0.90007 27.8551C0.729843 27.6387 0.575393 27.3892 0.436714 27.1068C0.298036 26.8244 0.189082 26.5347 0.10985 26.2376C0.030618 25.9404 -0.00575269 25.6877 0.000736969 25.4792C0.0145275 25.0362 0.119108 24.5191 0.314482 23.9277C0.509857 23.3364 0.750319 22.7177 1.03588 22.0718C1.32143 21.4258 1.66643 20.7651 2.07088 20.0897C2.47533 19.4142 2.864 18.7718 3.23691 18.1624C3.85489 17.2596 4.54992 16.2504 5.322 15.135C6.09407 14.0195 6.89627 12.8836 7.72861 11.7274C8.56094 10.5711 9.34899 9.41613 10.0928 8.2624C10.8365 7.10868 11.4899 6.01612 12.0529 4.98472C12.3021 4.56106 12.4932 4.10652 12.6263 3.62109C12.7594 3.13567 12.8894 2.74796 13.0164 2.45796C13.1402 2.27218 13.2194 2.09419 13.2542 1.92398C13.289 1.75377 13.338 1.60268 13.4011 1.4707C13.465 1.31268 13.5285 1.16768 13.5916 1.03571C13.6555 0.877677 13.8684 0.669832 14.2304 0.412165C14.5923 0.154498 15.0685 0.0172277 15.6589 0.000349147C16.2493 -0.0165294 17.7938 0.583645 17.9673 0.695837C18.1407 0.808029 18.3435 0.92589 18.5756 1.04942C18.8668 1.17127 19.0054 1.45367 18.9916 1.89663C18.9868 2.05298 18.9221 2.23706 18.7975 2.44889C18.7352 2.5548 18.7028 2.64685 18.7004 2.72502C18.6972 2.82924 18.5861 3.07973 18.3673 3.47649C18.1485 3.87325 17.8836 4.3299 17.5726 4.84645C17.2616 5.36299 16.936 5.87344 16.5959 6.3778C16.2557 6.88217 15.9926 7.28019 15.8066 7.57188C15.6214 7.83751 15.3271 8.28848 14.9239 8.92482C14.5207 9.56115 14.1015 10.237 13.6663 10.9523C13.2311 11.6677 12.7973 12.3374 12.365 12.9616C11.9326 13.5857 11.6238 14.0306 11.4386 14.2962C11.1927 14.6157 10.946 14.9612 10.6985 15.3327C10.451 15.7043 10.2184 16.0689 10.0008 16.4265C9.78322 16.7842 9.56624 17.1223 9.34986 17.4409C9.13348 17.7595 8.93349 18.0256 8.74988 18.2391C8.44413 18.5863 8.18165 18.9647 7.96244 19.3745C7.74322 19.7843 7.62712 20.1977 7.61414 20.6146C7.61009 20.7448 7.63718 20.8222 7.6954 20.8465C7.94049 20.5532 8.24441 20.2646 8.60717 19.9809C8.96993 19.6972 9.42267 19.3653 9.96539 18.9853C10.4483 18.6331 11.0049 18.2787 11.6354 17.9223C12.2659 17.5658 12.9418 17.169 13.6633 16.7319C14.9857 15.9391 16.4369 15.2728 18.0169 14.733C19.5969 14.1932 21.1249 13.9022 22.6009 13.86C23.9588 13.8212 25.1796 13.9229 26.2634 14.1653C27.3471 14.4077 28.2656 14.7459 29.019 15.1799C29.7723 15.614 30.3467 16.1117 30.7421 16.6732C31.1375 17.2346 31.3263 17.8019 31.3085 18.3752C31.272 19.5477 30.6783 20.6191 29.5273 21.5892C28.3763 22.5593 26.9037 23.441 25.1093 24.2342C23.315 25.0275 21.3171 25.7289 19.1155 26.3386C16.914 26.9482 14.7453 27.4528 12.6092 27.8523C11.4219 28.0945 10.5015 28.29 9.84805 28.4389C9.19454 28.5877 8.30692 28.6782 7.18514 28.7102C6.88994 28.7187 6.5812 28.6884 6.25891 28.6196C5.93662 28.5507 5.71765 28.4788 5.60201 28.404C4.95175 28.4487 4.3019 28.4803 3.65246 28.4988ZM19.2419 23.2082C21.4263 22.471 20.578 22.7154 22.6619 21.8182C24.7459 20.9211 25.3882 19.5331 25.4158 18.6482C25.4448 17.7167 25.1452 17.1786 24.5171 17.0336C23.889 16.8887 23.1529 16.8284 22.3086 16.8525C21.781 16.8676 21.1171 17.0261 20.3169 17.3282C19.5167 17.6303 14.6947 20.2561 13.4608 20.9428C12.2269 21.6295 12.1276 21.8133 11.1597 22.4226C10.1918 23.0319 9.54669 23.4342 9.2243 23.6296C8.90046 23.8715 8.57518 24.16 8.24844 24.4951C7.9217 24.8301 7.7337 25.7888 7.725 26.0683C7.71485 26.3943 7.92083 26.5513 8.34295 26.5392C8.76507 26.5271 9.61474 26.3283 10.892 25.9428C12.1692 25.5573 13.6607 25.061 15.3666 24.4538C16.4335 24.0511 17.0575 23.9454 19.2419 23.2082Z" transform="matrix(0.478821 0.0393936 -0.00402012 1.08555 71.1602 53.2148)" fill="white"/>
<path fill-rule="evenodd" clip-rule="evenodd" d="M25.2751 28.7793C25.215 28.8058 25.095 28.8191 24.9149 28.8191C24.5547 28.8191 24.8849 28.7925 24.4046 28.7394C24.1644 28.7129 24.0594 28.6333 23.8492 28.5802C23.6391 28.5272 23.474 28.4608 23.3539 28.3812C23.0538 28.2751 22.7086 28.1424 22.3183 27.9832C21.9281 27.824 21.703 27.7178 21.6429 27.6647C21.1626 27.3463 20.8024 26.9881 20.5623 26.5901C20.3221 26.192 20.2021 25.7276 20.2021 25.1969C20.2021 24.7989 20.2921 24.2814 20.4722 23.6446C20.6523 23.0077 21.4928 21.5217 21.4928 21.1768C21.4928 21.0441 21.3728 20.9777 21.1326 20.9777C20.8324 20.9777 20.5022 21.0242 20.142 21.1171C19.7818 21.2099 18.6711 21.6411 18.3109 21.7473C17.8907 21.8534 17.4704 21.9861 17.0502 22.1453C16.75 22.2249 16.4798 22.3178 16.2397 22.4239C15.9995 22.5035 15.7144 22.6031 15.3842 22.7225C15.054 22.8419 14.7088 22.9679 14.3486 23.1006C14.2285 23.1271 14.0484 23.1935 13.8082 23.2996C13.33 23.4582 12.8541 23.6209 12.3806 23.7879C11.6653 24.0401 10.9555 24.3019 10.2511 24.5733C9.08041 25.0244 7.05422 25.7409 5.67339 26.0593C5.55331 26.1124 5.43324 26.1456 5.31317 26.1588C5.1931 26.1721 5.07303 26.2053 4.95296 26.2584C4.83288 26.2849 4.72782 26.3114 4.63777 26.338C4.54771 26.3645 4.44265 26.391 4.32258 26.4176C3.96236 26.5237 2.69058 26.7758 2.15026 26.5901C1.79004 26.4839 1.20144 26.0455 1.08136 25.9128L0.540322 24.9979C0.540322 24.8652 0.525314 24.7325 0.495296 24.5999C0.465278 24.4672 0.420251 24.3345 0.360215 24.2018L0.180108 23.3262C0.180108 23.1669 0.165099 23.0144 0.135081 22.8684C0.105063 22.7225 0.0900538 22.5832 0.0900538 22.4505C0.0300176 22.2913 0 22.1519 0 22.0325C0 21.9131 0 21.7871 0 21.6544V21.0972C0 19.8234 0.270158 18.5696 0.810484 17.3357C1.35081 16.1018 1.95116 14.848 2.61156 13.5743L2.88172 13.1762C3.24194 12.4598 3.61716 11.7433 4.00739 11.0268C4.39763 10.3104 4.80286 9.60718 5.22312 8.91724C5.34319 8.78457 5.43324 8.64525 5.49328 8.49931C5.55331 8.35336 5.61335 8.21405 5.67339 8.08137C5.79346 7.86908 5.91353 7.57719 6.0336 7.20569C6.33378 6.6219 6.57392 6.02485 6.75403 5.41453C6.93414 4.8042 7.11425 4.23369 7.29435 3.70297L7.56452 2.86709C7.62455 2.65481 7.68459 2.42926 7.74462 2.19043C7.80466 1.95161 7.89471 1.72606 8.01478 1.51377C8.13486 1.38109 8.2099 1.24841 8.23992 1.11574C8.26994 0.983056 8.34498 0.863647 8.46505 0.757503C8.58512 0.624824 8.67518 0.512048 8.73521 0.419172C8.79525 0.326297 8.8853 0.253324 9.00537 0.200252C9.18548 0.067573 9.173 0.0612013 9.36767 0.0211361C9.56233 -0.0189291 9.69579 0.00786817 9.81586 0.0211361C9.93593 0.0344041 10.056 0.0675734 10.1761 0.120645L10.9866 0.439074C11.2867 0.571754 11.4668 0.704431 11.5269 0.83711C11.5869 0.96979 11.677 1.11573 11.797 1.27495C12.0372 1.43417 12.1573 1.63318 12.1573 1.872C12.1573 1.95161 12.1422 2.03122 12.1122 2.11083C12.0822 2.19043 12.0672 2.28331 12.0672 2.38945C12.1272 2.52213 12.1573 2.64817 12.1573 2.76759C12.1573 2.887 12.1573 3.02631 12.1573 3.18552C12.1573 3.39781 12.1723 3.60346 12.2023 3.80248C12.2323 4.0015 12.2473 4.20715 12.2473 4.41944C12.2473 4.52558 12.2473 4.63172 12.2473 4.73786C12.2473 4.84401 12.2173 4.95015 12.1573 5.05629C12.0972 5.1359 12.0672 5.25531 12.0672 5.41453C11.4668 7.19243 10.7464 8.95704 9.90591 10.7084C9.90591 10.8146 9.84588 10.9472 9.72581 11.1064L5.55331 19.3193C5.31317 19.8234 5.16308 20.248 5.10305 20.593C5.04301 20.9379 5.01299 21.8667 5.01299 22.0524C5.01299 22.1851 5.07303 22.3377 5.1931 22.5102C5.31317 22.6827 5.49328 22.7689 5.73342 22.7689C5.91353 22.7689 6.18369 22.749 6.54391 22.7092C6.90412 22.6694 7.3844 22.5301 7.98477 22.2913L8.97536 21.8932C10.4162 21.4156 11.707 20.918 12.8477 20.4006C13.9884 19.8831 14.9789 19.4785 15.8194 19.1866C16.4798 18.8947 16.9901 18.689 17.3504 18.5696C17.7106 18.4502 17.9507 18.364 18.0708 18.3109C18.7912 18.019 19.5567 17.8001 20.3672 17.6541C21.1776 17.5082 21.853 17.4352 22.3934 17.4352C22.8737 17.4352 23.3689 17.4949 23.8793 17.6143C24.3896 17.7337 24.8848 17.8863 25.3651 18.0721C26.0856 18.364 26.5358 18.7753 26.7159 19.306C26.7159 19.651 26.6709 19.9826 26.5809 20.3011C26.4908 20.6195 26.4458 20.4205 26.4458 21.0308C26.4458 21.0839 26.4308 21.2166 26.4008 21.4288C26.3707 21.6411 26.3557 21.8866 26.3557 22.1652C26.3557 22.4438 26.3557 22.7291 26.3557 23.021C26.3557 23.3129 26.3557 23.565 26.3557 23.7773C26.3557 24.2814 26.3707 24.7856 26.4008 25.2898C26.4308 25.794 26.4458 26.4441 26.4458 27.2402V27.3861C26.4458 27.678 26.3857 27.9036 26.2657 28.0628C26.2657 28.1159 26.2056 28.1955 26.0856 28.3016C25.9655 28.4077 25.8754 28.4741 25.8154 28.5006C25.7554 28.5272 25.7254 28.5537 25.7254 28.5802L25.2751 28.7793Z" transform="matrix(0.470994 0.00822128 -0.0185852 1.06474 56.835 54.2266)" fill="white"/>
</svg>
