<svg width="142" height="142" viewBox="0 0 142 142" fill="none" xmlns="http://www.w3.org/2000/svg">
<circle cx="71" cy="71" r="71" fill="#62E6AC"/>
<path d="M53.3662 89.6982V82.331C53.3662 82.331 65.4026 75.4062 65.4026 55.0288C72.1472 55.0288 72.1472 37.9101 65.4026 37.9101C65.4026 35.9074 72.5471 23.5411 69.7132 12.2305C65.6316 -4.07683 17.7631 -4.07683 13.6815 12.2305C-6.7369 8.15027 5.06357 35.1775 5.06357 37.9101C-1.68786 37.9101 -1.68786 55.0288 5.06357 55.0288C5.06357 75.4062 19.1818 82.331 19.1818 82.331V89.6982C24.1218 93.0976 37.8748 97.8568 53.3662 89.6982Z" transform="translate(36 25)" stroke="white" stroke-width="2" stroke-miterlimit="10" stroke-linejoin="round"/>
<path d="M0 9.5L26.5 0" transform="translate(63 86.5)" stroke="white" stroke-width="2"/>
<circle cx="6" cy="6" r="5" transform="translate(82 56)" stroke="white" stroke-width="2"/>
<circle cx="10" cy="10" r="9" transform="translate(54 53)" stroke="white" stroke-width="2"/>
</svg>
