<svg width="142" height="142" viewBox="0 0 142 142" fill="none" xmlns="http://www.w3.org/2000/svg">
<circle cx="71" cy="71" r="71" fill="#62E6AC"/>
<path d="M-9.2796 83.4984H-10.2796V84.4984H-9.2796V83.4984ZM9.0156 83.4984H10.0156V82.4984H9.0156V83.4984ZM9.0156 101.912H8.0156V102.912H9.0156V101.912ZM23.9844 101.912V102.912H24.9844V101.912H23.9844ZM23.9844 83.4984V82.4984H22.9844V83.4984H23.9844ZM42.2796 83.4984V84.4984H43.2796V83.4984H42.2796ZM42.2796 69.7176H43.2796V68.7176H42.2796V69.7176ZM23.9844 69.7176H22.9844V70.7176H23.9844V69.7176ZM23.9844 51.4224H24.9844V50.4224H23.9844V51.4224ZM9.0156 51.4224V50.4224H8.0156V51.4224H9.0156ZM9.0156 69.7176V70.7176H10.0156V69.7176H9.0156ZM-9.2796 69.7176V68.7176H-10.2796V69.7176H-9.2796ZM-9.2796 84.4984H9.0156V82.4984H-9.2796V84.4984ZM8.0156 83.4984V101.912H10.0156V83.4984H8.0156ZM9.0156 102.912H23.9844V100.912H9.0156V102.912ZM24.9844 101.912V83.4984H22.9844V101.912H24.9844ZM23.9844 84.4984H42.2796V82.4984H23.9844V84.4984ZM43.2796 83.4984V69.7176H41.2796V83.4984H43.2796ZM42.2796 68.7176H23.9844V70.7176H42.2796V68.7176ZM24.9844 69.7176V51.4224H22.9844V69.7176H24.9844ZM23.9844 50.4224H9.0156V52.4224H23.9844V50.4224ZM8.0156 51.4224V69.7176H10.0156V51.4224H8.0156ZM9.0156 68.7176H-9.2796V70.7176H9.0156V68.7176ZM-10.2796 69.7176V83.4984H-8.2796V69.7176H-10.2796Z" transform="translate(55 -5)" fill="white"/>
</svg>
