<svg width="156" height="142" viewBox="0 0 156 142" fill="none" xmlns="http://www.w3.org/2000/svg">
<circle cx="71" cy="71" r="71" transform="translate(14)" fill="#62E6AC"/>
<rect width="32.8551" height="32.8551" transform="translate(28.5801 14) rotate(54.0002)" stroke="white" stroke-width="2"/>
<path d="M19 38C29.4934 38 38 29.4934 38 19C38 8.50659 29.4934 0 19 0C8.50659 0 0 8.50659 0 19C0 29.4934 8.50659 38 19 38Z" transform="translate(113 3)" stroke="white" stroke-width="2"/>
<path d="M10 20C15.5228 20 20 15.5228 20 10C20 4.47715 15.5228 0 10 0C4.47715 0 0 4.47715 0 10C0 15.5228 4.47715 20 10 20Z" transform="translate(110 96)" stroke="white" stroke-width="2"/>
<path d="M5 10C7.76142 10 10 7.76142 10 5C10 2.23858 7.76142 0 5 0C2.23858 0 0 2.23858 0 5C0 7.76142 2.23858 10 5 10Z" transform="translate(46 103)" stroke="white" stroke-width="2"/>
<path fill-rule="evenodd" clip-rule="evenodd" d="M0.103164 22.5075L2.90885e-05 36.5198L22.2269 36.3469L22.0631 58.5741L36.0756 58.4657L36.2393 36.2385L58.4659 36.0657L58.569 22.0533L36.3425 22.2262L36.5062 0L22.4938 0.108411L22.33 22.3346L0.103164 22.5075Z" transform="matrix(0 1 -0.999886 0.0151311 115 41.0161)" stroke="white" stroke-width="2"/>
</svg>
