<svg width="194" height="194" viewBox="0 0 194 194" fill="none" xmlns="http://www.w3.org/2000/svg">
<circle cx="97" cy="97" r="97" fill="#62E6AC"/>
<path d="M62.8631 103.703V96.8093C62.8631 96.8093 77.0414 88.6667 77.0414 64.7058C84.9862 64.7058 84.9862 44.5768 77.0414 44.5768C77.0414 42.2218 85.4573 27.6809 82.1191 14.3813C77.3112 -4.79376 20.9242 -4.79376 16.1162 14.3813C-7.93578 9.58354 5.96467 41.3637 5.96467 44.5768C-1.98822 44.5768 -1.98822 64.7058 5.96467 64.7058C5.96467 88.6667 22.5953 96.8093 22.5953 96.8093V103.703C28.4145 107.7 44.6149 113.296 62.8631 103.703Z" transform="translate(53 43)" stroke="white" stroke-width="2" stroke-miterlimit="10" stroke-linejoin="round"/>
<path d="M25.915 0H0" transform="translate(112.459 119.131) rotate(180)" stroke="white" stroke-width="2"/>
<path d="M13.1355 7.05513C13.1355 10.3976 10.4205 13.1103 7.06774 13.1103C3.71493 13.1103 1 10.3976 1 7.05513C1 3.71266 3.71493 1 7.06774 1C10.4205 1 13.1355 3.71266 13.1355 7.05513Z" transform="translate(77.7373 78.2754)" stroke="white" stroke-width="2"/>
<path d="M13.1355 7.05513C13.1355 10.3976 10.4205 13.1103 7.06774 13.1103C3.71493 13.1103 1 10.3976 1 7.05513C1 3.71266 3.71493 1 7.06774 1C10.4205 1 13.1355 3.71266 13.1355 7.05513Z" transform="translate(110.72 78.2754)" stroke="white" stroke-width="2"/>
</svg>
