<svg width="232" height="9710" viewBox="0 0 232 9710" fill="none" xmlns="http://www.w3.org/2000/svg">
    <path d="M21.6157 0C72.6233 278 62.6231 533 43.0051 645C23.3871 757 -13.6978 1036 23.5772 1328C60.8521 1620 103.822 1862 37.1195 2492C-4.80787 2888 26.6092 3134 40.6092 3338C55.3693 3553.08 52.2417 3803.36 42.6092 4058C32.774 4318 -6.11481 4478 37.6092 4730C82.5477 4989 119.786 5528 43.6092 5849C-36.6022 6187 11.8388 6697 46.61 7023C88.634 7417 75.6102 7739 44.6102 8038C15.9948 8314 56.5921 8704.73 30.6102 8950C5.61018 9186 42.6104 9505 229.11 9707.5" transform="translate(1.38965 1)" stroke="#CCCCCC"/>
    <path d="M28.319 0C79.3267 278 59.3264 533 39.7084 645C20.0904 757 -6.9945 1036 30.2805 1328C67.5555 1620 100.525 1862 33.8228 2492C-8.10456 2888 33.3125 3134 47.3125 3338C62.0726 3553.08 48.945 3803.36 39.3125 4058C29.4773 4318 0.588497 4478 44.3125 4730C89.251 4989 116.49 5528 40.3125 5849C-39.8989 6187 18.5421 6697 53.3133 7023C95.3373 7417 72.3135 7739 41.3135 8038C12.6981 8314 63.2954 8624.73 37.3135 8950C18.417 9186.57 37.3135 9491 225.813 9707" transform="translate(4.68652 1)" stroke="#CCCCCC"/>
    <path d="M35.4359 0C86.4435 278 56.4433 533 36.8252 645C17.2072 757 0.122326 1036 37.3973 1328C74.6723 1620 97.6422 1862 30.9396 2492C-10.9877 2888 40.4293 3134 54.4293 3338C69.1895 3553.08 46.0619 3803.36 36.4293 4058C26.5941 4318 7.70533 4478 51.4293 4730C96.3678 4989 113.606 5528 37.4293 5849C-42.7821 6187 25.6589 6697 60.4301 7023C102.454 7417 69.4303 7739 38.4303 8038C9.81492 8314 70.4122 8624.73 44.4303 8950C25.5338 9186.57 44.4303 9510 223.431 9708" transform="translate(7.56934 1)" stroke="#CCCCCC"/>
</svg>
