<?xml version="1.0" encoding="utf-8"?>
<!-- Generator: Adobe Illustrator 19.0.0, SVG Export Plug-In . SVG Version: 6.00 Build 0)  -->
<svg version="1.0" id="Layer_1" xmlns="http://www.w3.org/2000/svg" xmlns:xlink="http://www.w3.org/1999/xlink" x="0px" y="0px"
	 width="150px" height="240px" viewBox="0 0 150 240" style="enable-background:new 0 0 150 240;" xml:space="preserve">
<g>
	<path style="fill-rule:evenodd;clip-rule:evenodd;fill:#231F20;" d="M90.647,207.181c0,2.195-1.775,4.749-4.617,6.754
		c-2.843,2.005-6.754,3.461-11.028,3.461c-4.316,0-8.228-1.456-11.061-3.461s-4.588-4.559-4.588-6.754H75H90.647z M85.405,209.258
		l1.171-0.12l1.171-0.12c-1.092,2.514-2.706,4.329-4.854,5.496s-4.828,1.685-8.052,1.605c2.579-0.118,4.837-0.836,6.642-2.023
		S84.641,211.253,85.405,209.258L85.405,209.258L85.405,209.258z"/>
	<g>
		<path id="XMLID_114_" style="fill:none;" d="M49.653,181.816c0.015,0.025,0.03,0.05,0.045,0.076s0.03,0.05,0.045,0.076
			c0.006-0.012,0.011-0.023,0.013-0.031s0.003-0.014,0-0.016c-0.018-0.017-0.035-0.034-0.052-0.052
			C49.687,181.851,49.67,181.833,49.653,181.816z"/>
		<path id="XMLID_113_" style="fill:#FFFFFF;" d="M55.077,30.187C35.72,34.815,19.892,48.799,11.634,66.045
			S2.69,103.8,13.618,121.476c-9.717-18.991-8.546-39.48-0.349-56.387S36.689,34.855,55.077,30.187z"/>
		<path style="fill:#231F20;" d="M147.67,85.167c1.008,23.381-8.267,37.246-18.641,51.152
			c-10.374,13.906-21.846,27.852-25.231,51.394c-0.081,0.438,0.262-2.834,1.189-7.503s2.44-10.733,4.701-15.881
			c4.111-9.377,10.462-18.035,16.692-26.974s12.341-18.155,15.973-28.649c7.376-21.265,1.448-42.871-11.869-59.12
			S96.458,22.446,74.275,22.606c-20.043,0-38.231,7.9-51.409,20.657S1.522,73.637,1.522,93.068c0,21.387,5.727,31.302,12.936,39.651
			s15.9,15.132,21.828,30.256c1.463,3.772,2.689,9.744,3.531,15.019c0.842,5.275,1.3,9.852,1.227,10.834v3.191v3.191l2.823,4.591
			l2.823,4.591H73.63h26.941l2.297-3.272l2.297-3.272H77.622H50.078l-0.485-1.318l-0.485-1.318h28.475h28.475l0.807-2.034
			l0.807-2.034c1.125-25.974,12.961-39.599,23.598-53.165C141.905,124.409,151.342,110.903,147.67,85.167z M55.077,30.187
			c-18.388,4.668-33.611,17.994-41.808,34.902s-9.368,37.396,0.349,56.387C2.69,103.8,3.376,83.292,11.634,66.045
			S35.72,34.815,55.077,30.187z"/>
	</g>
	<g>
		<g id="XMLID_511_">
			<g id="XMLID_537_">
				<path id="XMLID_566_" style="fill-rule:evenodd;clip-rule:evenodd;fill:#FFFFFF;" d="M78.752,67.977
					c0.077-1.378-0.049-2.655-0.327-3.814c-0.278-1.159-0.709-2.199-1.24-3.102c0.784,0.776,1.518,1.566,2.025,2.606
					c0.507,1.04,0.786,2.331,0.659,4.109c3.192-2.406,2.849-5.125,1.266-7.511c-1.583-2.387-4.408-4.441-6.182-5.518
					c-1.848,2.856-2.266,5.887-1.538,8.343S76.017,67.426,78.752,67.977L78.752,67.977L78.752,67.977z"/>
				<path id="XMLID_565_" style="fill-rule:evenodd;clip-rule:evenodd;fill:#FFFFFF;" d="M38.838,70.633
					c0.709,2.18,2.267,4.649,4.388,6.096s4.805,1.873,7.768-0.031c-0.505-0.802-1.341-1.366-2.24-1.817
					c-0.899-0.451-1.862-0.79-2.621-1.141c1.521,0.075,2.407,0.276,3.192,0.596c0.785,0.32,1.468,0.758,2.582,1.309
					c-0.532-3.608-2.128-5.1-4.426-5.57C45.183,69.605,42.181,70.156,38.838,70.633L38.838,70.633L38.838,70.633z"/>
				<path id="XMLID_564_" style="fill-rule:evenodd;clip-rule:evenodd;fill:#FFFFFF;" d="M86.1,64.921
					c0.556-0.928,1.101-1.805,1.867-2.594s1.754-1.491,3.197-2.067c-0.684,0.551-1.507,1.403-2.254,2.362
					c-0.747,0.959-1.418,2.024-1.799,3.001c3.292,0.451,5.61-0.589,7.078-2.475s2.088-4.618,1.986-7.55
					c-2.809,0.326-5.848,0.978-7.924,2.388S85.061,61.562,86.1,64.921L86.1,64.921L86.1,64.921z"/>
				<path id="XMLID_563_" style="fill-rule:evenodd;clip-rule:evenodd;fill:#FFFFFF;" d="M48.209,106.117
					c2.026,0.826,4.596,1.915,6.894,2.047c2.298,0.131,4.325-0.695,5.262-3.7c-0.937,0.475-1.887,0.85-2.95,1.013
					c-1.064,0.163-2.241,0.112-3.635-0.263c0.761-0.099,1.913-0.149,3.053-0.369s2.266-0.608,2.974-1.386
					c-0.607-0.827-1.582-1.416-2.734-1.685c-1.152-0.269-2.482-0.219-3.8,0.231c-1.241,0.451-2.051,1.04-2.778,1.736
					C49.768,104.436,49.122,105.239,48.209,106.117L48.209,106.117L48.209,106.117z"/>
				<path id="XMLID_562_" style="fill-rule:evenodd;clip-rule:evenodd;fill:#FFFFFF;" d="M41.221,84.265
					c1.696,1.78,4.241,2.494,6.539,2.218c2.298-0.276,4.35-1.541,5.059-3.721c-0.861-0.175-1.862-0.25-2.957-0.2
					c-1.096,0.05-2.286,0.225-3.529,0.552c0.861-0.577,1.799-0.903,2.856-1.079c1.058-0.176,2.236-0.201,3.579-0.176
					c-2.027-2.054-4.041-2.68-5.984-2.18S42.968,81.809,41.221,84.265L41.221,84.265L41.221,84.265z"/>
				<path id="XMLID_561_" style="fill-rule:evenodd;clip-rule:evenodd;fill:#FFFFFF;" d="M99.573,101.002
					c1.292-0.675,2.432-1.039,3.47-1.164s1.975-0.013,2.861,0.263c-1.013,0.024-2.039,0.162-3.059,0.463
					c-1.019,0.301-2.032,0.765-3.019,1.441c1.569,2.231,4.026,2.181,6.23,1.122c2.204-1.059,4.154-3.126,4.711-4.93
					c-0.786-0.2-1.735-0.613-2.799-0.952c-1.064-0.338-2.241-0.602-3.484-0.501c-1.519,0.201-2.683,0.74-3.5,1.491
					C100.168,98.986,99.7,99.95,99.573,101.002L99.573,101.002L99.573,101.002z"/>
				<path id="XMLID_560_" style="fill-rule:evenodd;clip-rule:evenodd;fill:#FFFFFF;" d="M39.751,98.197
					c0.861,1.228,2.785,2.895,5.001,3.578c2.216,0.683,4.724,0.383,6.75-2.323c-1.013-0.477-2.14-0.753-3.279-0.872
					s-2.292-0.081-3.357,0.07c1.039-0.601,2.204-0.902,3.35-0.908s2.273,0.282,3.236,0.857c-1.519-2.706-3.596-3.47-5.716-3.226
					C43.613,95.616,41.448,96.869,39.751,98.197L39.751,98.197L39.751,98.197z"/>
				<path id="XMLID_559_" style="fill-rule:evenodd;clip-rule:evenodd;fill:#FFFFFF;" d="M91.012,103.862
					c0.759,0.4,1.57,1.026,2.469,1.577c0.899,0.551,1.887,1.027,3,1.126c-1.419,0.352-2.42,0.076-3.332-0.35
					s-1.734-1.003-2.797-1.254c0.786,2.807,2.596,3.997,4.603,4.285s4.209-0.325,5.779-1.126c-0.784-2.806-2.67-4.398-4.633-5.024
					C94.14,102.47,92.101,102.809,91.012,103.862L91.012,103.862L91.012,103.862z"/>
				<path id="XMLID_558_" style="fill-rule:evenodd;clip-rule:evenodd;fill:#FFFFFF;" d="M94.05,81.158
					c0.912-0.451,1.774-1.04,2.698-1.523c0.925-0.482,1.912-0.858,3.078-0.883c-0.862,0.176-2.002,0.69-2.957,1.373
					s-1.727,1.535-1.854,2.387c2.786,0.702,4.863,0.213,6.363-1.015c1.501-1.228,2.425-3.195,2.905-5.45
					c-2.685-0.076-5.167-0.214-7.016,0.375C95.419,77.01,94.203,78.326,94.05,81.158L94.05,81.158L94.05,81.158z"/>
				<path id="XMLID_557_" style="fill-rule:evenodd;clip-rule:evenodd;fill:#FFFFFF;" d="M83.615,72.839c0,0,0,0.013,0,0.019
					S83.615,72.864,83.615,72.839c1.646-0.802,3.204-0.864,4.35-0.727s1.88,0.476,1.88,0.476c-1.139-0.1-2.228-0.062-3.196,0.132
					c-0.968,0.194-1.816,0.545-2.476,1.071c1.292,1.754,3.42,2.016,5.395,1.365s3.798-2.218,4.482-4.122
					c-2.127-0.601-4.356-1.453-6.243-1.503C85.92,69.481,84.375,70.232,83.615,72.839L83.615,72.839L83.615,72.839z"/>
				<path id="XMLID_556_" style="fill-rule:evenodd;clip-rule:evenodd;fill:#FFFFFF;" d="M58.14,78.501
					c0.125-1.027-0.027-2.054-0.286-3.031c-0.259-0.977-0.626-1.904-0.929-2.731c0.657,0.501,1.226,1.227,1.682,2.135
					c0.456,0.908,0.798,1.999,1.001,3.227c1.444-2.606,1.102-4.61-0.038-6.195c-1.14-1.585-3.077-2.75-4.824-3.676
					c-1.089,2.48-1.419,4.634-0.888,6.376C54.389,76.346,55.782,77.674,58.14,78.501L58.14,78.501L58.14,78.501z"/>
				<path id="XMLID_555_" style="fill-rule:evenodd;clip-rule:evenodd;fill:#FFFFFF;" d="M56.568,62.565
					c0.786,0.024,1.622,0.3,2.426,0.739c0.804,0.439,1.576,1.041,2.233,1.717c-0.203-2.331-1.178-3.622-2.684-4.293
					s-3.545-0.72-5.875-0.569c0.455,2.481,1.304,4.36,2.59,5.419c1.286,1.058,3.009,1.296,5.213,0.494
					c0.025-0.025-0.431-0.727-1.153-1.509C58.594,63.78,57.606,62.916,56.568,62.565L56.568,62.565L56.568,62.565z"/>
				<path id="XMLID_554_" style="fill-rule:evenodd;clip-rule:evenodd;fill:#FFFFFF;" d="M81.742,85.969
					c0.607-0.727,1.342-1.441,2.159-2.03s1.716-1.053,2.652-1.279c-0.836,0.426-1.571,0.99-2.204,1.711s-1.165,1.598-1.595,2.65
					c2.559,0.125,4.307-0.44,5.478-1.636c1.171-1.197,1.765-3.025,2.018-5.43c-2.508-0.025-4.56,0.188-6.022,1.052
					C82.766,81.872,81.893,83.388,81.742,85.969L81.742,85.969L81.742,85.969z"/>
				<path id="XMLID_553_" style="fill-rule:evenodd;clip-rule:evenodd;fill:#FFFFFF;" d="M68.319,59.609
					c-0.456-0.877-0.76-1.642-0.905-2.5c-0.145-0.858-0.132-1.81,0.045-3.063c0.303,1.303,0.581,2.368,0.872,3.245
					c0.291,0.877,0.595,1.566,0.951,2.117c2-1.503,2.076-3.584,1.278-5.432c-0.798-1.848-2.469-3.465-3.964-4.041
					c-0.685,1.854-1.597,3.871-1.666,5.626S65.634,58.807,68.319,59.609L68.319,59.609L68.319,59.609z"/>
				<path id="XMLID_552_" style="fill-rule:evenodd;clip-rule:evenodd;fill:#FFFFFF;" d="M94.81,97.545
					c0.305-0.376,0.723-1.102,1.369-1.879c0.646-0.776,1.519-1.603,2.735-2.179c-0.784,0.801-1.417,1.678-1.918,2.498
					s-0.869,1.585-1.121,2.16c2.305-0.1,3.989-0.952,4.945-2.374c0.956-1.422,1.183-3.414,0.574-5.794
					c-2.126,0.777-3.962,1.291-5.172,2.299C95.013,93.286,94.43,94.789,94.81,97.545L94.81,97.545L94.81,97.545z"/>
				<path id="XMLID_551_" style="fill-rule:evenodd;clip-rule:evenodd;fill:#FFFFFF;" d="M68.166,70.733
					c0.405-0.851,0.494-1.665,0.368-2.485c-0.126-0.82-0.468-1.647-0.924-2.524c0.886,0.751,1.355,1.528,1.596,2.354
					c0.241,0.826,0.254,1.703,0.229,2.656c2.102-2.405,1.95-3.97,0.867-5.304s-3.097-2.437-4.718-3.916
					c-0.684,2.156-1.027,4.022-0.704,5.57C65.203,68.629,66.191,69.856,68.166,70.733L68.166,70.733L68.166,70.733z"/>
				<path id="XMLID_550_" style="fill-rule:evenodd;clip-rule:evenodd;fill:#FFFFFF;" d="M101.699,67.977
					c-0.229,0.827-0.774,1.528-1.496,2.105s-1.62,1.028-2.556,1.354c0.38,0.25,1.026,0.526,1.818,0.57
					c0.792,0.044,1.729-0.144,2.693-0.82c0.707-0.552,1.238-1.429,1.574-2.475c0.336-1.046,0.476-2.261,0.4-3.488
					c-2,0.275-3.798,0.588-5.083,1.352c-1.285,0.764-2.058,1.979-2.007,4.058c0.886-0.225,1.721-0.576,2.499-1.027
					C100.319,69.155,101.04,68.603,101.699,67.977L101.699,67.977L101.699,67.977z"/>
				<path id="XMLID_549_" style="fill-rule:evenodd;clip-rule:evenodd;fill:#FFFFFF;" d="M101.699,88.023
					c1.469,1.078,2.963,1.404,4.419,0.934c1.456-0.47,2.874-1.736,4.191-3.841c-1.24-0.702-3.443-1.391-5.311-1.347
					c-1.868,0.044-3.4,0.821-3.299,3.052c0.786-0.401,1.736-0.702,2.654-0.846c0.918-0.144,1.804-0.131,2.463,0.094
					c-0.736,0-1.698,0.188-2.635,0.526S102.332,87.422,101.699,88.023L101.699,88.023L101.699,88.023z"/>
				<path id="XMLID_548_" style="fill-rule:evenodd;clip-rule:evenodd;fill:#FFFFFF;" d="M54.033,94.237
					c0.026-0.601-0.278-1.202-0.796-1.71c-0.519-0.508-1.253-0.921-2.089-1.146c1.139-0.175,2.063,0.313,2.702,0.845
					c0.639,0.532,0.994,1.108,0.994,1.108c0.305-2.555-0.797-3.357-2.348-3.594c-1.551-0.238-3.552,0.088-5.045-0.212
					c0.836,1.602,1.608,3.081,2.608,4.008C51.058,94.463,52.286,94.839,54.033,94.237L54.033,94.237L54.033,94.237z"/>
				<path id="XMLID_547_" style="fill-rule:evenodd;clip-rule:evenodd;fill:#FFFFFF;" d="M86.806,98.247
					c1.343,0.251,2.483,0.001,3.332-0.776c0.849-0.777,1.406-2.08,1.581-3.935c-1.064-0.101-2.608,0.087-3.786,0.683
					s-1.987,1.598-1.58,3.128c0.406-0.502,0.962-0.99,1.557-1.366c0.594-0.376,1.226-0.639,1.783-0.689
					c-0.557,0.2-1.164,0.613-1.689,1.14C87.479,96.956,87.036,97.595,86.806,98.247L86.806,98.247L86.806,98.247z"/>
				<path id="XMLID_546_" style="fill-rule:evenodd;clip-rule:evenodd;fill:#FFFFFF;" d="M91.618,89.026
					c0.659-0.126,1.294-0.364,1.845-0.639c0.551-0.276,1.019-0.589,1.347-0.864c-0.277,0.401-0.607,0.827-1.075,1.178
					c-0.469,0.351-1.076,0.627-1.91,0.727c1.418,1.202,2.659,0.801,3.634-0.12c0.975-0.921,1.683-2.361,2.037-3.238
					c-1.544-0.576-3-0.489-4.076,0.069S91.644,87.722,91.618,89.026L91.618,89.026L91.618,89.026z"/>
				<path id="XMLID_545_" style="fill-rule:evenodd;clip-rule:evenodd;fill:#FFFFFF;" d="M104.284,94.088
					c0.531-0.1,1.024-0.276,1.455-0.482c0.431-0.207,0.798-0.445,1.077-0.671c-0.253,0.3-0.506,0.626-0.861,0.895
					c-0.355,0.269-0.811,0.482-1.471,0.558c1.089,0.927,2.052,0.614,2.806-0.094c0.754-0.708,1.298-1.811,1.552-2.464
					c-1.166-0.451-2.294-0.401-3.136,0.02S104.308,93.06,104.284,94.088L104.284,94.088L104.284,94.088z"/>
				<path id="XMLID_544_" style="fill-rule:evenodd;clip-rule:evenodd;fill:#FFFFFF;" d="M54.44,84.817
					c0.911,0.626,2.114,0.726,3.108,0.413c0.994-0.313,1.779-1.04,1.856-2.069c-0.456,0.125-0.925,0.238-1.393,0.351
					c-0.469,0.113-0.937,0.226-1.394,0.352c0.33-0.326,0.723-0.602,1.179-0.815s0.975-0.364,1.557-0.439
					c-1.166-0.676-2.115-0.739-2.913-0.326C55.643,82.698,54.998,83.588,54.44,84.817L54.44,84.817L54.44,84.817z"/>
				<path id="XMLID_543_" style="fill-rule:evenodd;clip-rule:evenodd;fill:#FFFFFF;" d="M60.469,94.639
					c0.075-0.527-0.001-1.078-0.147-1.611c-0.146-0.532-0.361-1.046-0.564-1.496c0.381,0.325,0.697,0.713,0.938,1.196
					c0.24,0.482,0.405,1.059,0.48,1.76c0.836-1.428,0.672-2.518,0.058-3.376c-0.614-0.858-1.678-1.485-2.641-1.986
					c-0.583,1.352-0.747,2.53-0.449,3.47C58.443,93.536,59.203,94.238,60.469,94.639L60.469,94.639L60.469,94.639z"/>
				<path id="XMLID_542_" style="fill-rule:evenodd;clip-rule:evenodd;fill:#FFFFFF;" d="M70.192,78.4
					c0.456-0.2,0.862-0.463,1.204-0.75c0.342-0.288,0.621-0.601,0.824-0.901c-0.153,0.376-0.318,0.751-0.584,1.096
					c-0.266,0.344-0.633,0.657-1.19,0.908c1.241,0.502,2.039-0.05,2.539-0.889c0.5-0.839,0.702-1.967,0.751-2.618
					c-1.164-0.076-2.177,0.275-2.835,0.864C70.244,76.697,69.94,77.524,70.192,78.4L70.192,78.4L70.192,78.4z"/>
				<path id="XMLID_541_" style="fill-rule:evenodd;clip-rule:evenodd;fill:#FFFFFF;" d="M66.699,75.245
					c-0.558-0.251-1.052-0.615-1.476-0.997s-0.779-0.783-1.057-1.11c0.153,0.451,0.355,0.903,0.697,1.329
					c0.342,0.426,0.822,0.827,1.531,1.177c-1.57,0.676-2.582-0.012-3.216-1.083c-0.633-1.071-0.887-2.524-0.938-3.376
					c1.52-0.101,2.812,0.35,3.635,1.109C66.698,73.052,67.053,74.117,66.699,75.245L66.699,75.245L66.699,75.245z"/>
				<path id="XMLID_540_" style="fill-rule:evenodd;clip-rule:evenodd;fill:#FFFFFF;" d="M82.248,58.005
					c0.433-0.727,0.674-1.366,0.781-2.074c0.108-0.708,0.081-1.485-0.021-2.487c-0.28,1.053-0.508,1.93-0.742,2.651
					c-0.234,0.721-0.474,1.284-0.778,1.711c-1.646-1.228-1.722-2.932-1.07-4.454c0.652-1.522,2.031-2.863,3.298-3.364
					c0.559,1.528,1.319,3.207,1.377,4.667C85.15,56.112,84.503,57.353,82.248,58.005L82.248,58.005L82.248,58.005z"/>
				<path id="XMLID_539_" style="fill-rule:evenodd;clip-rule:evenodd;fill:#FFFFFF;" d="M77.234,73.339
					c-0.253-0.602-0.494-1.04-0.836-1.435c-0.342-0.395-0.786-0.746-1.445-1.172c0.508,0.652,0.9,1.191,1.192,1.662
					c0.291,0.47,0.481,0.871,0.583,1.247c-1.47,0.275-2.471-0.514-3.015-1.585c-0.544-1.071-0.632-2.424-0.277-3.277
					c1.088,0.426,2.38,0.814,3.228,1.472C77.513,70.909,77.919,71.836,77.234,73.339L77.234,73.339L77.234,73.339z"/>
				<path id="XMLID_538_" style="fill-rule:evenodd;clip-rule:evenodd;fill:#FFFFFF;" d="M89.086,89.627
					c-0.253,1.102-1.076,2.017-2.038,2.481c-0.962,0.464-2.063,0.477-2.874-0.226c0.254-0.276,0.621-0.551,1.064-0.801
					c0.443-0.25,0.962-0.476,1.521-0.652c-0.482,0-0.963,0.063-1.451,0.213c-0.487,0.151-0.981,0.389-1.487,0.739
					c0.354-1.278,0.999-1.98,1.891-2.23C86.604,88.901,87.743,89.101,89.086,89.627L89.086,89.627L89.086,89.627z"/>
			</g>
			<path id="XMLID_534_" style="fill-rule:evenodd;clip-rule:evenodd;fill:#FFFFFF;" d="M84.629,154.425
				c0,1.379-1.114,2.982-2.9,4.241c-1.785,1.259-4.242,2.174-6.926,2.174c-2.71,0-5.167-0.914-6.946-2.174
				c-1.779-1.259-2.881-2.863-2.881-4.241h9.826H84.629z M81.337,155.73l0.736-0.075l0.736-0.075
				c-0.686,1.579-1.699,2.719-3.048,3.452s-3.032,1.058-5.057,1.008c1.62-0.074,3.038-0.525,4.171-1.27
				C80.008,158.023,80.857,156.983,81.337,155.73L81.337,155.73L81.337,155.73z"/>
			<path id="XMLID_526_" style="fill-rule:evenodd;clip-rule:evenodd;fill:#FFFFFF;" d="M50.49,126.664
				c1.292,3.332,1.444,6.338,1.698,8.643s0.608,3.909,2.305,4.436c1.596,0.476,6.965,0.414,13.069,0.264
				c6.104-0.15,12.942-0.388,17.476-0.264c2.938,0.076,3.52-2.254,4.209-5.587c0.689-3.333,1.486-7.669,4.854-11.603
				c-3.848,2.456-5.481,6.778-6.912,9.81s-2.66,4.774-5.701,2.067c-1.873-1.679-2.519-3.696-2.74-5.913
				c-0.221-2.217-0.019-4.635-0.195-7.116c-0.38-5.062,1.685-10.162,4.762-14.083c3.077-3.922,7.168-6.666,10.839-7.015
				c-3.268-0.401-5.332,0.414-6.99,1.447c-1.658,1.034-2.911,2.287-4.558,2.763l-0.457,0.15l-0.457,0.15
				c0.354-1.153,1.253-1.842,2.069-2.475c0.816-0.633,1.551-1.209,1.577-2.136c-0.657,1.002-1.581,1.516-2.569,1.954
				c-0.988,0.439-2.039,0.802-2.949,1.505c-0.203,0.175-0.343-1.317,0.081-3.403c0.424-2.086,1.412-4.767,3.464-6.972
				c-0.406,0.401-0.887,0.864-1.33,1.303c-0.443,0.438-0.848,0.852-1.101,1.153c-2.128,2.63-2.444,4.609-2.647,6.952
				c-0.203,2.343-0.292,5.05-1.964,9.134c2.002-8.545,0.761-14.66,0.666-19.897c-0.095-5.237,0.956-9.597,7.542-14.633
				c0.328-0.275-0.078-0.187-0.673,0.013c-0.596,0.2-1.381,0.513-1.811,0.688c-1.292,0.676-2.432,1.653-3.248,2.424
				c-0.817,0.771-1.31,1.334-1.31,1.183c-0.051-3.859,1.051-5.926,2.4-7.93s2.944-3.947,3.881-7.555
				c-1.747,2.782-3.443,4.824-4.943,6.798c-1.5,1.973-2.804,3.878-3.767,6.383c-0.608,1.579-0.963,3.345-1.204,5.137
				c-0.241,1.792-0.368,3.608-0.521,5.287c-0.125-0.099-0.125-0.989-0.125-1.872s0-1.761-0.125-1.836
				c-3.015-1.855-4.078-4.925-4.389-7.531s0.134-4.748,0.134-4.748c-0.912,0.727-1,2.419-1.096,4.073
				c-0.095,1.654-0.197,3.271-1.133,3.848c-0.38,0.225-2.9-0.402-5.604-1.047s-5.59-1.31-6.704-1.16
				c1.19,0.903,4.533,1.416,7.831,2.713c3.299,1.297,6.553,3.376,7.565,7.411c0.178,0.727-1.734,0.777-3.69,0.646
				c-1.956-0.132-3.957-0.445-3.957-0.445c1.341,0.852,3.431,1.278,5.217,1.999c1.786,0.72,3.267,1.735,3.393,3.765
				c0.152,2.606,0.241,5.287,0.045,7.793c-0.196,2.506-0.677,4.837-1.665,6.742c0,0,0.607-1.705,0.677-3.735
				c0.069-2.03-0.4-4.386-2.552-5.688c-1.596-1.002-2.154-2.982-2.312-4.711c-0.159-1.729,0.081-3.208,0.081-3.208
				c-0.809,1.078-0.934,2.482-0.952,3.553c-0.018,1.071,0.071,1.811-0.309,1.56c-0.912-0.652-1.723-1.066-2.503-1.316
				c-0.779-0.251-1.526-0.338-2.311-0.338c1.848,0.376,4.659,2.882,6.279,4.886s2.051,3.508-0.861,1.879
				c-2.228-1.227-3.583-1.641-4.842-2.217c-1.26-0.577-2.425-1.316-4.274-3.195c1.139,2.03,2.798,3.22,4.495,4.367
				s3.432,2.249,4.724,4.103c0.987,1.379,2.203,3.371,3.147,5.552s1.615,4.548,1.514,6.677c-0.025,0.702-0.102,1.453-0.146,2.23
				s-0.058,1.579,0.044,2.38c0.101,0.802-0.367-0.15-0.867-1.209c-0.5-1.059-1.032-2.224-1.056-1.848
				c-0.026,0.476,0.468,2.38,0.86,4.46c0.392,2.08,0.684,4.335,0.252,5.514c-0.734,2.579-0.974,4.107-1.904,5.022
				c-0.931,0.915-2.552,1.216-6.047,1.342c-2.989,0.075-3.976-1.804-4.622-4.492c-0.646-2.688-0.95-6.183-2.572-9.339
				c-3.57-6.966-8.622-10.888-12.782-16.051c-4.16-5.162-7.427-11.565-7.427-23.492c1.52-25.959,21.844-40.292,42.023-41.257
				c20.179-0.965,40.211,11.438,41.148,38.952c0.382,11.978-3.808,19.495-8.855,26.661c-5.046,7.166-10.948,13.981-13.989,24.555
				c-1.29,4.486-1.442,7.317-2.106,9.015c-0.665,1.698-1.842,2.262-5.185,2.212h-1.876h-1.876H67.762H53.477v2.004v2.004
				l1.773,2.883l1.773,2.883h16.919h16.919l1.443-2.055l1.443-2.055H76.449H59.151l-0.305-0.828l-0.305-0.828h17.882h17.882
				l0.507-1.277l0.507-1.277c0.707-16.312,8.14-24.869,14.82-33.388c6.68-8.52,12.607-17.002,10.301-33.164
				c0.633,14.683-5.192,23.391-11.707,32.124s-13.72,17.492-15.846,32.276c-0.051,0.275,0.164-1.78,0.747-4.712
				s1.532-6.741,2.952-9.973c2.582-5.889,6.57-11.326,10.483-16.94c3.913-5.613,7.75-11.402,10.031-17.992
				c4.632-13.355,0.91-26.923-7.454-37.128S88.278,38.41,74.347,38.51c-12.587,0-24.01,4.961-32.285,12.973
				S28.657,70.558,28.657,82.761c0,13.431,3.597,19.658,8.124,24.901C41.309,112.906,46.767,117.166,50.49,126.664L50.49,126.664
				L50.49,126.664z M71.663,86.07c-1.368-1.002-2.457-2.167-3.059-3.264s-0.716-2.124-0.133-2.85
				c-0.278,0.626,0.254,1.891,0.988,3.131S71.131,85.543,71.663,86.07L71.663,86.07L71.663,86.07z M76.323,88.525
				c-0.127-1.604,0.355-3.207,0.963-4.36c0.608-1.153,1.343-1.854,1.722-1.653c-0.659,0.175-1.292,1.327-1.78,2.611
				C76.741,86.407,76.4,87.823,76.323,88.525L76.323,88.525L76.323,88.525z M36.254,100.602
				c-6.863-11.101-6.432-23.981-1.246-34.811c5.186-10.831,15.127-19.613,27.283-22.519C50.743,46.203,41.182,54.572,36.035,65.19
				S30.151,88.675,36.254,100.602L36.254,100.602L36.254,100.602z M79.614,134.581c-0.733-1.679-1.391-3.396-1.783-5.25
				c-0.392-1.855-0.519-3.847-0.19-6.077c-0.863,0.678-1.041,2.356-0.667,4.442C77.347,129.782,78.272,132.275,79.614,134.581
				L79.614,134.581L79.614,134.581z M68.471,107.97c-0.152-0.777,0.089-1.015,0.292-1.554c0.203-0.539,0.368-1.379,0.064-3.358
				c0.481,1.654,0.431,2.657,0.241,3.358C68.878,107.118,68.548,107.519,68.471,107.97L68.471,107.97L68.471,107.97z
				 M75.867,107.467c0.076-0.375,0.127-0.738,0.165-1.095c0.038-0.357,0.063-0.708,0.088-1.059c0.203-2.181,0.127-3.321-0.056-4.298
				c-0.184-0.977-0.475-1.791-0.703-3.32c0.937,1.353,1.267,2.906,1.261,4.566C76.615,103.922,76.273,105.689,75.867,107.467
				L75.867,107.467L75.867,107.467z"/>
			<g id="XMLID_512_">
				<path id="XMLID_524_" style="fill:#231F20;" d="M39.358,185.579c-0.621,0.223-1.544,0.518-2.674,0.756
					c-1.13,0.239-2.467,0.422-3.916,0.422c-1.624,0-3.104-0.207-4.441-0.665c-1.337-0.458-2.531-1.166-3.582-2.169
					c-0.923-0.892-1.671-2.054-2.189-3.411s-0.804-2.909-0.804-4.581c0.016-3.2,1.122-5.969,3.124-7.939s4.899-3.14,8.496-3.14
					c1.242,0,2.348,0.135,3.259,0.326c0.911,0.191,1.628,0.438,2.089,0.661l-0.334,1.13l-0.334,1.13
					c-0.573-0.255-1.218-0.485-1.99-0.653c-0.772-0.167-1.671-0.271-2.754-0.271c-2.611,0-4.768,0.812-6.272,2.296
					c-1.504,1.484-2.356,3.641-2.356,6.332c0,2.722,0.82,4.887,2.264,6.371c1.445,1.484,3.514,2.288,6.013,2.288
					c0.907,0,1.671-0.064,2.288-0.167c0.617-0.104,1.086-0.247,1.405-0.406v-3.199v-3.199h-2.181H32.29v-1.114v-1.114h3.534h3.534
					v5.157V185.579z"/>
				<path id="XMLID_521_" style="fill:#FFFFFF;" d="M47.063,179.785l-1.114,3.375l-1.114,3.375h-1.433h-1.433l3.645-10.729
					l3.645-10.729h1.671h1.671l3.661,10.729l3.661,10.729h-1.48h-1.48l-1.146-3.375l-1.146-3.375h-3.804H47.063z M54.099,177.62
					l-1.051-3.088l-1.051-3.088c-0.239-0.7-0.438-1.369-0.617-2.018c-0.179-0.649-0.338-1.277-0.498-1.898h-0.032H50.82
					c-0.159,0.637-0.326,1.281-0.505,1.93c-0.179,0.649-0.37,1.301-0.577,1.954l-1.051,3.104l-1.051,3.104h3.231H54.099z"/>
				<path id="XMLID_519_" style="fill:#FFFFFF;" d="M63.077,165.077h1.385h1.385v9.567v9.567h4.584h4.584v1.162v1.162h-5.969h-5.969
					v-10.729V165.077z"/>
				<path id="XMLID_517_" style="fill:#FFFFFF;" d="M81.925,169.152h-2.881h-2.881v-2.038v-2.038h8.246h8.246v2.038v2.038h-2.929
					h-2.929v8.691v8.691H84.36h-2.435v-8.691V169.152z"/>
				<path id="XMLID_515_" style="fill:#FFFFFF;" d="M107.999,177.461h-3.948h-3.948v2.547v2.547h4.41h4.41v1.99v1.99h-6.845h-6.845
					v-10.729v-10.729h6.622h6.622v1.99v1.99h-4.186h-4.186v2.229v2.229h3.948h3.948v1.974V177.461z"/>
				<path id="XMLID_513_" style="fill:#231F20;" d="M127.993,185.93c-0.446,0.223-1.17,0.454-2.109,0.629
					c-0.939,0.175-2.093,0.295-3.399,0.295c-3.709,0-6.519-1.154-8.401-3.072s-2.837-4.6-2.837-7.657
					c0-3.661,1.305-6.511,3.422-8.445c2.117-1.934,5.046-2.953,8.294-2.953c1.257,0,2.364,0.127,3.263,0.31
					c0.899,0.183,1.592,0.422,2.022,0.645l-0.493,1.926l-0.493,1.926c-0.493-0.207-1.083-0.406-1.763-0.553
					c-0.681-0.147-1.453-0.243-2.312-0.243c-1.926,0-3.637,0.581-4.867,1.759s-1.978,2.953-1.978,5.341
					c0,2.149,0.637,3.9,1.815,5.114c1.178,1.214,2.897,1.89,5.062,1.89c0.732,0,1.504-0.08,2.213-0.207
					c0.708-0.127,1.353-0.302,1.831-0.494l0.366,1.894L127.993,185.93z"/>
			</g>
		</g>
	</g>
</g>
</svg>