<?xml version="1.0" encoding="utf-8"?>
<!-- Generator: Adobe Illustrator 19.0.0, SVG Export Plug-In . SVG Version: 6.00 Build 0)  -->
<svg width="150" height="240" version="1.1" id="Layer_1" xmlns="http://www.w3.org/2000/svg" xmlns:xlink="http://www.w3.org/1999/xlink" x="0px" y="0px"
	 viewBox="-285.5 324 101 158.6" style="enable-background:new -285.5 324 101 158.6;" xml:space="preserve">
<style type="text/css">
	.st0{fill:none;stroke:#222222;stroke-width:2;}
	.st1{fill:#231F20;}
	.st2{fill-rule:evenodd;clip-rule:evenodd;fill:#FFFFFF;}
	.st3{fill:#FFFFFF;}
</style>
<path id="b_1_" class="st0" d="M-260.2,344.9c-15.4,13.4-17,41.6-18.1,54.3c-1.2,13.3-10.7,27.8,4,44.7c18.5,21.3,61.4,41,71.5,19
	c6.9-15,8.7-23.3,1.3-44.5c-5.7-16.4,3.8-33.8-13.9-54.1C-233.9,342.9-238.9,326.4-260.2,344.9L-260.2,344.9z"/>
<path id="a_1_" class="st0" d="M-258.7,334.3c-17.8,15.4-19.7,48-21,62.7c-1.4,15.4-12.4,32.1,4.6,51.7
	c21.4,24.6,70.9,47.2,82.6,21.8c8-17.4,10.1-27,1.6-51.4c-6.6-18.9,4.5-39-16-62.5C-228.3,331.9-234.1,312.8-258.7,334.3z"/>
<path id="b_2_" class="st1" d="M-261.7,356.5c-12.8,11.2-14.2,34.7-15.1,45.3c-1,11.1-8.9,23.2,3.4,37.4
	c15.5,17.8,51.3,34.2,59.7,15.9c5.8-12.6,7.3-19.5,1.1-37.2c-4.8-13.7,3.2-28.2-11.6-45.2C-239.7,354.9-243.9,341.1-261.7,356.5
	L-261.7,356.5z"/>
<g>
	<g>
		<g>
			<g>
				<path class="st2" d="M-244,383.9c0.1-1.2-0.2-2.3-0.7-3.1c0.7,0.7,1.3,1.4,1.2,3c2.8-2.1-0.6-4.8-2.2-5.8
					C-247.3,380.5-246.4,383.4-244,383.9L-244,383.9z"/>
				<path class="st2" d="M-261.8,385.1c0.6,1.9,2.8,4.4,5.4,2.7c-0.5-0.7-1.5-1-2.2-1.3c1.4,0.1,1.6,0.4,2.6,0.8
					C-256.4,384.1-258.8,384.6-261.8,385.1L-261.8,385.1z"/>
				<path class="st2" d="M-240.7,382.5c0.5-0.8,1-1.6,2.3-2.1c-0.6,0.5-1.5,1.5-1.8,2.4c2.9,0.4,4.1-1.9,4-4.5
					C-238.7,378.6-241.7,379.5-240.7,382.5L-240.7,382.5z"/>
				<path class="st2" d="M-257.6,400.9c1.8,0.7,4.6,1.9,5.4-0.7c-0.8,0.4-1.7,0.7-2.9,0.3c0.7-0.1,2.1-0.1,2.7-0.8
					c-0.5-0.7-1.7-1-2.9-0.6C-256.5,399.4-256.8,400.1-257.6,400.9L-257.6,400.9z"/>
				<path class="st2" d="M-260.7,391.1c1.5,1.6,4.5,1.3,5.2-0.7c-0.8-0.2-1.8-0.1-2.9,0.2c0.8-0.5,1.7-0.6,2.9-0.6
					C-257.4,388.2-259.2,388.9-260.7,391.1L-260.7,391.1z"/>
				<path class="st2" d="M-234.7,398.6c1.2-0.6,2-0.6,2.8-0.4c-0.9,0-1.8,0.2-2.7,0.8c1.4,2,4.4-0.1,4.9-1.7
					c-0.7-0.2-1.7-0.7-2.8-0.6C-233.9,396.9-234.6,397.7-234.7,398.6L-234.7,398.6z"/>
				<path class="st2" d="M-261.4,397.3c0.8,1.1,3.4,3,5.2,0.6c-0.9-0.4-2-0.5-3-0.4c0.9-0.5,2.1-0.5,2.9,0
					C-257.5,395.1-259.9,396.2-261.4,397.3L-261.4,397.3z"/>
				<path class="st2" d="M-238.5,399.9c0.7,0.4,1.4,1.1,2.4,1.2c-1.3,0.3-1.8-0.5-2.7-0.7c0.7,2.5,3.2,2.1,4.6,1.4
					C-234.9,399.3-237.6,398.9-238.5,399.9L-238.5,399.9z"/>
				<path class="st2" d="M-237.2,389.8c0.8-0.4,1.5-1.1,2.6-1.1c-0.8,0.2-2,0.9-2.1,1.7c2.5,0.6,3.7-0.9,4.1-2.9
					C-235,387.4-237,387.2-237.2,389.8L-237.2,389.8z"/>
				<path class="st2" d="M-241.8,386C-241.8,386-241.8,386.1-241.8,386c1.5-0.7,2.8-0.1,2.8-0.1c-1-0.1-1.9,0.1-2.5,0.5
					c1.2,1.6,3.8,0.5,4.4-1.2C-239.1,384.7-241.2,383.7-241.8,386L-241.8,386z"/>
				<path class="st2" d="M-253.2,388.6c0.1-0.9-0.3-1.8-0.5-2.6c0.6,0.4,1,1.3,1.2,2.4c1.3-2.3-0.6-3.6-2.2-4.4
					C-255.7,386.2-255.3,387.8-253.2,388.6L-253.2,388.6z"/>
				<path class="st2" d="M-253.9,381.5c0.7,0,1.5,0.5,2.1,1.1c-0.2-2.1-1.7-2.3-3.8-2.2c0.4,2.2,1.5,3.4,3.5,2.6
					C-252.1,383-253,381.8-253.9,381.5L-253.9,381.5z"/>
				<path class="st2" d="M-242.7,391.9c0.5-0.6,1.3-1.3,2.1-1.5c-0.7,0.4-1.3,1-1.7,1.9c2.3,0.1,3.1-1,3.3-3.2
					C-241.1,389.2-242.5,389.6-242.7,391.9L-242.7,391.9z"/>
				<path class="st2" d="M-248.7,380.1c-0.4-0.8-0.5-1.4-0.4-2.5c0.3,1.2,0.5,1.9,0.8,2.4c1.8-1.3,0.1-3.7-1.2-4.2
					C-250,377.5-251,379.4-248.7,380.1L-248.7,380.1z"/>
				<path class="st2" d="M-236.8,397.1c0.3-0.3,0.7-1.3,1.8-1.8c-0.7,0.7-1.1,1.6-1.4,2.1c2.1-0.1,3-1.5,2.5-3.6
					C-235.8,394.4-237.2,394.6-236.8,397.1L-236.8,397.1z"/>
				<path class="st2" d="M-248.7,385.1c0.4-0.8,0.2-1.5-0.2-2.2c0.8,0.7,0.8,1.4,0.8,2.2c1.9-2.1-0.3-2.8-1.7-4.1
					C-250.5,382.9-250.5,384.3-248.7,385.1L-248.7,385.1z"/>
				<path class="st2" d="M-233.8,383.9c-0.2,0.7-1,1.3-1.8,1.5c0.3,0.2,1.2,0.5,2-0.1c0.6-0.5,0.9-1.6,0.9-2.7
					c-1.8,0.2-3.2,0.6-3.2,2.4C-235.1,384.9-234.4,384.4-233.8,383.9L-233.8,383.9z"/>
				<path class="st2" d="M-233.8,392.8c1.3,1,2.7,0.6,3.8-1.3c-1.1-0.6-3.9-1.2-3.8,0.8c0.7-0.4,1.7-0.5,2.3-0.3
					C-232.1,391.9-233.2,392.3-233.8,392.8L-233.8,392.8z"/>
				<path class="st2" d="M-255,395.6c0-0.5-0.5-1.1-1.3-1.3c1-0.2,1.6,0.9,1.6,0.9c0.3-2.3-2-1.4-3.3-1.7
					C-257.2,394.9-256.6,396.1-255,395.6L-255,395.6z"/>
				<path class="st2" d="M-240.4,397.4c1.2,0.2,2-0.4,2.2-2.1c-0.9-0.1-2.8,0.3-2.4,1.7c0.4-0.4,1-0.9,1.5-0.9
					C-239.6,396.2-240.2,396.8-240.4,397.4L-240.4,397.4z"/>
				<path class="st2" d="M-238.3,393.3c0.6-0.1,1.1-0.4,1.4-0.7c-0.2,0.4-0.6,0.8-1.3,0.8c1.3,1.1,2.2-0.7,2.5-1.5
					C-237,391.4-238.2,392.1-238.3,393.3L-238.3,393.3z"/>
				<path class="st2" d="M-232.6,395.5c0.5-0.1,0.9-0.3,1.1-0.5c-0.2,0.3-0.5,0.6-1,0.6c1,0.8,1.7-0.6,1.9-1.1
					C-231.6,394.1-232.6,394.6-232.6,395.5L-232.6,395.5z"/>
				<path class="st2" d="M-254.8,391.4c0.8,0.6,2.1,0.2,2.2-0.7c-0.4,0.1-0.8,0.2-1.2,0.3c0.3-0.3,0.7-0.5,1.2-0.6
					C-253.7,389.8-254.3,390.3-254.8,391.4L-254.8,391.4z"/>
				<path class="st2" d="M-252.2,395.8c0.1-0.5-0.1-1-0.3-1.4c0.3,0.3,0.6,0.7,0.6,1.3c0.7-1.3-0.3-1.9-1.2-2.4
					C-253.5,394.5-253.3,395.4-252.2,395.8L-252.2,395.8z"/>
				<path class="st2" d="M-247.8,388.5c0.4-0.2,0.7-0.5,0.9-0.7c-0.1,0.3-0.3,0.7-0.8,0.9c1.1,0.4,1.4-1,1.5-1.6
					C-247.3,387-248,387.7-247.8,388.5L-247.8,388.5z"/>
				<path class="st2" d="M-249.4,387.1c-0.5-0.2-0.9-0.6-1.1-0.9c0.1,0.4,0.4,0.8,1,1.1c-1.4,0.6-1.8-1.2-1.9-2
					C-250,385.2-249.1,386.1-249.4,387.1L-249.4,387.1z"/>
				<path class="st2" d="M-242.4,379.4c0.4-0.6,0.4-1.1,0.3-2c-0.2,0.9-0.4,1.6-0.7,1.9c-1.5-1.1-0.1-3,1-3.5
					C-241.3,377.2-240.4,378.8-242.4,379.4L-242.4,379.4z"/>
				<path class="st2" d="M-244.7,386.3c-0.2-0.5-0.4-0.8-1-1.2c0.5,0.6,0.7,1,0.8,1.3c-1.3,0.2-1.8-1.4-1.5-2.2
					C-245.4,384.6-244.1,384.9-244.7,386.3L-244.7,386.3z"/>
				<path class="st2" d="M-239.4,393.5c-0.2,1-1.5,1.6-2.2,1c0.2-0.2,0.7-0.5,1.2-0.6c-0.4,0-0.9,0.1-1.3,0.4
					C-241.4,393.2-240.6,393.1-239.4,393.5L-239.4,393.5z"/>
			</g>
			<path class="st2" d="M-241.4,422.4c0,1.2-2,2.9-4.4,2.9c-2.4,0-4.4-1.6-4.4-2.9H-241.4z M-242.8,423l0.7-0.1
				c-0.6,1.4-1.8,2-3.6,2C-244.4,424.9-243.3,424.1-242.8,423L-242.8,423z"/>
			<path class="st2" d="M-256.6,410c1.2,3,0.3,5.4,1.8,5.8c1.4,0.4,9.6-0.1,13.6,0c2.6,0.1,1-4.2,4-7.7c-3.4,2.2-2.9,7.7-5.6,5.3
				c-1.7-1.5-1.2-3.6-1.3-5.8c-0.3-4.5,3.7-9.1,7-9.4c-2.9-0.4-3.7,1.5-5.1,1.9l-0.4,0.1c0.3-1,1.6-1.2,1.6-2.1
				c-0.6,0.9-1.6,0.9-2.5,1.5c-0.2,0.2-0.2-2.7,1.6-4.6c-0.4,0.4-0.9,0.8-1.1,1.1c-1.9,2.3-0.6,3.5-2.1,7.2
				c1.8-7.6-2.2-10.9,3.7-15.4c0.3-0.2-0.7,0.2-1.1,0.3c-1.2,0.6-2,1.7-2,1.6c0-3.4,2-3.7,2.8-6.9c-1.6,2.5-3,3.6-3.9,5.9
				c-0.5,1.4-0.6,3.2-0.8,4.6c-0.1-0.1,0-1.6-0.1-1.7c-2.7-1.7-1.9-5.5-1.9-5.5c-0.8,0.6-0.2,3-1,3.5c-0.3,0.2-4.5-1.1-5.5-1
				c1.1,0.8,6,0.9,6.9,4.5c0.2,0.6-3.4,0.1-3.4,0.1c1.2,0.8,3.7,0.8,3.8,2.6c0.1,2.3,0.2,4.8-0.7,6.5c0,0,1.1-3-0.8-4.2
				c-1.4-0.9-1-3.5-1-3.5c-0.7,1-0.2,2.5-0.6,2.3c-0.8-0.6-1.4-0.7-2.1-0.7c1.6,0.3,5,4.5,2.4,3c-2-1.1-2.4-0.7-4.1-2.4
				c1,1.8,3,2.1,4.1,3.8c0.9,1.2,2.2,3.6,2.1,5.5c0,0.6-0.1,1.3,0,2.1c0.1,0.7-0.8-1.7-0.9-1.4c0,0.4,0.9,3.4,0.5,4.4
				c-0.7,2.3-0.4,2.7-3.5,2.8c-2.7,0.1-1.8-3.4-3.2-6.2c-3.2-6.2-9-7-9-17.6c1.4-23.1,36.2-25.6,37.1-1c0.3,10.7-7.5,13.4-10.2,22.8
				c-1.2,4-0.3,5-3.3,5h-1.7h-12.7v1.8l1.6,2.6h15.1l1.3-1.8h-15.4l-0.3-0.7h15.9l0.5-1.1c0.6-14.5,13.3-15.3,11.2-29.7
				c0.6,13.1-10.4,15.5-12.3,28.7c0,0.2,0.4-3.7,1.6-6.5c2.3-5.3,7.1-9.7,9.1-15.6c4.1-11.9-6.6-24.2-19.1-24.1
				c-11.2,0-20.4,8.8-20.4,19.7C-266.3,402.4-259.9,401.6-256.6,410L-256.6,410z M-247.2,391.9c-1.2-0.9-1.9-2.1-1.4-2.7
				C-248.8,389.8-247.6,391.5-247.2,391.9L-247.2,391.9z M-245.1,393c-0.1-1.4,0.9-2.9,1.2-2.7C-244.5,390.5-245,392.4-245.1,393
				L-245.1,393z M-262.9,398.4c-6.1-9.9,0.8-23,11.6-25.6C-261.6,375.5-268.4,387.8-262.9,398.4L-262.9,398.4z M-243.6,413.6
				c-0.7-1.5-1.2-3.1-0.9-5.1C-245.3,409.1-244.8,411.5-243.6,413.6L-243.6,413.6z M-248.6,401.7c-0.1-0.7,0.4-0.4,0.2-2.2
				C-248,401-248.5,401.3-248.6,401.7L-248.6,401.7z M-245.3,401.5c0.1-0.3,0.1-0.6,0.1-1c0.2-1.9-0.1-2-0.3-3.4
				C-244.7,398.3-244.9,399.9-245.3,401.5L-245.3,401.5z"/>
			<g>
				<path class="st3" d="M-263.6,438.5c-0.6,0.2-1.9,0.6-3.3,0.6c-1.6,0-3-0.4-4-1.4c-0.9-0.9-1.5-2.3-1.5-4c0-3.2,2.2-5.6,5.8-5.6
					c1.2,0,2.2,0.3,2.7,0.5l-0.3,1.1c-0.6-0.3-1.3-0.5-2.4-0.5c-2.6,0-4.3,1.6-4.3,4.3c0,2.7,1.6,4.3,4.1,4.3c0.9,0,1.5-0.1,1.9-0.3
					v-3.2h-2.2v-1.1h3.5V438.5z"/>
				<path class="st3" d="M-259.8,435.6l-1.1,3.4h-1.4l3.7-10.8h1.7l3.7,10.8h-1.5l-1.1-3.4H-259.8z M-256.2,434.5l-1.1-3.1
					c-0.2-0.7-0.4-1.3-0.6-2h0c-0.2,0.6-0.3,1.3-0.5,1.9l-1.1,3.1H-256.2z"/>
				<path class="st3" d="M-251.7,428.2h1.4v9.6h4.6v1.2h-6V428.2z"/>
				<path class="st3" d="M-242.3,430.2h-2.9v-2h8.3v2h-2.9v8.7h-2.4V430.2z"/>
				<path class="st3" d="M-229.2,434.4h-4v2.6h4.4v2h-6.9v-10.8h6.6v2h-4.2v2.2h4V434.4z"/>
				<path class="st3" d="M-219.2,438.6c-0.4,0.2-1.5,0.5-2.8,0.5c-3.7,0-5.6-2.3-5.6-5.4c0-3.7,2.6-5.7,5.9-5.7
					c1.3,0,2.2,0.3,2.6,0.5l-0.5,1.9c-0.5-0.2-1.2-0.4-2-0.4c-1.9,0-3.4,1.2-3.4,3.6c0,2.2,1.3,3.5,3.4,3.5c0.7,0,1.5-0.2,2-0.4
					L-219.2,438.6z"/>
			</g>
		</g>
	</g>
</g>
</svg>
