<?xml version="1.0" encoding="UTF-8"?>
<svg width="152px" height="58px" viewBox="0 0 152 58" version="1.1" xmlns="http://www.w3.org/2000/svg" xmlns:xlink="http://www.w3.org/1999/xlink">
    <!-- Generator: Sketch 48.1 (47250) - http://www.bohemiancoding.com/sketch -->
    <title>nn</title>
    <desc>Created with Sketch.</desc>
    <defs></defs>
    <g id="Page-1" stroke="none" stroke-width="1" fill="none" fill-rule="evenodd">
        <g id="nn" fill-rule="nonzero">
            <path d="M2.10618,33.3889 C-2.22957,25.8162 0.343445,16.1331 7.85319,11.761 L24.4067,2.12382 C31.9164,-2.24824 41.5191,0.346311 45.8548,7.91896 L55.412,24.6111 C59.7477,32.1837 57.1747,41.8669 49.665,46.239 L33.1115,55.8762 C25.6018,60.2483 15.9991,57.6536 11.6634,50.0811 L2.10618,33.3889 Z" id="path0_fill" fill="#FFFFFF"></path>
            <path d="M15.43306,11.92037 C17.91672,10.882998 20.77554,11.4564088 22.6765,13.37322 L32.8523,23.6342 L37.9536,28.6194 C37.9536,28.6194 32.953,23.7334 32.8523,20.66561 C32.8,19.07072 32.8523,18.1124 32.8523,18.1124 C32.8523,14.41087 35.828,11.4101956 39.4989,11.4101956 C43.1697,11.4101956 46.1455,14.41087 46.1455,18.1124 L46.1455,39.8147 C46.1455,42.5256 44.5261,44.9694 42.0425,46.0067 C39.5588,47.0442 36.7,46.4707 34.799,44.5539 L24.6232,34.2929 L18.83923,28.6194 C18.83923,28.6194 24.6232,34.2929 24.6232,36.9423 C24.6232,38.219 24.6232,39.8147 24.6232,39.8147 C24.6232,43.5163 21.6474,46.5169 17.9766,46.5169 C14.30578,46.5169 11.33,43.5163 11.33,39.8147 L11.33,18.1124 C11.33,15.40161 12.9494,12.95774 15.43306,11.92037 Z" id="path1_fill" fill="#191919"></path>
            <polygon id="path2_fill" fill="#FFFFFF" points="86.4358 11.16 86.4358 27.2301 83.5207 27.2301 76.09006 17.44831 76.09006 27.2301 72.53 27.2301 72.53 11.16 75.82723 11.16 82.8757 20.72497 82.8757 11.16"></polygon>
            <path d="M93.85103,14.6299999 C97.62614,14.6299999 99.4897,17.11159 99.442,22.07478 L91.46173,22.07478 C91.76441,23.76127 92.88731,24.60451 94.83065,24.60451 C95.42,24.60451 95.99343,24.52428 96.55096,24.3636 C97.1244,24.1869 97.72965,23.96212 98.3668,23.68905 L98.3668,26.7729 C97.06066,27.3191 95.5952,27.5921 93.97055,27.5921 C92.74403,27.5921 91.66885,27.3431 90.74491,26.8453 C89.82107,26.3313 89.10425,25.6004 88.594547,24.6527 C88.084849,23.70507 87.83,22.58876 87.83,21.30379 C87.83,19.1836 88.347652,17.54526 89.38306,16.38879 C90.43438,15.216264 91.9237,14.6299999 93.85103,14.6299999 Z M93.70764,17.37661 C92.4334,17.37661 91.67681,18.17972 91.43787,19.78593 L95.90583,19.78593 C95.79437,18.91858 95.56338,18.30019 95.21298,17.93075 C94.87848,17.56133 94.37664,17.37661 93.70764,17.37661 Z" id="path3_fill" fill="#FFFFFF"></path>
            <polygon id="path4_fill" fill="#FFFFFF" points="118.3048 15.0400001 114.2908 27.2311 111.0652 27.2311 108.98657 20.38867 107.00346 27.2311 103.77792 27.2311 99.7400003 15.0400001 103.56284 15.0400001 105.68934 22.79794 107.69631 15.0400001 110.3246 15.0400001 112.4032 22.99077 114.5537 15.0400001"></polygon>
            <polygon id="path5_fill" fill="#FFFFFF" points="86.4358 31.1200006 86.4358 47.1901 83.5207 47.1901 76.09006 37.40827 76.09006 47.1901 72.53 47.1901 72.53 31.1200006 75.82723 31.1200006 82.8757 40.68498 82.8757 31.1200006"></polygon>
            <path d="M93.94658,47.5521 C91.90769,47.5521 90.37859,47.006 89.3592,45.9137 C88.339698,44.8215 87.83,43.19925 87.83,41.04696 C87.83,38.79821 88.331744,37.1599 89.33523,36.13194 C90.35473,35.103979 91.89178,34.5899995 93.94658,34.5899995 C96.00139,34.5899995 97.5465,35.120005 98.5818,36.18012 C99.6172,37.22411 100.1349,38.84639 100.1349,41.04696 C100.1349,43.16709 99.6013,44.7814 98.5341,45.8897 C97.46685,46.998 95.93765,47.5521 93.94658,47.5521 Z M93.94658,44.685 C94.8227,44.685 95.48374,44.37977 95.9297,43.76942 C96.37576,43.14305 96.59869,42.23549 96.59869,41.04696 C96.59869,39.74593 96.37576,38.82235 95.9297,38.27621 C95.49965,37.71405 94.83861,37.43297 93.94658,37.43297 C93.02274,37.43297 92.35375,37.71405 91.93961,38.27621 C91.54137,38.82235 91.34231,39.74593 91.34231,41.04696 C91.34231,42.28368 91.54933,43.19925 91.96347,43.79357 C92.39352,44.38788 93.05456,44.685 93.94658,44.685 Z" id="path6_fill" fill="#FFFFFF"></path>
            <path d="M107.08653,47.5526 C105.3185,47.5526 103.92473,47.135 102.90523,46.2998 C101.901744,45.4645 101.400001,44.21168 101.400001,42.54122 L101.400001,35.0000006 L104.96004,35.0000006 L104.96004,42.25213 C104.96004,43.02304 105.12728,43.60134 105.46178,43.9868 C105.81229,44.35623 106.36176,44.54095 107.1104,44.54095 C107.85903,44.54095 108.40066,44.35623 108.73515,43.9868 C109.08556,43.60134 109.26076,43.02304 109.26076,42.25213 L109.26076,35.0000006 L112.6058,35.0000006 L112.6058,42.54122 C112.6058,44.22771 112.12,45.4886 111.14831,46.3238 C110.19266,47.143 108.83866,47.5526 107.08653,47.5526 Z" id="path7_fill" fill="#FFFFFF"></path>
            <path d="M114.56,36.2783 C114.798941,36.06944 115.213083,35.83655 115.80243,35.579609 C116.40779,35.322566 117.07678,35.105798 117.80951,34.929094 C118.55815,34.7363648 119.27487,34.6399996 119.95987,34.6399996 C121.28194,34.6399996 122.19783,34.840742 122.70753,35.242332 L122.70753,37.86843 C122.07035,37.72388 121.15447,37.65155 119.95987,37.65155 C119.21123,37.65155 118.59792,37.69172 118.12004,37.77206 L118.12004,47.1925 L114.56,47.1925 L114.56,36.2783 Z" id="path8_fill" fill="#FFFFFF"></path>
            <path d="M123.579999,30.5700001 L127.25956,30.5700001 L127.25956,33.34075 L123.579999,33.34075 L123.579999,30.5700001 Z M123.651692,35.17178 L127.21173,35.17178 L127.2357,47.1943 L123.651692,47.1943 L123.651692,35.17178 Z" id="path9_fill" fill="#FFFFFF"></path>
            <path d="M132.81009,47.5535 C132.04554,47.5535 131.37655,47.4732 130.80311,47.3125 C130.22967,47.168 129.592502,46.9512 128.891694,46.662 L128.891694,43.50588 C130.18185,44.48566 131.53584,44.9755 132.95347,44.9755 C133.49509,44.9755 133.88527,44.8871 134.12421,44.71044 C134.37906,44.51771 134.50653,44.26078 134.50653,43.93953 C134.50653,43.57009 134.30747,43.29702 133.90923,43.12032 C133.511,42.94362 132.87383,42.75089 131.99782,42.54213 C131.07387,42.3494 130.30932,41.96384 129.70407,41.38565 C129.114725,40.80736 128.820001,39.96411 128.820001,38.85582 C128.820001,37.90819 129.05894,37.12916 129.536821,36.51881 C130.0146,35.90847 130.612,35.46671 131.32872,35.193747 C132.06145,34.904547 132.81804,34.7600002 133.5986,34.7600002 C134.55426,34.7600002 135.32687,34.8483521 135.91621,35.025056 C136.52146,35.185628 137.11091,35.442672 137.68424,35.79608 L137.68424,38.6149 C136.87197,38.16524 136.24275,37.84399 135.79679,37.65115 C135.35073,37.45842 134.83307,37.36206 134.24373,37.36206 C133.65438,37.36206 133.21627,37.45842 132.92961,37.65115 C132.64284,37.82785 132.49956,38.0849 132.49956,38.42217 C132.49956,38.82376 132.65885,39.12087 132.97733,39.3136 C133.29592,39.4903 133.80562,39.67502 134.50653,39.86775 C135.303,40.07661 135.93212,40.28536 136.39409,40.49422 C136.85596,40.68695 137.2701,41.03224 137.63652,41.5302 C138.00283,42.01202 138.18609,42.69469 138.18609,43.57811 C138.15417,44.9595 137.63652,45.9714 136.63303,46.6138 C135.62954,47.2403 134.3552,47.5535 132.81009,47.5535 Z" id="path10_fill" fill="#FFFFFF"></path>
            <path d="M146.56065,34.66127 C147.96238,34.66127 149.05357,35.01468 149.834,35.72139 C150.6146,36.4281 151.0048,37.58458 151.0048,39.19083 L151.0048,47.1897 L147.44472,47.1897 L147.44472,39.93771 C147.44472,38.39577 146.68018,37.62475 145.15098,37.62475 C144.78467,37.62475 144.41029,37.68095 144.02807,37.79344 C143.64575,37.90583 143.35102,38.04236 143.144,38.20294 L143.09617,47.1897 L139.559997,47.1897 L139.559997,30.1799995 L143.144,30.1799995 L143.144,35.5527 C144.24304,34.95848 145.38197,34.66127 146.56065,34.66127 Z" id="path11_fill" fill="#FFFFFF"></path>
        </g>
    </g>
</svg>