<?xml version="1.0" encoding="UTF-8"?>
<svg width="858px" height="868px" viewBox="0 0 858 868" version="1.1" xmlns="http://www.w3.org/2000/svg" xmlns:xlink="http://www.w3.org/1999/xlink">
    <!-- Generator: Sketch 43.1 (39012) - http://www.bohemiancoding.com/sketch -->
    <title>oval-06-1</title>
    <desc>Created with Sketch.</desc>
    <defs>
        <path d="M571,232.259571 C571,232.259571 613.751953,206.963935 645.857422,239.991279 C677.962891,273.018622 720.714844,246.529102 720.714844,246.529102" id="path-1"></path>
        <path d="M48.6655436,810.411897 C48.6655436,810.411897 69.0355167,798.359315 84.3327718,814.095815 C99.6300269,829.832314 120,817.210884 120,817.210884" id="path-2"></path>
    </defs>
    <g id="Page-1" stroke="none" stroke-width="1" fill="none" fill-rule="evenodd">
        <g id="oval-06-1" transform="translate(1.000000, -12.000000)">
            <path d="M798,564 C830.032515,564 856,538.032515 856,506 C856,473.967485 830.032515,448 798,448 C765.967485,448 740,473.967485 740,506 C740,516.482911 742.781068,526.316269 747.645648,534.802518 C750.274054,539.387767 740,564 740,564 C740,564 766.122697,554.816476 771.32743,557.516691 C779.312539,561.659365 788.382927,564 798,564 Z" id="Mask-Copy" stroke="#222222" stroke-width="2" fill="#FFFFFF"></path>
            <path d="M58,635 C90.0325155,635 116,609.032515 116,577 C116,544.967485 90.0325155,519 58,519 C25.9674845,519 0,544.967485 0,577 C0,587.482911 2.78106795,597.316269 7.64564767,605.802518 C10.2740543,610.387767 4.16541801e-14,635 4.16541801e-14,635 C4.16541801e-14,635 26.1226968,625.816476 31.3274296,628.516691 C39.3125386,632.659365 48.3829271,635 58,635 Z" id="Mask-Copy-8" stroke="#222222" stroke-width="2" fill="#FFFFFF" transform="translate(58.000000, 577.000000) scale(-1, 1) translate(-58.000000, -577.000000) "></path>
            <path d="M387.035203,129.035203 C419.067718,129.035203 445.035203,103.067718 445.035203,71.0352025 C445.035203,39.0026871 419.067718,13.0352025 387.035203,13.0352025 C355.002687,13.0352025 329.035203,39.0026871 329.035203,71.0352025 C329.035203,81.5181137 331.81627,91.3514716 336.68085,99.8377201 C339.309257,104.42297 329.035203,129.035203 329.035203,129.035203 C329.035203,129.035203 355.157899,119.851679 360.362632,122.551894 C368.347741,126.694568 377.41813,129.035203 387.035203,129.035203 Z" id="Mask-Copy-7" stroke="#222222" stroke-width="2" fill="#FFFFFF" transform="translate(387.035203, 71.035203) rotate(-75.000000) translate(-387.035203, -71.035203) "></path>
            <path d="M259.144537,804.144537 L213.144537,804.144537 L213.144537,833.144537 L259.144537,833.144537 L259.144537,879.144537 L288.144537,879.144537 L288.144537,833.144537 L334.144537,833.144537 L334.144537,804.144537 L288.144537,804.144537 L288.144537,758.144537 L259.144537,758.144537 L259.144537,804.144537 Z" id="Combined-Shape-Copy-3" stroke="#222222" stroke-width="2" fill="#FFFFFF" transform="translate(273.644537, 818.644537) rotate(-300.000000) translate(-273.644537, -818.644537) "></path>
            <path d="M322.923518,272.923518 L300.698966,272.923518 L300.698966,286.934649 L322.923518,286.934649 L322.923518,309.159201 L336.934649,309.159201 L336.934649,286.934649 L359.159201,286.934649 L359.159201,272.923518 L336.934649,272.923518 L336.934649,250.698966 L322.923518,250.698966 L322.923518,272.923518 Z" id="Combined-Shape-Copy-2" stroke="#222222" stroke-width="2" fill="#FFFFFF" transform="translate(329.929083, 279.929083) rotate(-300.000000) translate(-329.929083, -279.929083) "></path>
            <path d="M575,775 C585.49341,775 594,766.49341 594,756 C594,745.50659 585.49341,737 575,737 C572.55062,737 570.209493,737.463484 568.059537,738.307532 C565.91561,739.149214 556,734.694692 556,734.694692 C556,734.694692 559.232445,745.15955 558.183237,747.148891 C556.789153,749.79213 556,752.803907 556,756 C556,766.49341 564.50659,775 575,775 Z" id="Mask-Copy-6" stroke="#222222" stroke-width="2" fill="#FFFFFF"></path>
            <path d="M66.5,320 C68.1825205,320 69.7726116,319.604262 71.1822713,318.900789 C72.2250919,318.380383 77.6833295,321.036753 77.6833295,321.036753 C77.6833295,321.036753 75.3402002,315.266176 75.8274639,314.326406 C76.5767038,312.881372 77,311.240119 77,309.5 C77,303.70101 72.2989899,299 66.5,299 C60.7010101,299 56,303.70101 56,309.5 C56,315.29899 60.7010101,320 66.5,320 Z" id="Mask-Copy-5" stroke="#222222" stroke-width="2" fill="#FFFFFF"></path>
            <g id="Path-2-Copy-3" stroke-linecap="round" stroke-linejoin="round">
                <use stroke="#000000" stroke-width="35" xlink:href="#path-1"></use>
                <use stroke="#FFFFFF" stroke-width="31" xlink:href="#path-1"></use>
            </g>
        </g>
    </g>
</svg>