<svg width="137" height="100" viewBox="0 0 137 100" xmlns="http://www.w3.org/2000/svg"><title>sayme</title><g fill="#FFF" fill-rule="evenodd"><path d="M22.8 57.806c-3.82-2.842-7.447-3.234-9.7-3.234-3.04 0-5.783.637-8.086 2.99-1.96 2.008-2.842 4.458-2.842 7.35 0 1.567.245 3.87 1.96 5.683 1.274 1.372 3.038 2.058 4.557 2.597l2.694.93c.93.344 2.94 1.08 3.822 1.814.686.588 1.127 1.274 1.127 2.352 0 1.225-.54 2.107-1.176 2.646-1.078.93-2.45 1.127-3.43 1.127-1.52 0-2.842-.39-4.116-1.175-.88-.54-2.204-1.666-3.037-2.5l-3.92 5.39c1.225 1.226 3.136 2.745 4.802 3.578 2.058 1.03 4.116 1.372 6.468 1.372 2.156 0 6.37-.294 9.26-3.332 1.716-1.764 2.892-4.704 2.892-8.085 0-1.91-.49-4.263-2.4-6.076-1.275-1.225-3.04-1.96-4.46-2.5l-2.45-.93c-2.205-.833-3.332-1.127-4.116-1.862-.49-.44-.736-1.03-.736-1.813 0-.833.343-1.568.833-2.058.882-.98 2.156-1.128 3.185-1.128.93 0 3.038.147 5.488 2.352l3.38-5.488zm19.14 10.78c-2.01-2.744-5-3.185-6.86-3.185-3.04 0-5.685 1.08-7.596 2.99-2.01 2.01-3.38 5.145-3.38 8.82 0 2.89.88 5.733 3.184 8.183 2.4 2.548 5.047 3.332 8.183 3.332 1.814 0 4.558-.44 6.47-3.38v2.645h7.055V66.136H41.94v2.45zm-5.097 2.89c1.274 0 2.842.49 3.92 1.52 1.03.98 1.617 2.45 1.617 4.018 0 1.862-.784 3.234-1.715 4.116a5.226 5.226 0 0 1-3.675 1.52c-1.666 0-3.185-.687-4.165-1.716-.637-.686-1.47-1.96-1.47-3.92s.882-3.234 1.617-3.97c.93-.93 2.352-1.567 3.87-1.567zM51.08 99.212h7.94l17.59-33.074h-7.94l-6.025 11.858-6.174-11.858h-8.133l10.437 19.06-7.693 14.015zm25.067-11.22h7.056V76.818c0-.735.05-3.185 1.372-4.46.686-.636 1.52-.88 2.45-.88.735 0 1.617.146 2.352.88 1.078 1.08 1.127 2.794 1.127 4.264V87.99h7.056V77.112c0-1.42.147-3.136 1.078-4.312.588-.784 1.568-1.323 2.744-1.323 1.03 0 1.96.44 2.548 1.176.93 1.176.93 3.136.93 4.263V87.99h7.057V74.172c0-1.568-.147-4.508-2.254-6.517-1.323-1.274-3.48-2.058-6.125-2.058-1.715 0-3.136.294-4.655 1.225-1.42.882-2.254 1.91-2.793 2.793-.588-1.323-1.52-2.4-2.646-3.038-1.47-.882-3.185-.98-4.116-.98-1.666 0-4.312.343-6.125 3.087v-2.548h-7.056V87.99zm44.128-13.916c.196-.98.686-1.764 1.225-2.352.686-.686 1.764-1.42 3.577-1.42 1.42 0 2.548.49 3.332 1.224 1.028.98 1.37 2.352 1.42 2.548h-9.555zm16.072 3.48c0-2.696-.49-6.126-3.087-8.87-2.695-2.842-6.223-3.283-8.673-3.283s-5.733.49-8.38 3.137c-2.204 2.254-3.33 5.488-3.33 8.624 0 3.627 1.37 6.518 3.282 8.43 2.547 2.547 5.438 3.135 8.72 3.135 2.45 0 4.803-.343 6.91-1.617 1.274-.784 3.234-2.4 4.214-5.488l-6.664-.686c-.588 1.225-1.42 1.764-1.52 1.813-.734.44-1.812.637-2.84.637-1.08 0-2.55-.196-3.627-1.372-.882-.98-1.323-2.548-1.323-3.724h16.317v-.735zM67.88 39.1V25.277c-6.805-.52-11.604-5.743-11.604-12.716C56.276 5.246 61.57 0 68.85 0 76.126 0 81.42 5.246 81.42 12.562c0 6.973-5.233 12.195-12.038 12.716v13.82c0 .564-.203.892-.764.892-.56 0-.74-.328-.74-.89zm-6.623-22.33c0 3.94 3.72 7.02 7.638 7.02 6.16 0 11.17-5.037 11.17-11.228 0-6.19-5.01-11.227-11.17-11.227S57.727 6.37 57.727 12.562c0 2.705.956 5.19 2.548 7.13a9.18 9.18 0 0 1-.518-3.047c0-5.065 4.1-9.186 9.138-9.186 3.36 0 6.092 2.746 6.092 6.123 0 3.376-2.733 6.124-6.092 6.124a3.058 3.058 0 0 1-3.046-3.062 3.058 3.058 0 0 1 3.045-3.062c.56 0 .978.258.978.822 0 .563-.417.798-.978.798-.56 0-1.467.492-1.467 1.567s.907 1.29 1.467 1.29c2.24 0 4.553-2.224 4.553-4.477 0-2.252-2.435-4.553-4.675-4.553-3.92 0-7.516 3.8-7.516 7.74z"/></g></svg>