<svg width="258" height="170" viewBox="0 0 258 170" xmlns="http://www.w3.org/2000/svg"><title>skills</title><g fill="none" fill-rule="evenodd"><path fill="#191919" d="M0 0h258v170H0z"/><path d="M26.135 24.522L33.785 47h4.38l4.719-13.649L47.602 47h4.38l7.65-22.478h-5.391l-4.786 14.895-4.785-14.895h-3.572l-4.786 14.895-4.785-14.895h-5.392zm47.487 0H60.918V47h12.704v-4.381h-7.515v-4.988h7.145v-4.38h-7.145v-4.348h7.515v-4.38zm-26.155 32h-5.19V69.7c0 .977-.067 2.628-1.18 3.774-.91.977-2.156 1.18-3.133 1.18-.978 0-2.225-.203-3.135-1.18-1.112-1.146-1.18-2.797-1.18-3.774V56.522H28.46v13.312c0 2.156.27 4.819 2.494 7.11 2.157 2.224 4.65 2.561 7.01 2.561 2.359 0 4.852-.337 7.01-2.56 2.223-2.292 2.493-4.955 2.493-7.111V56.522zM56.267 79V64.442L68.467 79h4.515V56.522h-5.19v14.491l-12.2-14.49h-4.515V79h5.19zm20.325-22.478h7.111c2.966 0 6.1.438 8.863 3.1 1.988 1.921 3.235 4.55 3.235 8.055 0 3.538-1.213 6.1-3.066 7.953-3.1 3.134-6.976 3.37-8.863 3.37h-7.28V56.522zm5.19 4.381V74.62h1.382c1.078 0 3.437-.101 5.122-1.517 1.213-1.01 2.19-2.931 2.19-5.425 0-2.427-.977-3.977-1.853-4.853-1.685-1.685-3.875-1.92-5.46-1.92h-1.38zm29.29-4.38H98.367V79h12.705v-4.381h-7.515v-4.988h7.144v-4.38h-7.144v-4.348h7.515v-4.38zm2.902 0h7.886c2.865 0 4.65.943 5.729 1.954.944.91 1.955 2.527 1.955 5.021 0 1.415-.304 3.168-1.753 4.583a7.073 7.073 0 0 1-3.134 1.719l6.909 9.2h-6.336l-6.066-8.863V79h-5.19V56.522zm5.19 4.043v6.167h1.18c.943 0 2.224-.1 3.1-.977.37-.37.842-1.079.842-2.19 0-1.281-.606-1.955-1.044-2.292-.843-.64-2.19-.708-2.865-.708h-1.213zm27.874-2.325c-2.628-1.955-5.122-2.224-6.672-2.224-2.09 0-3.977.438-5.56 2.055-1.349 1.382-1.955 3.067-1.955 5.055 0 1.079.168 2.663 1.348 3.91.876.943 2.089 1.415 3.134 1.786l1.853.64c.64.236 2.022.741 2.629 1.247.472.404.775.876.775 1.617 0 .843-.37 1.45-.809 1.82-.741.64-1.685.775-2.359.775a5.222 5.222 0 0 1-2.83-.809c-.607-.37-1.517-1.145-2.09-1.718l-2.696 3.707c.842.842 2.157 1.887 3.302 2.46 1.416.708 2.831.944 4.449.944 1.483 0 4.38-.203 6.37-2.292 1.179-1.213 1.987-3.235 1.987-5.56 0-1.315-.337-2.933-1.65-4.18-.877-.842-2.09-1.347-3.068-1.718l-1.685-.64c-1.516-.573-2.291-.776-2.83-1.281-.337-.303-.506-.708-.506-1.247 0-.573.236-1.078.573-1.415.607-.674 1.483-.775 2.19-.775.64 0 2.09.1 3.775 1.617l2.325-3.774zm16.08 2.662h-4.887V79h-5.19V60.903h-4.886v-4.38h14.962v4.38zM178.017 79l-1.686-4.246h-8.492L166.12 79h-5.392l9.065-22.478h4.752L183.409 79h-5.392zm-8.662-8.223h5.56l-2.763-7.549-2.797 7.55zM189.816 79V64.442L202.016 79h4.516V56.522h-5.19v14.491l-12.2-14.49h-4.515V79h5.19zm20.326-22.478h7.11c2.966 0 6.1.438 8.864 3.1 1.988 1.921 3.235 4.55 3.235 8.055 0 3.538-1.213 6.1-3.067 7.953-3.1 3.134-6.976 3.37-8.863 3.37h-7.28V56.522zm5.19 4.381V74.62h1.381c1.079 0 3.438-.101 5.123-1.517 1.213-1.01 2.19-2.931 2.19-5.425 0-2.427-.977-3.977-1.853-4.853-1.685-1.685-3.876-1.92-5.46-1.92h-1.381zM28.46 88.523h7.11c2.966 0 6.1.437 8.864 3.1 1.988 1.92 3.235 4.549 3.235 8.054 0 3.538-1.213 6.1-3.067 7.953-3.1 3.134-6.975 3.37-8.863 3.37H28.46V88.522zm5.19 4.38v13.716h1.382c1.078 0 3.437-.101 5.122-1.516 1.213-1.011 2.19-2.932 2.19-5.426 0-2.427-.977-3.977-1.853-4.853-1.685-1.685-3.875-1.92-5.46-1.92H33.65zm16.686-4.38V111h5.19V88.522h-5.19zm19.719 14.389h5.425c-.438 1.651-1.449 2.527-1.617 2.662-.506.438-1.685 1.213-3.91 1.213-1.718 0-3.235-.404-4.55-1.752-.943-.944-1.886-2.595-1.886-5.156 0-2.09.674-4.01 1.92-5.325 1.079-1.145 2.596-1.82 4.651-1.82 1.28 0 2.427.338 3.438 1.079.876.64 1.55 1.55 1.988 2.426l4.684-2.527c-.809-1.416-2.123-3-3.64-4.01-2.089-1.382-4.448-1.685-6.301-1.685-2.663 0-6.066.404-8.83 3.268-1.887 1.921-3.235 4.853-3.235 8.527 0 4.482 1.988 7.211 3.303 8.56 2.628 2.695 5.527 3.133 8.223 3.133 2.662 0 5.526-.471 8.02-3.066 2.494-2.595 3.471-6.74 3.471-9.47v-.236H70.055v4.179zm13.82-14.39V111h5.19V88.522h-5.19zm21.674 4.381h-4.886V111h-5.19V92.903h-4.887v-4.38h14.963v4.38zM120.45 111l-1.685-4.246h-8.492l-1.72 4.246h-5.391l9.065-22.478h4.752L125.84 111h-5.392zm-8.661-8.223h5.56l-2.763-7.549-2.797 7.55zm15.27-14.255V111h12.166v-4.381h-6.976V88.522h-5.19zm-98.598 32h7.92c1.954 0 4.111.27 5.897 1.854 1.921 1.685 2.19 3.909 2.19 5.459 0 2.83-1.078 4.415-1.92 5.29-1.786 1.82-4.145 1.99-5.73 1.99H33.65V143h-5.19v-22.478zm5.19 4.246v6.1h1.853c.708 0 1.955-.034 2.798-.843.471-.471.842-1.246.842-2.224 0-.943-.337-1.718-.842-2.19-.776-.742-1.888-.843-2.899-.843H33.65zm12.777-4.246h7.885c2.865 0 4.65.944 5.73 1.955.943.91 1.954 2.527 1.954 5.021 0 1.415-.303 3.168-1.752 4.583a7.073 7.073 0 0 1-3.135 1.719l6.909 9.2h-6.336l-6.066-8.863V143h-5.19v-22.478zm5.19 4.044v6.167h1.179c.943 0 2.224-.1 3.1-.977.37-.37.843-1.078.843-2.19 0-1.281-.607-1.955-1.045-2.292-.842-.64-2.19-.708-2.864-.708h-1.214zm25.178-4.55c3.504 0 6.436 1.079 8.694 3.27 2.123 2.055 3.505 5.02 3.505 8.492 0 3-1.078 6.066-3.505 8.425-2.09 2.022-4.92 3.303-8.694 3.303-4.213 0-7.077-1.685-8.762-3.303-2.157-2.022-3.505-5.055-3.505-8.358 0-3.235 1.449-6.504 3.47-8.526 1.517-1.516 4.314-3.302 8.797-3.302zm-.034 4.786c-1.955 0-3.707.708-4.92 1.92-.978.945-1.989 2.596-1.989 5.09 0 2.055.674 3.707 2.056 5.055 1.45 1.381 3.067 1.853 4.82 1.853 2.29 0 3.908-.842 4.987-1.92.876-.843 1.954-2.427 1.954-5.022 0-2.325-.943-4.044-1.954-5.055-1.112-1.079-2.898-1.921-4.954-1.921zm14.798-4.28h7.111c2.966 0 6.1.438 8.863 3.1 1.989 1.921 3.235 4.55 3.235 8.055 0 3.538-1.213 6.1-3.066 7.953-3.1 3.134-6.976 3.37-8.863 3.37h-7.28v-22.478zm5.19 4.381v13.716h1.382c1.078 0 3.437-.101 5.122-1.517 1.214-1.01 2.19-2.931 2.19-5.425 0-2.427-.976-3.977-1.853-4.853-1.685-1.685-3.875-1.92-5.46-1.92h-1.38zm35.592-4.38h-5.19v13.176c0 .977-.067 2.628-1.18 3.774-.91.977-2.156 1.18-3.134 1.18-.977 0-2.224-.202-3.134-1.18-1.112-1.146-1.18-2.797-1.18-3.774v-13.177h-5.19v13.312c0 2.156.27 4.819 2.495 7.11 2.157 2.225 4.65 2.562 7.01 2.562 2.358 0 4.852-.338 7.009-2.562 2.224-2.291 2.494-4.954 2.494-7.11v-13.312zm19.853 15.804c-1.988 1.955-3.808 2.326-5.156 2.326-2.763 0-4.38-1.416-4.853-1.887-1.01-.978-1.954-2.63-1.954-4.954 0-2.157.876-3.977 2.123-5.19 1.18-1.146 2.696-1.753 4.583-1.753 2.393 0 4.112 1.18 5.257 2.393v-5.999c-2.19-.943-3.909-1.246-5.392-1.246-3.504 0-6.403 1.314-8.391 3.235-2.022 1.954-3.505 4.92-3.505 8.459 0 3.605 1.483 6.571 3.505 8.526 1.887 1.853 4.684 3.269 8.83 3.269 1.347 0 2.965-.203 4.953-1.214v-5.965zm15.608-11.424h-4.887V143h-5.19v-18.097h-4.886v-4.38h14.963v4.38zm14.394-2.662l-2.325 3.774c-1.685-1.516-3.134-1.617-3.775-1.617-.707 0-1.584.1-2.19.775a2.01 2.01 0 0 0-.573 1.415c0 .54.168.944.505 1.247.54.505 1.315.708 2.831 1.28l1.685.64c.977.372 2.19.877 3.067 1.72 1.314 1.246 1.651 2.864 1.651 4.178 0 2.326-.809 4.348-1.988 5.56-1.988 2.09-4.887 2.293-6.37 2.293-1.617 0-3.032-.236-4.448-.944-1.146-.573-2.46-1.618-3.302-2.46l2.696-3.707c.572.573 1.482 1.348 2.089 1.718.876.54 1.786.81 2.83.81.675 0 1.618-.136 2.36-.776.438-.37.809-.977.809-1.82 0-.741-.304-1.213-.776-1.617-.606-.506-1.988-1.011-2.628-1.247l-1.854-.64c-1.044-.371-2.258-.843-3.134-1.787-1.18-1.246-1.348-2.83-1.348-3.909 0-1.988.607-3.673 1.955-5.055 1.584-1.617 3.47-2.055 5.56-2.055 1.55 0 4.044.27 6.673 2.224z" fill="#FFF"/></g></svg>