<?xml version="1.0" encoding="UTF-8"?>
<svg width="155px" height="101px" viewBox="0 0 155 101" version="1.1" xmlns="http://www.w3.org/2000/svg" xmlns:xlink="http://www.w3.org/1999/xlink">
    <!-- Generator: Sketch 47.1 (45422) - http://www.bohemiancoding.com/sketch -->
    <title>Group 4</title>
    <desc>Created with Sketch.</desc>
    <defs>
        <path d="M23.6554302,47.1834928 C36.9598171,47.1834928 47.7451536,36.5404628 47.7451536,23.41162 C47.7451536,12.3649537 40.1095519,3.07814692 29.7624249,0.410305659 C28.7786846,0.156663943 29.7624249,10.3494711 19.7264647,20.275765 C9.69050453,30.2020589 0.353020783,29.5813623 0.726546331,30.7229133 C3.85190245,40.2744775 12.9360347,47.1834928 23.6554302,47.1834928 Z" id="path-1"></path>
    </defs>
    <g id="Process" stroke="none" stroke-width="1" fill="none" fill-rule="evenodd">
        <g id="Portfolio" transform="translate(-884.000000, -812.000000)">
            <g id="Group-Copy" transform="translate(750.000000, 660.000000)">
                <g id="Group-4" transform="translate(134.000000, 153.000000)">
                    <path d="M6.87952634,94 L6.87952634,77.18 L0.441526341,77.18 L0.441526341,73.7 L17.1455263,73.7 L17.1455263,77.18 L10.7075263,77.18 L10.7075263,94 L6.87952634,94 Z M29.0126316,88.113 L17.8476316,88.113 C18.0796316,89.882 19.6166316,91.158 22.1106316,91.158 C23.4156316,91.158 25.1266316,90.665 25.9386316,89.824 L28.2006316,92.057 C26.6926316,93.623 24.2276316,94.377 22.0526316,94.377 C17.1226316,94.377 14.1936316,91.332 14.1936316,86.75 C14.1936316,82.4 17.1516316,79.268 21.7916316,79.268 C26.5766316,79.268 29.5636316,82.226 29.0126316,88.113 Z M17.9056316,85.184 L25.6196316,85.184 C25.3876316,83.328 23.9376316,82.4 21.9076316,82.4 C19.9936316,82.4 18.4276316,83.328 17.9056316,85.184 Z M42.5037369,81.675 L42.6197369,79.703 L46.0127369,79.703 L46.0127369,94 L42.6777369,94 L42.5037369,91.912 C41.6917369,93.594 39.4587369,94.406 37.8637369,94.435 C33.6297369,94.464 30.4977369,91.854 30.4977369,86.837 C30.4977369,81.907 33.7747369,79.326 37.9507369,79.355 C39.8647369,79.355 41.6917369,80.254 42.5037369,81.675 Z M38.2697369,82.516 C35.9207369,82.516 34.0357369,84.111 34.0357369,86.837 C34.0357369,89.563 35.9207369,91.187 38.2697369,91.187 C43.8377369,91.187 43.8377369,82.516 38.2697369,82.516 Z M61.5918421,94 L61.5918421,86.344 C61.5918421,84.459 62.7808421,82.806 64.6948421,82.806 C66.6088421,82.806 67.3918421,84.401 67.3918421,86.286 L67.3918421,94 L70.9298421,94 L70.9298421,86.286 C70.9298421,81.994 68.9288421,79.5 64.8688421,79.5 C63.0128421,79.5 61.3598421,80.08 60.0838421,82.11 C59.2718421,80.138 57.5608421,79.442 55.8498421,79.442 C54.4868421,79.442 52.8338421,79.964 52.0798421,81.414 L51.8188421,79.674 L48.5418421,79.674 L48.5418421,94 L52.0798421,94 L52.0798421,86.344 C52.0798421,84.459 53.2108421,82.748 55.1248421,82.748 C57.0678421,82.748 58.0538421,84.459 58.0538421,86.344 L58.0538421,94 L61.5918421,94 Z M81.6949474,90.926 C84.1019474,90.926 85.7549474,89.099 85.7549474,86.866 C85.7549474,84.633 84.2469474,82.806 81.6949474,82.806 C79.1429474,82.806 77.6349474,84.633 77.6349474,86.866 C77.6349474,89.099 79.2879474,90.926 81.6949474,90.926 Z M77.3159474,99.974 L73.7779474,99.974 L73.7779474,79.703 L77.0839474,79.703 L77.3159474,81.675 C78.4179474,80.08 80.3319474,79.384 81.9559474,79.384 C86.3639474,79.384 89.2929474,82.661 89.2929474,86.866 C89.2929474,91.042 86.6539474,94.348 82.0719474,94.348 C80.5639474,94.348 78.3309474,93.884 77.3159474,92.318 L77.3159474,99.974 Z M102.668053,81.675 L102.784053,79.703 L106.177053,79.703 L106.177053,94 L102.842053,94 L102.668053,91.912 C101.856053,93.594 99.6230526,94.406 98.0280526,94.435 C93.7940526,94.464 90.6620526,91.854 90.6620526,86.837 C90.6620526,81.907 93.9390526,79.326 98.1150526,79.355 C100.029053,79.355 101.856053,80.254 102.668053,81.675 Z M98.4340526,82.516 C96.0850526,82.516 94.2000526,84.111 94.2000526,86.837 C94.2000526,89.563 96.0850526,91.187 98.4340526,91.187 C104.002053,91.187 104.002053,82.516 98.4340526,82.516 Z M116.623158,90.926 C119.030158,90.926 120.683158,89.099 120.683158,86.866 C120.683158,84.633 119.175158,82.806 116.623158,82.806 C114.071158,82.806 112.563158,84.633 112.563158,86.866 C112.563158,89.099 114.216158,90.926 116.623158,90.926 Z M112.244158,99.974 L108.706158,99.974 L108.706158,79.703 L112.012158,79.703 L112.244158,81.675 C113.346158,80.08 115.260158,79.384 116.884158,79.384 C121.292158,79.384 124.221158,82.661 124.221158,86.866 C124.221158,91.042 121.582158,94.348 117.000158,94.348 C115.492158,94.348 113.259158,93.884 112.244158,92.318 L112.244158,99.974 Z M140.554263,88.113 L129.389263,88.113 C129.621263,89.882 131.158263,91.158 133.652263,91.158 C134.957263,91.158 136.668263,90.665 137.480263,89.824 L139.742263,92.057 C138.234263,93.623 135.769263,94.377 133.594263,94.377 C128.664263,94.377 125.735263,91.332 125.735263,86.75 C125.735263,82.4 128.693263,79.268 133.333263,79.268 C138.118263,79.268 141.105263,82.226 140.554263,88.113 Z M129.447263,85.184 L137.161263,85.184 C136.929263,83.328 135.479263,82.4 133.449263,82.4 C131.535263,82.4 129.969263,83.328 129.447263,85.184 Z M142.822368,79.703 L142.822368,94 L146.360368,94 L146.360368,86.46 C146.360368,83.821 148.071368,82.835 149.927368,82.835 C151.087368,82.835 151.754368,83.154 152.479368,83.763 L154.074368,80.689 C153.291368,79.906 151.870368,79.326 150.391368,79.326 C148.941368,79.326 147.462368,79.587 146.360368,81.356 L146.099368,79.703 L142.822368,79.703 Z" id="Teampaper" fill="#FFFFFF"></path>
                    <g id="Group-Copy-4" transform="translate(53.000000, 0.000000)">
                        <ellipse id="Oval" fill="#191919" cx="26.322884" cy="48.775" rx="19.6206897" ry="1.225"></ellipse>
                        <mask id="mask-2" fill="white">
                            <use xlink:href="#path-1"></use>
                        </mask>
                        <g id="Mask">
                            <use fill="#FFFFFF" fill-rule="evenodd" xlink:href="#path-1"></use>
                            <path stroke="#FFFFFF" stroke-width="1" d="M23.6554302,47.6834928 C12.909252,47.6834928 3.50339734,40.8171915 0.25133879,30.8784054 C0.0849419824,30.3698714 0.399289559,30.0614297 0.951030968,29.8406487 C0.840770984,29.8847696 5.50048588,28.6338209 7.73349221,27.7305207 C11.7613342,26.1011701 15.6339537,23.6203018 19.3748589,19.9202746 C19.6195731,19.6782345 19.8591994,19.4344989 20.0937994,19.189097 C23.5057878,15.6200092 25.7624591,11.8282817 27.1804389,7.8436114 C27.6940438,6.40032837 28.0679129,5.02222649 28.3795279,3.54895516 C28.4808802,3.06977594 28.8366261,1.18206167 28.9214051,0.852475191 C29.1049745,0.138831995 29.3202287,-0.220059769 29.8872593,-0.0738599943 C40.6209216,2.69364322 48.2451536,12.3028614 48.2451536,23.41162 C48.2451536,36.8181027 37.2344838,47.6834928 23.6554302,47.6834928 Z"></path>
                        </g>
                        <path d="M15.4914485,42.694492 C28.7958354,42.694492 39.5811719,32.051462 39.5811719,18.9226192 C39.5811719,7.8759529 31.9455702,-1.41085387 21.5984432,-4.07869513 C20.6147029,-4.33233685 21.5984432,5.86047028 11.562483,15.7867642 C1.52652282,25.7130581 -7.81096092,25.0923615 -7.43743538,26.2339125 C-4.31207926,35.7854767 4.77205295,42.694492 15.4914485,42.694492 Z" id="Mask-Copy-4" fill="#191919" mask="url(#mask-2)"></path>
                        <path d="M22.5062064,25.8515781 C22.5062064,25.8515781 20.481324,25.0229419 22.2263697,23.3659738 C22.2263697,23.3659738 23.2306349,22.4887256 24.8275862,22.05 C24.8275862,22.05 24.4818269,26.2903037 22.5062064,25.8515781 Z" id="Fill-3" fill="#FFFFFF" mask="url(#mask-2)"></path>
                    </g>
                </g>
            </g>
        </g>
    </g>
</svg>