<?xml version="1.0" encoding="UTF-8"?>
<svg width="113px" height="91px" viewBox="0 0 113 91" version="1.1" xmlns="http://www.w3.org/2000/svg" xmlns:xlink="http://www.w3.org/1999/xlink">
    <!-- Generator: Sketch 46.2 (44496) - http://www.bohemiancoding.com/sketch -->
    <title>unight</title>
    <desc>Created with Sketch.</desc>
    <defs></defs>
    <g id="Page-1" stroke="none" stroke-width="1" fill="none" fill-rule="evenodd">
        <g id="unight" fill="#222222">
            <path d="M2.14398841,70.6599225 C2.14398841,70.4104163 2.0799894,70.2260015 1.95198945,70.1066724 C1.8239895,69.9873434 1.64799221,69.9276797 1.42399231,69.9276797 L0,69.9276797 L0,67.0637968 L3.3119821,67.0637968 C4.04798181,67.0637968 4.58130692,67.2319398 4.91197346,67.5682307 C5.24263999,67.9045217 5.40797078,68.4469183 5.40797078,69.1954369 L5.40797078,82.2293586 C5.40797078,83.1080543 5.54130206,83.8972414 5.80796862,84.5969436 C6.07463517,85.2966458 6.44796276,85.8878581 6.92796256,86.3705984 C7.40796237,86.8533386 7.98928675,87.2221683 8.67195314,87.4770986 C9.35461953,87.7320288 10.1119412,87.859492 10.9439409,87.859492 C11.7759405,87.859492 12.5332622,87.7320288 13.2159286,87.4770986 C13.898595,87.2221683 14.482586,86.8506266 14.9679191,86.3624623 C15.4532523,85.874298 15.8292465,85.2803737 16.095913,84.5806715 C16.3625796,83.8809694 16.4959109,83.0863583 16.4959109,82.1968145 L16.4959109,69.1954369 C16.4959109,68.4469183 16.4959109,67.4753173 16.4959109,67.0637968 C16.9571151,67.0659238 19.0238935,67.0637968 19.7598932,67.0637968 C19.7598932,69.2948765 19.7598932,70.493585 19.7598932,70.6599225 L19.7598932,82.3595351 C19.7598932,83.6504585 19.5492298,84.8247472 19.1278966,85.8824365 C18.7065635,86.9401258 18.111906,87.8486402 17.3439063,88.6080069 C16.5759066,89.3673736 15.6532541,89.9558739 14.5759212,90.3735256 C13.4985883,90.7911773 12.3039401,91 10.9919406,91 C9.65860781,91 8.45062641,90.7911773 7.36796019,90.3735256 C6.28529396,89.9558739 5.35464162,89.3673736 4.57597527,88.6080069 C3.79730892,87.8486402 3.19731816,86.9401258 2.775985,85.8824365 C2.35465184,84.8247472 2.14398841,83.6504585 2.14398841,82.3595351 L2.14398841,70.6599225 Z M19.7598932,67.0637968 L29.9518381,81.9690056 C30.1651714,82.2836004 30.3865013,82.6280222 30.6158346,83.0022815 C30.8451678,83.3765408 31.0558312,83.7209627 31.2478311,84.0355575 C31.4611644,84.4043927 31.6744944,84.7786464 31.8878277,85.1583297 L31.9518273,85.1583297 C31.9091607,84.7894945 31.8718279,84.4206648 31.8398279,84.0518295 C31.807828,83.7372348 31.7811617,83.3955249 31.7598284,83.0266896 C31.7384951,82.6578544 31.7278286,82.3052966 31.7278286,81.9690056 L31.7278286,69.1954369 C31.7278286,68.4469183 31.8931593,67.9045217 32.2238259,67.5682307 C32.5544924,67.2319398 33.098484,67.0637968 33.8558171,67.0637968 L37.1357993,67.0637968 L37.1357993,69.9276797 L35.7278069,69.9276797 C35.2478071,69.9276797 35.0078108,70.1717582 35.0078108,70.6599225 L35.0078108,90.5931985 L32.0478268,90.5931985 L21.7278826,75.7042617 C21.5145493,75.389667 21.295886,75.0452451 21.0718861,74.6709858 C20.8478862,74.2967265 20.6452227,73.9468807 20.4638894,73.6214378 C20.2505562,73.2526025 20.0425594,72.8783489 19.8398928,72.4986655 L19.7598932,72.4986655 C19.7812265,72.7517877 19.7812265,70.9401648 19.7598932,67.0637968 Z M41.0315745,70.6599225 C41.0315745,70.1717582 40.7915782,69.9276797 40.3115784,69.9276797 L38.9675857,69.9276797 L38.9675857,67.0703056 L42.0875688,67.0703056 C42.8235685,67.0703056 43.3568936,67.2384486 43.6875602,67.5747396 C44.0182267,67.9110305 44.1835575,68.4534272 44.1835575,69.2019458 L44.1835575,87.0947051 C44.1835575,87.5828694 44.4235538,87.8269479 44.9035536,87.8269479 L46.2475463,87.8269479 L46.2475463,90.5931985 L43.1275632,90.5931985 C42.3915635,90.5931985 41.8582384,90.4250555 41.5275718,90.0887645 C41.1969053,89.7524736 41.0315745,89.2100769 41.0315745,88.4615583 L41.0315745,70.6599225 Z M47.9429553,78.7308653 C47.9429553,77.6026633 48.0789532,76.520582 48.3509531,75.4845889 C48.622953,74.4485958 49.0042804,73.4858417 49.4949469,72.5962979 C49.9856134,71.7067541 50.5829375,70.8958711 51.2869372,70.1636246 C51.9909369,69.4313782 52.7749249,68.807622 53.6389245,68.2923375 C54.5029242,67.777053 55.4362431,67.3783914 56.4389094,67.0963409 C57.4415757,66.8142905 58.4975594,66.6732673 59.6068923,66.6732673 C60.3002253,66.6732673 60.9482153,66.7139471 61.5508818,66.7953078 C62.1535482,66.8766685 62.7135396,66.9878598 63.2308727,67.1288851 C63.7482058,67.2699103 64.2228652,67.4272053 64.654865,67.6007749 C65.0868648,67.7743444 65.4735255,67.9479113 65.8148587,68.1214808 C66.6255251,68.5554047 67.3081812,69.0381377 67.8628477,69.5696944 L65.9908578,71.9942316 C65.4895246,71.582004 64.9135335,71.2077503 64.2628671,70.8714593 C63.7082007,70.5894088 63.0442109,70.3290584 62.2708779,70.0904003 C61.4975449,69.8517422 60.6308915,69.732415 59.6708919,69.732415 C58.5188924,69.732415 57.4362424,69.9547976 56.4229095,70.3995695 C55.4095766,70.8443414 54.5269235,71.4653856 53.7749238,72.2627206 C53.0229241,73.0600556 52.4309332,74.0092498 51.9989334,75.1103315 C51.5669336,76.2114132 51.3509369,77.4182457 51.3509369,78.7308653 C51.3509369,80.0977253 51.5669336,81.3425256 51.9989334,82.4653035 C52.4309332,83.5880814 53.0255907,84.5481234 53.7829237,85.3454585 C54.5402568,86.1427935 55.4282431,86.7611257 56.4469093,87.2004735 C57.4655756,87.6398214 58.5615587,87.859492 59.7348916,87.859492 C60.2468914,87.859492 60.7348839,87.8188123 61.1988837,87.7374516 C61.6628835,87.6560909 62.0975435,87.5448995 62.5028766,87.4038743 C62.9082098,87.2628491 63.284204,87.105554 63.6308705,86.9319845 C63.9775371,86.758415 64.2948655,86.5794241 64.5828654,86.3950065 C65.2441985,85.9610826 65.8255228,85.4729257 66.326856,84.9305209 L66.326856,82.5547998 C66.326856,82.3269898 66.2628569,82.1479989 66.134857,82.0178218 C66.006857,81.8876446 65.8308598,81.822557 65.6068599,81.822557 L64.1828675,81.822557 L64.1828675,78.9586741 L67.238851,78.9586741 C67.9748507,78.9586741 68.5081759,79.1268171 68.8388424,79.463108 C69.1695089,79.799399 69.3348397,80.3417957 69.3348397,81.0903142 L69.3348397,90.5931985 L66.4548553,90.5931985 L66.4548553,88.7625915 C66.4548553,88.6378384 66.4601885,88.5266471 66.4708552,88.4290142 C66.4708552,88.3096852 66.4761884,88.2066298 66.4868551,88.119845 C65.900189,88.6622498 65.2761986,89.1449828 64.5508656,89.5680585 C63.9321991,89.9260457 63.1748775,90.2541957 62.2788778,90.5525183 C61.3828782,90.8508409 60.358894,91 59.2068944,91 C58.1828948,91 57.1935768,90.8671128 56.2389105,90.6013345 C55.2842442,90.3355561 54.388258,89.9504545 53.550925,89.4460181 C52.713592,88.9415816 51.9509371,88.3286734 51.2629374,87.6072751 C50.5749376,86.8858767 49.9856134,86.0722818 49.4949469,85.1664658 C49.0042804,84.2606498 48.622953,83.265352 48.3509531,82.1805424 C48.0789532,81.0957328 47.9429553,79.945852 47.9429553,78.7308653 Z M73.8782333,70.6599225 C73.8782333,70.3344796 73.8782333,69.1357711 73.8782333,67.0637968 C74.614233,67.0637968 76.6017843,67.0650198 77.1582156,67.0637968 C77.1539029,67.5031425 77.1582156,68.4469183 77.1582156,69.1954369 L77.1582156,77.4291003 L88.918152,77.4291003 L88.918152,69.1954369 C88.918152,68.4469183 89.0834828,67.9045217 89.4141493,67.5682307 C89.7448159,67.2319398 90.278141,67.0637968 91.0141407,67.0637968 L94.3261228,67.0637968 L94.3261228,69.9276797 L92.9181304,69.9276797 C92.4381306,69.9276797 92.1981343,70.1717582 92.1981343,70.6599225 L92.1981343,90.5931985 L88.918152,90.5931985 L88.918152,80.2604391 L77.1582156,80.2604391 L77.1582156,90.5931985 L73.8782333,90.5931985 L73.8782333,70.6599225 Z M101.432063,69.9276797 L96.7760877,69.9276797 C96.7760877,69.5054122 96.7760877,67.5579712 96.7760877,67.0637968 L111.032011,67.0637968 C111.76801,67.0637968 112.280002,67.2102439 112.568002,67.5031425 C112.856002,67.7960411 113,68.3167418 113,69.0652604 L113,72.1569522 L110.088016,72.1569522 L110.088016,70.6599225 C110.088016,70.1717582 109.842686,69.9276797 109.35202,69.9276797 L104.712045,69.9276797 L104.712045,90.5931985 L101.432063,90.5931985 L101.432063,69.9276797 Z" id="UNiGHT"></path>
            <path d="M40.3571429,25.2020604 C43.7998378,32.2354899 50.7770058,38.8558962 55.8994692,42.3465347 C62.5935529,37.5362449 73.5396825,26.7824202 73.5396825,17.1947044 C73.5396825,8.42340006 66.9296472,1.17143646 58.344361,1.18043075e-12 C60.9786974,2.82054093 62.5905846,6.60545607 62.5905846,10.7662473 C62.5905846,19.4869029 55.5098051,26.556391 46.775221,26.556391 C44.4903062,26.556391 42.3185636,26.0726159 40.3571429,25.2020604 Z" id="Oval"></path>
        </g>
    </g>
</svg>