<?xml version="1.0" encoding="UTF-8"?>
<svg width="158px" height="66px" viewBox="0 0 158 66" version="1.1" xmlns="http://www.w3.org/2000/svg" xmlns:xlink="http://www.w3.org/1999/xlink">
    <!-- Generator: Sketch 47.1 (45422) - http://www.bohemiancoding.com/sketch -->
    <title>Group</title>
    <desc>Created with Sketch.</desc>
    <defs></defs>
    <g id="Page-1" stroke="none" stroke-width="1" fill="none" fill-rule="evenodd">
        <g id="Group" fill="#191919">
            <polygon id="Fill-22" points="30.2301481 27.8383171 30.2293472 27.8383171 16.3212685 13.9211707 30.2045185 0 16.2868287 0 2.40277778 13.9276098 9.36762963 20.915561 16.3188657 27.8383171 23.2741065 34.8013171"></polygon>
            <polygon id="Fill-23" points="39.5300871 20.8772695 32.600476 13.8828793 25.6220084 6.91987927 18.7756936 13.8828793 32.600476 27.7718549 32.5740455 27.7960012 32.5756473 27.7968061 18.6883927 41.775928 32.6068834 41.7767329 39.5380964 34.8402939 46.494939 27.8563671"></polygon>
            <path d="M2.89855093,50.4360732 C2.51250463,50.4360732 2.21055556,50.5946341 1.99430556,50.9133659 C1.77725463,51.2312927 1.66912963,51.6699512 1.66912963,52.2285366 C1.66912963,53.3915854 2.10883796,53.9727073 2.98905556,53.9727073 C3.25496296,53.9727073 3.51286111,53.934878 3.76194907,53.8608293 C4.01103704,53.7859756 4.26172685,53.697439 4.51401852,53.5928049 L4.51401852,54.971561 C4.01263889,55.1953171 3.44558333,55.3063902 2.81205093,55.3063902 C1.90540278,55.3063902 1.20939815,55.0423902 0.725638889,54.5135854 C0.24187963,53.9847805 0,53.2201463 0,52.2204878 C0,51.5959024 0.117736111,51.0461707 0.351606481,50.5720976 C0.586277778,50.0980244 0.923467593,49.7342195 1.36317593,49.4790732 C1.80288426,49.2247317 2.32028241,49.097561 2.91537037,49.097561 C3.5649213,49.097561 4.18563889,49.2392195 4.77752315,49.5225366 L4.28014815,50.807122 C4.05749074,50.7032927 3.83563426,50.6147561 3.61377778,50.543122 C3.3919213,50.4714878 3.15324537,50.4360732 2.89855093,50.4360732 Z" id="Fill-24"></path>
            <path d="M9.71967643,53.3899756 C9.71967643,53.7642439 9.62516717,54.0974634 9.43614865,54.3872195 C9.24713014,54.6785854 8.9740144,54.9039512 8.61760236,55.0649268 C8.26199125,55.2267073 7.84390791,55.3071951 7.36415328,55.3071951 C6.96369032,55.3071951 6.62810236,55.2790244 6.35658847,55.221878 C6.08587551,55.1655366 5.80314865,55.0673415 5.51000977,54.9264878 L5.51000977,53.472878 C5.8199681,53.6322439 6.14194032,53.757 6.47592643,53.8463415 C6.81071347,53.9356829 7.1174681,53.9807561 7.39699125,53.9807561 C7.63806995,53.9807561 7.81507458,53.9389024 7.92720421,53.8551951 C8.03933384,53.7706829 8.09619958,53.6628293 8.09619958,53.5300244 C8.09619958,53.4479268 8.07297273,53.3754878 8.02812088,53.3135122 C7.9824681,53.2515366 7.91038477,53.1887561 7.81026902,53.1259756 C7.71015328,53.0623902 7.44344495,52.9328049 7.01014402,52.7372195 C6.61849125,52.5585366 6.32455143,52.3846829 6.12912551,52.2164634 C5.93289865,52.0490488 5.78713014,51.855878 5.6934218,51.638561 C5.59811162,51.420439 5.55085699,51.1636829 5.55085699,50.865878 C5.55085699,50.3097073 5.75269032,49.875878 6.15555606,49.5643902 C6.5584218,49.2529024 7.11186162,49.097561 7.81587551,49.097561 C8.43819495,49.097561 9.07252828,49.242439 9.71967643,49.5313902 L9.22230143,50.7910244 C8.66005143,50.5326585 8.17549125,50.4030732 7.76701902,50.4030732 C7.55557458,50.4030732 7.40259773,50.4400976 7.30648662,50.5149512 C7.21037551,50.589 7.16231995,50.681561 7.16231995,50.7910244 C7.16231995,50.9101463 7.22319032,51.0155854 7.34573199,51.1097561 C7.46747273,51.203122 7.79825514,51.3737561 8.33807921,51.6216585 C8.85627828,51.855878 9.21589402,52.107 9.41772736,52.3758293 C9.61875977,52.6438537 9.71967643,52.9827073 9.71967643,53.3899756" id="Fill-26"></path>
            <path d="M14.6217037,53.3899756 C14.6217037,53.7642439 14.5271944,54.0974634 14.3381759,54.3872195 C14.1491574,54.6785854 13.8760417,54.9039512 13.5196296,55.0649268 C13.1640185,55.2267073 12.7459352,55.3071951 12.2661806,55.3071951 C11.8657176,55.3071951 11.5301296,55.2790244 11.2586157,55.221878 C10.9879028,55.1655366 10.7051759,55.0673415 10.412037,54.9264878 L10.412037,53.472878 C10.7219954,53.6322439 11.0439676,53.757 11.3779537,53.8463415 C11.7127407,53.9356829 12.0194954,53.9807561 12.2990185,53.9807561 C12.5400972,53.9807561 12.7171019,53.9389024 12.8292315,53.8551951 C12.9413611,53.7706829 12.9982269,53.6628293 12.9982269,53.5300244 C12.9982269,53.4479268 12.975,53.3754878 12.9301481,53.3135122 C12.8844954,53.2515366 12.812412,53.1887561 12.7122963,53.1259756 C12.6121806,53.0623902 12.3454722,52.9328049 11.9121713,52.7372195 C11.5205185,52.5585366 11.2265787,52.3846829 11.0311528,52.2164634 C10.8349259,52.0490488 10.6891574,51.855878 10.5954491,51.638561 C10.5001389,51.420439 10.4528843,51.1636829 10.4528843,50.865878 C10.4528843,50.3097073 10.6547176,49.875878 11.0575833,49.5643902 C11.4604491,49.2529024 12.0138889,49.097561 12.7179028,49.097561 C13.3402222,49.097561 13.9745556,49.242439 14.6217037,49.5313902 L14.1243287,50.7910244 C13.5620787,50.5326585 13.0775185,50.4030732 12.6690463,50.4030732 C12.4576019,50.4030732 12.304625,50.4400976 12.2085139,50.5149512 C12.1124028,50.589 12.0643472,50.681561 12.0643472,50.7910244 C12.0643472,50.9101463 12.1252176,51.0155854 12.2477593,51.1097561 C12.3695,51.203122 12.7002824,51.3737561 13.2401065,51.6216585 C13.7583056,51.855878 14.1179213,52.107 14.3197546,52.3758293 C14.520787,52.6438537 14.6217037,52.9827073 14.6217037,53.3899756" id="Fill-28"></path>
            <path d="M21.0363194,52.047439 C21.0363194,51.4936829 20.9273935,51.0831951 20.7095417,50.8159756 C20.4916898,50.5487561 20.1609074,50.4159512 19.7163935,50.4159512 L19.2438472,50.4159512 L19.2438472,53.7988537 L19.6058657,53.7988537 C20.0992361,53.7988537 20.4604537,53.6555854 20.6911204,53.367439 C20.9209861,53.0800976 21.0363194,52.6398293 21.0363194,52.047439 M22.7214676,51.9894878 C22.7214676,52.998 22.4459491,53.7747073 21.8933102,54.3196098 C21.3414722,54.8653171 20.5645741,55.1373659 19.5642176,55.1373659 L17.6203704,55.1373659 L17.6203704,49.097561 L19.700375,49.097561 C20.6646898,49.097561 21.4095509,49.3454634 21.9341574,49.8412683 C22.4595648,50.3370732 22.7214676,51.0534146 22.7214676,51.9894878" id="Fill-30"></path>
            <polygon id="Fill-32" points="26.7949769 55.1373659 23.2268519 55.1373659 23.2268519 49.097561 26.7949769 49.097561 26.7949769 50.4070976 24.8503287 50.4070976 24.8503287 51.3576585 26.6508102 51.3576585 26.6508102 52.6671951 24.8503287 52.6671951 24.8503287 53.8069024 26.7949769 53.8069024"></polygon>
            <path d="M32.2420741,53.3899756 C32.2420741,53.7642439 32.1475648,54.0974634 31.9585463,54.3872195 C31.7687269,54.6785854 31.496412,54.9039512 31.14,55.0649268 C30.7843889,55.2267073 30.3655046,55.3071951 29.8865509,55.3071951 C29.486088,55.3071951 29.1505,55.2790244 28.8789861,55.221878 C28.6082731,55.1655366 28.3255463,55.0673415 28.0324074,54.9264878 L28.0324074,53.472878 C28.3423657,53.6322439 28.663537,53.757 28.999125,53.8463415 C29.3323102,53.9356829 29.6398657,53.9807561 29.9193889,53.9807561 C30.1604676,53.9807561 30.3374722,53.9389024 30.4496019,53.8551951 C30.5617315,53.7706829 30.6177963,53.6628293 30.6177963,53.5300244 C30.6177963,53.4479268 30.5953704,53.3754878 30.5505185,53.3135122 C30.5048657,53.2515366 30.4327824,53.1887561 30.3326667,53.1259756 C30.2325509,53.0623902 29.9658426,52.9328049 29.5325417,52.7372195 C29.1408889,52.5585366 28.8469491,52.3846829 28.6515231,52.2164634 C28.4552963,52.0490488 28.3095278,51.855878 28.2158194,51.638561 C28.1205093,51.420439 28.0732546,51.1636829 28.0732546,50.865878 C28.0732546,50.3097073 28.275088,49.875878 28.6771528,49.5643902 C29.0808194,49.2529024 29.6342593,49.097561 30.3382731,49.097561 C30.9605926,49.097561 31.5949259,49.242439 32.2420741,49.5313902 L31.7446991,50.7910244 C31.1824491,50.5326585 30.697088,50.4030732 30.2894167,50.4030732 C30.0779722,50.4030732 29.9241944,50.4400976 29.8288843,50.5149512 C29.7327731,50.589 29.6847176,50.681561 29.6847176,50.7910244 C29.6847176,50.9101463 29.745588,51.0155854 29.8681296,51.1097561 C29.9898704,51.203122 30.3206528,51.3737561 30.8604769,51.6216585 C31.3786759,51.855878 31.7382917,52.107 31.940125,52.3758293 C32.1411574,52.6438537 32.2420741,52.9827073 32.2420741,53.3899756" id="Fill-34"></path>
            <polygon id="Fill-36" points="32.837963 55.1373659 34.4694491 55.1373659 34.4694491 49.097561 32.837963 49.097561"></polygon>
            <path d="M38.676713,51.6876585 L41.2701111,51.6876585 L41.2701111,54.9433902 C40.5660972,55.1856585 39.7916019,55.3063902 38.9474259,55.3063902 C38.0207546,55.3063902 37.3055278,55.0367561 36.8001435,54.4966829 C36.2939583,53.9574146 36.0416667,53.1871463 36.0416667,52.1874878 C36.0416667,51.2127805 36.3179861,50.4537805 36.8714259,49.9112927 C37.4256667,49.3688049 38.200963,49.097561 39.1989167,49.097561 C39.5769537,49.097561 39.9333657,49.1337805 40.2697546,49.2046098 C40.6053426,49.2762439 40.8976806,49.3671951 41.1475694,49.4774634 L40.633375,50.7580244 C40.2000741,50.543122 39.725125,50.4360732 39.2069259,50.4360732 C38.7327778,50.4360732 38.3659537,50.5906098 38.1072546,50.9004878 C37.8477546,51.2103659 37.7188056,51.6538537 37.7188056,52.2285366 C37.7188056,52.793561 37.8357407,53.2241707 38.0696111,53.519561 C38.3042824,53.8157561 38.6422731,53.9638537 39.0835833,53.9638537 C39.324662,53.9638537 39.5465185,53.9405122 39.7491528,53.8938293 L39.7491528,52.9480976 L38.676713,52.9480976 L38.676713,51.6876585 Z" id="Fill-38"></path>
            <path d="M48.1716898,55.1373659 L46.0420278,55.1373659 L43.8466898,50.8819756 L43.8098472,50.8819756 C43.8619074,51.5516341 43.888338,52.0627317 43.888338,52.4152683 L43.888338,55.1373659 L42.4490741,55.1373659 L42.4490741,49.097561 L44.5707269,49.097561 L46.7572546,53.295 L46.7820833,53.295 C46.7436389,52.6865122 46.7244167,52.1971463 46.7244167,51.8277073 L46.7244167,49.097561 L48.1716898,49.097561 L48.1716898,55.1373659 Z" id="Fill-39"></path>
            <path d="M8.50983796,63.155561 L8.25113889,62.1639512 C8.19026852,61.9434146 8.11738426,61.6592927 8.03088426,61.3083659 C7.94438426,60.9590488 7.88751852,60.7095366 7.86028704,60.5574146 C7.83545833,60.6974634 7.78660185,60.9284634 7.71451852,61.2512195 C7.64163426,61.5731707 7.48064815,62.2082195 7.23156019,63.155561 L8.50983796,63.155561 Z M9.14256944,65.6257317 L8.84702778,64.4940732 L6.89437037,64.4940732 L6.59001852,65.6257317 L4.80555556,65.6257317 L6.76702315,59.5609756 L8.93352778,59.5609756 L10.9190231,65.6257317 L9.14256944,65.6257317 Z" id="Fill-40"></path>
            <path d="M18.2266713,65.6007805 L16.3068519,65.6007805 L15.7309861,62.9688293 C15.7037546,62.8593659 15.6605046,62.6396341 15.602037,62.3120488 C15.5427685,61.9844634 15.4995185,61.7108049 15.472287,61.4902683 C15.450662,61.6697561 15.4146204,61.8910976 15.3657639,62.1575122 C15.3161065,62.423122 15.26725,62.6678049 15.2191944,62.8907561 C15.1711389,63.1137073 14.9717083,64.0167805 14.6209028,65.6007805 L12.7010833,65.6007805 L11.212963,59.5609756 L12.7795741,59.5609756 L13.4331296,62.5889268 C13.5813009,63.2585854 13.6822176,63.7914146 13.7374815,64.1882195 C13.7727222,63.9073171 13.8367963,63.5258049 13.9281019,63.0436829 C14.0202083,62.561561 14.1059074,62.1615366 14.1851991,61.8452195 L14.716213,59.5609756 L16.2203519,59.5609756 L16.7345463,61.8452195 C16.8218472,62.2122439 16.91075,62.6348049 17.0012546,63.1137073 C17.0917593,63.5926098 17.1526296,63.9507805 17.1822639,64.1882195 C17.2183056,63.8823659 17.3152176,63.3519512 17.4746019,62.5969756 L18.1401713,59.5609756 L19.7067824,59.5609756 L18.2266713,65.6007805 Z" id="Fill-41"></path>
            <path d="M23.7274306,63.155561 L23.4687315,62.1639512 C23.4078611,61.9434146 23.3349769,61.6592927 23.2484769,61.3083659 C23.1619769,60.9590488 23.1051111,60.7095366 23.0778796,60.5574146 C23.0530509,60.6974634 23.0041944,60.9284634 22.9321111,61.2512195 C22.8592269,61.5731707 22.6982407,62.2082195 22.4491528,63.155561 L23.7274306,63.155561 Z M24.360162,65.6257317 L24.0646204,64.4940732 L22.111963,64.4940732 L21.8076111,65.6257317 L20.0231481,65.6257317 L21.9846157,59.5609756 L24.1511204,59.5609756 L26.1366157,65.6257317 L24.360162,65.6257317 Z" id="Fill-42"></path>
            <path d="M28.0548333,62.1760244 L28.3583843,62.1760244 C28.9262407,62.1760244 29.2097685,61.9240976 29.2097685,61.4202439 C29.2097685,61.004122 28.9310463,60.7964634 28.3752037,60.7964634 L28.0548333,60.7964634 L28.0548333,62.1760244 Z M28.0548333,63.4034634 L28.0548333,65.6007805 L26.4305556,65.6007805 L26.4305556,59.5609756 L28.4000324,59.5609756 C30.0331204,59.5609756 30.8500648,60.1557805 30.8500648,61.3461951 C30.8500648,62.0456341 30.5096713,62.5865122 29.8304861,62.9688293 L31.5813102,65.6007805 L29.7399815,65.6007805 L28.4657083,63.4034634 L28.0548333,63.4034634 Z" id="Fill-43"></path>
            <path d="M35.453787,62.5108537 C35.453787,61.9570976 35.3448611,61.5466098 35.1262083,61.2793902 C34.9091574,61.0121707 34.5775741,60.8793659 34.1338611,60.8793659 L33.6613148,60.8793659 L33.6613148,64.2622683 L34.0233333,64.2622683 C34.5167037,64.2622683 34.8779213,64.119 35.108588,63.8308537 C35.3384537,63.5435122 35.453787,63.1032439 35.453787,62.5108537 M37.1389352,62.4529024 C37.1389352,63.4614146 36.8634167,64.238122 36.3107778,64.7830244 C35.7589398,65.3287317 34.9820417,65.6007805 33.9816852,65.6007805 L32.037037,65.6007805 L32.037037,59.5609756 L34.1170417,59.5609756 C35.0821574,59.5609756 35.8270185,59.808878 36.351625,60.3046829 C36.8770324,60.8004878 37.1389352,61.5168293 37.1389352,62.4529024" id="Fill-44"></path>
            <path d="M42.6541111,63.8533902 C42.6541111,64.2276585 42.5596019,64.560878 42.3705833,64.8506341 C42.1807639,65.142 41.9084491,65.3673659 41.552037,65.5283415 C41.1964259,65.690122 40.7775417,65.7706098 40.298588,65.7706098 C39.898125,65.7706098 39.562537,65.742439 39.2910231,65.6852927 C39.0203102,65.6289512 38.7375833,65.5307561 38.4444444,65.3899024 L38.4444444,63.9362927 C38.7544028,64.0956585 39.0755741,64.2204146 39.411162,64.3097561 C39.7443472,64.3990976 40.0519028,64.4441707 40.3314259,64.4441707 C40.5725046,64.4441707 40.7495093,64.4023171 40.8616389,64.3186098 C40.9737685,64.2340976 41.0298333,64.1262439 41.0298333,63.993439 C41.0298333,63.9113415 41.0074074,63.8389024 40.9625556,63.7769268 C40.9169028,63.7149512 40.8448194,63.6521707 40.7447037,63.5885854 C40.644588,63.5258049 40.3778796,63.3962195 39.9445787,63.2006341 C39.5529259,63.0219512 39.2589861,62.8480976 39.0635602,62.679878 C38.8673333,62.5116585 38.7215648,62.3192927 38.6278565,62.1019756 C38.5325463,61.8838537 38.4852917,61.6270976 38.4852917,61.3292927 C38.4852917,60.773122 38.687125,60.3392927 39.0891898,60.0278049 C39.4928565,59.7163171 40.0462963,59.5609756 40.7503102,59.5609756 C41.3726296,59.5609756 42.006963,59.7058537 42.6541111,59.9948049 L42.1567361,61.254439 C41.5944861,60.9960732 41.109125,60.8664878 40.7014537,60.8664878 C40.4900093,60.8664878 40.3362315,60.9035122 40.2409213,60.977561 C40.1448102,61.0524146 40.0967546,61.1449756 40.0967546,61.254439 C40.0967546,61.373561 40.157625,61.479 40.2801667,61.5731707 C40.4019074,61.6665366 40.7326898,61.8371707 41.2725139,62.0850732 C41.790713,62.3192927 42.1503287,62.5704146 42.352162,62.8392439 C42.5531944,63.1072683 42.6541111,63.446122 42.6541111,63.8533902" id="Fill-45"></path>
            <path d="M85.8935685,17.4288053 L73.3543219,17.4288053 L73.3543219,14.3731211 L77.5734658,10.1305947 C78.7791849,8.87717368 79.5668904,8.02091053 79.9371644,7.56238421 C80.3074384,7.10443684 80.5653493,6.71075263 80.7114795,6.38133158 C80.8570274,6.05248947 80.9303836,5.70801579 80.9303836,5.34733158 C80.9303836,4.90096316 80.7842534,4.54838421 80.4925753,4.28959474 C80.2014795,4.03080526 79.7916164,3.9017 79.2635685,3.9017 C78.7198014,3.9017 78.1702123,4.05685789 77.6148014,4.36601579 C77.0593904,4.67575263 76.4312055,5.13196316 75.7296644,5.73522632 L73.1656918,2.75017368 C74.055863,1.95875263 74.8039795,1.39254211 75.4112055,1.05154211 C76.0178493,0.711121053 76.6774726,0.450594737 77.3906575,0.270542105 C78.1032603,0.0904894737 78.9049384,0.00017368421 79.7951096,0.00017368421 C80.9140822,0.00017368421 81.9131233,0.195857895 82.7910685,0.587805263 C83.6695959,0.979752632 84.3513425,1.53785789 84.8363082,2.2627 C85.3206918,2.98696316 85.5628836,3.79980526 85.5628836,4.70122632 C85.5628836,5.37512105 85.4778836,5.99748947 85.3084658,6.56948947 C85.1390479,7.14148947 84.8770616,7.70364737 84.523089,8.25596316 C84.1685342,8.80827895 83.6975411,9.39012105 83.1106918,10.0014895 C82.5232603,10.6122789 81.2727123,11.7719105 79.3578836,13.4798053 L79.3578836,13.5973316 L85.8935685,13.5973316 L85.8935685,17.4288053 Z" id="Fill-90"></path>
            <path d="M92.3110685,8.86136842 C92.3110685,10.8043158 92.4327466,12.1405263 92.6772671,12.8688421 C92.9212055,13.5977368 93.3310685,13.9618947 93.906274,13.9618947 C94.4896301,13.9618947 94.9012397,13.5855789 95.1411027,12.8335263 C95.3815479,12.0814737 95.5014795,10.7574211 95.5014795,8.86136842 C95.5014795,6.95721053 95.3798014,5.62389474 95.135863,4.85968421 C94.8913425,4.09605263 94.4814795,3.71394737 93.906274,3.71394737 C93.3310685,3.71394737 92.9212055,4.08215789 92.6772671,4.81857895 C92.4327466,5.555 92.3110685,6.90278947 92.3110685,8.86136842 M100.146205,8.86136842 C100.146205,11.9014211 99.6344589,14.1286316 98.6098014,15.5424211 C97.585726,16.9567895 96.0178836,17.6636842 93.906274,17.6636842 C91.8418219,17.6636842 90.2856233,16.9255263 89.2382603,15.4486316 C88.1903151,13.9717368 87.6663425,11.7757895 87.6663425,8.86136842 C87.6663425,5.80568421 88.1786712,3.56515789 89.2027466,2.13921053 C90.2268219,0.713263158 91.7946644,0 93.906274,0 C95.9625753,0 97.5170274,0.742789474 98.5690479,2.22721053 C99.6204863,3.71163158 100.146205,5.92321053 100.146205,8.86136842" id="Fill-92"></path>
            <path d="M112.129983,17.4288053 L107.390942,17.4288053 L107.390942,8.33238421 C107.390942,7.22775263 107.414229,6.21691053 107.461969,5.30043684 C107.170291,5.65301579 106.807586,6.02122632 106.374435,6.40506842 L104.413031,8.01512105 L101.989949,5.05380526 L107.922483,0.246805263 L112.129983,0.246805263 L112.129983,17.4288053 Z" id="Fill-94"></path>
            <polygon id="Fill-96" points="117.649161 17.4288053 123.581695 4.11301579 116.101113 4.11301579 116.101113 0.270542105 128.569332 0.270542105 128.569332 3.00838421 122.482517 17.4288053"></polygon>
            <path d="M93.1618836,41.4975 L87.6427055,41.4975 L85.9881164,34.0111316 C85.9095205,33.6979211 85.7855137,33.0749737 85.6160959,32.1428684 C85.4466781,31.2101842 85.3226712,30.4309211 85.2434932,29.8039211 C85.1806164,30.3133947 85.0781507,30.9456053 84.9366781,31.7022895 C84.7946233,32.4583947 84.6548973,33.1531316 84.5169178,33.7882368 C84.3789384,34.4227632 83.8060616,36.9927105 82.7971233,41.4975 L77.2779452,41.4975 L73,24.3155 L77.5026712,24.3155 L79.3819863,32.9302368 C79.8075685,34.8338158 80.0986644,36.3500789 80.2564384,37.4784474 C80.3589041,36.6789211 80.5417123,35.5939737 80.8060274,34.2230263 C81.0697603,32.8515 81.3160274,31.7156053 81.5442466,30.8147632 L83.0690068,24.3155 L87.3946918,24.3155 L88.8717123,30.8147632 C89.1238014,31.8568684 89.3799658,33.0593421 89.6402055,34.4227632 C89.899863,35.7856053 90.0733562,36.8045526 90.1601027,37.4784474 C90.2625685,36.6082895 90.5420205,35.1001316 90.9990411,32.9533947 L92.9138699,24.3155 L97.4165411,24.3155 L93.1618836,41.4975 Z" id="Fill-98"></path>
            <path d="M103.928182,32.8831105 C103.928182,36.2051105 105.090236,37.8661105 107.414346,37.8661105 C108.596777,37.8661105 109.472976,37.4625842 110.044106,36.6555316 C110.615236,35.8484789 110.901092,34.5910053 110.901092,32.8831105 C110.901092,31.1671105 110.611161,29.8997947 110.032462,29.0811632 C109.453182,28.2625316 108.588627,27.8532158 107.438216,27.8532158 C105.098387,27.8532158 103.928182,29.5298474 103.928182,32.8831105 M115.81712,32.8831105 C115.81712,35.7743737 115.103935,37.9720579 113.678147,39.4761632 C112.251777,40.9802684 110.164038,41.7323211 107.414346,41.7323211 C104.704243,41.7323211 102.626401,40.9762158 101.180236,39.4645842 C99.7346541,37.9523737 99.0121541,35.7506368 99.0121541,32.8593737 C99.0121541,29.9999526 99.7305788,27.8161632 101.168592,26.3074263 C102.606024,24.7992684 104.696092,24.0454789 107.438216,24.0454789 C110.187908,24.0454789 112.272154,24.7934789 113.690373,26.2900579 C115.108592,27.7866368 115.81712,29.9843211 115.81712,32.8831105" id="Fill-100"></path>
            <polygon id="Fill-102" points="126.560014 41.4975 121.892 41.4975 121.892 28.1116579 117.672856 28.1116579 117.672856 24.3155 130.767514 24.3155 130.767514 28.1116579 126.560014 28.1116579"></polygon>
            <polygon id="Fill-104" points="139.406599 30.6852526 142.38451 24.3156737 147.443175 24.3156737 141.758654 34.7870947 141.758654 41.4976737 137.054545 41.4976737 137.054545 34.9277789 131.370024 24.3156737 136.451976 24.3156737"></polygon>
            <path d="M89.2619555,65.5662526 L83.9907911,65.5662526 L80.5756541,58.9963579 L79.1929486,59.8190421 L79.1929486,65.5662526 L74.5010651,65.5662526 L74.5010651,48.3842526 L79.1929486,48.3842526 L79.1929486,55.8468842 C79.4293185,55.3848842 79.9055514,54.6519368 80.6228116,53.6492 L84.2510308,48.3842526 L89.3562705,48.3842526 L83.9081199,56.0819368 L89.2619555,65.5662526 Z" id="Fill-106"></path>
            <path d="M105.81914,48.3844263 L105.81914,58.7261632 C105.81914,60.9753737 105.178729,62.7162684 103.899072,63.9505842 C102.61825,65.1843211 100.772702,65.8014789 98.3618459,65.8014789 C96.0062979,65.8014789 94.1962637,65.2022684 92.9317432,64.0032684 C91.6666404,62.8042684 91.0343801,61.0813211 91.0343801,58.8321105 L91.0343801,48.3844263 L95.7268459,48.3844263 L95.7268459,58.4679526 C95.7268459,59.6825842 95.9550651,60.5637421 96.4120856,61.1120053 C96.868524,61.6608474 97.5427021,61.9346895 98.4328733,61.9346895 C99.3859212,61.9346895 100.077565,61.6631632 100.50664,61.1177947 C100.936298,60.5735842 101.151127,59.6825842 101.151127,58.4442158 L101.151127,48.3844263 L105.81914,48.3844263 Z" id="Fill-108"></path>
            <path d="M119.268411,56.7757474 C119.268411,55.2004316 118.955192,54.0332737 118.328753,53.2731158 C117.702897,52.5135368 116.751014,52.1331684 115.474849,52.1331684 L114.115432,52.1331684 L114.115432,61.7581684 L115.155808,61.7581684 C116.574027,61.7581684 117.613822,61.3488526 118.275774,60.5302211 C118.937726,59.7115895 119.268411,58.4599053 119.268411,56.7757474 M124.113993,56.6113263 C124.113993,59.4782737 123.319884,61.6875368 121.732247,63.2391158 C120.14461,64.7906947 117.913068,65.5664842 115.037623,65.5664842 L109.447418,65.5664842 L109.447418,48.3844842 L115.427692,48.3844842 C118.200671,48.3844842 120.341973,49.0896421 121.851014,50.4993789 C123.359473,51.9102737 124.113993,53.9470105 124.113993,56.6113263" id="Fill-110"></path>
            <path d="M131.488151,56.9515737 C131.488151,60.2735737 132.650205,61.9345737 134.974315,61.9345737 C136.156747,61.9345737 137.032945,61.5310474 137.604075,60.7245737 C138.175205,59.9175211 138.461062,58.6600474 138.461062,56.9515737 C138.461062,55.2355737 138.17113,53.9688368 137.592432,53.1502053 C137.013151,52.3315737 136.148596,51.9216789 134.998185,51.9216789 C132.658356,51.9216789 131.488151,53.5983105 131.488151,56.9515737 M143.377089,56.9515737 C143.377089,59.8428368 142.663904,62.0405211 141.238116,63.5452053 C139.811747,65.0487316 137.724007,65.8013632 134.974315,65.8013632 C132.264212,65.8013632 130.18637,65.0452579 128.740205,63.5330474 C127.294623,62.0214158 126.572123,59.8191 126.572123,56.9284158 C126.572123,54.0689947 127.290548,51.8846263 128.728562,50.3764684 C130.165993,48.8683105 132.256062,48.1139421 134.998185,48.1139421 C137.747877,48.1139421 139.832123,48.8619421 141.250342,50.3585211 C142.668562,51.8551 143.377089,54.0527842 143.377089,56.9515737" id="Fill-112"></path>
            <path d="M157.795651,60.3483737 C157.795651,61.4136368 157.523767,62.3602158 156.98,63.1863737 C156.436815,64.0131105 155.652603,64.6551632 154.628527,65.1136895 C153.60387,65.5716368 152.402226,65.8014789 151.023596,65.8014789 C149.873185,65.8014789 148.908493,65.7204263 148.128356,65.5606368 C147.348219,65.4002684 146.536644,65.1194789 145.69363,64.7200053 L145.69363,60.5828474 C146.583801,61.0373211 147.510068,61.3922158 148.470685,61.6469526 C149.431884,61.9016895 150.314486,62.0284789 151.118493,62.0284789 C151.811301,62.0284789 152.319555,61.9092158 152.642671,61.6701105 C152.965788,61.4315842 153.127055,61.1241632 153.127055,60.7472684 C153.127055,60.5127947 153.062432,60.3072684 152.932021,60.1306895 C152.802192,59.9541105 152.593185,59.7763737 152.306164,59.5957421 C152.018562,59.4162684 151.252397,59.0480579 150.007671,58.4911105 C148.880548,57.9822158 148.035788,57.4889526 147.472226,57.0101632 C146.909247,56.5325316 146.491233,55.9842684 146.219932,55.3653737 C145.947466,54.7464789 145.811815,54.0141105 145.811815,53.1676895 C145.811815,51.5848474 146.391096,50.3505316 147.549075,49.4653211 C148.707637,48.5801105 150.298767,48.1372158 152.32363,48.1372158 C154.112123,48.1372158 155.93613,48.5488474 157.795651,49.3715316 L156.365205,52.9557947 C154.750205,52.2193737 153.355856,51.8511632 152.181575,51.8511632 C151.574932,51.8511632 151.134212,51.9571105 150.858253,52.1684263 C150.582295,52.3797421 150.444897,52.6425842 150.444897,52.9557947 C150.444897,53.2927421 150.620137,53.5943737 150.970616,53.8606895 C151.321096,54.1275842 152.272397,54.6133211 153.824521,55.3184789 C155.313767,55.9842684 156.34774,56.6986895 156.927021,57.4634789 C157.505719,58.2271105 157.795651,59.1887421 157.795651,60.3483737" id="Fill-114"></path>
        </g>
    </g>
</svg>