<svg width="186" height="55" viewBox="0 0 186 55" xmlns="http://www.w3.org/2000/svg"><title>youryoga</title><g fill="none" fill-rule="evenodd"><path fill="#191919" d="M0 0h186v55H0z"/><path d="M18.361 33.06l-6.558-19.39h2.652l5.232 16.128 5.018-16.128h2.688l-6.38 19.39v9.64h-2.652v-9.64zm14.772 7.67c-1.135-1.553-1.702-3.752-1.702-6.595V22.093c0-2.82.573-4.976 1.72-6.47 1.147-1.493 3.07-2.24 5.77-2.24 2.653 0 4.552.753 5.7 2.259 1.146 1.505 1.72 3.655 1.72 6.45v12.079c0 2.843-.562 5.035-1.685 6.577-1.123 1.54-3.035 2.311-5.734 2.311-2.724 0-4.654-.776-5.789-2.33zm9.444-1.416c.67-1.04 1.004-2.563 1.004-4.57V21.591c0-2.007-.329-3.512-.986-4.516-.657-1.003-1.881-1.505-3.673-1.505-1.816 0-3.059.496-3.728 1.487-.669.992-1.003 2.503-1.003 4.534v13.153c0 2.031.334 3.56 1.003 4.588.67 1.027 1.912 1.541 3.728 1.541 1.768 0 2.986-.52 3.655-1.56zm11.063 1.613c-1.075-1.422-1.613-3.47-1.613-6.147V13.67h2.652v21.182c0 1.911.34 3.393 1.022 4.444.68 1.051 1.929 1.577 3.745 1.577 1.744 0 2.975-.532 3.691-1.595.717-1.063 1.076-2.539 1.076-4.426V13.67h2.616v21.11c0 2.628-.556 4.665-1.667 6.11-1.11 1.446-3.016 2.17-5.716 2.17-2.796 0-4.731-.712-5.806-2.133zM73.089 13.67h6.559c2.604 0 4.456.628 5.555 1.882 1.099 1.254 1.649 3.088 1.649 5.501 0 1.84-.3 3.357-.896 4.552-.598 1.195-1.637 1.947-3.119 2.258l4.445 14.838h-2.653l-4.264-14.265h-4.552v14.265h-2.724V13.67zm6.415 12.76c1.745 0 2.963-.43 3.656-1.29.693-.86 1.04-2.223 1.04-4.087 0-1.887-.33-3.249-.986-4.085-.657-.837-1.87-1.255-3.638-1.255h-3.763V26.43h3.691zm26.856 6.63l-6.558-19.39h2.652l5.233 16.128 5.017-16.128h2.688l-6.38 19.39v9.64h-2.652v-9.64zm14.773 7.67c-1.135-1.553-1.703-3.752-1.703-6.595V22.093c0-2.82.574-4.976 1.72-6.47 1.147-1.493 3.07-2.24 5.77-2.24 2.653 0 4.552.753 5.7 2.259 1.146 1.505 1.72 3.655 1.72 6.45v12.079c0 2.843-.562 5.035-1.685 6.577-1.123 1.54-3.034 2.311-5.734 2.311-2.724 0-4.654-.776-5.788-2.33zm9.443-1.416c.67-1.04 1.004-2.563 1.004-4.57V21.591c0-2.007-.329-3.512-.986-4.516-.657-1.003-1.881-1.505-3.673-1.505-1.816 0-3.059.496-3.728 1.487-.669.992-1.003 2.503-1.003 4.534v13.153c0 2.031.334 3.56 1.003 4.588.67 1.027 1.912 1.541 3.728 1.541 1.768 0 2.986-.52 3.655-1.56zm10.794 1.398c-1.087-1.59-1.63-3.877-1.63-6.864V22.523c0-3.01.537-5.286 1.612-6.828 1.075-1.54 2.987-2.311 5.735-2.311 2.508 0 4.306.699 5.394 2.096 1.087 1.398 1.63 3.483 1.63 6.254v1.004h-2.58v-1.004c0-2.174-.31-3.745-.932-4.713-.621-.967-1.78-1.451-3.477-1.451-1.266 0-2.24.275-2.92.824-.681.55-1.135 1.296-1.362 2.24-.227.944-.34 2.145-.34 3.602v11.935c0 2.27.328 3.954.985 5.053.657 1.1 1.881 1.649 3.673 1.649 1.697 0 2.88-.556 3.548-1.667.67-1.11 1.004-2.813 1.004-5.107v-3.405h-4.3v-2.042h6.809V42.7h-1.756l-.323-3.297c-.406 1.17-1.027 2.078-1.864 2.723-.836.645-1.959.968-3.369.968-2.604 0-4.45-.794-5.537-2.383zm23.625-27.042h2.867l6.164 29.03h-2.688l-1.433-7.776h-6.917l-1.47 7.777h-2.652l6.129-29.03zm4.551 19.282l-3.082-15.662-3.082 15.662h6.164z" fill="#FFF"/></g></svg>